<svg id="Layer_1" data-name="Layer 1" xmlns="http://www.w3.org/2000/svg" viewBox="0 0 611.22 429.9"><defs><style>.cls-1{fill:#cc5fa4;}.cls-2{fill:#961a27;}</style></defs><title>book</title><path class="cls-1" d="M177.55,743.1,612,313.2H.78c0,167.62,67.5,319.47,176.77,429.9Z" transform="translate(-0.78 -313.2)"/><path class="cls-2" d="M237.36,538.1c6.11-3.6,12.34-7.1,18.26-11,3.92-2.59,8.44-7.56,4.7-12.24-1.7-2.12-4.29-3.12-5.3-5.83-.94-2.51-.63-5.37-.11-7.93,1.29-6.25,3.75-12.18,5-18.47s2.21-13.33,1.39-19.86a22.67,22.67,0,0,0-8.44-14.86,62.78,62.78,0,0,0-38.15-14.21,1.52,1.52,0,0,0-1.31.58c-11.77,1.18-21.29,9.91-29.59,17.65A166.09,166.09,0,0,0,159,480.33c-6.24,9.3-11.77,20.64-11.49,32.11.23,9.58,5,18.78,15.32,20,7.09.82,14.73-.32,21.69-1.66a102.29,102.29,0,0,0,18.13-5.37c-1.29,8.63-2.25,17.3-2.73,26a1.78,1.78,0,0,0,1.75,1.74c6.34.48,12.29-1.88,17.8-4.79C225.51,545.15,231.43,541.59,237.36,538.1ZM203.5,549.68c.54-8.88,1.47-17.74,2.89-26.53a1.77,1.77,0,0,0-2.56-2,98.33,98.33,0,0,1-35,7.89c-5.08.19-10.36-.08-13.89-4.24-2.75-3.22-3.8-7.67-4-11.81-.46-10.32,4.35-20.56,9.77-29.06,6.14-9.62,13.89-18.29,22-26.26a139.29,139.29,0,0,1,14.87-13c5-3.68,10.69-6.72,17-7.05a1.73,1.73,0,0,0,1-.38,60,60,0,0,1,31.28,10.55c4.85,3.36,9.21,7.43,10.53,13.4s.37,12.85-.67,18.87-3,11.45-4.54,17.19c-1.21,4.35-2.15,9.36-.22,13.65a13.74,13.74,0,0,0,4.29,4.92c1.12.94,2.21,1.95,1.82,3.55a7.28,7.28,0,0,1-2.49,3.34c-2.18,1.91-4.92,3.28-7.39,4.79q-4.32,2.63-8.68,5.21c-6.26,3.72-12.55,7.4-18.9,11C215.33,546.7,209.7,549.58,203.5,549.68Z" transform="translate(-0.78 -313.2)"/><path class="cls-2" d="M203.58,474.24a1.68,1.68,0,0,0-2.22-.54,15.48,15.48,0,0,0-6.59,6.9,16,16,0,0,0-1.45,5,6.71,6.71,0,0,0,1.13,5.3,5.23,5.23,0,0,0,4.85,1.52,9.06,9.06,0,0,0,4.58-2.62c2.53-2.36,5.17-5.19,5.42-8.83C209.52,477.72,206.83,474.27,203.58,474.24ZM202,486.79a7.83,7.83,0,0,1-2.84,2.07,1.89,1.89,0,0,1-2.13-.38c-.52-.78-.29-2.19-.15-3a12,12,0,0,1,1-3.22,12.42,12.42,0,0,1,3.86-4.63,1.56,1.56,0,0,0,1.39.18,1.12,1.12,0,0,1,1,0,2.59,2.59,0,0,1,.87.64,3.29,3.29,0,0,1,.89,2.38C205.67,483.25,203.56,485.22,202,486.79Z" transform="translate(-0.78 -313.2)"/><path class="cls-2" d="M153,411.32q8.14,7.77,16.88,14.9,9.82,8,20.31,15.2c1.86,1.27,3.61-1.76,1.76-3a290.4,290.4,0,0,1-34.14-27.34c-5.07-4.73-10.3-9.55-14.23-15.31s-5.88-12.24-7.26-19c-1.14-5.58-1.95-11.23-3.28-16.76,4,2.92,8.45,5.14,12.74,7.64a73,73,0,0,1,15.51,12.22c9.36,9.6,16.29,21.28,22.22,33.22,3.43,6.89,6.53,13.93,9.6,21,.89,2.06,3.9.28,3-1.76C185.56,408.09,173.8,381.92,151,366.8c-6.64-4.39-14.41-7.25-20-13.13a1.76,1.76,0,0,0-2.92,1.7c4.33,13.11,3.85,27.75,11,39.89C142.71,401.38,147.85,406.45,153,411.32Z" transform="translate(-0.78 -313.2)"/><path class="cls-2" d="M215.82,425.44c-1.85-14.64,3.94-29.27,10-42.31a45.21,45.21,0,0,1,12.31-16.45,85.83,85.83,0,0,1,8-5.67,41.39,41.39,0,0,1,7-4.17c-4.76,11.68-9.36,23.47-14.7,34.9S226.81,414,217.86,422.86a1.74,1.74,0,0,0,2.46,2.47c9.17-9.06,15.75-20.23,21.17-31.83,5.91-12.65,10.93-25.74,16.25-38.65a1.75,1.75,0,0,0-1.69-2.2c-3.72.31-6.71,2.2-9.79,4.16s-6.17,4-9.08,6.22A47,47,0,0,0,223.5,380c-6.74,13.81-13.14,29.84-11.17,45.48C212.61,427.64,216.1,427.67,215.82,425.44Z" transform="translate(-0.78 -313.2)"/><path class="cls-2" d="M269.16,523.48c-.73-2.11-4.11-1.2-3.36.92q1,2.8,2,5.61c.26.75,1.09,2.16.66,3-.3.56-1.35,1.08-1.83,1.44-2.62,2-5.17,4-7.68,6.06-5.09,4.22-10,8.66-15,13-9.47,8.34-19.27,16.42-30.6,22.09-1.32-3.53-2.75-7.06-3.78-10.65-.59-2.07-.19-3.23,1.78-4.11a20.54,20.54,0,0,1,3.87-1.07,49,49,0,0,0,17.3-8c10.92-7.68,19.69-18,31-25.19,1.9-1.19.15-4.22-1.76-3-9.46,6-17.19,14.14-25.79,21.21a64.33,64.33,0,0,1-13.79,9,40.43,40.43,0,0,1-8.14,2.68c-2.21.49-4.61,1.06-6.35,2.59-2.3,2-2.17,4.8-1.23,7.52,1.37,4,2.85,8,4.27,11.92a1.78,1.78,0,0,0,2.56,1c12.93-6.07,23.87-15.37,34.49-24.75,5.4-4.77,10.76-9.6,16.38-14.1,1.38-1.11,2.77-2.19,4.19-3.25,1.26-.94,2.72-1.78,3.39-3.27s.15-2.85-.34-4.28C270.67,527.74,269.91,525.61,269.16,523.48Z" transform="translate(-0.78 -313.2)"/><path class="cls-2" d="M193.63,567.61c-7.39-4.45-18.06-1.11-21.37,6.91-2,4.79-1,10.68,3.44,13.7a9.21,9.21,0,0,0,6.65,1.44c2.61-.44,4.57-2.35,6.33-4.19,2-2.1,4-4.33,4.93-7.15a8.36,8.36,0,0,0-1.1-7.47A1.76,1.76,0,0,0,193.63,567.61Zm-3.43,9.91a13.37,13.37,0,0,1-3.25,4.7c-1.32,1.42-2.76,3.26-4.67,3.88a5.41,5.41,0,0,1-4.38-.62c-3.34-2-3.77-6.27-2.44-9.61a10.87,10.87,0,0,1,6.49-6,11.88,11.88,0,0,1,8.43.09,1.75,1.75,0,0,0-.66.39,1.79,1.79,0,0,0,0,2.47A4.89,4.89,0,0,1,190.2,577.52Z" transform="translate(-0.78 -313.2)"/><path class="cls-2" d="M155.84,554.14c-1.44-2-3.06-5-5.78-5.32-3.2-.38-3.55,2.92-3.66,5.27a188.89,188.89,0,0,0,.2,21.15q.35,5.18,1,10.34c.27,2.19.29,5.41,2.62,6.55,2.94,1.45,5.47-2.19,7.24-4l8.6-8.6a1.75,1.75,0,0,0-2.47-2.47l-7,7c-1.26,1.25-2.5,2.52-3.76,3.76-.14.14-.93,1.06-1.16,1s-.37-1.47-.41-1.74a150.07,150.07,0,0,1-1.53-20.32q-.1-5,.06-10c0-.89.06-1.79.1-2.69,0-.53-.23-1.53.38-1.45.38,0,1.23,1.46,1.43,1.72.53.71,1.06,1.44,1.58,2.16q6,8.19,11.39,16.79c1.19,1.89,4.21.14,3-1.76Q162.06,562.64,155.84,554.14Z" transform="translate(-0.78 -313.2)"/><path class="cls-2" d="M199.31,574.09a2.27,2.27,0,0,0,.57-.31,1.46,1.46,0,0,0,.37.63,1.76,1.76,0,0,0,1.24.51,1.72,1.72,0,0,0,1.23-.51,1.64,1.64,0,0,0,.51-1.23l-.81-6.58a1.75,1.75,0,0,0-3-1.23,7.2,7.2,0,0,0-2.28,7.5A1.76,1.76,0,0,0,199.31,574.09Zm1.09-2.72c0,.14,0,.1,0,0Z" transform="translate(-0.78 -313.2)"/><path class="cls-2" d="M198.52,575.55a1.75,1.75,0,0,0-2.47,2.47l4.35,4.34a1.75,1.75,0,0,0,2.46,0,1.78,1.78,0,0,0,0-2.47C201.41,578.45,200,577,198.52,575.55Z" transform="translate(-0.78 -313.2)"/><path class="cls-2" d="M307.61,403.15a114,114,0,0,1,6.12,22.68l-6.93-4.42c-2.51-1.59-6.12-5-9.1-2.59-2.34,1.86-3.72,5.65-4.75,8.37a31.92,31.92,0,0,0-1.17,3.83c-2.41-6-4.69-12.06-6.75-18.2-.71-2.12-4.08-1.21-3.36.93q4.17,12.47,9.32,24.58c.74,1.75,3.14.64,3.25-.88a33.35,33.35,0,0,1,1.67-8.22c.8-2.33,1.89-5.41,3.59-7.25,1-1.06,2.51.52,3.51,1.16l4.05,2.58,8.11,5.15c1,.65,2.8-.18,2.62-1.51A117.15,117.15,0,0,0,311,402.22C310.17,400.15,306.8,401.05,307.61,403.15Z" transform="translate(-0.78 -313.2)"/><path class="cls-2" d="M352,411.36c1.89,1.23,3.64-1.79,1.76-3q-6.94-4.5-14.13-8.59a1.75,1.75,0,0,0-2.11,2.74,9.85,9.85,0,0,1,2.08,10.68c-1.14,3-4.17,7.16-7.82,6.93-4.22-.27-3.21-5.53-2.45-8.27a25.66,25.66,0,0,1,2.25-5.45,27.2,27.2,0,0,1,1.57-2.52c.32-.46.66-.9,1-1.33.16-.2.32-.39.49-.58,1.61.47,2.87-2.08,1.24-3.25-2-1.4-3.78.8-4.87,2.2a28.25,28.25,0,0,0-3.42,5.61c-1.65,3.59-3.3,8.3-2.13,12.26,1.25,4.23,5.86,5.77,9.74,4.15s6.81-5.65,8-9.62a13.65,13.65,0,0,0,.17-7.28Q347.79,408.63,352,411.36Z" transform="translate(-0.78 -313.2)"/><path class="cls-2" d="M397.21,395.22q0-7.28,0-14.54c0-1.15,0-2.3,0-3.46a7.4,7.4,0,0,1,0-1.63c.1-.44.1-.41.47-.63a11.41,11.41,0,0,1,3.22-.84c1.1-.23,2.2-.39,3.31-.51a1.79,1.79,0,0,0,1.75-1.74,1.76,1.76,0,0,0-1.75-1.75,31.44,31.44,0,0,0-7.62,1.54c-2.89,1.06-2.89,3.6-2.89,6.26l0,17.3A1.75,1.75,0,0,0,397.21,395.22Z" transform="translate(-0.78 -313.2)"/><path class="cls-2" d="M432.55,385.67c.58,2.17,3.94,1.25,3.37-.92a139.08,139.08,0,0,0-7-19.95,1.77,1.77,0,0,0-2.39-.63,1.79,1.79,0,0,0-.62,2.39A133.26,133.26,0,0,1,432.55,385.67Z" transform="translate(-0.78 -313.2)"/><path class="cls-2" d="M461.55,358.82c-1.39-1.74-3.67-1.88-5.72-2.11a59.16,59.16,0,0,0-7-.34c-2.24,0-2.25,3.51,0,3.49,1.65,0,3.29,0,4.93.15a18.37,18.37,0,0,1,4.43.57c2.07.69.47,4.16-.08,5.45a23.48,23.48,0,0,1-4.49,6.85c-.63.67-4.06,4.14-4.6,1.92a9.43,9.43,0,0,1-.12-2.06c0-1,0-1.95,0-2.92,0-1.95,0-3.91.11-5.86.08-2.24-3.41-2.24-3.49,0s-.11,4.27-.11,6.41c0,1.83-.25,4,.37,5.75A4.15,4.15,0,0,0,449.8,379a7.9,7.9,0,0,0,4.66-2.08,25.36,25.36,0,0,0,6.34-8.49C462.12,365.61,463.77,361.61,461.55,358.82Z" transform="translate(-0.78 -313.2)"/><path class="cls-2" d="M488.31,340.06,484,341a10.52,10.52,0,0,0-3.24,1c-2.41,1.48-2,4.42-2,6.86v17.52a1.75,1.75,0,0,0,3.49,0v-19c0-.66-.24-1.91.29-2.39s2.12-.63,2.89-.8l3.86-.87C491.43,342.93,490.5,339.57,488.31,340.06Z" transform="translate(-0.78 -313.2)"/><path class="cls-2" d="M375.1,390.13a7.2,7.2,0,0,0-5,.48,1.71,1.71,0,0,0-.78,1.94c-2.33,6.26.47,12.52,3.42,18.13,1.05,2,4.06.22,3-1.76-2.39-4.53-5.46-10.27-3.15-15.45,0,0,0,0,0-.06l.08,0h.11a6,6,0,0,1,.85,0l-.13,0,.17,0c.09,0,.2,0,.1,0a2.33,2.33,0,0,1,.36.08,2.91,2.91,0,0,1,.39.12l.22.07.07,0c.21.11.48.29.53.32l.14.1.25.22a3.34,3.34,0,0,1,.32.33,1.71,1.71,0,0,1,.11.14s0-.05-.06-.07h0a1.85,1.85,0,0,0,1,.8,1.82,1.82,0,0,0,1.35-.18,1.76,1.76,0,0,0,.62-2.38A7.21,7.21,0,0,0,375.1,390.13Zm-.48,3.49a.54.54,0,0,1,.22.1Z" transform="translate(-0.78 -313.2)"/><path class="cls-2" d="M376.14,394.76c-.07-.1-.21-.24,0,0Z" transform="translate(-0.78 -313.2)"/><path class="cls-2" d="M373.71,393.39h0l.14,0-.09,0Z" transform="translate(-0.78 -313.2)"/><path class="cls-2" d="M420.87,356.13a1.75,1.75,0,0,0,0-3.49A1.75,1.75,0,0,0,420.87,356.13Z" transform="translate(-0.78 -313.2)"/><path class="cls-2" d="M373.39,460.9c-3.92,2.41-7.93,4.92-12.45,6a17,17,0,0,1-6.66.41c-1.81-.28-4.39-.94-5.43-2.6-2-3.17,1.67-7.85,3.73-10a21.28,21.28,0,0,1,9.92-5.92,1.75,1.75,0,0,0-.92-3.37c-7,1.9-14,7.27-16.19,14.37-1.26,4,.06,7.83,3.94,9.64a18.88,18.88,0,0,0,12.32.92c4.89-1.16,9.27-3.83,13.51-6.44C377.06,462.74,375.31,459.72,373.39,460.9Z" transform="translate(-0.78 -313.2)"/><path class="cls-2" d="M413,440.79l-10.2-4.53c-2-.89-3.79,1.95-1.76,3,2.58,1.36.38,5-.94,6.49-1.74,1.94-4.54,3.65-7.24,2.88-2.06-.58-3.52-2.71-2.44-4.75,1.33-2.52,4.56-2.75,7.05-2.27,2.19.42,3.13-2.95.92-3.37-3.37-.64-7.11-.38-9.68,2.17a6.69,6.69,0,0,0-1.1,8.45,8.1,8.1,0,0,0,8.29,3.26,12.81,12.81,0,0,0,8.23-6,9.83,9.83,0,0,0,1.47-4.86l5.64,2.5a1.8,1.8,0,0,0,2.39-.62A1.76,1.76,0,0,0,413,440.79Z" transform="translate(-0.78 -313.2)"/><path class="cls-2" d="M446.48,403a142.33,142.33,0,0,0-18.61,11.52,49.52,49.52,0,0,1-3.35-5.79,1.76,1.76,0,0,0-2.39-.63,1.78,1.78,0,0,0-.62,2.39,49.46,49.46,0,0,0,3.55,6.1c-3,2.27-5.89,4.62-8.67,7.12-1.68,1.5.79,4,2.46,2.47,2.66-2.38,5.42-4.62,8.25-6.77,1,1.25,2,2.49,3.07,3.65a1.74,1.74,0,0,0,2.46-2.46c-1-1-1.86-2.14-2.73-3.25a139.36,139.36,0,0,1,17.34-10.78,1.56,1.56,0,0,0,1.3-.79C450,404.56,448.35,402,446.48,403Z" transform="translate(-0.78 -313.2)"/><path class="cls-2" d="M473.59,400.92a31.76,31.76,0,0,1-10.81-.93,11.73,11.73,0,0,0-1.14-.35c.22-.26.53-.67.59-.72q.48-.51,1-1a28.88,28.88,0,0,1,4.62-3.54c1.91-1.18.16-4.2-1.76-3a33.3,33.3,0,0,0-4.16,3,16,16,0,0,0-3.46,3.6,3.15,3.15,0,0,0,1,4.5,16,16,0,0,0,5,1.4,37.07,37.07,0,0,0,5.46.6q1.31,0,2.61,0l.63-.05q-.18.24-.39.48a13.29,13.29,0,0,1-1.54,1.46,16.57,16.57,0,0,1-3.57,2.08,43,43,0,0,1-9.26,2.58c-2.2.44-1.27,3.8.93,3.37,5.59-1.12,11.8-2.54,15.81-6.92,1-1.08,2.1-2.42,2.08-4C477.14,401.47,475.33,400.78,473.59,400.92Z" transform="translate(-0.78 -313.2)"/></svg>