<svg id="Layer_1" data-name="Layer 1" xmlns="http://www.w3.org/2000/svg" viewBox="0 0 565.76 394.13"><defs><style>.cls-1{fill:#0fb795;}.cls-2{fill:#f69175;}.cls-3{fill:#0a0006;}</style></defs><title>born</title><polygon class="cls-1" points="154.75 0 0 168.9 412.73 394.13 565.76 218.89 154.75 0"/><path class="cls-2" d="M131.2,398.65c8.55,1.73,14.27-4.59,19-10.81a167.36,167.36,0,0,0,15.74-25c9.1-17.8,14.85-37,19.45-56.41,1.13-4.75-6.19-6.77-7.32-2-3.94,16.64-8.64,33.23-15.85,48.78a165.86,165.86,0,0,1-11.66,21c-2.44,3.74-5,7.44-7.79,10.93-2.22,2.77-5.51,7-9.55,6.2-4.77-1-6.81,6.35-2,7.31Z" transform="translate(-36.37 -211.53)"/><path class="cls-2" d="M183.72,307.86h38.95a3.8,3.8,0,0,0,0-7.59H183.72a3.8,3.8,0,1,0,0,7.59Z" transform="translate(-36.37 -211.53)"/><path class="cls-2" d="M219.4,304.07c-.09,22,5.36,46.59,17.48,65.26,10.43,16.07,30.59,27.51,49.29,18.08,4.37-2.2.53-8.75-3.83-6.55-16.93,8.53-33.82-5.65-41.57-19.83-9.31-17-13.86-37.64-13.78-57,0-4.89-7.57-4.89-7.59,0Z" transform="translate(-36.37 -211.53)"/><path class="cls-2" d="M181.91,307.2A724.42,724.42,0,0,0,184.84,421c.51,4.81,8.1,4.86,7.59,0a724.42,724.42,0,0,1-2.93-113.8c.26-4.88-7.33-4.86-7.59,0Z" transform="translate(-36.37 -211.53)"/><path class="cls-2" d="M216,307.18a810.51,810.51,0,0,0,6.87,112.59c.63,4.77,8.22,4.83,7.59,0a809,809,0,0,1-6.87-112.59c0-4.89-7.54-4.89-7.59,0Z" transform="translate(-36.37 -211.53)"/><path class="cls-2" d="M287.78,435.9a400.21,400.21,0,0,1,.94-64.86q1.57-16.34,4.56-32.49A14.25,14.25,0,0,1,294,335c.78-1.51.23-.95,2.08-1.22,2.31-.34,5,0,7.31.08l17.36.18-3.79-3.79a925.06,925.06,0,0,0-6.61,132.27c.1,4.87,7.69,4.89,7.58,0a926.52,926.52,0,0,1,6.62-132.27c.25-2.06-1.94-3.78-3.8-3.8l-18.28-.19c-4.26,0-10.38-1.29-13.66,2.19s-3.18,10.05-3.92,14.44q-1.52,9.06-2.63,18.2a400.16,400.16,0,0,0-2,74.86c.31,4.85,7.9,4.88,7.59,0Z" transform="translate(-36.37 -211.53)"/><path class="cls-2" d="M181.31,309.22c-.16,15.18,7.43,30.83,15,43.67a139.57,139.57,0,0,0,29.43,35.24c11.37,9.74,25.15,19.16,40.78,18.57,16.87-.63,25.6-13.33,34.84-25.71,10.77-14.41,20.43-30.1,23.57-48.09.84-4.77-6.48-6.82-7.32-2-2.46,14.11-9.06,26.64-17.1,38.35-4.09,5.95-8.48,11.72-13,17.38s-9.33,10.45-16.7,12c-14.37,3-28.08-6.1-38.56-14.86a133.26,133.26,0,0,1-26.61-30.14c-8.14-12.69-16.9-29-16.75-44.4.05-4.88-7.53-4.89-7.58,0Z" transform="translate(-36.37 -211.53)"/><path class="cls-2" d="M288.12,427.12c1.77.08,3.54.22,5.31.43l.81.1.21,0,1.22.19c.88.14,1.75.3,2.62.47a75.83,75.83,0,0,1,10.47,2.89,3.82,3.82,0,0,0,4.67-2.65,3.9,3.9,0,0,0-2.65-4.67,79.69,79.69,0,0,0-22.66-4.38,3.82,3.82,0,0,0-3.8,3.79,3.89,3.89,0,0,0,3.8,3.8Z" transform="translate(-36.37 -211.53)"/><path class="cls-2" d="M288.63,403.47a130.9,130.9,0,0,1,17.15.32,3.8,3.8,0,0,0,3.79-3.79,3.9,3.9,0,0,0-3.79-3.8,130.9,130.9,0,0,0-17.15-.32,3.8,3.8,0,1,0,0,7.59Z" transform="translate(-36.37 -211.53)"/><path class="cls-2" d="M291.22,368.64a25.27,25.27,0,0,1,4.52,0,5,5,0,0,1,.56.06c.43.05.38,0-.16,0a3.89,3.89,0,0,1,.83.14c.74.14,1.48.31,2.21.52s1.44.44,2.14.7c.16.06,1.08.37.15,0a9.41,9.41,0,0,1,1,.47,25.37,25.37,0,0,1,3.87,2.34c1.6,1.18,4.3.32,5.19-1.36a3.91,3.91,0,0,0-1.36-5.19,28.49,28.49,0,0,0-19-5.3,3.87,3.87,0,0,0-3.79,3.8c.09,1.91,1.68,4,3.79,3.79Z" transform="translate(-36.37 -211.53)"/><path class="cls-2" d="M221.59,333.27a92.17,92.17,0,0,0-35.86,2.65c-4.7,1.3-2.7,8.62,2,7.32a86.25,86.25,0,0,1,33.84-2.38c2,.26,3.8-1.93,3.8-3.79,0-2.27-1.76-3.54-3.8-3.8Z" transform="translate(-36.37 -211.53)"/><path class="cls-2" d="M220.06,370.22a159.62,159.62,0,0,0-30.59,4.5c-4.74,1.17-2.73,8.49,2,7.31a149.06,149.06,0,0,1,28.57-4.22,3.8,3.8,0,1,0,0-7.59Z" transform="translate(-36.37 -211.53)"/><path class="cls-3" d="M475.65,434.41c.36-6.24.37-12.76-3.3-18.13-3.42-5-9.36-8.54-14.44-11.66a120,120,0,0,0-39.49-15.46c-13.06-2.58-28.15-4.31-40.72,1.08a42.43,42.43,0,0,0-22.43,23.68c-4.22,10.87-3.46,24.13,3.51,33.73,8.08,11.13,21.74,12.7,34.52,13,14.79.36,30.05-.76,44.35,3.81,6,1.9,14.47,5.49,15.14,12.71.57,6.07-3.41,13.08-6.62,18-7.72,11.71-20.28,20-33.25,24.9-14.92,5.6-35.68,8.59-46.58-6.12-2.87-3.89-9.46-.11-6.55,3.83,16.64,22.46,48.82,15,69.53,2.81,10-5.87,19-13.89,24.86-23.94,5.8-9.86,9.77-22.74.22-31.63-9.4-8.74-24.11-10.7-36.38-11.44-13.88-.83-29.77,1.83-43.06-2.94s-17.21-20.33-13.06-32.8a34.13,34.13,0,0,1,26.87-22.88c15.74-2.39,33.38,1.71,48,7.51a112.89,112.89,0,0,1,21.44,11.38c3.35,2.26,7.06,4.65,8.81,8.42s1.29,8.18,1.06,12.17c-.29,4.88,7.3,4.87,7.59,0Z" transform="translate(-36.37 -211.53)"/><path class="cls-3" d="M404.92,502.17q1.59-27.23,3.71-54.4.5-6.5,1-13c.18-2.16.36-4.33.55-6.49a20.53,20.53,0,0,0,.35-4.05c-.14-1,.46-2.35-1.25-1.36,1.13-.66,5,.2,6.34.26l6.35.27,14.28.59c4.88.21,4.87-7.38,0-7.59l-15.08-.63c-4.2-.17-9.75-1.38-13.85-.32s-4.08,5.3-4.38,8.78q-.68,7.69-1.3,15.41-2.54,31.23-4.35,62.51c-.28,4.88,7.31,4.86,7.59,0Z" transform="translate(-36.37 -211.53)"/><path class="cls-3" d="M405.87,443.84a263.94,263.94,0,0,1,27,.36,3.83,3.83,0,0,0,3.79-3.79,3.88,3.88,0,0,0-3.79-3.8,269.8,269.8,0,0,0-27-.36,3.88,3.88,0,0,0-3.8,3.8,3.84,3.84,0,0,0,3.8,3.79Z" transform="translate(-36.37 -211.53)"/></svg>