<svg id="Layer_1" data-name="Layer 1" xmlns="http://www.w3.org/2000/svg" viewBox="0 0 355.33 355.33"><defs><style>.cls-1{fill:#6d5ba7;}</style></defs><title>circ</title><path class="cls-1" d="M467,350.55A172.67,172.67,0,0,1,161.14,460.42,171.78,171.78,0,0,1,122.21,364a174.49,174.49,0,0,1,4.38-54.51,173.16,173.16,0,0,1,96.59-116.35A170.55,170.55,0,0,1,274.34,179a174.56,174.56,0,0,1,54.54,2.31,172,172,0,0,1,49.48,18.33A172.13,172.13,0,0,1,467,350.55c0,3.22,5,3.22,5,0a177.16,177.16,0,1,0-18.57,79.16,176.41,176.41,0,0,0,16.46-51.79A181.71,181.71,0,0,0,472,350.55C472,347.33,467,347.33,467,350.55Z" transform="translate(-116.69 -172.88)"/></svg>