<svg id="Layer_1" data-name="Layer 1" xmlns="http://www.w3.org/2000/svg" viewBox="0 0 596.4 419.47"><defs><style>.cls-1{fill:#9fd4a9;}.cls-2{fill:#5aba4b;}</style></defs><title>class</title><path class="cls-1" d="M429,171,5.1,590.43H601.5C601.5,426.87,535.64,278.7,429,171Z" transform="translate(-5.1 -170.96)"/><path class="cls-2" d="M207.63,547.61a146.66,146.66,0,0,0-30.41-10.41c.45-.81.88-1.63,1.27-2.47,2.76-5.88,4.92-12,5.13-18.53a25.49,25.49,0,0,0-6.34-17.78c-3.79-4.36-10.08-7.53-15.95-7a23.64,23.64,0,0,0-16.36,9,39,39,0,0,0-7.37,14.49,66.93,66.93,0,0,0-2,15c-.18,5.51.14,11,.37,16.53l.81,19.9c.19,4.44,3.79,8.72,8.52,8.51,4.45-.2,8.7-3.75,8.51-8.51l-.61-14.73a16,16,0,0,0,3.92.06c.73-.08,1.45-.19,2.17-.33,1.25.12,2.51.26,3.76.42A134.73,134.73,0,0,1,195,560.5c1.36.59,2.71,1.18,4,1.81a9.14,9.14,0,0,0,6.56.85,8.65,8.65,0,0,0,5.09-3.91C212.67,555.48,211.93,549.62,207.63,547.61Zm-54.57-23.43a41.5,41.5,0,0,1,2.16-8.35,28.52,28.52,0,0,1,2.34-4,22.38,22.38,0,0,1,2.37-2.4,15.83,15.83,0,0,1,1.36-.82l.74-.21h.33l.55.16c.35.18.69.38,1,.59a15.76,15.76,0,0,1,1.21,1.24,14.69,14.69,0,0,1,.87,1.48,16.76,16.76,0,0,1,.51,2,22.46,22.46,0,0,1,0,3.48,35.29,35.29,0,0,1-6,14.47,20.24,20.24,0,0,1-1.66,1.68,13.67,13.67,0,0,1-1.21.76c-1.68-.14-3.37-.24-5.06-.32A85.71,85.71,0,0,1,153.06,524.18Z" transform="translate(-5.1 -170.96)"/><path class="cls-2" d="M260.09,519a24,24,0,0,1-2.49,1.36,26,26,0,0,1-3.89,1,28.76,28.76,0,0,1-5.33,0,33.39,33.39,0,0,1-6-1.64,34.37,34.37,0,0,1-5.65-3.31,43.81,43.81,0,0,1-3.54-3.26,51.93,51.93,0,0,0,14.23-45.81A44.3,44.3,0,0,0,244,456.76,23,23,0,0,0,235,446.24c-8.35-4.89-18.73-2.31-25.6,3.87-6.69,6-8.93,15.77-8.7,24.43a77.82,77.82,0,0,0,5.48,25.63,94,94,0,0,0,4.32,9.63,8.5,8.5,0,0,0,0,8.52,8.66,8.66,0,0,0,8.2,4.09,45.8,45.8,0,0,0,19.5,13.86c7.49,2.76,16.64,3.23,24.19.39a33.79,33.79,0,0,0,6.31-3c3.76-2.38,5.61-7.69,3.05-11.65C269.31,518.25,264.11,516.41,260.09,519Zm-29.06-38a46,46,0,0,1-2.53,9.23,44.9,44.9,0,0,1-4.63,7.93l-.2.24c-.16-.35-.31-.7-.46-1.05A81,81,0,0,1,218,478.8a44,44,0,0,1-.16-8.89,25.88,25.88,0,0,1,1.16-4.44,20.66,20.66,0,0,1,1.17-2,15.58,15.58,0,0,1,1.28-1.29,17.57,17.57,0,0,1,1.72-1c.51-.16,1-.31,1.54-.42h1l.51.14.36.2c.34.32.68.66,1,1a22.66,22.66,0,0,1,1.5,2.68,38.31,38.31,0,0,1,2,7.44A42.65,42.65,0,0,1,231,480.93Z" transform="translate(-5.1 -170.96)"/><path class="cls-2" d="M322.37,497.46c-.2-4.39-3.75-8.79-8.51-8.51a83.47,83.47,0,0,1-13.51-.12,34.59,34.59,0,0,1-6.79-1.76,23,23,0,0,1-2.89-1.66,20.66,20.66,0,0,1-2.49-2.46,25.69,25.69,0,0,1-1.57-2.75A34.41,34.41,0,0,1,285,474a87.26,87.26,0,0,1-.31-12.1c.13-4,.32-8.09.8-12.1a45.61,45.61,0,0,1,2.22-8.71A28.62,28.62,0,0,1,290,437c.34-.41.67-.82,1-1.21,3.05-3.24,3.46-8.86,0-12-3.31-3-8.78-3.47-12,0-10.67,11.36-11.44,28-11.42,42.79,0,7.82,1,15.73,4.58,22.76,3.75,7.29,10.62,12.24,18.3,14.71,7.46,2.4,15.65,2.42,23.41,2C318.29,505.71,322.58,502.25,322.37,497.46Z" transform="translate(-5.1 -170.96)"/><path class="cls-2" d="M321.51,451.42a55.9,55.9,0,0,0,10,13.53,48.46,48.46,0,0,0,17.81,11.38,31.85,31.85,0,0,0,10.13,1.83,28.59,28.59,0,0,0,12-2.68c1.82-.79,3.41-3.28,3.91-5.09a8.69,8.69,0,0,0-.86-6.56,8.56,8.56,0,0,0-5.09-3.91l-2.26-.31a8.56,8.56,0,0,0-3.64.84,20.22,20.22,0,0,1-2.28.62,22.76,22.76,0,0,1-3.09,0,29.1,29.1,0,0,1-4.75-1.32,39,39,0,0,1-6.56-3.88,42.83,42.83,0,0,1-3.25-2.92,46.21,46.21,0,0,0,15.58-26.2c.74-3.93,1.21-7.82.39-11.77a15.5,15.5,0,0,0-7.09-9.53,21.17,21.17,0,0,0-8-2.88,35.84,35.84,0,0,0-10.44-.38,17.44,17.44,0,0,0-10.95,5.32,28.7,28.7,0,0,0-5.52,9.93A36.38,36.38,0,0,0,316,433.78,51.76,51.76,0,0,0,321.51,451.42Zm19-32.33a20.1,20.1,0,0,1,2.52.61c0,.51-.05,1-.1,1.53a38.39,38.39,0,0,1-2.06,7.61,40.39,40.39,0,0,1-4,6.79c-.81,1-1.66,1.93-2.56,2.83a39.63,39.63,0,0,1-1.47-5.89,32.42,32.42,0,0,1,0-6.23,28.5,28.5,0,0,1,1.39-5.06,19.66,19.66,0,0,1,1.05-1.91c.06-.06.12-.14.19-.2.23-.07.47-.13.71-.18A26.86,26.86,0,0,1,340.53,419.09Z" transform="translate(-5.1 -170.96)"/><path class="cls-2" d="M409.22,386.44a66.42,66.42,0,0,1-14-3.37,23.38,23.38,0,0,1-2.85-1.6,16.83,16.83,0,0,1-1.41-1.39,13.3,13.3,0,0,1-.7-1.22c-.17-.52-.31-1.06-.43-1.6a20.71,20.71,0,0,1,0-2.84,30,30,0,0,1,1.36-4.91,42.74,42.74,0,0,1,4.32-7.24,42.26,42.26,0,0,1,17.1-13.2c1.18-.45,2.36-.88,3.57-1.26,4.25-1.31,7.39-6,5.94-10.47-1.38-4.27-5.91-7.35-10.47-5.94-16,5-30,16.82-36.45,32.47-3.3,8.07-3.78,18.44,1.66,25.74a26.48,26.48,0,0,0,10.87,8.67,62.65,62.65,0,0,0,12.57,3.81,112.81,112.81,0,0,0,16.48,2.06c3.4.17,6.8.19,10.18.56a26.51,26.51,0,0,1,4.21,1.07c.38.2.76.41,1.13.64l.45.45.26.43c0,.12.08.23.11.35,0,.28,0,.56,0,.84a14.1,14.1,0,0,1-.4,1.45,17.94,17.94,0,0,1-1,1.7,19.34,19.34,0,0,1-1.71,1.68,29.19,29.19,0,0,1-4.26,2.39c-8.08,3.11-17,4.17-24.25,9.21a9.2,9.2,0,0,0-3.91,5.09,8.69,8.69,0,0,0,.86,6.56c2.34,3.63,7.74,5.77,11.65,3.05a28.69,28.69,0,0,1,4.25-2.41c5.26-2,10.86-3.09,16.13-5.16,6.9-2.71,13.69-6.78,17.07-13.71A22,22,0,0,0,450.14,407a19.8,19.8,0,0,0-4.83-11.58c-4.31-5.07-11-6.76-17.26-7.58S415.49,387.2,409.22,386.44Z" transform="translate(-5.1 -170.96)"/><path class="cls-2" d="M475.28,360.78c8.4.25,16.75-2.32,25.13-1.55a22.73,22.73,0,0,1,3,.78c.48.25,1,.52,1.42.82l.46.47c.09.15.18.32.27.48.11.35.2.71.28,1.07a17.67,17.67,0,0,1,0,2.52,33.51,33.51,0,0,1-1.71,6.12,38.5,38.5,0,0,1-3.72,6.35,39.46,39.46,0,0,1-5.25,5.25,37.58,37.58,0,0,1-6.31,3.69c-.75.28-1.5.55-2.27.79-4.25,1.3-7.39,6-6,10.47,1.39,4.28,5.92,7.34,10.47,5.94a46.14,46.14,0,0,0,30-29.49A32.32,32.32,0,0,0,522.94,363a21.46,21.46,0,0,0-5.27-13.42c-5-5.75-13.49-7.6-20.78-7.49-8,.13-15.89,2.26-23.89,1.53a28.18,28.18,0,0,1-4.87-1.29,19.05,19.05,0,0,1-2.24-1.28,16.92,16.92,0,0,1-1.64-1.64,19.26,19.26,0,0,1-1-1.77,26.75,26.75,0,0,1-1.1-4.13,34.5,34.5,0,0,1,0-6.74,30.83,30.83,0,0,1,1.42-5.27,26.43,26.43,0,0,1,2-3.49,22.64,22.64,0,0,1,2.19-2.19,22.4,22.4,0,0,1,2.84-1.66,22.13,22.13,0,0,1,2.79-.77,19.1,19.1,0,0,1,2.27,0c.39.08.77.17,1.15.28,4.29,1.18,9.45-1.47,10.47-5.95a8.67,8.67,0,0,0-5.94-10.47c-9.05-2.5-18.24.42-25.3,6.25-6.85,5.65-10,14.46-10.95,23-.95,8.86,1.23,18.49,7.29,25.19C458.11,358,467,360.53,475.28,360.78Z" transform="translate(-5.1 -170.96)"/><path class="cls-2" d="M507.34,468.7q2.27-1,4.56-2c1.82-.79,3.41-3.27,3.91-5.09A8.73,8.73,0,0,0,515,455a8.59,8.59,0,0,0-5.09-3.91l-2.26-.31a8.54,8.54,0,0,0-4.3,1.17c-19.75,8.53-38.31,19.5-56.51,30.9s-36.18,23.35-54.93,33.94a314.91,314.91,0,0,1-30.74,15.4,194.47,194.47,0,0,1-39,11.86,8.52,8.52,0,0,0-2,15.56,9.6,9.6,0,0,0,6.56.86A192.14,192.14,0,0,0,364.74,549a328.72,328.72,0,0,0,37.46-18.48c11.74-6.71,23.19-13.92,34.6-21.17s23-14.71,34.77-21.69A371.65,371.65,0,0,1,507.34,468.7Z" transform="translate(-5.1 -170.96)"/><path class="cls-2" d="M530.43,493.63a8.51,8.51,0,0,0-6-2.49,9.61,9.61,0,0,0-6,2.49c-1.77,1.46-3.57,2.89-5.38,4.31a228.93,228.93,0,0,1-38,23.55c-3.6,1.77-7.25,3.43-10.94,5q-9.27,3.86-18.85,6.89c-4.24,1.34-7.4,6-5.95,10.47,1.38,4.26,5.93,7.39,10.47,5.95a236.88,236.88,0,0,0,63.78-31.24c5.82-4.06,11.46-8.38,16.92-12.9a8.55,8.55,0,0,0,2.5-6A8.65,8.65,0,0,0,530.43,493.63Z" transform="translate(-5.1 -170.96)"/><path class="cls-2" d="M348.81,340c1.63-1.49,3.32-2.9,5-4.27,8.14-6.13,17.08-11.05,26-15.94,9.79-5.37,19.42-10.86,28.26-17.72,4.31-3.33,8.07-7.28,12.29-10.7a26,26,0,0,1,3.52-2.16c.52-.17,1-.32,1.59-.44.14,0,.27,0,.41,0,4.44-.15,8.72-3.82,8.51-8.52-.2-4.49-3.74-8.66-8.51-8.51-7.1.23-12.87,3.64-18.15,8.1-3.75,3.16-7.19,6.62-11,9.67-14.48,10.82-31.35,17.79-46.31,27.85a117.06,117.06,0,0,0-13.66,10.63,8.59,8.59,0,0,0,0,12A8.71,8.71,0,0,0,348.81,340Z" transform="translate(-5.1 -170.96)"/><path class="cls-2" d="M401.34,260.19c4.45,0,8.71-3.92,8.51-8.52a8.66,8.66,0,0,0-8.51-8.51c-4.46,0-8.72,3.92-8.52,8.51A8.67,8.67,0,0,0,401.34,260.19Z" transform="translate(-5.1 -170.96)"/></svg>