<svg id="Layer_1" data-name="Layer 1" xmlns="http://www.w3.org/2000/svg" viewBox="0 0 497.46 312.58"><defs><style>.cls-1{fill:#f3e4d7;}.cls-2{fill:#ffc856;}.cls-3{fill:#6a9ad1;}.cls-4{fill:#82cbac;}.cls-5{fill:#43b3e6;}.cls-6{fill:#e63785;}.cls-7{fill:#fadb01;}</style></defs><title>hellp</title><path class="cls-1" d="M74.75,295.32q-.57,26.48,1.39,52.89c.38,5.1,8.38,5.15,8,0q-2-26.4-1.39-52.89H92.3c5.15,0,5.16-8,0-8H59.48c-5.15,0-5.16,8,0,8Z" transform="translate(-55.61 -280.9)"/><path class="cls-1" d="M116.66,347.78q-.22-14.64-.27-29.3a3.6,3.6,0,0,0,3.48,2.23H135.4a209.83,209.83,0,0,0-1.26,21.4c0,5.15,8,5.16,8,0-.14-19,4.53-37.87,2.31-56.9-.59-5-8.6-5.11-8,0,1.07,9.2.53,18.35-.29,27.5H119.87a3.62,3.62,0,0,0-3.5,2.25q0-15.09.11-30.2c0-5.15-8-5.15-8,0q-.3,31.51.18,63C108.74,352.93,116.74,352.94,116.66,347.78Z" transform="translate(-55.61 -280.9)"/><path class="cls-1" d="M196.9,336.93l-18.11.18q1-22.41.2-44.85,6.31.21,12.66,0c5.13-.19,5.15-8.2,0-8q-7.38.28-14.72-.06a4.51,4.51,0,0,0-4.13-.24q-5.46-.37-10.9-1.09c-5.09-.68-5,7.33,0,8,3,.4,6,.71,9.07.95q.85,22.69-.19,45.39l-12.39.13c-5.15.05-5.16,8.05,0,8l12-.12c0,.13,0,.27,0,.41-.32,5.14,7.68,5.12,8,0,0-.17,0-.33,0-.49l18.54-.19C202,344.87,202.05,336.87,196.9,336.93Z" transform="translate(-55.61 -280.9)"/><path class="cls-1" d="M221.46,344.7c8.32,2.52,18.64-2.17,20.83-10.93,2.34-9.37-6.22-15.41-13-19.8-4.59-3-9.27-7.71-6.27-13.66,1.08-2.16,4.32-5.31,7.06-3.9,2.9,1.48,2.76,6.44,2.89,9.14.23,5.13,8.23,5.16,8,0-.36-7.86-3.32-18.52-13.38-17.44-8.52.92-14.25,9.77-13.32,17.9,1.19,10.33,10.06,12.8,16.77,18.82,2,1.84,3.86,4,3.37,6.89s-3.28,4.78-5.94,5.42c-5.47,1.34-10.83-3.11-9.66-8.84,1-5-6.68-7.18-7.71-2.13C209.52,334,213.54,342.3,221.46,344.7Z" transform="translate(-55.61 -280.9)"/><path class="cls-2" d="M344.83,281.16a174.64,174.64,0,0,0-36,3.87c-5,1.07-2.9,8.78,2.13,7.71q6.4-1.37,12.87-2.2-.6,23.85.54,47.67l-15.39.25c-5.15.09-5.16,8.09,0,8l31.51-.51c5.14-.09,5.16-8.09,0-8l-8.13.13q-1.14-24.18-.51-48.38,6.48-.52,13-.54C350,289.14,350,281.14,344.83,281.16Z" transform="translate(-55.61 -280.9)"/><path class="cls-2" d="M378.23,346a16.31,16.31,0,0,0,13.69-19.11,15.61,15.61,0,0,0-6-10.1c-3.93-2.83-9.1-2.57-13-5.1S369,296.47,374.65,296c5.36-.46,12.09,5,14,9.59,2,4.73,8.9.66,6.91-4-3.29-7.77-13.9-14.3-22.39-13.48-9.71.95-12,13.64-10.6,21.5a13,13,0,0,0,7.41,9.63c3.84,1.9,9.49,1.77,12.37,5.21A8.59,8.59,0,0,1,381,336.47c-5.23,3.94-12.07.44-11.3-6.14.59-5.11-7.41-5.06-8,0C360.61,339.72,369.08,347.29,378.23,346Z" transform="translate(-55.61 -280.9)"/><path class="cls-3" d="M489.82,288.75c-5.19,3.53-8,9.91-10.35,16.18l-9.9-18.54c-2.07-3.87-7-1.55-7.46,2a311,311,0,0,0-1.94,58.91c.32,5.12,8.32,5.15,8,0a310.79,310.79,0,0,1,.53-45.57l7.95,14.88c1.79,3.36,6.09,2,7.31-1l3.9-9.37.05,44.54c0,5.15,8,5.16,8,0q0-29.31-.07-58.64C495.84,289.33,492.38,287,489.82,288.75Z" transform="translate(-55.61 -280.9)"/><path class="cls-3" d="M549.21,283.59l-35.89-.32A3.81,3.81,0,0,0,511,284a3.86,3.86,0,0,0-3.76,3.83c-.47,15.53-.77,32.62,3.2,47.77,1.29,4.89,3.36,11.76,9.32,12.22,3.31.25,7.17-1,10.42-1.61l13-2.38c5.06-.92,2.92-8.64-2.12-7.72-6,1.11-12.51,3.1-18.63,3.4-3.25.16-3.6-3.34-4.31-6a61.78,61.78,0,0,1-1.52-8.66c-.15-1.37-.29-2.73-.42-4.09H526c5.15,0,5.16-8,0-8H515.55c-.43-7.13-.56-14.28-.43-21.43l34.09.31C554.36,291.64,554.37,283.64,549.21,283.59Z" transform="translate(-55.61 -280.9)"/><path class="cls-4" d="M79.28,408.63q4.75,0,9.52.09c5.15.12,5.15-7.88,0-8q-12-.29-24.08.19c-5.13.2-5.16,8.2,0,8,2.18-.09,4.37-.15,6.56-.2a373.46,373.46,0,0,0,1.5,48.7l-11.12-.21c-5.15-.1-5.15,7.9,0,8l27.14.51c5.15.1,5.15-7.9,0-8l-8-.15A373.53,373.53,0,0,1,79.28,408.63Z" transform="translate(-55.61 -280.9)"/><path class="cls-5" d="M190.3,428c-.16-1.26-.32-2.51-.51-3.77-1.18-8-2.74-27.65-14.13-28.44-10.38-.72-13.84,18.23-14.76,25.5-1.83,14.4.79,28.89-.45,43.32-.45,5.13,7.56,5.1,8,0,.83-9.62-.06-19.2-.22-28.82h14.92a174.21,174.21,0,0,1-.09,29.78c-1.3,2.37-.19,6.11,3.34,6.11a3.63,3.63,0,0,0,3.33-1.89,4.05,4.05,0,0,0,1.19-2.55,177.35,177.35,0,0,0,.16-32C193.7,433.64,193.45,429,190.3,428Zm-20.49-11.39c.5-2.14,3.05-12.71,5.94-12.21s4.2,10.35,4.66,12.55q1.11,5.38,1.85,10.84H168.32A62,62,0,0,1,169.81,416.63Z" transform="translate(-55.61 -280.9)"/><path class="cls-5" d="M230.56,423.73q-6.17-10.25-11.39-21c-1.79-3.68-7.46-1.76-7.46,2v58.59c0,5.15,8,5.16,8,0q0-21.15,0-42.31,4.11,7.31,8.68,14.36c1.75,2.7,6.55,2.59,7.31-.95A48.37,48.37,0,0,1,240,422.23,435.33,435.33,0,0,0,242.25,469c.52,5.07,8.53,5.12,8,0a434.49,434.49,0,0,1-2-59.71c.12-3.4-4.5-5.35-6.83-2.83A55,55,0,0,0,230.56,423.73Z" transform="translate(-55.61 -280.9)"/><path class="cls-6" d="M338.57,409.46a4.43,4.43,0,0,0-1.84-.36A3.89,3.89,0,0,0,333,406c-5.2-.25-14.07-1.29-17.74,3.41-2,2.63-2.18,6.45-2.54,9.62a114.32,114.32,0,0,0-.54,12.55c0,11.49-.31,28.92,11.16,35.75a12.56,12.56,0,0,0,14.84-1.54c5.42-4.7,6.62-12.25,7.5-19a88.2,88.2,0,0,0,0-23.07C345,418.36,344.14,411.88,338.57,409.46Zm-.36,32.59c-.39,4.87-.83,10.91-3.33,15.26-2.84,4.94-7.43,4.35-10.38,0-4.89-7.29-4.34-17.37-4.31-25.72,0-4.74-.11-9.68.78-14.35.63-3.29,1.23-3,4.52-3.24a63,63,0,0,1,7,0,3.18,3.18,0,0,0,2,2.42c3.74,1.63,3.48,9.4,3.72,12.82A84.93,84.93,0,0,1,338.21,442.05Z" transform="translate(-55.61 -280.9)"/><path class="cls-6" d="M398.37,403.81c-4.89-1.59-9.62,0-14.52.77a77.34,77.34,0,0,1-19.29.23c-5.12-.53-5.08,7.48,0,8a80.77,80.77,0,0,0,16.67.1c2.39-.25,5.06-1,7.7-1.45-4.55,6-8.4,12.56-12.36,19q-9.31,15.12-18.62,30.26c-1.73,2.82.6,5.7,3.46,6a169.22,169.22,0,0,0,24.55,1c5.14-.17,5.16-8.17,0-8a170.07,170.07,0,0,1-17.78-.36l14.29-23.23c5.43-8.83,10.51-18.06,17.67-25.63A4.05,4.05,0,0,0,398.37,403.81Z" transform="translate(-55.61 -280.9)"/><path class="cls-7" d="M88.74,525.91v27.74A212.61,212.61,0,0,0,65.6,553h0q.14-13.77,1.22-27.51c.42-5.13-7.59-5.1-8,0a388.47,388.47,0,0,0-.12,60.83c.39,5.11,8.4,5.15,8,0q-1-12.65-1.09-25.32h0a212.61,212.61,0,0,1,23.14.65v25.53c0,5.15,8,5.15,8,0V525.91C96.74,520.76,88.74,520.75,88.74,525.91Z" transform="translate(-55.61 -280.9)"/><path class="cls-7" d="M151.1,526.14c-11.69-3-24.34-2.9-36.39-3.61-2.34-1.21-6-.08-6.08,3.38-.51,18.92-1,37.91,1.46,56.72.37,2.88.33,7,2.72,9.13,2.64,2.38,6.29,1.68,9.49,1.39,9.07-.81,18.11-1.89,27.13-3.15,5.08-.7,2.92-8.41-2.12-7.71q-7.83,1.1-15.68,1.94c-3.56.38-9.17,1.9-13.16,1.3-.69-2.11-.63-4.78-.85-6.79q-.44-3.88-.7-7.78c-.33-4.49-.52-9-.61-13.48h15.38c5.15,0,5.15-8,0-8H116.22c0-6.29.13-12.57.29-18.86,10.79.56,22.08.56,32.47,3.23C154,535.14,156.09,527.43,151.1,526.14Z" transform="translate(-55.61 -280.9)"/><path class="cls-7" d="M194.24,580.19l-14,.71c-3.85.19-8.34,1-12.35.82-.07-1.49.18-3.44.18-4.39v-7.92q0-6.92,0-13.84,0-14.84,0-29.66c0-5.15-8-5.16-8,0q0,26.21,0,52.4c0,7.45.5,11.58,9,11.16l25.22-1.28C199.37,587.93,199.4,579.93,194.24,580.19Z" transform="translate(-55.61 -280.9)"/><path class="cls-7" d="M246.31,579.31c-4.4,1.9-9.38,2.33-14.06,3.09l-6.72,1.11a48.46,48.46,0,0,1-6.42,1.15c-.15-1.62.17-3.66.17-4.94V525c0-5.15-8-5.16-8,0v57.62c0,3.21-.28,7,2.77,9.07,2.83,1.9,6.73.63,9.76.13,8.83-1.45,18.28-2.07,26.54-5.63C255.06,584.19,251,577.3,246.31,579.31Z" transform="translate(-55.61 -280.9)"/><path class="cls-7" d="M286.83,524.73a3.32,3.32,0,0,0-3.24-.5c-13.58-1.2-22.24,10.6-23.86,23.19-1.59,12.38-1.55,31.07,10.78,38.28a14.39,14.39,0,0,0,16.78-1.6c5.56-4.77,7.22-12.15,8.26-19.07,1.19-8,2.32-16.73,1.78-24.8C296.83,532.93,292.52,528.73,286.83,524.73Zm1.45,34.5c-.7,6.45-4.23,27.61-15.13,18.57-6.79-5.64-6.18-17.51-5.84-25.47.35-8.25,4.36-21.78,15.27-20.26a4.94,4.94,0,0,0,.85,0c4.09,3,6.05,5.86,5.92,11.26S288.85,554,288.28,559.23Z" transform="translate(-55.61 -280.9)"/></svg>