<?xml version="1.0" encoding="utf-8"?>
<!-- Generator: Adobe Illustrator 23.1.1, SVG Export Plug-In . SVG Version: 6.00 Build 0)  -->
<svg version="1.1" id="Layer_1" xmlns="http://www.w3.org/2000/svg" xmlns:xlink="http://www.w3.org/1999/xlink" x="0px" y="0px"
	 viewBox="0 0 612 792" style="enable-background:new 0 0 612 792;" xml:space="preserve">
<style type="text/css">
	.st0{fill:#4757A6;}
	.st1{fill:#D3AFD3;}
</style>
<polygon class="st0" points="612,226.72 306,558.43 0,226.72 "/>
<g>
	<path class="st1" d="M111.56,239.06c-13.71,1.18-30.5-3.06-40.99,8.58c-2.34,2.6,1.5,6.46,3.85,3.85c5.43-6.03,13.2-7,21.12-7.01
		c-0.75,0.59-1.22,1.52-0.95,2.71c2.72,11.65,3.53,23.64,3.8,35.58c0.11,4.87,0.09,10.8-4.02,14.2c-4.54,3.76-9.93-0.39-13.69-3.27
		c-2.78-2.13-5.49,2.6-2.75,4.7c4.67,3.58,10.47,7.14,16.51,4.76c5.58-2.2,8.39-7.92,9.12-13.57c0.9-6.97,0.09-14.42-0.44-21.41
		c-0.57-7.55-1.57-15.06-3.3-22.44c-0.12-0.53-0.38-0.91-0.68-1.22c4.3,0.11,8.55,0.32,12.4-0.02
		C115.03,244.2,115.06,238.75,111.56,239.06z"/>
	<path class="st1" d="M128.86,272.73c1.04,0,2.03-0.67,2.47-1.6c1.48,4.62,2.52,9.38,2.99,14.21c0.14,1.46,1.15,2.72,2.72,2.72
		c1.36,0,2.87-1.25,2.72-2.72c-1.01-10.23-3.66-21.57-10.1-29.84c-2.36-3.02-7.98-8.76-11.66-4.21c-1.58,1.95-1.59,5.5-1.95,7.91
		c-0.43,2.89-0.79,5.8-1.06,8.71c-0.61,6.57-0.75,13.16-0.47,19.75c0.15,3.49,5.59,3.51,5.44,0c-0.21-4.98-0.12-9.96,0.17-14.93
		C123.04,272.73,125.95,272.73,128.86,272.73z M121.35,260.31c0.23-1.55,0.49-3.09,0.78-4.63c0-0.03,0.01-0.05,0.01-0.08
		c0.2,0.12,0.39,0.23,0.46,0.29c3.63,2.97,5.89,7.43,7.54,11.76c-0.38-0.22-0.8-0.37-1.28-0.37c-2.78,0-5.57,0-8.35,0
		C120.73,264.95,121,262.63,121.35,260.31z"/>
	<path class="st1" d="M153.22,269.08c4.43,5.81,8.09,12.19,11.72,18.53c1.43,2.49,4.85,1.19,5.07-1.37
		c0.53-6.23,1.41-12.41,2.56-18.55c1.64,5.03,3.23,10.08,4.72,15.16c0.98,3.35,6.24,1.93,5.25-1.45c-2.44-8.33-5.08-16.6-7.93-24.81
		c-0.83-2.4-4.58-2.77-5.25,0c-1.68,6.97-2.96,14.03-3.87,21.14c-3.94-6.58-8.2-12.95-13.51-18.53c-1.56-1.63-4.81-0.45-4.65,1.92
		c0.7,9.9,0.9,19.83,0.62,29.75c-0.1,3.5,5.34,3.5,5.44,0C153.6,283.62,153.54,276.34,153.22,269.08z"/>
	<path class="st1" d="M186.39,259.39c2.79-0.62,5.57-1.25,8.36-1.87c0.57-0.13,5.36-1.61,5.71-0.8c0.34,0.78-1.74,2.38-2.2,2.79
		c-2.05,1.83-4.11,3.64-6.17,5.45c-1.71,1.51-0.52,3.82,1.2,4.55c2.34,0.99,4.94,1.01,7.44,1.04c1.92,0.02,4.32-0.14,5.91,1.16
		c0.37,0.3,0.67,0.67,0.88,1.09c0.03,0.06,0.21,0.54,0.35,0.8c-0.04,0.04-0.08,0.07-0.16,0.11c-0.27,0.15-0.52,0.36-0.78,0.52
		c-0.59,0.39-1.19,0.75-1.8,1.1c-2.47,1.4-5.07,2.43-7.81,3.15c-3.38,0.89-1.95,6.14,1.45,5.25c3.55-0.94,7-2.37,10.12-4.29
		c1.51-0.93,3.34-1.93,4.07-3.63c0.8-1.85,0.2-4.07-0.73-5.76c-1.77-3.23-5.19-4.54-8.67-4.85c-1.08-0.1-2.18-0.09-3.27-0.1
		c1.17-1.02,2.32-2.06,3.33-3.19c2.17-2.43,3.25-6.24,0.78-8.9c-2.22-2.4-5.61-1.96-8.48-1.32c-3.66,0.81-7.32,1.64-10.97,2.46
		C181.53,254.9,182.98,260.15,186.39,259.39z"/>
	<path class="st1" d="M221.71,265.15c1.75,1.29,3.83,2.03,5.83,2.83c2.24,0.9,4.51,1.73,6.72,2.7c1.36,0.6,3.76,1.69,3.79,3.5
		c0.02,1.48-2.25,2.92-3.3,3.68c-3.78,2.71-8.24,4.29-12.89,4.5c-3.49,0.16-3.51,5.6,0,5.44c4.37-0.2,8.6-1.3,12.48-3.32
		c3.46-1.8,8.21-4.82,8.99-8.95c0.94-4.97-3.3-8.29-7.36-10c-2.23-0.93-4.48-1.81-6.72-2.7c-1.77-0.71-4.03-1.37-5.28-2.92
		c-0.35-0.44-0.9-1.3-0.63-1.9c0.17-0.38,1.1-0.3,1.67-0.31c2.97-0.03,5.95,0,8.92-0.01c3.5,0,3.51-5.44,0-5.44
		c-2.58,0-5.15,0-7.73,0.01c-2.17,0-4.46-0.05-6.23,1.4C216.03,256.91,218.23,262.58,221.71,265.15z"/>
	<path class="st1" d="M279.78,290.54c6.96,2.56,14.7,1.14,21.22-1.98c3.16-1.51,0.4-6.21-2.75-4.7c-5.62,2.69-12.63,3.74-18.39,0.83
		c-5.61-2.83-8.45-8.01-8.11-14.26c0.3-5.63,2.33-12.39,7.42-15.51c5.19-3.17,11.94-2.3,17.66-1.53c1.47,0.2,2.9-0.35,3.35-1.9
		c0.36-1.27-0.45-3.15-1.9-3.35c-5.92-0.8-12.26-1.63-18.05,0.34c-5.82,1.98-9.69,6.46-11.88,12.08
		c-2.29,5.88-3.06,13.16-0.55,19.08C270,284.83,274.55,288.61,279.78,290.54z"/>
	<path class="st1" d="M313.73,283.3c0.72-4.33,1.37-8.68,2.23-12.98c0.7-3.46,1.31-7.79,3.56-10.65c1.99-2.53,4.1-0.74,5.33,1.5
		c1.9,3.45,2.44,7.58,2.21,11.46c-0.21,3.5,5.23,3.49,5.44,0c0.29-4.93-0.63-10.35-3.2-14.63c-2.31-3.85-6.81-6.6-11.18-4.19
		c-4.02,2.22-5.51,7.2-6.57,11.34c-0.03,0.12-0.05,0.25-0.08,0.37c-0.52-5.66-0.78-11.34-0.77-17.03c0-3.5-5.44-3.51-5.44,0
		c-0.01,11.68,1.09,23.34,3.22,34.83C308.96,285.87,313.29,285.92,313.73,283.3z"/>
	<path class="st1" d="M345.15,279.37c2.12-1.24,3.69-3.43,5.15-5.34c1.42-1.86,2.71-3.82,3.83-5.88c1.01-1.84,1.86-3.77,2.62-5.73
		c1.08,4.67,1.98,9.38,2.61,14.12c0.19,1.46,1.11,2.72,2.72,2.72c1.32,0,2.92-1.25,2.72-2.72c-1.15-8.58-2.9-17.03-5.36-25.33
		c-0.34-1.15-1.41-2-2.62-2c-0.87,0-1.86,0.53-2.34,1.32c-5.09-1.22-9.73,1.88-12.41,6.04c-1.35,2.1-2.28,4.47-3.22,6.78
		c-1.07,2.59-1.95,5.2-2.27,8c-0.27,2.37-0.08,5.01,1.46,6.94C339.8,280.51,342.77,280.76,345.15,279.37z M342.27,274.91
		c0.01,0.01,0.02,0.01,0.03,0.02C342.35,275.03,342.32,274.98,342.27,274.91z M345.41,261.78c1.38-2.88,4-6.95,7.79-5.97
		c-1.47,5.55-3.98,10.81-7.53,15.36c-0.54,0.69-1.11,1.36-1.69,2.02c-0.54,0.6-1.23,1.03-1.76,1.58c-0.02,0.02-0.02,0.01-0.03,0.02
		c-0.03-0.04-0.05-0.08-0.05-0.08c-0.14-0.66-0.25-1.18-0.23-1.95C341.99,268.99,343.81,265.13,345.41,261.78z"/>
	<path class="st1" d="M369.07,266.85c0.4,3.92,0.98,7.82,1.74,11.69c0.28,1.44,2.01,2.27,3.35,1.9c1.51-0.41,2.18-1.9,1.9-3.35
		c-1.17-6-1.88-12.07-2.1-18.17c-0.03-0.74-0.25-2.04,0.26-2.67c0.51-0.63,1.87-0.72,2.63-0.85c2.08-0.35,4.4-0.72,6.24,0.53
		c1.21,0.83,3.02,0.23,3.72-0.98c0.79-1.35,0.24-2.89-0.98-3.72c-2.93-2.01-6.54-1.69-9.87-1.17c-3.4,0.53-6.63,1.99-7.28,5.74
		c-0.3,1.75-0.16,3.52-0.06,5.28C368.72,263,368.87,264.93,369.07,266.85z"/>
	<path class="st1" d="M395.58,281.48c1.56-0.43,2.11-1.89,1.9-3.35c-1.56-10.67-1.88-21.51-1.1-32.26c0.25-3.49-5.19-3.48-5.44,0
		c-0.82,11.27-0.34,22.54,1.29,33.71C392.44,281.04,394.29,281.84,395.58,281.48z"/>
	<path class="st1" d="M400.69,271.63c1.62-0.16,3.2-0.5,4.74-0.96c0.51,1.09,1.08,2.13,1.73,3.05c4.14,5.8,11.69,8.56,18.32,5.35
		c1.32-0.64,1.68-2.52,0.98-3.72c-0.79-1.35-2.4-1.62-3.72-0.98c-3.45,1.67-7.64,0.13-10.12-2.52c-0.88-0.94-1.61-2.08-2.2-3.31
		c1.97-1.12,3.8-2.5,5.42-4.15c1.9-1.94,3.52-4.22,4.65-6.7c1.24-2.72,2.69-6.3,0.02-8.67c-2.75-2.44-6.26-0.81-9.06,0.58
		c-2.76,1.37-5.49,3.25-6.82,6.12c-1.37,2.94-1.51,6.46-0.86,9.85c-1,0.3-2.03,0.51-3.08,0.61c-1.46,0.15-2.72,1.15-2.72,2.72
		C397.97,270.27,399.22,271.78,400.69,271.63z M408.95,260c0.27-1.88,1.26-3.27,2.81-4.33c0.83-0.56,1.72-1.02,2.62-1.46
		c0.48-0.23,0.96-0.48,1.45-0.68c0.08-0.03,0.3-0.09,0.53-0.15c-0.01,0.04-0.03,0.11-0.03,0.12c-0.27,0.85-0.61,1.66-1.02,2.46
		c-0.91,1.75-2.05,3.32-3.44,4.72c-0.9,0.9-1.9,1.71-2.96,2.43C408.79,262.05,408.81,261,408.95,260z"/>
	<path class="st1" d="M428.68,260.55c1.03,0.55,2.29,0.75,3.42,1.06c1.27,0.35,2.54,0.71,3.81,1.08c2.53,0.74,5.04,1.53,7.51,2.46
		c1.1,0.41,2.18,0.85,3.25,1.33c0.51,0.23,1.02,0.47,1.53,0.72c0.21,0.1,0.71,0.44,1.17,0.7c-0.25,0.24-0.5,0.47-0.75,0.7
		c-0.98,0.89-1.98,1.75-3.02,2.56c-4.19,3.29-8.92,5.99-13.87,7.95c-1.37,0.54-2.32,1.82-1.9,3.35c0.36,1.3,1.97,2.44,3.35,1.9
		c4.33-1.71,8.47-3.8,12.32-6.42c1.94-1.32,3.81-2.75,5.59-4.27c1.69-1.44,4.17-3.18,4.43-5.57c0.28-2.59-1.72-4.17-3.8-5.23
		c-2.21-1.13-4.51-2.1-6.84-2.97c-2.29-0.86-4.62-1.6-6.96-2.3c-1.11-0.33-2.22-0.64-3.33-0.95c4.12-2.83,9.68-3.91,14.41-3.51
		c3.49,0.29,3.47-5.15,0-5.44c-4.78-0.4-9.53,0.55-13.88,2.55c-2.12,0.98-4.07,2.27-5.87,3.76c-1.03,0.85-1.97,1.7-2.24,3.06
		C426.7,258.49,427.39,259.86,428.68,260.55z"/>
	<path class="st1" d="M468.25,255.02c1.3,0.3,3.11-0.4,3.35-1.9c0.61-3.92,0.86-7.87,0.63-11.83c-0.08-1.42-1.19-2.79-2.72-2.72
		c-1.4,0.06-2.81,1.2-2.72,2.72c0.11,1.82,0.13,3.64,0.04,5.46c-0.04,0.89-0.1,1.78-0.19,2.67c-0.04,0.43-0.09,0.85-0.14,1.28
		c0,0.04-0.01,0.06-0.01,0.09c0,0.02,0,0.02-0.01,0.04c-0.04,0.28-0.08,0.57-0.13,0.85c-0.12,0.75-0.12,1.42,0.27,2.1
		C466.96,254.34,467.6,254.87,468.25,255.02z"/>
	<path class="st1" d="M146.03,323.86c-1.59-1.46-3.78-2.01-5.89-2c-3.99,0.02-8.91,1.3-11.69,4.31c-0.23,0.25-0.39,0.51-0.58,0.77
		c-0.05-4.55,0.45-9.21,0.11-13.54c-0.11-1.47-1.17-2.72-2.72-2.72c-1.38,0-2.84,1.25-2.72,2.72c0.76,9.78-1.94,20.46,3.88,29.2
		c1.21,1.81,3.36,1.54,4.41,0.22c4.31-0.58,8.64-0.07,12.71-2.05c4.24-2.06,6.26-6.27,5.44-10.86
		C148.58,327.76,147.68,325.37,146.03,323.86z M143.75,332.5c-0.14,1.61-1.24,2.68-2.61,3.4c-1.56,0.82-3.33,1.06-5.06,1.18
		c-1.74,0.11-3.47,0.21-5.19,0.37c-0.38-2.99-0.29-6.25,2.16-8.12c1.46-1.11,3.45-1.5,5.21-1.82c1.14-0.21,2.89-0.49,3.93,0.22
		C143.4,328.55,143.86,331.15,143.75,332.5z"/>
	<path class="st1" d="M161.11,331.95c0.03-0.03,0.07-0.07,0.12-0.14c0.15-0.17,0.29-0.34,0.44-0.5c0.33-0.36,0.67-0.7,1.04-1.03
		c0.16-0.15,0.33-0.29,0.5-0.43c0.07-0.06,0.07-0.06,0.05-0.05c0.02-0.02,0.05-0.04,0.13-0.09c0.4-0.28,0.8-0.56,1.22-0.81
		c0.38-0.23,0.77-0.44,1.17-0.63c0.16-0.08,0.32-0.15,0.48-0.22c0.05-0.02,0.46-0.18,0.47-0.18c0.88-0.32,1.78-0.56,2.7-0.72
		c0.1-0.02,0.26-0.04,0.32-0.05c0.22-0.02,0.44-0.05,0.67-0.06c0.44-0.03,0.88-0.04,1.33-0.02c0.4,0.01,0.8,0.04,1.19,0.09
		c0.1,0.02,0.44,0.08,0.46,0.08c0.26,0.05,0.52,0.11,0.78,0.18c1.42,0.36,2.95-0.46,3.35-1.9c0.38-1.39-0.47-2.99-1.9-3.35
		c-4.72-1.18-9.84-0.33-13.98,2.23c-1.06,0.66-2.09,1.46-3.05,2.36c0.01-1.38,0.06-2.77,0.15-4.15c0.09-1.47-1.32-2.72-2.72-2.72
		c-1.55,0-2.63,1.25-2.72,2.72c-0.32,5-0.16,10.02,0.49,14.99c0.19,1.46,1.12,2.72,2.72,2.72c1.37,0,2.86-1.25,2.72-2.72
		c-0.19-2.03,0.59-3.69,1.78-5.44C161.06,332.03,161.09,331.98,161.11,331.95z"/>
	<path class="st1" d="M200.95,328.78c0.98-2.32,1.38-5.08-0.19-7.25c-0.69-0.95-1.57-1.65-2.57-2.25c-0.36-0.22-0.74-0.42-1.1-0.64
		c-0.18-0.11-0.35-0.23-0.53-0.35c0.56,0.38-0.12-0.14-0.23-0.25c-0.55-0.58-1.38-0.81-2.18-0.74c-0.11-0.02-0.21-0.07-0.33-0.08
		c-3.61-0.35-7.32,1.27-9.8,3.85c-1.31,1.37-2.31,3-2.91,4.8c-0.67,1.99-0.86,4.5,0.22,6.38c1.07,1.88,3.19,2.84,5.09,3.68
		c2.22,0.97,4.57,1.63,7,1.09C197.39,336.13,199.5,332.22,200.95,328.78z M186.03,329.5c0.01,0.02,0.02,0.04,0.02,0.06c0,0,0,0,0,0
		C186.04,329.53,186.03,329.51,186.03,329.5z M186.05,329.55C186.05,329.55,186.05,329.55,186.05,329.55
		c0.01,0.02,0.02,0.04,0.03,0.06C186.06,329.59,186.06,329.57,186.05,329.55z M186.1,329.63c0-0.01-0.01-0.03-0.01-0.04
		C186.24,329.74,186.18,329.71,186.1,329.63z M196.39,325.06c0,0.04-0.01,0.13-0.01,0.19c-0.03,0.18-0.07,0.37-0.12,0.54
		c-0.09,0.32-0.21,0.62-0.31,0.93c-0.01,0.04-0.03,0.08-0.04,0.1c-0.09,0.19-0.18,0.38-0.27,0.57c-0.3,0.61-0.6,1.22-0.94,1.81
		c-0.17,0.29-0.34,0.59-0.53,0.87c-0.12,0.17-0.61,0.76-0.24,0.34c-0.22,0.24-0.43,0.49-0.67,0.71c-0.02,0.02-0.07,0.06-0.12,0.1
		c-0.1,0.07-0.32,0.21-0.37,0.24c-0.02,0.01-0.06,0.03-0.1,0.05c-0.11,0.03-0.45,0.17-0.44,0.16c-0.03,0.01-0.12,0.04-0.19,0.05
		c-0.12,0.01-0.25,0.02-0.36,0.02c-0.17,0-0.34-0.01-0.52-0.01c-0.04,0-0.04,0-0.07,0c-0.43-0.08-0.86-0.19-1.28-0.33
		c-0.22-0.07-0.43-0.15-0.64-0.23c-0.07-0.02-0.07-0.02-0.09-0.03c-0.02-0.01-0.01,0-0.03-0.01c-0.38-0.16-0.75-0.35-1.12-0.53
		c-0.31-0.16-0.62-0.32-0.93-0.48c-0.14-0.07-0.28-0.15-0.41-0.23c-0.05-0.03-0.35-0.23-0.37-0.24c-0.04-0.04-0.08-0.07-0.12-0.11
		c-0.02-0.08-0.05-0.15-0.06-0.23c0-0.01,0,0,0.01-0.02c0.02-0.14,0.06-0.84,0.03-0.8c0.05-0.27,0.1-0.55,0.17-0.81
		c0.08-0.27,0.18-0.54,0.27-0.8c-0.2,0.62,0.12-0.23,0.22-0.41c0.14-0.25,0.28-0.49,0.44-0.73c0.07-0.1,0.14-0.2,0.21-0.31
		c0.03-0.03,0.06-0.08,0.13-0.16c0.23-0.27,0.48-0.53,0.74-0.77c0.13-0.12,0.27-0.24,0.4-0.36c0.03-0.03,0.02-0.02,0.04-0.04
		c0,0,0,0,0,0c0.6-0.4,1.19-0.75,1.83-1.07c0.03-0.01,0.01,0,0.05-0.01c0.17-0.05,0.33-0.12,0.5-0.17c0.34-0.1,0.69-0.16,1.03-0.25
		c0.01,0,0.01,0,0.01,0c0.18-0.01,0.35-0.03,0.53-0.03c0.27-0.01,0.53,0.01,0.79,0.03c0.81,0.6,1.67,1.13,2.53,1.67
		c0.02,0.01,0.01,0.01,0.03,0.02c0.07,0.07,0.14,0.14,0.22,0.2c0.02,0.02,0.02,0.01,0.03,0.02c0.02,0.04,0.06,0.12,0.1,0.19
		c0.02,0.07,0.03,0.14,0.05,0.21C196.39,324.98,196.39,325,196.39,325.06z"/>
	<path class="st1" d="M230.4,319.47c-0.39,0.6-0.69,1.25-0.95,1.93c-1.01-5.62-2.02-11.25-3.03-16.87
		c-0.62-3.44-5.86-1.98-5.25,1.45c1.08,6.02,2.16,12.05,3.24,18.07c0.52,2.9,1.04,5.8,1.56,8.7c0.49,2.69,1.08,5.29,2.43,7.69
		c0.03,0.05,0.08,0.08,0.11,0.13c0.52,1.33,1.85,1.84,3.21,1.63c5.45-0.81,10.35-3.94,13.66-8.3c1.64-2.16,2.97-4.72,3.54-7.39
		c0.71-3.29-0.58-6.09-3.1-8.21C241.33,314.5,233.92,314.04,230.4,319.47z M242.39,322.5c0.59,0.52,1.27,1.17,1.35,2
		c0.09,0.9-0.44,2.05-0.78,2.87c-0.69,1.67-1.74,3.23-2.97,4.55c-1.9,2.03-4.2,3.47-6.76,4.32c-0.26-3.91-0.03-7.87,0.94-11.67
		c0.48-1.88,1.32-3.36,3.38-3.73C239.32,320.52,241.09,321.34,242.39,322.5z"/>
	<path class="st1" d="M257.22,340.62c1.35,0,2.88-1.25,2.72-2.72c-0.95-8.79-1.18-17.63-0.67-26.45c0.2-3.5-5.24-3.49-5.44,0
		c-0.5,8.82-0.28,17.66,0.67,26.45C254.65,339.36,255.63,340.62,257.22,340.62z"/>
	<path class="st1" d="M287.37,319.68c-1.3-1.53-3.18-2.73-5.01-3.53c-2.13-0.93-4.34-1.45-6.68-1.5c-1.14-0.02-2.21,0.82-2.56,1.9
		c-0.97-0.04-1.88,0.41-2.48,1.29c-2.14,3.13-3.46,7.19-3.25,11.01c0.07,1.26,0.38,2.47,1.27,3.41c0.76,0.81,1.78,1.24,2.82,1.58
		c1.52,0.49,3.2,0.68,4.79,0.56c3.34-0.24,6.5-1.54,8.99-3.8C288.24,327.88,290.34,323.19,287.37,319.68z M283.38,323.34
		c0,0.01,0,0.03,0.01,0.04C283.35,323.3,283.31,323.06,283.38,323.34z M272.61,328.48c-0.06-0.04-0.25-0.15-0.26-0.14
		C272.47,328.28,272.55,328.36,272.61,328.48C272.62,328.49,272.62,328.48,272.61,328.48z M283.35,323.98
		c-0.04,0.15-0.09,0.29-0.14,0.43c-0.02,0.04-0.03,0.05-0.06,0.11c-0.14,0.24-0.27,0.49-0.42,0.72c-0.08,0.12-0.17,0.24-0.24,0.36
		c0,0.01,0,0,0,0.01c-0.2,0.23-0.4,0.47-0.61,0.69c-0.2,0.21-0.41,0.4-0.63,0.59c-0.08,0.07-0.16,0.13-0.23,0.2
		c-0.51,0.34-1,0.67-1.55,0.95c-0.16,0.08-0.92,0.4-0.34,0.18c-0.24,0.09-0.47,0.18-0.71,0.26c-0.58,0.19-1.17,0.33-1.78,0.44
		c0.03,0,0.03,0,0.06,0c-0.02,0-0.05,0-0.07,0.01c0,0,0,0-0.01,0c-0.06,0.01-0.14,0.02-0.19,0.02c-0.05,0.01-0.11,0.01-0.16,0.01
		c-0.25,0.02-0.5,0.03-0.76,0.03c-0.29,0-0.58-0.01-0.86-0.03c-0.11-0.01-0.22-0.02-0.32-0.03c-0.02,0-0.02,0-0.04,0
		c-0.03-0.01-0.05-0.01-0.09-0.02c-0.45-0.1-0.89-0.24-1.33-0.36c-0.01-0.68,0.01-1.36,0.1-2.03c0-0.01,0-0.01,0-0.02
		c0.05-0.22,0.08-0.44,0.12-0.66c0.08-0.4,0.18-0.79,0.29-1.18c0.11-0.39,0.24-0.77,0.38-1.15c0.05-0.13,0.1-0.26,0.15-0.39
		c0.02-0.04,0.11-0.24,0.15-0.32c0.37-0.77,0.81-1.5,1.29-2.21c0.11-0.16,0.13-0.35,0.19-0.53c0.05,0,0.1,0.03,0.15,0.03
		c0.35,0.01,0.69,0.04,1.04,0.05c0.04,0,0.13,0.01,0.19,0.02c0.12,0.02,0.25,0.04,0.37,0.06c0.68,0.13,1.35,0.3,2.01,0.53
		c0.11,0.04,0.97,0.4,0.56,0.2c0.31,0.15,0.63,0.3,0.93,0.46c0.58,0.32,1.15,0.68,1.68,1.08c0.08,0.08,0.46,0.4,0.52,0.45
		c0.09,0.09,0.19,0.18,0.28,0.28c-0.06-0.06-0.09-0.07,0.14,0.17c0.01,0.05,0.02,0.12,0.03,0.18
		C283.39,323.7,283.36,323.93,283.35,323.98z"/>
	<path class="st1" d="M276.41,328.94c0.07-0.01,0.13-0.01,0.2-0.02c0,0,0.01,0,0.01,0C276.35,328.94,276.34,328.94,276.41,328.94z"
		/>
	<path class="st1" d="M310.83,330.73c3.59-1.28,6.62-3.51,9.54-5.93c1.13-0.94,0.97-2.88,0-3.85c-1.12-1.12-2.71-0.94-3.85,0
		c-2.1,1.74-4.42,3.51-6.97,4.47c-2.4,0.91-5.51,1.34-7.52,0.05c-0.12-0.07-0.27-0.16-0.49-0.44c0.18,0.23-0.09-0.22-0.18-0.37
		c-0.01-0.09-0.13-0.53-0.13-0.52c0.07,0.36-0.03-0.49-0.03-0.61c0-1.16,0.28-2.2,0.73-3.5c0.34-0.99,0.91-2.06,1.69-2.78
		c0.1-0.09,0.22-0.2,0.53-0.38c0.07-0.04,0.76-0.35,0.43-0.23c0.01-0.01,0.45-0.12,0.53-0.16c0.27,0,0.92,0.05,0.63-0.01
		c1.44,0.29,2.94-0.41,3.35-1.9c0.37-1.34-0.45-3.06-1.9-3.35c-7.06-1.41-11.42,6.15-11.43,12.31c-0.01,3.59,2.08,6.33,5.42,7.52
		C304.23,332.13,307.83,331.8,310.83,330.73z"/>
	<path class="st1" d="M327.8,309.16c0,7.94,0,15.88,0,23.82c0,3.5,5.44,3.51,5.44,0c0-1.95,0-3.91,0-5.86
		c5.42,2.99,11.19,5.81,17.52,5.64c1.47-0.04,2.72-1.22,2.72-2.72c0-1.44-1.25-2.76-2.72-2.72c-4.83,0.13-9.31-1.93-13.58-4.23
		c2.03-3.95,4.59-7.49,7.79-10.61c1.05-1.02,1.03-2.82,0-3.85c-1.05-1.05-2.79-1.03-3.85,0c-3.1,3.01-5.77,6.47-7.89,10.24
		c0-3.23,0-6.47,0-9.7C333.25,305.66,327.8,305.66,327.8,309.16z"/>
	<path class="st1" d="M372.06,318.22c-0.04,0.03-0.04,0.04-0.04,0.04c-0.03,0.01-0.04,0.02-0.11,0.06c-0.26,0.15-0.51,0.3-0.78,0.44
		c-1.54,0.78-3.16,1.43-4.74,2.14c-1.34,0.6-1.66,2.55-0.98,3.72c0.81,1.38,2.38,1.58,3.72,0.98c3.33-1.48,8.27-2.85,8.58-7.21
		c0.34-4.77-4.85-6.98-8.86-6.73c-4.08,0.26-7.72,2.3-10.13,5.58c-2.19,2.98-3.36,7.27-2.39,10.9c1.14,4.24,5.25,6.1,9.05,7.39
		c1.39,0.47,2.97-0.54,3.35-1.9c0.41-1.49-0.5-2.88-1.9-3.35c-1.34-0.45-1.89-0.62-2.93-1.19c-0.23-0.12-0.46-0.26-0.68-0.4
		c-0.11-0.07-0.72-0.54-0.39-0.25c-0.19-0.16-0.38-0.33-0.56-0.52c-0.09-0.09-0.17-0.18-0.25-0.28c-0.01-0.02,0-0.01-0.03-0.06
		c-0.05-0.09-0.38-0.72-0.27-0.44c-0.11-0.29-0.2-0.61-0.25-0.92c0.03,0.16-0.02-0.56-0.02-0.71c0-0.33,0.02-0.66,0.05-0.99
		c0.01-0.06,0.07-0.43,0.08-0.51c0.07-0.33,0.15-0.66,0.25-0.98c0.08-0.28,0.17-0.55,0.28-0.82c0.02-0.04,0.02-0.05,0.03-0.08
		c0.09-0.2,0.18-0.39,0.29-0.59c1.07-2.05,2.7-3.5,4.82-4.14c1.16-0.35,2.2-0.48,3.32-0.29c0.16,0.03,1.06,0.31,1.11,0.34
		c0.29,0.16,0.33,0.17,0.42,0.28c-0.01,0.01,0.08,0.17,0.16,0.28C372.19,318.1,372.13,318.17,372.06,318.22z M372.32,317.95
		c0,0.01-0.01,0.02-0.01,0.03c0,0,0,0,0,0C372.31,317.97,372.32,317.95,372.32,317.95z M372.31,317.98
		C372.31,317.98,372.31,317.98,372.31,317.98c0,0.01,0,0.02-0.01,0.03c0,0,0,0,0-0.01C372.31,317.99,372.31,317.99,372.31,317.98z"
		/>
	<path class="st1" d="M408.28,297.58c-1.33-0.36-3.07,0.45-3.35,1.9c-0.94,4.96-2.94,9.64-5.82,13.72c-4.28-0.26-8.94,0-12.72,1.81
		c-4.4,2.11-7.01,8.02-3.2,11.96c3.96,4.1,9.25,0.2,12.71-2.52c2.1-1.65,3.99-3.55,5.71-5.61c0.02,0,0.03,0,0.05,0
		c0.61,0.07,1.18-0.17,1.65-0.56c-0.1,4.03-0.08,8.05,0.17,12.09c0.21,3.48,5.66,3.5,5.44,0c-0.6-9.83-0.22-19.71,1.26-29.45
		C410.4,299.48,409.81,298,408.28,297.58z M392.41,320.32c-0.71,0.56-1.46,1.09-2.22,1.59c-0.59,0.39-1.86,1.52-2.62,1.44
		c-1.54-0.16-0.51-2.17,0.17-2.77c1.56-1.38,4-1.63,6-1.81c0.16-0.01,0.32-0.01,0.48-0.02
		C393.63,319.28,393.04,319.82,392.41,320.32z"/>
	<path class="st1" d="M493.87,318.88c-1.97,0.75-4.41,1.89-6.59,1.42c-1.08-0.23-1.69-0.76-2.04-1.44
		c4.36-3.94,8.45-9.22,7.02-14.98c-0.81-3.24-4.42-5.9-7.41-3.39c-2.76,2.31-4.03,7.87-4.74,11.2c-0.34,1.62-0.66,3.36-0.7,5.05
		c-1.15,0.97-2.37,1.94-3.7,2.56c-2.42,1.11-3.57-0.94-4.28-2.91c-1.17-3.28-1.66-6.78-4.53-9.1c-2.66-2.15-6.37-2.27-9.42-0.95
		c-4.21,1.83-6.86,5.88-8.51,10.39c-1.78-3.8-4.38-6.93-8.15-6.67c-7.67,0.53-7.56,11.82-6.56,17.13c0.65,3.44,5.89,1.98,5.25-1.45
		c-0.41-2.18-0.5-4.43-0.11-6.62c0.28-1.54,1.04-4.89,2.87-2.71c2.62,3.13,3.79,8,4.54,11.91c0.61,3.2,5.11,2.14,5.35-0.72
		c0.39-4.65,1.65-9.88,4.48-13.7c1.18-1.6,2.89-3.07,4.99-3.01c2.35,0.06,3.17,2.28,3.75,4.21c1.01,3.31,1.98,6.98,5.12,8.94
		c3.57,2.23,7.33,0.56,10.4-1.68c0.42,0.59,0.91,1.15,1.57,1.63c3.91,2.88,8.67,1.71,12.83,0.13
		C498.56,322.89,497.15,317.63,493.87,318.88z"/>
	<path class="st1" d="M180.17,358.36c-1.31-0.67-2.95-0.34-3.72,0.98c-0.35,0.59-0.43,1.33-0.27,2.01
		c-0.44-0.51-1.09-0.84-1.96-0.85c-5.99-0.02-10.83,4.11-13.05,9.46c-1.09,2.63-1.77,5.68-1.21,8.52c0.54,2.74,2.55,4.88,5.01,6.08
		c4.72,2.31,11.2,3.72,16.16,1.47c4.91-2.23,6.93-7.93,7.76-12.89c0.55-3.26,0.45-6.64-1.58-9.4
		C185.49,361.27,182.85,359.73,180.17,358.36z M182.49,376.27c-0.54,1.57-1.33,3.13-2.61,4.19c-2.74,2.26-7.18,1.05-10.3,0.09
		c-1.43-0.44-3.1-1.04-3.9-2.17c-0.91-1.28-0.44-3.36-0.03-4.83c1.11-3.98,4.18-7.62,8.56-7.61c2.09,0.01,2.91-1.93,2.5-3.49
		c0.2,0.24,0.42,0.46,0.71,0.61c1.64,0.84,3.37,1.69,4.71,2.97c1.3,1.25,1.73,2.73,1.62,4.57
		C183.65,372.51,183.11,374.47,182.49,376.27z"/>
	<path class="st1" d="M204.06,364.78c0.7-0.12,1.42-0.13,2.1,0.12c1.02,0.38,2.15,1.68,2.88,2.66c1.1,1.49,2.08,3.08,2.94,4.72
		c1.7,3.25,2.83,6.74,3.47,10.34c0.26,1.45,2.02,2.26,3.35,1.9c1.52-0.42,2.16-1.9,1.9-3.35c-1.2-6.68-4.17-13.72-8.86-18.73
		c-1.24-1.32-2.81-2.44-4.58-2.9c-2.03-0.53-4.18-0.23-6.16,0.36c-1.99,0.6-3.94,1.41-4.37,3.68c-0.37,1.95-0.12,4.12-0.12,6.09
		c0,4.52,0.01,9.04,0.01,13.55c0,3.5,5.45,3.51,5.44,0c0-4.31-0.01-8.62-0.01-12.93c0-1.11,0-2.22,0-3.34c0-0.55,0-1.1,0-1.65
		c0.19-0.07,0.39-0.13,0.5-0.16C203.05,365.01,203.55,364.87,204.06,364.78z"/>
	<path class="st1" d="M278.34,388.65c0.31-2.85-1.5-5-3.63-6.62c-4.26-3.25-9.78-3.94-14.98-4.1c-2.96-0.09-5.97,0-8.91-0.45
		c-0.57-0.09-2.95-0.23-3.28-0.8c-0.44-0.76,1.07-1.91,1.53-2.29c5.03-4.12,11.27-7.16,17.37-9.29c3.29-1.15,1.87-6.41-1.45-5.25
		c-5.58,1.95-10.93,4.52-15.84,7.82c-2.19,1.47-4.73,3.02-6.1,5.34c-1.33,2.26-1.38,5.38,0.51,7.36c1.87,1.95,5.01,2.28,7.55,2.59
		c3.09,0.37,6.2,0.31,9.3,0.43c2.52,0.1,5.02,0.36,7.44,1.14c1.21,0.39,5.12,1.88,5.1,3.54c-0.01,1.07-2.03,2.27-2.75,2.76
		c-1.3,0.89-2.63,1.73-4,2.51c-3.03,1.73-6.2,3.13-9.5,4.25c-3.3,1.12-1.88,6.38,1.45,5.25c5.61-1.9,11.08-4.53,15.85-8.06
		C276.06,393.27,278.05,391.31,278.34,388.65z"/>
	<path class="st1" d="M297.18,391.8c0.27,1.44,2.01,2.27,3.35,1.9c1.51-0.42,2.17-1.9,1.9-3.35c-1.67-8.84-6.16-17.76-15.25-20.74
		c-1.69-0.56-3.45,0.93-3.44,2.62c0.01,4.72,0.03,9.44,0.04,14.16c0.01,4.21-0.41,8.64,2.44,12.09c0.94,1.13,2.88,0.97,3.85,0
		c1.12-1.12,0.94-2.71,0-3.85c-0.76-0.93-0.78-2.41-0.82-3.54c-0.06-2.05-0.02-4.1-0.03-6.15c-0.01-2.76-0.02-5.52-0.03-8.27
		C293.9,380.06,296.13,386.24,297.18,391.8z"/>
	<path class="st1" d="M378.25,382.37c1.29-0.71,1.71-2.48,0.98-3.72c-0.76-1.3-2.43-1.69-3.72-0.98c-2.5,1.38-5.44,2.22-8.26,2.2
		c-0.28,0-0.56-0.01-0.83-0.04c-0.08-0.01-0.15-0.01-0.23-0.02c-0.04-0.01-0.04-0.01-0.12-0.02c-0.31-0.07-0.62-0.13-0.93-0.22
		c-0.12-0.04-0.24-0.08-0.36-0.12c-0.03-0.01-0.02-0.01-0.06-0.03c-0.08-0.05-0.51-0.34-0.54-0.33c-0.11-0.1-0.22-0.2-0.32-0.31
		c0.53,0.56-0.26-0.52-0.04-0.03c-0.07-0.19-0.13-0.39-0.17-0.6c-0.07-0.34-0.08-0.41-0.04-0.2c-0.29-2.79,0.25-5.35,1.68-7.54
		c0.08-0.13,0.17-0.25,0.26-0.37c0.02-0.03,0.06-0.06,0.14-0.17c0.25-0.25,0.48-0.51,0.74-0.75c0.09-0.08,0.19-0.17,0.29-0.25
		c0.02-0.01,0.08-0.05,0.2-0.14c0.23-0.14,0.44-0.28,0.68-0.41c0.15-0.08,0.31-0.16,0.46-0.24c0.03-0.01,0.03-0.01,0.08-0.03
		c0.33-0.11,0.66-0.19,1-0.29c0.12-0.02,0.15-0.03,0.19-0.04c0.12-0.01,0.25-0.02,0.37-0.03c0.11,0,1.13,0.07,0.57-0.01
		c1.4,0.21,2.99-0.35,3.35-1.9c0.29-1.29-0.39-3.12-1.9-3.35c-5.42-0.8-9.9,2.46-12.05,7.09c-0.11-0.87-0.47-1.76-1.12-2.65
		c-3.63-4.99-9.18-8.63-15.38-5.92c-3.2,1.4-0.43,6.09,2.75,4.7c1.66-0.73,3.63,0,5.01,0.98c0.79,0.56,1.48,1.26,2.11,1.99
		c0.27,0.31,0.52,0.64,0.77,0.97c-0.75,0.44-1.91,1.24-2.18,1.4c-1.05,0.6-2.11,1.18-3.18,1.75c-2.03,1.07-4.1,2.06-6.21,2.98
		c-1,0.43-2.01,0.86-3.04,1.24c-0.03,0.01-0.11,0.03-0.16,0.04c0.05-0.21,0.11-0.41,0.15-0.63c0.18-0.95,0.3-1.93,0.35-2.9
		c0.21-4.13-1.03-8.31-3.37-11.69c-1.22-1.76-3.47-1.72-4.7,0c-3.86,5.42-2.39,12.37-1.38,18.44c0.01,0.07,0.02,0.14,0.04,0.21
		c-2.09-3.23-3.77-6.73-4.94-10.39c-0.33-1.03-1.17-1.82-2.26-1.95c-0.97-0.12-2.28,0.31-2.71,1.3c-0.27,0.62-0.57,1.23-0.85,1.84
		c-0.49-0.45-1.15-0.73-1.87-0.79c-4.32-0.39-10.91-0.04-12.67,4.72c-1.34,3.6-0.04,7.96,2.69,10.57c1.48,1.41,3.63,2.63,5.73,2.54
		c2.48-0.11,3.98-1.9,5.21-3.84c1.42-2.24,2.7-4.56,3.91-6.92c1.84,3.91,4.13,7.58,6.93,10.93c0.56,0.66,1.44,0.84,2.29,0.71
		c0.78,4.69,1.56,9.38,2.34,14.07c0.24,1.46,2.03,2.25,3.35,1.9c1.56-0.41,2.11-1.9,1.9-3.35c-0.93-6.3-1.38-12.65-1.48-19
		c0.75,0.01,1.52-0.09,2.22-0.29c3.09-0.86,6.16-2.47,9.04-3.88c2.88-1.41,5.82-2.9,8.47-4.72c0.45-0.31,0.82-0.65,1.13-1.01
		c-0.63,3.24-0.89,7.13,1.46,9.76c1.85,2.07,4.94,2.75,7.61,2.7C371.33,385.22,374.99,384.17,378.25,382.37z M315.7,378.4
		c-0.81,1.42-1.83,2.77-2.59,4.22c-0.05,0.1-0.11,0.15-0.16,0.19c-0.48-0.06-1.08-0.49-1.4-0.74c-1.34-1.07-2.16-3.21-1.73-4.76
		c0.07-0.25,0.11-0.39,0.2-0.56c0.04-0.01,0.2-0.15,0.34-0.21c0.65-0.27,1.41-0.39,2.1-0.52c1.51-0.29,3.06-0.28,4.59-0.16
		C316.61,376.7,316.18,377.56,315.7,378.4z"/>
	<path class="st1" d="M404.58,359.69c-3.72-2.77-8.67-3.43-12.85-1.33c-4,2.01-7.1,6.26-8.92,10.25c-0.05,0.11-0.08,0.21-0.12,0.32
		c-0.87-4.31-1.44-8.68-1.65-13.1c-0.17-3.49-5.61-3.51-5.44,0c0.47,9.76,2.41,19.4,5.85,28.54c0.48,1.27,1.57,2.16,2.99,1.95
		c1.22-0.18,2.51-1.31,2.36-2.67c-0.42-3.91-0.89-7.96,0.51-11.74c1.11-3,3.28-6.31,5.95-8.14c2.59-1.78,5.71-1.54,8.21,0.33
		c2.75,2.06,3.9,5.51,4.4,8.77c0.22,1.45,2.05,2.26,3.35,1.9c1.55-0.43,2.12-1.89,1.9-3.35
		C410.41,366.88,408.33,362.48,404.58,359.69z"/>
	<path class="st1" d="M434.62,360.41c0.02-0.03,0.05-0.05,0.07-0.08c0.69-1.18,0.36-3.1-0.98-3.72c-3.69-1.71-8.06-3.3-11.85-0.86
		c-3.5,2.25-4.83,6.3-4.92,10.28c-0.09,4.04,0.57,8.88,4.78,10.63c4.2,1.74,7.93-2.04,10.26-5.12c0.6-0.79,1.11-1.62,1.57-2.48
		c0.65,1.22,1.31,2.45,1.85,3.73c0.58,1.35,2.57,1.65,3.72,0.98c1.4-0.82,1.55-2.37,0.98-3.72
		C438.65,366.62,436.81,363.4,434.62,360.41z M424,371.71C424,371.71,424,371.71,424,371.71C423.84,371.78,423.87,371.75,424,371.71
		z M424,371.71L424,371.71C424,371.71,424,371.71,424,371.71C424,371.71,424,371.71,424,371.71z M429.99,363.35
		c0,0.01-0.01,0.09-0.02,0.16c-0.04,0.12-0.11,0.42-0.13,0.49c-0.09,0.32-0.21,0.62-0.32,0.94c-0.03,0.1-0.05,0.14-0.07,0.19
		c-0.05,0.12-0.1,0.24-0.16,0.35c-0.12,0.26-0.25,0.52-0.38,0.77c-0.31,0.59-0.66,1.17-1.04,1.73c-0.4,0.59-0.39,0.58-0.9,1.15
		c-0.41,0.47-0.85,0.91-1.31,1.33c-0.25,0.23-0.5,0.45-0.76,0.66c0.23-0.19-0.3,0.22-0.38,0.27c-0.08,0.05-0.67,0.4-0.38,0.25
		c-0.06,0.03-0.09,0.04-0.12,0.06c-0.01,0-0.02,0-0.03,0.01c-0.05-0.01-0.24-0.09-0.22-0.06c-0.05-0.03-0.1-0.06-0.11-0.06
		c0,0-0.08-0.06-0.15-0.1c-0.07-0.07-0.23-0.21-0.26-0.24c-0.05-0.05-0.03-0.03-0.05-0.04c-0.06-0.1-0.12-0.19-0.18-0.29
		c-0.22-0.38-0.18-0.27-0.26-0.6c-0.18-0.72-0.25-1.04-0.3-1.54c-0.06-0.75-0.09-1.5-0.09-2.25c0-1.44,0.09-2.44,0.56-3.79
		c0.03-0.08,0.06-0.17,0.09-0.25c0.03-0.06,0.09-0.18,0.1-0.21c0.13-0.23,0.25-0.46,0.39-0.68c0.05-0.07,0.23-0.31,0.27-0.36
		c0.21-0.23,0.42-0.45,0.65-0.66c-0.3,0.28,0.25-0.17,0.39-0.25c0.07-0.04,0.14-0.08,0.2-0.11c-0.01,0.01,0.23-0.1,0.35-0.14
		c0.48-0.14,0.95-0.2,1.71-0.11c0.08,0.01,0.45,0.09,0.81,0.18c0.36,0.09,0.71,0.21,1.06,0.33c0.25,0.09,0.44,0.17,0.65,0.25
		c-0.28,0.74-0.32,1.57,0.17,2.23c0.08,0.11,0.14,0.23,0.22,0.34C429.99,363.31,430,363.31,429.99,363.35z M430.01,363.21
		C430.01,363.2,430.01,363.2,430.01,363.21C430.01,363.2,430.01,363.2,430.01,363.21C430.01,363.2,430.01,363.2,430.01,363.21z
		 M430.01,363.19C430.01,363.19,430.01,363.19,430.01,363.19C430.01,363.07,430.03,362.99,430.01,363.19z"/>
	<path class="st1" d="M456.07,355.78c-1.91,0.76-3.88,1.35-5.87,1.83c-0.66-3.08-1.21-6.18-1.61-9.27
		c-0.19-1.46-1.12-2.72-2.72-2.72c-1.32,0-2.91,1.25-2.72,2.72c0.44,3.42,1.01,6.81,1.71,10.18c-1.13,0.1-2.26,0.17-3.39,0.18
		c-1.42,0.01-2.79,1.24-2.72,2.72c0.07,1.46,1.2,2.73,2.72,2.72c1.55-0.01,3.09-0.13,4.63-0.3c0.32,1.26,0.64,2.52,1.01,3.77
		c0.41,1.41,1.92,2.29,3.35,1.9c1.41-0.39,2.31-1.93,1.9-3.35c-0.31-1.08-0.6-2.18-0.89-3.28c2.06-0.49,4.09-1.08,6.05-1.86
		c1.32-0.53,2.39-1.84,1.9-3.35C459.01,356.41,457.49,355.21,456.07,355.78z"/>
	<path class="st1" d="M221.1,413.78c-2.12-0.13-4.19,0.55-6.09,1.41c-1.67,0.75-3.32,1.71-4.64,3c-0.47,0.46-0.86,0.97-1.2,1.51
		c-0.19-2.58-0.38-5.17-0.57-7.75c-0.11-1.47-1.17-2.72-2.72-2.72c-1.39,0-2.83,1.25-2.72,2.72c0.29,3.9,0.55,7.81,0.87,11.71
		c0.25,3.14,0.99,6.63,3.46,8.69c-0.05,0.55,0.02,1.12,0.3,1.6c0.77,1.31,2.42,1.67,3.72,0.98c3.71-1.98,7.44-3.92,11.13-5.94
		c3.03-1.66,6.33-4.28,6.18-8.11C228.65,416.78,224.97,414.01,221.1,413.78z M223.32,421.39c-0.05,0.14-0.06,0.17-0.06,0.18
		c-0.01,0.02-0.04,0.06-0.1,0.16c-0.21,0.37,0.05,0.03-0.24,0.35c-0.23,0.25-0.47,0.49-0.72,0.71c-0.35,0.31-0.6,0.47-1.15,0.81
		c-0.58,0.36-1.18,0.68-1.78,1.01c-2.03,1.09-4.07,2.17-6.1,3.26c-0.01-0.3,0-0.59-0.01-0.89c-0.06-1.33-0.18-2.74,0.26-3.82
		c0.4-0.97,1.25-1.58,2.18-2.14c1.17-0.71,2.4-1.31,3.74-1.64c0.58-0.14,1.14-0.21,1.77-0.16c0.18,0.01,0.2,0.01,0.52,0.1
		c0.11,0.03,0.23,0.07,0.34,0.11c0.04,0.02,0.17,0.08,0.22,0.11c0.39,0.24,0.74,0.46,0.96,0.79c-0.07-0.1,0.08,0.18,0.16,0.32
		c0.01,0.05,0.07,0.22,0.07,0.24c0,0.04,0,0.08,0,0.12C223.4,421.44,223.47,421,223.32,421.39z"/>
	<path class="st1" d="M236.42,408.57c-1.61,0-2.55,1.25-2.72,2.72c-1.33,11.32-3.42,22.53-6.17,33.59c-0.85,3.4,4.4,4.85,5.25,1.45
		c2.87-11.53,4.98-23.23,6.37-35.04C239.32,409.83,237.77,408.57,236.42,408.57z"/>
	<path class="st1" d="M252.63,446.66c-1.02,0.78-2.04,1.53-3.18,2.14c-0.07,0.03-0.13,0.06-0.2,0.1c-0.04,0.01-0.1,0.03-0.22,0.08
		c-0.27,0.08-0.53,0.16-0.81,0.22c-0.08,0.02-0.14,0.03-0.18,0.04c-0.04-0.01-0.1-0.01-0.21-0.01c-0.03,0-0.48-0.04-0.52-0.03
		c-0.13-0.04-0.3-0.08-0.34-0.08c-0.14-0.07-0.28-0.15-0.41-0.24c-0.05-0.06-0.25-0.25-0.3-0.3c-0.02-0.02-0.01-0.01-0.02-0.03
		c-0.07-0.1-0.13-0.2-0.19-0.3c-0.03-0.05-0.16-0.3-0.23-0.42c-0.03-0.11-0.21-0.55-0.23-0.62c-0.15-0.49-0.26-1-0.35-1.51
		c-0.12-0.73-0.13-2.19-0.05-3.27c0.02-0.16,0.03-0.25,0.03-0.29c0.02-0.12,0.04-0.24,0.06-0.36c0.06-0.3,0.12-0.6,0.19-0.9
		c0.14-0.58,0.32-1.16,0.54-1.72c0.05-0.09,0.19-0.39,0.2-0.43c0.13-0.24,0.27-0.47,0.41-0.7c0.07-0.11,0.08-0.13,0.09-0.16
		c0.03-0.02,0.05-0.04,0.14-0.13c0.01-0.01,0.31-0.28,0.35-0.34c0.13-0.09,0.28-0.18,0.42-0.25c0.04-0.01,0.15-0.04,0.26-0.08
		c-0.06,0.03,0.19,0,0.34-0.04c0.16,0.07,0.6,0.16,0.21-0.03c1.28,0.61,3,0.4,3.72-0.98c0.64-1.21,0.39-3.07-0.98-3.72
		c-2.76-1.32-5.94-0.7-8.09,1.49c-1.99,2.03-2.88,4.91-3.25,7.66c-0.68,5.08,0.66,12.31,6.78,13.13c3.35,0.45,6.18-1.26,8.73-3.22
		c1.12-0.87,1.84-2.38,0.98-3.72C255.64,446.52,253.84,445.73,252.63,446.66z"/>
	<path class="st1" d="M284.24,462.25c-0.97-0.9-1.95-1.78-2.94-2.66c-0.55-0.49-2.52-2.12-2.51-2.03c0.01,0.06,4.16-4.22,4.73-4.92
		c2.69-3.38,5.05-7.21,5.98-11.48c1.57-7.17-1.02-17.29-9.06-19.39c-3.45-0.9-7.3,0.49-8.28,4.17c-0.63,2.37-0.3,5.12-0.3,7.53
		c0,3.05,0.02,6.1,0.08,9.16c0.25,13.23,1.11,26.43,2.51,39.59c0.37,3.45,5.81,3.48,5.44,0c-0.64-5.97-1.15-11.95-1.55-17.94
		c8.68,7.82,16.78,16.25,24.29,25.21c2.25,2.69,6.08-1.18,3.85-3.85C299.57,477.37,292.16,469.55,284.24,462.25z M277.65,451.16
		c-0.1-2.64-0.2-5.29-0.25-7.93c-0.07-3.25-0.1-6.51-0.09-9.77c0-2.16-1.13-7.79,2.52-6.17c4.22,1.87,5.24,7.99,4.51,12
		C283.51,443.85,280.73,447.76,277.65,451.16z"/>
	<path class="st1" d="M308.97,447.55c-1.56-1.45-3.17-2.84-4.78-4.22c-0.35-0.72-0.98-1.33-1.73-1.53c-0.08-0.02-0.16,0-0.24-0.02
		c-1.04-0.53-2.28-0.5-3.18,0.4c-0.79,0.79-1,2.18-0.46,3.2c-1.29,4.03-2.02,8.25-2.09,12.49c-0.07,4.55,0.37,9.53,4.72,12.05
		c1.77,1.03,3.92,1.65,5.94,1.95c3.08,0.46,4.55-1.72,5.31-4.37c0.66-2.32,1.09-4.7,1.36-7.1c0.25-2.22,0.44-4.63-0.3-6.79
		C312.67,451.13,310.84,449.29,308.97,447.55z M308.22,461.51c-0.2,1.22-0.45,2.44-0.76,3.64c-0.09,0.33-0.24,0.73-0.36,1.12
		c-0.69-0.21-1.45-0.32-2.12-0.57c-0.69-0.26-1.39-0.6-1.89-1.15c-1.22-1.32-1.12-3.61-1.15-5.29c-0.06-3.3,0.34-6.54,1.12-9.71
		c0.52,0.46,1.05,0.9,1.56,1.37c1.29,1.19,2.97,2.45,3.66,4.12C309.04,456.94,308.53,459.56,308.22,461.51z"/>
	<path class="st1" d="M334.64,446.66c-4.65-1.86-9.53,0.43-11.79,4.55c-0.65-0.99-1.33-1.96-1.96-2.96
		c-1.71-2.69-3.37-5.41-4.99-8.15c-1.31-2.22-3.49-5.09-2.93-7.83c0.7-3.42-4.55-4.88-5.25-1.45c-0.72,3.53,0.44,6.65,2.14,9.71
		c1.65,2.96,3.43,5.86,5.23,8.73c2.23,3.57,4.58,7.06,6.98,10.52c0.72,2.33,2.13,4.46,3.94,6.22c-2.21,1.59-0.79,5.77,2.24,4.81
		c5.15-1.63,9.21-5.52,11.01-10.62C341.01,455.25,340,448.8,334.64,446.66z M333.56,459.77c-0.63,1.25-1.5,2.35-2.51,3.28
		c-1.35-1.84-2.67-3.69-3.98-5.56c-0.13-0.79-0.13-1.61,0.07-2.44c0.61-2.54,3.57-4.82,6.09-3.04
		C335.58,453.67,334.63,457.66,333.56,459.77z"/>
	<path class="st1" d="M350.08,441.29c-1.9-7.73-4.66-15.21-8.08-22.39c-1.51-3.16-6.2-0.4-4.7,2.75c3.44,7.22,6.07,14.78,7.88,22.57
		c1.63,7,2.88,14.18,6.84,20.33c1.89,2.93,6.6,0.21,4.7-2.75C352.75,455.62,351.8,448.28,350.08,441.29z"/>
	<path class="st1" d="M367.4,426.54c-0.1,0-0.2,0.05-0.3,0.07c-1.18-0.38-2.59,0.02-3.2,1.15c-2.25,4.1-2.63,9.18-2.47,13.79
		c0.08,2.39,0.74,4.78,2.67,6.34c1.92,1.55,4.32,1.93,6.72,2.06c4.51,0.24,9.41-0.73,11.43-5.28c1.8-4.06,1.47-9.49-1.17-13.13
		C377.89,427.09,372.49,426.38,367.4,426.54z M377.77,440.93c-0.08,0.38-0.19,0.74-0.29,1.1c-0.02,0.08-0.03,0.12-0.05,0.17
		c-0.01,0.02-0.03,0.05-0.05,0.1c-0.08,0.17-0.17,0.33-0.27,0.49c-0.03,0.05-0.19,0.28-0.21,0.33c-0.1,0.11-0.21,0.22-0.31,0.33
		c-0.02,0.02-0.11,0.1-0.16,0.15c-0.19,0.13-0.39,0.24-0.58,0.36c-0.03,0.02-0.13,0.06-0.19,0.09c-0.13,0.05-0.25,0.09-0.38,0.13
		c-0.34,0.11-0.69,0.18-1.05,0.25c-0.06,0.01-0.07,0.01-0.11,0.02c-0.22,0.03-0.44,0.04-0.67,0.06c-0.46,0.03-0.93,0.04-1.39,0.03
		c-0.77-0.01-1.54-0.06-2.3-0.12c-0.04,0-0.14-0.02-0.22-0.03c-0.13-0.02-0.27-0.04-0.4-0.07c-0.17-0.04-0.35-0.08-0.52-0.12
		c-0.07-0.02-0.42-0.14-0.47-0.14c-0.11-0.06-0.22-0.12-0.33-0.17c-0.09-0.04-0.11-0.04-0.15-0.05c-0.01-0.01,0.01-0.01-0.03-0.04
		c-0.03-0.02-0.15-0.14-0.23-0.21c-0.06-0.09-0.16-0.23-0.18-0.26c-0.04-0.07-0.12-0.29-0.14-0.34c-0.04-0.13-0.08-0.25-0.11-0.38
		c-0.03-0.13-0.05-0.26-0.07-0.39c0.01-0.05-0.03-0.52-0.04-0.53c-0.09-2,0.03-4.06,0.24-6.05c0.11-1.09,0.41-2.44,0.84-3.65
		c0.65-0.02,1.31-0.03,1.96-0.01c0.38,0.01,0.75,0.03,1.13,0.06c0.19,0.01,0.37,0.03,0.56,0.05c0.09,0.01,0.13,0.01,0.18,0.02
		c0.05,0.01,0.11,0.02,0.2,0.04c0.77,0.15,1.51,0.33,2.25,0.6c0.03,0.01,0.02,0.01,0.04,0.01c0.02,0.01,0.01,0.01,0.05,0.03
		c0.2,0.1,0.4,0.2,0.6,0.31c0.16,0.09,0.31,0.19,0.46,0.28c0.06,0.04,0.13,0.09,0.19,0.13c0.01,0.01,0.01,0.01,0.02,0.02
		c0.31,0.27,0.6,0.56,0.87,0.87c-0.25-0.28,0.28,0.41,0.37,0.55c0.49,0.82,0.53,0.93,0.78,1.87
		C377.94,438.04,378,439.78,377.77,440.93z"/>
	<path class="st1" d="M400.93,422.22c-1.74-1.2-3.52-2.35-5.29-3.51c1.12-4.84,2.24-9.69,3.45-14.51c0.85-3.4-4.39-4.85-5.25-1.45
		c-1.07,4.26-2.05,8.54-3.05,12.81c-2.61-1.64-5.23-3.26-7.89-4.82c-1.27-0.74-2.98-0.29-3.72,0.98c-0.75,1.27-0.3,2.98,0.98,3.72
		c3.14,1.84,6.24,3.74,9.31,5.7c-1.64,7.22-3.2,14.45-4.64,21.71c-0.68,3.42,4.56,4.88,5.25,1.45c1.33-6.67,2.74-13.32,4.23-19.95
		c1.29,0.86,2.6,1.69,3.88,2.58c1.21,0.84,3.02,0.22,3.72-0.98C402.69,424.59,402.14,423.06,400.93,422.22z"/>
</g>
</svg>
