<svg id="Layer_1" data-name="Layer 1" xmlns="http://www.w3.org/2000/svg" viewBox="0 0 197.93 88.05"><defs><style>.cls-1{fill:#b4daa2;}.cls-2{fill:#283a83;}</style></defs><title>name</title><rect class="cls-1" width="197.93" height="88.05"/><path class="cls-2" d="M270.64,525.2a1,1,0,0,0,.67-1,1,1,0,0,0-1-1l-.26,0q-2-6.4-4.55-12.65c-.33-.8-1.72-1.08-1.93,0a129.6,129.6,0,0,0-1.82,13.85l-.11,0a1,1,0,0,0-.7,1.23,1.08,1.08,0,0,0,.68.7,123.19,123.19,0,0,0,0,14.38c.07,1.28,2.07,1.29,2,0a123.12,123.12,0,0,1,.06-14.88,17.73,17.73,0,0,1,4.91-.72q1.68,5.57,3,11.23c.28,1.26,2.21.73,1.93-.53C272.63,532.29,271.7,528.72,270.64,525.2Zm-6.83-1.43c.25-3.09.61-6.18,1.1-9.26,1.1,2.87,2.1,5.76,3,8.67A19.78,19.78,0,0,0,263.81,523.77Z" transform="translate(-254.29 -493.87)"/><path class="cls-2" d="M276.19,510.8c-.1-1.28-2.1-1.29-2,0a168.75,168.75,0,0,0,3.88,25.28c.29,1.25,2.21.72,1.92-.53A166.84,166.84,0,0,1,276.19,510.8Z" transform="translate(-254.29 -493.87)"/><path class="cls-2" d="M284.82,519.1a110.29,110.29,0,0,0-1.18,17,1,1,0,0,0,2,0,108.48,108.48,0,0,1,1.1-16.5C286.93,518.38,285,517.83,284.82,519.1Z" transform="translate(-254.29 -493.87)"/><path class="cls-2" d="M289.4,507.23a5,5,0,0,0-2,.88,22.87,22.87,0,0,0-1.28-2,1,1,0,0,0-1.37-.36,4.09,4.09,0,0,0-1.82,4.3,7.08,7.08,0,0,0,1.85,3.44.93.93,0,0,0,.1.7,1.07,1.07,0,0,0,1.07.47,1,1,0,0,0,1.19-.14,1,1,0,0,0,.28-.77c1.69-1,3.52-2,4.11-4.07a2.47,2.47,0,0,0-.07-1.85A1.75,1.75,0,0,0,289.4,507.23Zm.09,2.21-.15.29a3.26,3.26,0,0,1-.68.82,5.44,5.44,0,0,1-.93.71c-.49.31-1,.6-1.5.91a5.47,5.47,0,0,1-1.34-2.34.68.68,0,0,1,0-.14s0-.08,0-.12,0-.29,0-.43,0-.13,0-.19v-.07a3.25,3.25,0,0,1,.11-.42s0-.1,0-.14.05-.12.06-.13a22.21,22.21,0,0,1,1.17,2,1,1,0,0,0,1.57.21,3.33,3.33,0,0,1,1.74-1.15v0C289.5,509.46,289.57,509.29,289.49,509.44Z" transform="translate(-254.29 -493.87)"/><path class="cls-2" d="M305.85,532.24a1,1,0,0,0,1.71-.7q-.19-11-.38-22a1,1,0,0,0-2,0q.17,9.91.34,19.83-5.25-4.47-10.36-9.12a1,1,0,0,0-1.71.7q.44,7.8.24,15.59a1,1,0,0,0,2,0q.17-6.63-.13-13.26Q300.63,527.83,305.85,532.24Z" transform="translate(-254.29 -493.87)"/><path class="cls-2" d="M312.78,526.89a55.52,55.52,0,0,1,1.61-7.77,40.43,40.43,0,0,0,7.52.89,54.75,54.75,0,0,1,.77,9.23,1,1,0,0,0,2,0,56.21,56.21,0,0,0-.77-9.36,1,1,0,0,0-.34-1.81,57.18,57.18,0,0,0-4-12.45,1,1,0,0,0-1.72,0,57.42,57.42,0,0,0-7,20.74C310.68,527.62,312.61,528.16,312.78,526.89Zm8.76-8.89a37.32,37.32,0,0,1-6.57-.8,55.8,55.8,0,0,1,3.65-8.77A55.6,55.6,0,0,1,321.54,518Z" transform="translate(-254.29 -493.87)"/><path class="cls-2" d="M327.61,564.84a9.76,9.76,0,0,1-8.91,6.32c-4.36,0-8.11-3.21-10.15-6.84a19.75,19.75,0,0,1-2.15-11.6c.43-4.22,2.09-8.86,5.24-11.81a14.94,14.94,0,0,1,7-3.54c2.54-.54,5.9-.14,7,2.61.47,1.17,2.41.66,1.92-.53-2.3-5.68-9.28-4.71-13.74-2.47-4.91,2.47-7.76,7.38-8.95,12.61a22.75,22.75,0,0,0,1.28,14.49c2,4.43,6.17,8.4,11.16,9a11.75,11.75,0,0,0,12.19-7.7C330,564.16,328,563.64,327.61,564.84Z" transform="translate(-254.29 -493.87)"/><path class="cls-2" d="M339.09,567.08c-.73,1-2.07,0-2.47-.75-.65-1.26-.42-2.82-.33-4.18l.66-10a1,1,0,0,0-1.7-.71,17.84,17.84,0,0,1-2.35,2.76c-1,.78-1.19-.53-1.22-1.43v-.58a1,1,0,0,0-2,0c0,.19,0,.4,0,.61,0,3.07,0,6.14,0,9.21a1,1,0,0,0,2,0v-5.66a2.72,2.72,0,0,0,.72.1,3.39,3.39,0,0,0,2.36-1.21l-.24,3.57a38.42,38.42,0,0,0-.27,6.25,5,5,0,0,0,2.4,4,3.26,3.26,0,0,0,4.17-1C341.55,567,339.81,566,339.09,567.08Z" transform="translate(-254.29 -493.87)"/><path class="cls-2" d="M353.44,559.18c1.26-.29.73-2.22-.53-1.93-.44.11-.83-.39-1.07-.7a11.69,11.69,0,0,1-1.08-2,28.14,28.14,0,0,1-1.68-4.63,1,1,0,0,0-2,.27c.14,2.73.09,6-1.9,8.15-.34.36-.88.86-1.36.49a3.43,3.43,0,0,1-.83-1.67,13.8,13.8,0,0,1-.55-5.19c.1-1.29-1.9-1.28-2,0a14.9,14.9,0,0,0,.88,6.48,4.08,4.08,0,0,0,1.53,2.13,2.63,2.63,0,0,0,2.83-.07,7.77,7.77,0,0,0,3-4.67c.06-.23.1-.47.14-.7.19.4.37.8.57,1.19C350.2,557.88,351.46,559.65,353.44,559.18Z" transform="translate(-254.29 -493.87)"/><path class="cls-2" d="M368.6,552.92c.42,4.51-3.65,7.6-7.14,9.6a47,47,0,0,0-6.39,4c1.47-5.58,2.32-11.31,3.28-17a107.34,107.34,0,0,1,5.44-20.85c.4-1-1-1.54-1.67-1a72,72,0,0,1-15.68,9.93c-1.17.54-.15,2.27,1,1.72a73,73,0,0,0,13.26-8A115.58,115.58,0,0,0,356.42,549c-1.19,7.08-2.2,14.22-4.47,21-.37,1.12,1.24,1.7,1.83.78,2.47-3.83,7-5.31,10.61-7.74,3.38-2.29,6.62-5.79,6.21-10.16C370.49,551.65,368.49,551.63,368.6,552.92Z" transform="translate(-254.29 -493.87)"/><path class="cls-2" d="M376.11,505.85a.9.9,0,0,0-.89.61.82.82,0,0,0-1.12-.09c-2.29,1.6-4.78,3.45-5.5,6.3a13.3,13.3,0,0,0-.14,4.75,5.53,5.53,0,0,0,1.79,3.68,8.72,8.72,0,0,0,4.09,1.79c1.53.22,2.77-.9,3.76-1.94a12.41,12.41,0,0,0,3.36-7.82C381.63,509.82,379.93,505.88,376.11,505.85Zm1.18,13a10.75,10.75,0,0,1-1,1.12c-.38.35-.9.92-1.44,1a4,4,0,0,1-1.57-.44,6.57,6.57,0,0,1-1.44-.69,3.55,3.55,0,0,1-1.41-2.72,13.15,13.15,0,0,1,0-3.49c.44-2.51,2.72-4.13,4.66-5.49a1.05,1.05,0,0,0,.39-.49.88.88,0,0,0,.62.24c2.54,0,3.4,2.85,3.36,4.94A10.2,10.2,0,0,1,377.29,518.83Z" transform="translate(-254.29 -493.87)"/><path class="cls-2" d="M385.83,522.3a5.79,5.79,0,0,1-1.82-.79c-.13-.08-.32-.18-.36-.32a1,1,0,0,1,.09-.57,2.1,2.1,0,0,1,2.3-1.22c1.25.28,1.79-1.65.53-1.93a4.12,4.12,0,0,0-3.54.86,3.44,3.44,0,0,0-1.27,3.52c.45,1.33,2.22,2,3.46,2.36.56.15,1.15.16,1.69.36l.15.06a1.34,1.34,0,0,1-.29.44,5.59,5.59,0,0,1-3.76,1.51,1,1,0,0,0,0,2,7.69,7.69,0,0,0,3.9-1.13c1.16-.7,2.61-2,2-3.49S387,522.6,385.83,522.3Z" transform="translate(-254.29 -493.87)"/><path class="cls-2" d="M398.45,528.94c-.59-1.55-2.43-1.72-3.77-1.11a5.27,5.27,0,0,0-1.25.84c.13-2.66.15-5.33,0-8-.05-1.28-2.05-1.29-2,0a88.87,88.87,0,0,1-.24,11.07.8.8,0,0,0,.57.88l-.69.3c-1.15.59-.13,2.31,1,1.73,1.48-.75,3.22-.77,4.62-1.72S399.05,530.52,398.45,528.94Zm-1.85,1.12c-.16.94-1.28,1.46-2.08,1.72-.46.15-.93.28-1.39.41a7.77,7.77,0,0,1,2.08-2.37C395.73,529.48,396.76,529.16,396.6,530.06Z" transform="translate(-254.29 -493.87)"/><path class="cls-2" d="M402.3,535.32a1.1,1.1,0,0,0-1.11.08,1,1,0,0,0-.42-1.17,1.92,1.92,0,0,0-2.33.29,3.53,3.53,0,0,0-.88,2,17.72,17.72,0,0,0-.3,2.51,10.45,10.45,0,0,0,.07,2.5,2.46,2.46,0,0,0,3.58,1.51,4.6,4.6,0,0,0,1.65-1.54,8.42,8.42,0,0,0,1.12-2C404.23,538.07,403.88,536,402.3,535.32Zm-.76,1.85h0S401.45,537.1,401.54,537.17Zm-1.7-1.23h0Zm0,0h0Zm2,2.62a5.58,5.58,0,0,1-1.42,2.38,1.6,1.6,0,0,1-.47.35l0,0-.1,0-.11,0h-.19l-.16,0-.08-.05,0,0v0c0,.09,0-.22,0-.17a1.8,1.8,0,0,1,0-.28c0-.32,0-.64,0-1a17.52,17.52,0,0,1,.11-1.77,9.83,9.83,0,0,1,.31-1.72.77.77,0,0,1,.17-.34.94.94,0,0,1,1.47,1.07l.26.13.12.12v0a.24.24,0,0,1,.06.09s.14.29.09.15c0,.1.06.19.08.29a.19.19,0,0,1,0,.08.28.28,0,0,1,0,.09A1.55,1.55,0,0,1,401.89,538.56Z" transform="translate(-254.29 -493.87)"/><path class="cls-2" d="M409.76,542.05a3.51,3.51,0,0,0-3.16.82,4.68,4.68,0,0,0-1.26,3.23,19.5,19.5,0,0,0,0,3.82,1,1,0,0,0,1,1,1,1,0,0,0,1-1,20,20,0,0,1-.06-3,4.93,4.93,0,0,1,.48-2.35l.08-.1.18-.18c.14-.13,0,0,.13-.09l.24-.13.13-.05.25-.06c-.17,0,.12,0,.14,0h.18a2.62,2.62,0,0,1,.4.11l.15.08.15.09.13.11a1.54,1.54,0,0,1,.17.19l.1.15s.14.28.08.12a1,1,0,0,0,1.23.7,1,1,0,0,0,.69-1.23A3.59,3.59,0,0,0,409.76,542.05Z" transform="translate(-254.29 -493.87)"/><path class="cls-2" d="M421.48,550.18a4.77,4.77,0,0,0-1.27-1.77c-1.24-.93-3-.19-3.94.85a6.48,6.48,0,0,0-1.51,3.68c-.19,1.82.3,3.66-.06,5.47a1,1,0,0,0,.7,1.23,1,1,0,0,0,1.23-.7c.36-1.84,0-3.65.1-5.49a4.16,4.16,0,0,1,1.3-3.12c.3-.22.84-.55,1.13-.17a8.52,8.52,0,0,1,1.08,2.1,13.81,13.81,0,0,1,.93,4.92,1,1,0,0,0,2,0,15.56,15.56,0,0,0-.75-4.74A15.85,15.85,0,0,0,421.48,550.18Z" transform="translate(-254.29 -493.87)"/><path class="cls-2" d="M436.76,539.86q-.39,11.85-1.52,23.65c-.13,1.28,1.87,1.27,2,0q1.13-11.81,1.52-23.65C438.8,538.57,436.8,538.57,436.76,539.86Z" transform="translate(-254.29 -493.87)"/><path class="cls-2" d="M435.35,568.47a1,1,0,0,0,0,2A1,1,0,0,0,435.35,568.47Z" transform="translate(-254.29 -493.87)"/></svg>