<svg id="Layer_1" data-name="Layer 1" xmlns="http://www.w3.org/2000/svg" viewBox="0 0 427.42 373.09"><defs><style>.cls-1{fill:#8cd2d0;}.cls-2{fill:#503531;}</style></defs><title>PE4TS</title><polygon class="cls-1" points="1.95 0 0 373.09 427.42 373.09 427.42 3.31 1.95 0"/><path class="cls-2" d="M106.83,260a3.83,3.83,0,0,0,.48-6c-2.17-2.17-5.18-.86-7.17.79a53.71,53.71,0,0,0-9.76,10.11,22.92,22.92,0,0,0-3.1,6.22c-.76,2.41-1.29,5.35.59,7.39,1.62,1.77,4.12,2,6.36,2.13a80.35,80.35,0,0,0,8.64.13,85.14,85.14,0,0,0,16.81-2.31c1.61-.39,3.61-1,5.09-.77.56.11.81.15.92.55.2.76-.54,1.71-1,2.26a27.77,27.77,0,0,1-11.36,7.82c-2,.78-4.77,2-7,1.48a4.16,4.16,0,0,1-2.76-2.68,16.85,16.85,0,0,1-1.23-5.68c-.24-3.11-.37-6.24-.55-9.35l-1.15-19.68c-.18-3.16-5.12-3.18-4.93,0l1,16.94c.29,5.13.25,10.42,1.12,15.5.65,3.74,2.34,7.72,6,9.29,4.52,1.91,10.29-.6,14.37-2.66a35.65,35.65,0,0,0,6.25-4.07,20.74,20.74,0,0,0,5-5.16,6.38,6.38,0,0,0,.22-6.94,6.54,6.54,0,0,0-5.47-2.58,25.15,25.15,0,0,0-6.32,1.09c-2.59.6-5.21,1.1-7.85,1.44a82.13,82.13,0,0,1-16.29.42c-.52,0-1.85,0-2.19-.42s.25-2.13.41-2.65a19,19,0,0,1,3.2-6,44.05,44.05,0,0,1,5.33-5.6c.92-.84,1.85-1.68,2.81-2.49.12-.11,1.07-.74,1.06-.78s-.4-.13-.47-.2c-.53-.49-.1-1.45.43-1.78-2.7,1.65-.23,5.92,2.49,4.26Z" transform="translate(-49.36 -218.5)"/><path class="cls-2" d="M91.7,399.47a110.32,110.32,0,0,1-19.08-35.88l-1.13,2.79c2.65-1.47,5.71-1.5,8.65-1.22A65.75,65.75,0,0,1,89.87,367a87.23,87.23,0,0,1,19.19,7.32,2.5,2.5,0,0,0,3.62-2.79L105.86,345c-.55-2.15-1.15-4.3-1.66-6.46a4,4,0,0,0-.12-.82c-.41-.7.07-.09,0-.12s-.64.73-.65.7a12.54,12.54,0,0,0,2.34.56,33.14,33.14,0,0,1,9.47,4.32,32.28,32.28,0,0,1,8.46,8.1,2.53,2.53,0,0,0,3.37.88,2.48,2.48,0,0,0,.89-3.37,38.37,38.37,0,0,0-20.51-14.58c-2.07-.59-4.59-1.42-6.55-.14-2.14,1.4-1.88,4.11-1.34,6.26q2,7.67,3.93,15.32l4.42,17.24,3.63-2.78a93.45,93.45,0,0,0-21.25-8c-6.77-1.63-14.85-3.51-21.3.08a2.5,2.5,0,0,0-1.14,2.79,117.19,117.19,0,0,0,20.35,38,2.48,2.48,0,0,0,3.49,0,2.53,2.53,0,0,0,0-3.49Z" transform="translate(-49.36 -218.5)"/><path class="cls-2" d="M123.75,322.68a90.69,90.69,0,0,0,23.06,12,2.47,2.47,0,1,0,1.31-4.76,86.29,86.29,0,0,1-21.88-11.48,2.49,2.49,0,0,0-3.38.88,2.53,2.53,0,0,0,.89,3.37Z" transform="translate(-49.36 -218.5)"/><path class="cls-2" d="M163.27,282a63.32,63.32,0,0,0-8.77,11.69,62.55,62.55,0,0,0-3.28,6.55c-1,2.37-2.36,5.11-.9,7.61,1.12,1.93,3.32,3.13,5.28,4.05a26.32,26.32,0,0,0,5.78,2,28.79,28.79,0,0,0,12.43-.12,26.69,26.69,0,0,0,12.24-6.54c2.32-2.18-1.17-5.67-3.48-3.49a22.71,22.71,0,0,1-18.08,5.7,20.16,20.16,0,0,1-9.05-3.27c-.54-.37-.84-.55-.8-1.14a9.62,9.62,0,0,1,1.1-2.89,60.23,60.23,0,0,1,2.7-5.39,57.73,57.73,0,0,1,8.32-11.26c2.17-2.3-1.31-5.8-3.49-3.48Z" transform="translate(-49.36 -218.5)"/><path class="cls-2" d="M186.84,272.8c5.53,1.75,9,7.19,12.95,11,2.33,2.25,5.49,5.16,9,4.78,3.74-.42,4.9-4.48,7.13-6.93a21.61,21.61,0,0,1,8.83-5.87,2.53,2.53,0,0,0,1.72-3,2.49,2.49,0,0,0-3-1.72,26.63,26.63,0,0,0-10.74,6.85,37.11,37.11,0,0,0-3.79,5.13c-.44.65-.59.82-1.35.53a9.06,9.06,0,0,1-2.13-1.33c-6-4.65-9.66-11.79-17.25-14.2-3-1-4.33,3.8-1.32,4.76Z" transform="translate(-49.36 -218.5)"/><path class="cls-2" d="M195.77,280.28a117.31,117.31,0,0,0,21.24-18c2.16-2.32-1.32-5.82-3.49-3.49A112,112,0,0,1,193.28,276a2.51,2.51,0,0,0-.88,3.37,2.49,2.49,0,0,0,3.37.88Z" transform="translate(-49.36 -218.5)"/><path class="cls-2" d="M185.06,272.66a283.8,283.8,0,0,0,23.08-21.6c2.19-2.3-1.29-5.79-3.49-3.49a283.92,283.92,0,0,1-23.08,21.61,2.48,2.48,0,0,0,0,3.48,2.51,2.51,0,0,0,3.49,0Z" transform="translate(-49.36 -218.5)"/></svg>