<svg id="Layer_1" data-name="Layer 1" xmlns="http://www.w3.org/2000/svg" viewBox="0 0 561.67 555.43"><defs><style>.cls-1{fill:#dca2c9;}.cls-2{fill:#fdef2f;}</style></defs><title>proud</title><polygon class="cls-1" points="0 0 561.67 555.43 561.67 2.07 0 0"/><path class="cls-2" d="M216.07,114.92a219,219,0,0,1-39.49,1,3.73,3.73,0,1,0,0,7.45c5.69.37,11.38.5,17.08.42-1,8.6-.22,17.16.82,25.76,1.1,9.23,2.28,18.55,1.06,27.83-.26,2,1.9,3.72,3.72,3.72,2.23,0,3.46-1.72,3.73-3.72,1.2-9.12.08-18.29-1-27.37-1-8.68-2.15-17.95-.86-26.43q7.5-.36,14.95-1.22c2-.23,3.72-1.54,3.72-3.72C219.79,116.81,218.08,114.68,216.07,114.92Z" transform="translate(-44.83 -85.7)"/><path class="cls-2" d="M245.42,145.25c-4.38-1.38-9.32,1.15-12.78,3.71a31.53,31.53,0,0,0-3.12,2.64c-.15-7.31-.11-14.62.17-21.93a3.72,3.72,0,0,0-7.44,0,367.29,367.29,0,0,0,1.59,51,3.83,3.83,0,0,0,3.72,3.72c1.86,0,3.93-1.71,3.73-3.72-.58-5.66-1-11.33-1.31-17a3,3,0,0,0,.19-.3,25.56,25.56,0,0,1,2.43-4.13l.05-.07c.11-.12.21-.25.32-.38.25-.29.5-.58.76-.86a24.16,24.16,0,0,1,1.92-1.87,20,20,0,0,1,3.49-2.38,8,8,0,0,1,3.82-1.31h.1l.24.08a4.44,4.44,0,0,0,.48.28c.12.12.46.45.56.56l.29.33c0,.06.14.21.18.27a10.44,10.44,0,0,1,1.67,4c.09.38.16.76.23,1.15a1.16,1.16,0,0,0,.06.27.88.88,0,0,0,0,.29c.08.86.13,1.72.14,2.58a49.64,49.64,0,0,1-.2,5,119.71,119.71,0,0,1-1.78,13.19,3.83,3.83,0,0,0,2.6,4.58,3.76,3.76,0,0,0,4.58-2.6,140.76,140.76,0,0,0,2-14.46,37.57,37.57,0,0,0-.54-12.38C252.51,151.3,249.81,146.64,245.42,145.25Z" transform="translate(-44.83 -85.7)"/><path class="cls-2" d="M286.72,170.55a3.72,3.72,0,1,0-2-7.18l-.95.2-.51.08c-.53,0-1.07.09-1.61.1s-1.17,0-1.75,0l-.73-.06-1-.18a13.35,13.35,0,0,1-6-2.64l-.18-.16a22.12,22.12,0,0,0,6.1-3.77,35.64,35.64,0,0,0,7-7.39c2.06-3.14,2.72-7.4.89-10.8s-5.79-4.88-9.5-4.8A17.45,17.45,0,0,0,261,145.39c-2.39,6.44-.32,13.83,4.07,18.88C270.32,170.35,279.09,172.26,286.72,170.55Zm-18.86-16.28h0Zm-.38-4.32s0-.16,0-.25.07-.39.12-.59a14.28,14.28,0,0,1,.49-1.66l.07-.17c.17-.32.33-.64.51-.95s.24-.41.37-.61c0,0,.36-.5.39-.56.34-.4.7-.79,1.08-1.16.13-.12.75-.64.74-.65a13.36,13.36,0,0,1,1.37-.89c.21-.11.42-.21.63-.33l.25-.11.33-.12c.51-.18,1-.3,1.54-.43l.19-.05h0a8.65,8.65,0,0,1,.88,0,9.88,9.88,0,0,1,1.22,0c.07,0,.69.17.71.18l.2,0s.05,0,.28.14a1.62,1.62,0,0,1,.57.48c-.23-.23,0,.31.06.24,0,.11.06.21.08.32-.12-.34-.11,1.1,0,.8,0,.2-.1.4-.14.6a1.35,1.35,0,0,0,0,.26,1.21,1.21,0,0,0-.14.25,10.8,10.8,0,0,1-2.37,3.09c-1,1-2.1,2.07-3.19,3a15.13,15.13,0,0,1-3,2.28c-.22.13-.44.26-.67.38,0,0-.6.27-.66.31-.25.09-.51.18-.76.25l-.76.17c-.11-.4-.2-.81-.3-1.22,0-.05,0-.22-.05-.31s0-.36-.05-.54A16.45,16.45,0,0,1,267.48,150Z" transform="translate(-44.83 -85.7)"/><path class="cls-2" d="M372.39,159.69a86.48,86.48,0,0,1,2.77,9.74,3.72,3.72,0,0,0,7.18-2c-.58-2.62-1.3-5.21-2.12-7.76H382a3.73,3.73,0,1,0,0-7.45h-4.57c-1-2.31-2-4.59-3.21-6.81a85.34,85.34,0,0,0-6-9.78c-2.09-2.91-4.35-5.71-6.28-8.74-.54-.84-1.05-1.7-1.52-2.58-.22-.41-.43-.82-.63-1.24l-.24-.53a.24.24,0,0,0-.05-.09.81.81,0,0,1,0-.11,19.37,19.37,0,0,1-.88-2.77c0-.19-.09-.38-.13-.57s-.08-.46-.1-.53c-.05-.47-.08-.94-.1-1.41a3.74,3.74,0,0,0-7.31-1c-3.7,11.92-7.35,23.9-9.66,36.15h-3.64a3.73,3.73,0,0,0,0,7.45h2.42c-.18,1.28-.35,2.57-.49,3.86a109.68,109.68,0,0,0-.68,13.8,3.73,3.73,0,0,0,7.45,0,111.76,111.76,0,0,1,1.22-17.66Zm-17.68-30.45a88.91,88.91,0,0,0,5.52,8,91.27,91.27,0,0,1,9.1,15H348.85C350.37,144.5,352.45,136.84,354.71,129.24Z" transform="translate(-44.83 -85.7)"/><path class="cls-2" d="M403.06,178.15a3.72,3.72,0,0,0,7.44,0l-.15-15.84c-.05-4.87-.38-9.84-.05-14.7,0-.25,0-.5.07-.75,0-.07,0-.16,0-.3.12-.53.24-1.05.41-1.57l.09-.27c.12-.23.24-.46.37-.68s.18-.28.28-.42l.1-.12.74-.71c.08,0,.29-.22.43-.3s.56-.31.85-.46c0,0,.73-.29.85-.33a15.85,15.85,0,0,1,2.34-.54c.1,0,.85-.09,1-.1q.69,0,1.38-.06a43.93,43.93,0,0,1,5.5.25c2,.19,3.72-1.85,3.72-3.72a3.81,3.81,0,0,0-3.72-3.73c-6.23-.6-14.1-.54-18.52,4.67-2.75,3.25-3.39,7.29-3.4,11.43,0,4.38.08,8.77.12,13.15Z" transform="translate(-44.83 -85.7)"/><path class="cls-2" d="M441.21,166.26h5.44l-.45,10.24a3.73,3.73,0,0,0,7.45,0l.45-10.24H465a3.72,3.72,0,0,0,0-7.44H454.43q.69-15.81,1.39-31.61a3.73,3.73,0,0,0-7.45,0Q447.68,143,447,158.82h-5.77a3.72,3.72,0,1,0,0,7.44Z" transform="translate(-44.83 -85.7)"/><path class="cls-2" d="M502,135q11.14.27,22.31.16a4,4,0,0,0-1.29,2.77,249.26,249.26,0,0,0,.74,33.69,3.83,3.83,0,0,0,3.73,3.72c1.87,0,3.9-1.71,3.72-3.72a249.27,249.27,0,0,1-.75-33.69,3.47,3.47,0,0,0-1.37-2.84c5-.08,9.9-.19,14.84-.38a3.72,3.72,0,0,0,0-7.44q-21,.8-41.93.28a3.73,3.73,0,0,0,0,7.45Z" transform="translate(-44.83 -85.7)"/><path class="cls-2" d="M496.28,182.52a400.15,400.15,0,0,0,51-.76A3.82,3.82,0,0,0,551,178a3.75,3.75,0,0,0-3.72-3.72,396.51,396.51,0,0,1-51,.76,3.73,3.73,0,0,0,0,7.45Z" transform="translate(-44.83 -85.7)"/><path class="cls-2" d="M292.28,197.71a3.77,3.77,0,0,0-4.58,2.6,77.26,77.26,0,0,0-1.35,11.45c-.11,1.76-.19,3.51-.3,5.27,0,.28-.05.55-.07.83a107.35,107.35,0,0,0-10.9-.81,41,41,0,0,0-6.83.26,11.34,11.34,0,0,0-5.67,2.64c-5.7,4.74-7.2,14.49-2.88,20.58,4.12,5.82,12,7.4,18.46,4.92,7.11-2.7,11.42-9.12,13.48-16.22,2.54-8.79,1.39-18.18,3.24-26.94A3.81,3.81,0,0,0,292.28,197.71Zm-8.17,30.66c-.12.37-.25.74-.38,1.1l-.27.7a17.92,17.92,0,0,1-4.64,6.53l-.14.14-.15.09c-.28.19-.55.38-.84.55s-.84.46-1.27.67l-.56.24-.95.31a15.84,15.84,0,0,1-1.66.36l-.63.05c-.33,0-.66,0-1,0l-.82,0-.31,0a12.31,12.31,0,0,1-1.69-.43l-.45-.18-.68-.37c-.19-.11-.37-.24-.55-.36s-.42-.36-.47-.41-.3-.31-.45-.47l-.17-.15a1.28,1.28,0,0,0-.12-.21l-.54-.93c-.06-.09-.09-.15-.13-.2s0-.13-.06-.23a11.93,11.93,0,0,1-.48-1.87c0-.14,0-.64,0-.68,0-.37,0-.73,0-1.1,0-.16,0-.32,0-.48s.12-.67.13-.7c.08-.36.18-.72.29-1.07,0,0,.19-.54.22-.66a15.62,15.62,0,0,1,1-1.79,2,2,0,0,0,.16-.27l.22-.21a9.66,9.66,0,0,1,1-.95l.11-.1.23-.11.51-.28s.11,0,.41-.12a30.37,30.37,0,0,1,5.38-.24,99.15,99.15,0,0,1,10.64.68l-.21,1C284.57,226.87,284.36,227.63,284.11,228.37Z" transform="translate(-44.83 -85.7)"/><path class="cls-2" d="M323.37,224.62h0c-.17.33-.17.34-.12.25l.12-.24Z" transform="translate(-44.83 -85.7)"/><path class="cls-2" d="M314.24,227.73l-.1-.07h0Z" transform="translate(-44.83 -85.7)"/><path class="cls-2" d="M321.82,235.78c4.82-1.7,8.07-6.08,9.28-10.94s.58-12.69-5.61-14a3.72,3.72,0,1,0-2,7.18l.16,0a.2.2,0,0,0,.11.07c.11.21.21.46.27.57-.38-.7,0,0,.07.4,0,0,.06.21.09.36v0c0,.37,0,.73,0,1.1s-.06.79-.09,1.18c0-.81,0,.2-.1.52a17.7,17.7,0,0,1-.69,2.36l0,0s0,0,0,0l-.12.24c0,.09-.08.17-.13.26a10.93,10.93,0,0,1-.6,1.05c-.11.18-.61.79-.45.63-.21.24-.41.48-.64.7s-1.07.76-.38.36c-.39.22-.74.48-1.14.68l-.12.06-.24.09-.92.22c.32-.09-.54.05-.76.05l-.6,0h-.06c-.35-.09-.7-.14-1-.24s-1.23-.53-.53-.17c-.36-.19-.72-.37-1.07-.58l-.33-.22c.1.07,0,0-.1-.06l-.08-.06.08,0a.91.91,0,0,1-.16-.13c-.27-.24-.51-.49-.76-.75l-.11-.1-.24-.35a12.23,12.23,0,0,1-.62-1.12l0-.1c-.08-.26-.17-.52-.24-.79s-.1-.44-.15-.66c0,0,0-.27-.05-.39a.8.8,0,0,0,0-.11c0-.23,0-.45,0-.68,0-.39,0-.79.07-1.19a1.57,1.57,0,0,1,0-.16c.07-.27.12-.55.19-.82s.13-.44.2-.65.09-.26.13-.35a11.53,11.53,0,0,1,.64-1.2c.11-.19.25-.36.37-.55a.33.33,0,0,1,0-.06l.09-.1c.34-.36.67-.72,1-1.06.16-.15.33-.29.5-.43l0,0,.14-.08c.42-.26.83-.54,1.27-.77.19-.1.4-.19.59-.3l.06,0,.12,0c.53-.17,1-.34,1.58-.47a3.75,3.75,0,0,0,2.6-4.58,3.8,3.8,0,0,0-4.58-2.6,16.56,16.56,0,0,0-11.62,10.2,14.67,14.67,0,0,0,2.93,15.07A13.47,13.47,0,0,0,321.82,235.78Zm1.75-18,0,0h0Zm0,0h0Zm.29.31h0a.38.38,0,0,1,.16.06S323.93,218.13,323.84,218.08Zm-11.54,7.27c0,.11.05.17,0,0Z" transform="translate(-44.83 -85.7)"/><path class="cls-2" d="M381.25,212.89c-4.75,1.72-8.85,5.79-9.83,10.89a11,11,0,0,0,7.42,12.87c5.68,1.94,11.57-.67,15.75-4.52a32,32,0,0,0,5.09-6.08q1.79,6.66,4.07,13.15a3.81,3.81,0,0,0,4.58,2.6,3.76,3.76,0,0,0,2.6-4.58,177.34,177.34,0,0,1-6.55-23.51c-.69-3.35-5.23-3.4-6.79-.87C392.23,211.81,386.49,211,381.25,212.89Zm.89,17Zm12.58-10a26.27,26.27,0,0,1-3.13,4.65,26.72,26.72,0,0,1-2.27,2.37,10.87,10.87,0,0,1-2.14,1.63,7.51,7.51,0,0,1-4.6,1.34l-.6,0-.15,0c-.39-.12-.78-.21-1.17-.34l-.06,0L380,229l-.29-.2c-.12-.13-.42-.41-.41-.4a1.12,1.12,0,0,1-.13-.16c-.08-.14-.16-.28-.25-.41l-.07-.12c0-.1-.08-.2-.09-.24a3.83,3.83,0,0,0-.16-.58h0q0-.48,0-1c0-.06.08-.62.13-.82s.21-.66.33-1l0,0c.1-.19.19-.39.3-.57a10.61,10.61,0,0,1,.68-1.06c.09-.09.37-.44.47-.54.3-.32.62-.61,1-.9h0l.4-.27.55-.33s.55-.26.55-.28C386.7,218.64,390.76,219.11,394.72,219.85Z" transform="translate(-44.83 -85.7)"/><path class="cls-2" d="M421.69,226.8c-1.95,2.53-1.54,5.85-1.51,8.85l.09,9.07a3.72,3.72,0,1,0,7.44,0l-.07-6.86c0-2.09-.17-4.76,0-6.51,0,.18,0,.07,0-.06l.1-.08.28-.16c.8-.46,1.64-.85,2.47-1.24a29.81,29.81,0,0,1,5.18-2c.65-.18,1.75-.43,2.21-.52l.59-.06.59,0c.52,0,1,0,1.56,0l.35,0,.38.07q.66.15,1.29.36l.24.1.48.25c.3.17.59.37.88.57.08.08.45.38.54.47.27.26.51.54.76.81l.07.09c.07.1.15.2.21.3.23.37.47.72.68,1.1.38.66.7,1.35,1,2.05l.14.35c.17.42.33.85.48,1.27,1.34,3.63,2.47,7.46,4.72,10.66A3.81,3.81,0,0,0,458,247c1.62-.95,2.5-3.44,1.33-5.09a19.59,19.59,0,0,1-1.38-2.29c-.21-.4-.4-.81-.59-1.22l-.1-.25-.18-.44c-.69-1.75-1.28-3.55-1.95-5.31-1.5-4-3.39-7.61-6.9-10.14-4-2.86-9.11-3-13.69-1.85a39.38,39.38,0,0,0-6.81,2.49C425.53,223.91,423.17,224.89,421.69,226.8Zm23.94,3.2Z" transform="translate(-44.83 -85.7)"/><path class="cls-2" d="M476.17,240.75c2.26.61,4.84.31,7.16.31h7.19a3.73,3.73,0,0,0,0-7.45h-11.7s0-.06,0-.06c.06-.27.11-.55.19-.82a25,25,0,0,1,.86-2.38c.06-.14.11-.29.17-.43a1.91,1.91,0,0,0,.1-.23c.19-.4.38-.8.58-1.2s.42-.78.65-1.16c.05-.08.43-.63.5-.75a8.73,8.73,0,0,1,.71-.79c.13-.13.27-.25.41-.37l.08-.06c.33-.19.65-.39,1-.56l.6-.18c.11,0,.9-.16.95-.18a10.88,10.88,0,0,1,1.14-.06c3.52,0,6.89.66,10.36.32a127.6,127.6,0,0,1-5.53,23.05,3.72,3.72,0,0,0,7.18,2,134,134,0,0,0,7.1-42.81,3.72,3.72,0,0,0-7.44,0c0,3.44-.16,6.85-.44,10.25a4.36,4.36,0,0,0-1.07.08l-.6.12c-.41,0-.83.06-1.24.07-.91,0-1.82,0-2.72-.12-1.75-.14-3.49-.38-5.25-.39a13.29,13.29,0,0,0-10.35,4.18,25.76,25.76,0,0,0-4.88,9.49C470.67,234.61,471.58,239.5,476.17,240.75Z" transform="translate(-44.83 -85.7)"/><path class="cls-2" d="M342.51,267.36a3.76,3.76,0,0,0-4.58,2.6q-2.39,12-5.16,24-1.39,6-2.88,11.93c-.32,1.25-.64,2.49-.95,3.73A283.63,283.63,0,0,1,312,278.31c-.84-1.83-3.47-2.28-5.09-1.34a3.81,3.81,0,0,0-1.33,5.1,282.11,282.11,0,0,0,20.46,36.87,3.82,3.82,0,0,0,5.09,1.34c3.83-2,4.49-6.76,5.44-10.51q1.56-6.18,3-12.4,3-12.66,5.5-25.43A3.82,3.82,0,0,0,342.51,267.36Z" transform="translate(-44.83 -85.7)"/><path class="cls-2" d="M360.66,295.78a3.75,3.75,0,0,0-3.72-3.72,3.79,3.79,0,0,0-3.72,3.72q-.37,10.92.24,21.85a3.73,3.73,0,0,0,7.45,0Q360.28,306.71,360.66,295.78Z" transform="translate(-44.83 -85.7)"/><path class="cls-2" d="M358.92,269.71a3.72,3.72,0,1,0,3.72,3.72A3.78,3.78,0,0,0,358.92,269.71Z" transform="translate(-44.83 -85.7)"/><path class="cls-2" d="M391.43,327.13a3.83,3.83,0,0,0,3.73-3.72c0-1.87-1.71-3.91-3.73-3.72a40.53,40.53,0,0,1-12.64-.72c-.81-.18-1.62-.39-2.41-.64a9.75,9.75,0,0,1-1.9-.76,6.27,6.27,0,0,1-2.88-2.46c-.09-.14-.38-.82-.38-.77-.11-.33-.19-.66-.29-1l0-.23c0-.14-.05-.43-.06-.48a12.32,12.32,0,0,1,0-1.36q0-.39.06-.78s0-.18,0-.3.05-.3.05-.29l.12-.6a25.12,25.12,0,0,1,.85-2.93c.14-.38.28-.76.43-1.14,0,0,.06-.16.11-.28l.22-.49c.4-.88.81-1.75,1.25-2.6a24.69,24.69,0,0,1,2.69-4.19,21,21,0,0,1,1.95-1.95,15.71,15.71,0,0,1,2.2-1.32l.35-.15.75-.24.57-.15.54-.12a9.47,9.47,0,0,1,1.19,0l.49,0c.18.05.66.14.65.14a3.81,3.81,0,0,0,4.58-2.6,3.77,3.77,0,0,0-2.6-4.58c-5.1-1.23-10.16.51-14.07,3.85-3.65,3.12-5.93,7.6-7.74,12-1.74,4.18-2.93,9.09-1.55,13.55,1.51,4.89,5.58,7.84,10.27,9.39A43.19,43.19,0,0,0,391.43,327.13Z" transform="translate(-44.83 -85.7)"/><path class="cls-2" d="M414.48,304c1.44-.24,2.87-.48,4.3-.77a3.75,3.75,0,0,0,2.6-4.58,3.83,3.83,0,0,0-4.58-2.6c-1.21.24-2.44.45-3.66.66q-1.54-9-2.56-18.15a3.82,3.82,0,0,0-3.72-3.72c-1.84,0-3.94,1.71-3.72,3.72q1,9.61,2.66,19.15c-2.41.25-4.83.46-7.26.58a3.72,3.72,0,0,0,0,7.44c2.87-.14,5.73-.39,8.58-.71q1.32,6.84,2.93,13.64a3.72,3.72,0,0,0,7.18-2Q415.72,310.34,414.48,304Z" transform="translate(-44.83 -85.7)"/><path class="cls-2" d="M456.51,310.09a38,38,0,0,0,3.76-7.69c1.07-2.94,1.93-6,.57-9a11.8,11.8,0,0,0-5.9-5.39,18.17,18.17,0,0,0-17.46,1,4.14,4.14,0,0,0-1.77,2.66,3.23,3.23,0,0,0-.95,1.63,23.06,23.06,0,0,0,2,15.54c2.53,5,8.06,10.76,14.05,7.45C453.27,315,455,312.37,456.51,310.09Zm-5.23-15.63c-.49-.16-.18-.07,0,0Zm-9.58,5.73c0-.15,0-.1,0,0Zm7.2,7.83Zm0,.07-.1.13c-.21.26-.42.52-.65.76a7.64,7.64,0,0,0-.65.66l-.32.2H447l0,0c-.13-.07-.25-.15-.37-.23a21.13,21.13,0,0,1-1.74-1.8c0-.07-.46-.61-.54-.71-.3-.45-.58-.92-.85-1.39s-.43-.88-.66-1.31v0c-.11-.3-.23-.6-.33-.9a20.6,20.6,0,0,1-.76-3v-.06c0-.3-.06-.6-.08-.9a14.6,14.6,0,0,1,0-1.62c0-.49.06-1,.09-1.47v0a.43.43,0,0,1,0-.11c.06-.31.12-.64.19-.95,0-.1,0-.19,0-.28s.33-.21.51-.3l.56-.28h0c.47-.14.91-.32,1.38-.44q.31-.09.63-.15l.39-.08.37,0c.27,0,.54,0,.81-.05.43,0,.86,0,1.29,0,.27,0,1.4.22.61,0,.53.12,1,.21,1.57.35s.78.26,1.17.39l.05,0,.58.28c.38.21.73.45,1.1.67l.14.07v0c.2.18.41.35.6.54l.2.21a3.31,3.31,0,0,0,.18.29.19.19,0,0,1,0,.08v.18c-.05.21-.09.44-.15.65-.15.59-.32,1.17-.5,1.74s-.31.92-.48,1.37c-.1.29-.21.57-.32.85l-.07.15q-.64,1.47-1.44,2.88c-.47.84-1,1.66-1.52,2.46C449.41,307.33,449.13,307.71,448.85,308.09Z" transform="translate(-44.83 -85.7)"/><path class="cls-2" d="M497.62,282.34c-.28-.06.66.18.8.22l.16.05a3.18,3.18,0,0,1,.32.16,4.48,4.48,0,0,1,.47.28l.14.12a3.8,3.8,0,0,0,5.26,0,3.75,3.75,0,0,0,0-5.26,12.91,12.91,0,0,0-12.65-2.36,27,27,0,0,0-5.94,2.89,30.28,30.28,0,0,0-5,3.61c-3.52,3.41-3.12,8.19-3.1,12.69q0,7.13.07,14.24a3.73,3.73,0,0,0,7.45,0l-.06-11.78,0-5.9a17.93,17.93,0,0,1,.07-2.32,5.11,5.11,0,0,0,.19-.73q.19-.62.12-.3c-.06.19,0,.11.17-.25l.39-.39c.06-.06.51-.43.55-.48.59-.44,1.23-.84,1.85-1.25a27.7,27.7,0,0,1,4.55-2.6c.23-.1,1.38-.42,1.93-.58l.22-.07h.11a8.84,8.84,0,0,1,1.15,0,5.43,5.43,0,0,1,.57,0C497.78,282.35,497.87,282.35,497.62,282.34Z" transform="translate(-44.83 -85.7)"/><path class="cls-2" d="M549.63,267.7A3.69,3.69,0,0,0,546.4,264c-1.68-.2-3.76.82-4.08,2.67a55,55,0,0,1-7.76,20.42c-.85,1.36-2.07,3.12-2.83,4.12a8.94,8.94,0,0,1-3.44,3.06c-.41.19,0,0,.06,0l-.37.1-.05-.08c0-.21-.11-.43-.17-.64s0-.13,0-.17,0-.09,0-.21c-.05-.9-.05-1.8,0-2.7l.07-14.61a3.73,3.73,0,0,0-7.45,0q0,7.54-.07,15.1a15.24,15.24,0,0,0,1,6.42,7.28,7.28,0,0,0,5.61,4.25c5.1.7,8.88-3.47,11.62-7.17,1.1-1.48,2.11-3,3.06-4.6q0,3.39,0,6.78c0,4.74.15,9.49.28,14.24a54.91,54.91,0,0,1-.12,6.54,14.88,14.88,0,0,1-.43,2.53c-.14.58-.3,1.15-.49,1.71-.07.21-.15.42-.23.63l0,.13-.1.18c-.23.43-.45.86-.71,1.27-.08.14-.58.8-.57.82-.29.34-.59.67-.91,1s-.35.32-.53.49l-.14.11a10.75,10.75,0,0,1-1.16.73l-.45.23-.43.15-.5.14-.6.11h-.14c-.36,0-.71,0-1.06,0a3.75,3.75,0,0,0-3.73,3.72,3.79,3.79,0,0,0,3.73,3.72,13.93,13.93,0,0,0,11.38-5.33c3.2-3.91,4.4-8.67,4.66-13.65s-.14-10-.21-15q-.12-7.83,0-15.65Q549.17,276.63,549.63,267.7Zm-21.7,26.59-.06-.11C527.73,293.81,527.89,294.19,527.93,294.29Zm9.5,32.16Z" transform="translate(-44.83 -85.7)"/><path class="cls-2" d="M413.58,390.64q-11.49-7.92-23.23-15.46a44.62,44.62,0,0,0,9.58-4.25c5.46-3.36,11.05-9.07,9.89-16.05a7.41,7.41,0,0,0-7.45-6.34,18.6,18.6,0,0,0-8.71,2.37c-5.24,2.83-9,7.83-11.22,13.26a34.61,34.61,0,0,0-1.78,6l-.3.08c-3.2.82-3.54,5.14-.89,6.8l.29.19c-.22,3.31-.2,6.66-.17,9.93a3.72,3.72,0,1,0,7.44,0c0-1.78,0-3.55,0-5.31q11.5,7.42,22.79,15.19a3.75,3.75,0,0,0,5.09-1.34A3.79,3.79,0,0,0,413.58,390.64ZM402.71,356h.1S402.76,356,402.71,356ZM389.4,366.7c0-.08.21-.48.22-.53s.14-.3.22-.45c.26-.55.54-1.09.85-1.61s.63-1.05,1-1.55l.59-.81a22.23,22.23,0,0,1,2.42-2.53l.54-.47.12-.1.12-.08c.44-.31.88-.61,1.34-.88s.92-.52,1.4-.75l.42-.17c.28-.1.55-.2.83-.28a12.92,12.92,0,0,1,1.36-.35l.45-.08.5-.05.7,0a1.7,1.7,0,0,1,.09.38.42.42,0,0,0,0,.14v0c0,.18,0,.36,0,.54s0,.26,0,.31c-.09.3-.17.61-.26.91a.56.56,0,0,0-.05.16,1.5,1.5,0,0,1-.09.18,13.59,13.59,0,0,1-1,1.65c-.45.64-.24.3-.14.18-.2.25-.42.49-.65.73-.4.42-.82.83-1.25,1.22a19.6,19.6,0,0,1-2.89,2.09,35.74,35.74,0,0,1-7.14,3.28C389.15,367.42,389.27,367.06,389.4,366.7Z" transform="translate(-44.83 -85.7)"/><path class="cls-2" d="M427.81,383.21h0l.11.09A.35.35,0,0,0,427.81,383.21Z" transform="translate(-44.83 -85.7)"/><path class="cls-2" d="M441.3,377l-.26-.17a1.54,1.54,0,0,0,.26.17Z" transform="translate(-44.83 -85.7)"/><path class="cls-2" d="M444.08,370c-5.12-2.74-11.51-2.7-17.09-1.76a2.36,2.36,0,0,1-2.89,1,3.8,3.8,0,0,0-3.72,3.72c-.14,2.6-.24,5.2-.27,7.81s.38,5.48,2.31,7.58c1.68,1.83,4.24,2.85,6.49,3.77a12.72,12.72,0,0,0,8,.88c2.65-.68,4.84-2.63,6.7-4.54a28,28,0,0,0,4.52-5.88,8.71,8.71,0,0,0,.48-8.14A10.35,10.35,0,0,0,444.08,370ZM442,377.71s0-.09,0-.09A.41.41,0,0,1,442,377.71Zm-14.3,5.38c-.25-.44-.07-.17,0,0Zm7.08,2.77h0C434.85,385.84,435.26,385.82,434.81,385.86Zm1.45-.74c-.32.26-.07.05,0,0Zm5.57-6.49c-.21.41-.85,1.37-1.26,1.95l-.28.39-.17.22c-.32.39-.64.78-1,1.16-.6.66-1.22,1.29-1.87,1.89-.33.3-.66.6-1,.88h0c-.26.18-.53.35-.8.5l-.11.07-.6.17c-.23,0-.47,0-.7,0h-.17l-.55-.11a13.31,13.31,0,0,1-1.52-.46l-.56-.22-.05,0L431,385l-1.25-.6a13.74,13.74,0,0,1-1.76-1l-.11-.12a.13.13,0,0,1,0,.07l-.06,0-.08-.12h0l0,0,0-.05-.14-.51c0-.06,0-.11,0-.13,0-.29,0-.57,0-.86,0-.5,0-1,0-1.5,0-1.56.08-3.12.14-4.67a5.36,5.36,0,0,0,1.26-.05,17.86,17.86,0,0,1,2.34-.26,27.41,27.41,0,0,1,3.14,0,16,16,0,0,1,4.8.81c.12,0,.66.26.77.29l.57.31.45.28c-.05,0,.14.05.25.15v0l.05,0-.05,0c.13.13.26.26.4.38l.07.06.18.27,0,0,0,.07,0,.09c0,.07,0,.13,0,.16h0l0,.07A4.46,4.46,0,0,0,441.83,378.63Z" transform="translate(-44.83 -85.7)"/><path class="cls-2" d="M483.57,353.46a3.72,3.72,0,0,0-3.23-3.65c-1.68-.2-3.77.82-4.08,2.66A66.13,66.13,0,0,1,468.18,375a62.8,62.8,0,0,1-6.64,9.42c-.12.15-.26.3-.39.45-.16-.48-.32-.95-.47-1.43-.34-1.1-.64-2.21-.89-3.33a40.42,40.42,0,0,1-.56-14.2c.3-2-.5-4-2.6-4.58-1.76-.48-4.28.6-4.58,2.6a49.42,49.42,0,0,0,.24,16.59,41.58,41.58,0,0,0,2.11,7.5c1.07,2.73,3,5.48,6.28,5.39,3-.07,4.91-2.25,6.67-4.36,1.62-1.95,3.16-4,4.59-6.07a70.15,70.15,0,0,0,4.72-8.13c0,1.7.09,3.41.13,5.11l.34,13.23c.05,2.09.17,4.19,0,6.28a9.82,9.82,0,0,1-1.1,4.15c-.18.32-.38.63-.58.94l-.11.17-.33.39a17.86,17.86,0,0,1-1.86,1.83,12.08,12.08,0,0,1-1.37,1c-.75.5-1.51,1-2.3,1.41a47.15,47.15,0,0,1-9.9,4.31,25.34,25.34,0,0,1-5.26,1.05,15.46,15.46,0,0,1-5-.35,16.58,16.58,0,0,1-4.74-2c-1.6-.89-3.15-1.88-4.74-2.77-3.47-2-7.29-3.45-11.34-3.19s-7.84,2-9.91,5.59a3.72,3.72,0,1,0,6.43,3.75c.08-.14.23-.36.28-.44l.53-.54a2.2,2.2,0,0,1,.25-.17,3.39,3.39,0,0,0,.53-.29h0c.27-.08.55-.19.83-.26s.56-.12.67-.15a12.25,12.25,0,0,1,2,0l.58.06c.29.05.58.1.87.17a18.16,18.16,0,0,1,1.94.61,45.41,45.41,0,0,1,4.75,2.61c3.44,2.05,7,4,11,4.59a28.79,28.79,0,0,0,12.53-1.13A59.06,59.06,0,0,0,473,416a26.35,26.35,0,0,0,8.65-7.22c2.51-3.41,3.11-7.63,3.06-11.76-.05-4.35-.21-8.7-.32-13.05Q484,368.69,483.57,353.46ZM460.06,386.1h0Zm1.83.41-.05-.1C461.91,386.46,462.07,386.89,461.89,386.51Zm13.45,18.24Z" transform="translate(-44.83 -85.7)"/><path class="cls-2" d="M507.4,392.54c4.78-.62,8.13-5.07,10.87-8.64a36.21,36.21,0,0,0,2.64-4l.19.35,6.08,10.9a3.72,3.72,0,1,0,6.43-3.76l-5.11-9.15-2.43-4.36-1.33-2.4-.59-1.05c0-.19.07-.38.09-.58a3.74,3.74,0,0,0-2.73-3.59c-1.45-.4-3.58.22-4.21,1.71-.15.36-.28.7-.39,1a4.19,4.19,0,0,0-3-1.58c-4.8-.4-11.31-1.54-14.45,3.09a16.29,16.29,0,0,0-2,6,19.75,19.75,0,0,0-.24,8.1C498.19,389.24,502.52,393.17,507.4,392.54ZM524.07,371l0-.15Zm-18.48,3.72h0l0,0h0Zm0-.06Zm-.05,0,0,0C505.23,374.76,505.26,374.75,505.56,374.66Zm.07,10.23-.36-.34-.16-.19c-.1-.15-.2-.3-.29-.46s-.25-.6-.27-.62c-.09-.34-.22-.87-.21-.78a15.87,15.87,0,0,1,.75-6.16c.12-.47.24-.93.39-1.38l.09-.25h0s0,.09-.06.17l.15-.24h0l.22-.08a1.38,1.38,0,0,0,.3,0c2.57,0,5.14.1,7.71.32a3,3,0,0,0,1.45-.26l-.16.31a26.88,26.88,0,0,1-1.43,2.5c-.45.7-1.33,1.93-1.59,2.27a43.68,43.68,0,0,1-4.13,4.57,3.54,3.54,0,0,0-.3.26l-.54.35a1.7,1.7,0,0,0-.22.17,1.43,1.43,0,0,0-.31.08l-.22.05h-.18l-.26-.07-.17-.08Z" transform="translate(-44.83 -85.7)"/><path class="cls-2" d="M567.77,345a3.73,3.73,0,0,0-7.45,0,350.8,350.8,0,0,1-1.89,46.74c-.21,2,1.87,3.72,3.73,3.72a3.81,3.81,0,0,0,3.72-3.72A350.8,350.8,0,0,0,567.77,345Z" transform="translate(-44.83 -85.7)"/><path class="cls-2" d="M579.34,385.5a3.73,3.73,0,1,0,3.72,3.73A3.79,3.79,0,0,0,579.34,385.5Z" transform="translate(-44.83 -85.7)"/><path class="cls-2" d="M553.37,438.14q-7.49,4.74-15.27,9.07c-.2-.74-.39-1.49-.56-2.25a3.75,3.75,0,0,0-5.47-2.22c-4.22,2.77-6.2,7.09-7.65,11.66-5.46,2.7-11,5.24-16.56,7.57-2.72,1.14-3.53,3.88-1.65,6.23,2.24,2.78,6.58,3.3,9.82,4.17l2.35.63c-.29.74-.58,1.47-.88,2.2-1.31.89-2.64,1.76-3.94,2.58a3.81,3.81,0,0,0-1.34,5.1,3.76,3.76,0,0,0,1.3,1.27,1.74,1.74,0,0,1-.1.19,3.84,3.84,0,0,0,1.34,5.1,3.76,3.76,0,0,0,5.09-1.34c1.29-2.64,2.48-5.33,3.63-8q2.84-2,5.57-4.18l19.71,5.31a3.81,3.81,0,0,0,4.21-1.71,3.88,3.88,0,0,0-.59-4.51,70.3,70.3,0,0,1-8.49-12.81c2.42-2.61,4.74-5.32,6.92-8.13,2.72-3.48,5.29-7.07,7.66-10.8C560.45,440.11,556.5,436.16,553.37,438.14ZM535,460.71q-3.13,3.14-6.47,6c.14-.45.3-.89.45-1.34.61-1.93,1.14-3.89,1.69-5.84,1.06-.53,2.12-1.06,3.17-1.6C534.18,458.88,534.57,459.8,535,460.71Zm-15.51,4.87-.92-.24,3.05-1.39c-.22.68-.44,1.35-.67,2Zm19,2.1c.68,1.22,1.39,2.42,2.14,3.6L536,470C536.8,469.26,537.63,468.47,538.46,467.68Zm2-13.26.78-.44-.66.76Z" transform="translate(-44.83 -85.7)"/><path class="cls-2" d="M561.69,191a126.23,126.23,0,0,0-8.89,15.37,52.13,52.13,0,0,1-10.73,1c-3.63-.05-5.15,5.17-1.88,6.93a31.19,31.19,0,0,0,8,2.75c-1,2.49-1.85,5-2.65,7.54-.84,1.44-1.62,2.91-2.31,4.41a3.82,3.82,0,0,0,1.33,5.09,4,4,0,0,0,4.18-.23,3.72,3.72,0,0,0,2.59-2.57c.34-1.25.72-2.48,1.09-3.71a45,45,0,0,1,5.92-7.69l.36.2.71.44.42.31.42.37c.21.2.41.41.61.63.42.45.81.93,1.26,1.36a7.79,7.79,0,0,0,4.93,2.25,3.73,3.73,0,0,0,3.72-3.72l-.8-10.81c1.3-.71,2.62-1.36,4-2a3.75,3.75,0,0,0,1.71-4.21,3.81,3.81,0,0,0-3.59-2.73,20.69,20.69,0,0,0-2.74.15c-.23-3.08-.45-6.16-.68-9.24A3.76,3.76,0,0,0,561.69,191Z" transform="translate(-44.83 -85.7)"/><path class="cls-2" d="M154.17,112.91q-4.48-2-8.77-4.43,2.72-4.8,5.65-9.47c1.4-2.21-.39-5.91-3.22-5.6-3.47.39-5.93,2.18-8.47,4.47l-4.4,4q-1.83-1.29-3.59-2.64c-2.18-1.68-5.85.58-5.6,3.21a68,68,0,0,0,1,6.82l-10.1,9.14c-2.82,2.56.16,7.15,3.62,6.22,3.07-.82,6.14-1.47,9.22-2l.09.68c-1.6,3.58-3.13,7.2-4.55,10.86-.73,1.87.8,4.09,2.6,4.58a3.62,3.62,0,0,0,4.14-1.75,3,3,0,0,0,.32.12,3.76,3.76,0,0,0,4.58-2.6,34.91,34.91,0,0,0,.49-10c.5-1.09,1-2.19,1.53-3.28,4.49-.54,9-1,13.56-1.37a3.85,3.85,0,0,0,3.58-2.73A3.74,3.74,0,0,0,154.17,112.91Zm-18.91-1.28c-.09.17-.18.34-.26.51l-.06-.23Z" transform="translate(-44.83 -85.7)"/><circle class="cls-2" cx="118.84" cy="57.25" r="3.72"/><path class="cls-2" d="M168.38,156a3.72,3.72,0,1,0,3.72,3.72A3.78,3.78,0,0,0,168.38,156Z" transform="translate(-44.83 -85.7)"/><path class="cls-2" d="M578.4,167.6a3.73,3.73,0,1,0-3.72-3.73A3.78,3.78,0,0,0,578.4,167.6Z" transform="translate(-44.83 -85.7)"/><path class="cls-2" d="M559.05,111.64a3.73,3.73,0,1,0-3.72-3.73A3.78,3.78,0,0,0,559.05,111.64Z" transform="translate(-44.83 -85.7)"/><path class="cls-2" d="M571.6,496.43a3.72,3.72,0,1,0,3.72,3.72A3.78,3.78,0,0,0,571.6,496.43Z" transform="translate(-44.83 -85.7)"/><path class="cls-2" d="M554.34,535.13a3.72,3.72,0,1,0,3.72,3.72A3.78,3.78,0,0,0,554.34,535.13Z" transform="translate(-44.83 -85.7)"/><path class="cls-2" d="M511.16,410.53l-.15,0a3.56,3.56,0,0,0-1.64-.41,3.72,3.72,0,1,0,0,7.44l.15,0a3.57,3.57,0,0,0,1.64.42,3.73,3.73,0,1,0,0-7.45Z" transform="translate(-44.83 -85.7)"/></svg>