<svg id="Layer_1" data-name="Layer 1" xmlns="http://www.w3.org/2000/svg" viewBox="0 0 423.41 775.94"><defs><style>.cls-1{fill:#8681bd;}.cls-2{fill:#c9c6e3;}</style></defs><title>teacher</title><polygon class="cls-1" points="423.41 775.94 423.41 461.3 0 0 0 775.94 423.41 775.94"/><path class="cls-2" d="M43.66,319.07c1,3.6,1.88,7.23,2.56,10.9q.27,1.48.51,3c.06.43.12.85.19,1.28v0c0,.05,0,.1,0,.17.23,2,.43,4,.54,6,.17,2.94,2.47,5.77,5.63,5.63,2.9-.13,5.8-2.48,5.63-5.63-1-18.14-7.39-34.85-13.87-51.55,6.36,1.79,13.44.64,20,0a51.71,51.71,0,0,1,6.22-.3c.54,0,1.07,0,1.61.07l.68.06.29,0,.87.17c.51.12,1,.25,1.53.4s.79.29,1.19.43c.21.11.43.21.64.33q.64.35,1.26.75l.6.41,0,0a25.52,25.52,0,0,1,2.11,2.05l.48.58c.33.47.66.93,1,1.42.56.91,1,1.85,1.5,2.8l.07.13c0,.13.08.24.08.26q.33.87.6,1.77a30.81,30.81,0,0,1,.83,3.54c0,.22.09.48.12.73a.28.28,0,0,1,0,.09c.07.77.15,1.55.19,2.33a59.23,59.23,0,0,1-.16,8.21c-.11,1.31-.25,2.62-.4,3.92-.06.54-.1,1.1-.2,1.64.28-1.59-.09.54-.15,1a68.73,68.73,0,0,1-3.54,14c-.15.38-.61,1.93-.2.55a10.39,10.39,0,0,1-.68,1.48c-.52,1.1-1.1,2.18-1.72,3.23s-1.22,2-1.89,2.9l-.09.12-.41.52c-.35.42-.71.83-1.09,1.23a28.7,28.7,0,0,1-2.53,2.4s-.29.25-.45.38l.15-.13c.67-.58-.16.11-.32.22-.5.36-1,.7-1.53,1a33.73,33.73,0,0,1-3.24,1.75l-.25.12-.44.15c-.51.19-1,.36-1.55.52s-1.16.32-1.75.45c-.21.05-.56.07-.89.11,0,0-.11.11-.45.14l-.17,0s-.06,0-.08,0l.05,0-.69.05a17.57,17.57,0,0,1-1.78,0c-.51,0-1.06-.11-1.58-.12l-.78-.15c-.53-.12-1-.26-1.55-.42l-.85-.29-.08,0c-2.67-1.16-6.11-.79-7.61,2.06-1.3,2.46-.85,6.4,2,7.7a27.24,27.24,0,0,0,16.37,2,31.31,31.31,0,0,0,13.26-5.91c8.92-6.75,13.84-17,16.21-27.76A106,106,0,0,0,98,313.12c.31-5.84-.06-12-2.13-17.55A29.68,29.68,0,0,0,86,282c-4.19-3.18-9.4-4.47-14.59-4.64s-10.26.83-15.39,1.19l-.29,0a28.36,28.36,0,0,0,2.81-3.95c4-6.79,4.6-14.74,3.55-22.38-.86-6.3-2.84-12.7-6.61-17.9-4-5.43-9.66-10.1-16.74-10-7.71.12-13.59,5.52-16.4,12.36-3,7.21-1.47,15.36.41,22.64,3.38,13.15,8.69,25.68,13.56,38.32C39,304.73,41.61,311.82,43.66,319.07ZM68.11,351.5l.5-.22A1.61,1.61,0,0,1,68.11,351.5ZM47.43,271.07l.27-.35A1.59,1.59,0,0,1,47.43,271.07Zm-.66,6.61h0l.36.1ZM33,254c-.2-.84-.39-1.68-.55-2.53-.06-.31-.12-.62-.17-.93s-.11-.62-.15-.93c-.1-.65-.1-.62,0,.1a9.07,9.07,0,0,1-.2-2.33c0-.78,0-1.55,0-2.33,0-.46.06-.93.1-1.39.06-.76,0-.51,0-.22a10.08,10.08,0,0,1,.52-2c.1-.33.22-.65.34-1l0-.06c.29-.53.56-1.07.88-1.59.13-.2.27-.39.4-.6h0c.49-.52,1-1,1.48-1.48h0l.59-.38.44-.21c-.18,0-.24,0,.14-.11l.22-.07c.08,0,.14-.08.14-.1s0,0,0,.07a7.35,7.35,0,0,1,.71-.2l.06,0a11.65,11.65,0,0,0,1.44,0l-.23-.09a2.53,2.53,0,0,0,.35.09h.19c.24,0,.34.07.31.1l.08,0,.66.2-.18-.13c.08.06.19.1.29.16h0c.27.07.43.19.43.23.25.12.5.23.72.36s.54.33.81.51c.19.39,1.08.93,1.37,1.23.46.45.9.93,1.32,1.43.15.18.29.38.45.55l-.19-.2.18.22c.42.6.82,1.21,1.19,1.84a34.6,34.6,0,0,1,1.66,3.2l0,.05.31.84q.36,1,.66,2.07a50.12,50.12,0,0,1,1.23,5.56c0,.24.09.49.12.74s.06.8.07.92c.08.91.12,1.81.13,2.72s0,1.81-.09,2.71l-.09,1c0,.22-.07.44-.12.66-.16.88-.37,1.76-.62,2.63,0,.13-.67,1.69-.74,2.05l0,.06c-.15.32-.32.65-.49,1-.35.63-.73,1.25-1.13,1.85,0,0-.15.24-.29.44l0,0-.34.42c-.47.54-1,1.07-1.49,1.56-.26.25-.54.47-.8.72l0,0c-.57.39-1.13.77-1.73,1.11l-.94.49h0l-.09,0a17.17,17.17,0,0,1-2.23.63l-.22.07c-1-2.75-2-5.5-2.92-8.27-1-3-1.91-5.95-2.73-9C33.76,257,33.37,255.5,33,254Z" transform="translate(-3.54 -12.93)"/><path class="cls-2" d="M63.39,352.76c0-.06-.3-.06-.65.16h0A2,2,0,0,1,63.39,352.76Z" transform="translate(-3.54 -12.93)"/><path class="cls-2" d="M45.8,240.12c-.26-.3-.56-.58,0,0Z" transform="translate(-3.54 -12.93)"/><path class="cls-2" d="M37.21,235.93l-.1,0a4,4,0,0,1-.36.18A.76.76,0,0,0,37.21,235.93Z" transform="translate(-3.54 -12.93)"/><path class="cls-2" d="M40,235.76l-.5-.09h-.12C39.79,235.81,40,235.8,40,235.76Z" transform="translate(-3.54 -12.93)"/><path class="cls-2" d="M41.32,236.24c-.15-.07-.29-.15-.43-.23l-.11,0C41.17,236.23,41.33,236.28,41.32,236.24Z" transform="translate(-3.54 -12.93)"/><path class="cls-2" d="M113.4,319.25q.55,13.14,1.42,26.28,1,14.87,2.33,29.7c.26,2.92,2.4,5.77,5.63,5.62,2.82-.12,5.91-2.48,5.62-5.62q-2.22-24.48-3.43-49c-.4-8.16-.83-16.35-.93-24.53,0-.89,0-1.77,0-2.66,0-.44,0-.88.07-1.32,0-.09,0-.33,0-.53a13.33,13.33,0,0,1,.51-2.27c.08-.27.19-.55.26-.83,0-.1.07-.17.09-.24l.14-.3c.11-.2,1-1.9,1.16-1.86l-.44.56.48-.56c.24-.27.5-.53.76-.79s.53-.48.8-.72l0,0c.73-.46,1.46-.88,2.22-1.3l.07,0c.45-.16.89-.32,1.34-.45l1.08-.27.47-.09a20.51,20.51,0,0,1,2.6,0l.4,0q.94.1-.3-.06a4.68,4.68,0,0,1,1.57.32,12,12,0,0,1,2.43.75l.36.22c.48.24,1,.5,1.42.77l1,.66.48.34c.7.62,1.39,1.25,2,1.94a5.68,5.68,0,0,0,8,0,5.76,5.76,0,0,0,0-8,25.35,25.35,0,0,0-23.08-7.81,21.23,21.23,0,0,0-16.55,16c-.9,4.27-.74,8.6-.6,12.94S113.21,314.87,113.4,319.25Z" transform="translate(-3.54 -12.93)"/><path class="cls-2" d="M160.63,350.07q1.51,26.88.91,53.83a5.63,5.63,0,0,0,11.26,0q.6-26.92-.92-53.83c-.17-2.93-2.47-5.76-5.63-5.62C163.35,344.58,160.45,346.93,160.63,350.07Z" transform="translate(-3.54 -12.93)"/><path class="cls-2" d="M160.28,333.12a5.63,5.63,0,1,0-5.63-5.63A5.7,5.7,0,0,0,160.28,333.12Z" transform="translate(-3.54 -12.93)"/><path class="cls-2" d="M209.52,349.18h0c0,.05.22,0,.48-.24h-.06Z" transform="translate(-3.54 -12.93)"/><path class="cls-2" d="M214.46,351.23a.78.78,0,0,0,.12.19l-.1-.16Z" transform="translate(-3.54 -12.93)"/><path class="cls-2" d="M195.35,424.74c-.24,2.94,2.77,5.75,5.63,5.62a5.76,5.76,0,0,0,5.63-5.62c1.08-13.05.1-26.12-.39-39.16-.25-6.59-.37-13.19,0-19.78.09-1.6.2-3.2.35-4.8.07-.72.14-1.44.22-2.15,0-.4.1-.8.14-1.2,0-.11,0-.19,0-.25s0-.1,0-.17c.19-1.29.38-2.59.68-3.86.14-.58.29-1.16.47-1.73.07-.22.16-.44.23-.67v0l0-.07c.21-.44.47-.84.72-1.26l.41-.41h0l0,0,0,0a1.11,1.11,0,0,1,.33-.13h0l.1-.06h0L210,349l.16-.05h.65l.63.15.35.11.14.05.24.12c.22.11.44.24.65.37l.19.13c.21.22.57.47.74.64l.7.75v0a0,0,0,0,1,0,0l0,.06c.45.52.26.36.1.16.28.45.94,1.43,1,1.5.34.59.65,1.2.95,1.82.12.25.24.5.35.75l.21.45c1.29,2.7,2.22,5.67,3.23,8.48a261.62,261.62,0,0,1,10.33,36.64q1,5,1.87,10.11c.31,1.85.59,3.7.86,5.55,0,.31.08.61.13.92s0,.4.08.6c.11.85.22,1.69.32,2.54q1.29,10.68,1.71,21.44c.12,2.93,2.51,5.76,5.63,5.62,3-.13,5.75-2.47,5.63-5.62a268.91,268.91,0,0,0-15.31-79.69c-2.29-6.43-4.4-13.44-8.75-18.8s-13-8.26-19.27-4.06c-5.95,4-7,11.17-7.84,17.74a147.25,147.25,0,0,0-.93,20.68C195,393.64,196.65,409.19,195.35,424.74Z" transform="translate(-3.54 -12.93)"/><path class="cls-2" d="M294.66,404.83l-.13-.09.22.19Z" transform="translate(-3.54 -12.93)"/><path class="cls-2" d="M273.18,433l.08,0c.08.05.25.1.38.17l.05,0C273.47,433,273.21,433,273.18,433Z" transform="translate(-3.54 -12.93)"/><path class="cls-2" d="M298.53,494.54c-.25.66-.19.65-.1.42s.06-.24.09-.36A.13.13,0,0,0,298.53,494.54Z" transform="translate(-3.54 -12.93)"/><path class="cls-2" d="M309,500c2.38-12.64.89-25.74.23-38.47L307,418.26c-.18-3.56-.37-7.12-.55-10.68,0-.05,0-.09,0-.14a5.74,5.74,0,0,0,0-5.61c-4.7-8.88-16.29-12.44-25.6-9.59-9.95,3.06-17.26,11.76-20.9,21.23-3.21,8.35-3.06,18.9,3.15,25.83,7.3,8.15,19.63,6.38,27.62.38a35.29,35.29,0,0,0,5.81-5.51q.42,8.06.83,16.12.56,10.68,1.1,21.35c.3,5.9.67,11.81.43,17.73-.06,1.35-.15,2.71-.28,4.07,0,.35-.07.7-.11,1.06,0,0,0,0,0,0l0-.06s0,.08,0,.12a2.7,2.7,0,0,1-.09.36c-.13.59-.14,1.26-.24,1.81-.24,1.3-.53,2.6-.89,3.87a13.9,13.9,0,0,1-1.32,3.93l.07-.1a1.92,1.92,0,0,0-.15.27c-.12.25-.23.5-.35.74-.31.62-.63,1.23-1,1.83s-.71,1.18-1.1,1.76c-.15.23-.32.46-.48.69l-.1.16,0,0c-.45.52-.89,1-1.38,1.53l-.6.57a3.37,3.37,0,0,0-.3.32,7.47,7.47,0,0,1-1.37.83l-.11.07c-.3.08-.77.29-1,.34s-1.26,0-.43.11c1,.08-.46,0-.54,0h-.32a8.77,8.77,0,0,1-1.05-.3c-.31-.09-.62-.21-.93-.31l-.23-.07h0c-.83-.38-1.64-.76-2.46-1.16q-4.46-2.14-8.85-4.43-8.79-4.56-17.29-9.63c-11.1-6.62-21.63-14-32-21.64a182.59,182.59,0,0,0-15.67-10.62,88.61,88.61,0,0,0-18.42-8.15c-6.32-2-12.8-3.41-19.11-5.45-1.39-.45-2.77-.92-4.14-1.43l-2.27-.86-1.12-.45-.92-.39q-4.23-1.82-8.32-3.9c-11.73-6-22.75-13.25-33.87-20.28L48.2,379.08l-9.05-5.73a5.68,5.68,0,0,0-7.7,2,5.75,5.75,0,0,0,2,7.7q36.89,23.34,73.76,46.69c11.54,7.3,23,14.9,34.89,21.54a162.63,162.63,0,0,0,18.59,8.92,173.5,173.5,0,0,0,19,6c3.2.86,6.39,1.76,9.52,2.82q2.21.75,4.38,1.64l.42.18,1.07.48c.79.36,1.57.74,2.34,1.13a124,124,0,0,1,16.22,10.09c5.33,3.8,10.53,7.77,15.89,11.53s10.91,7.43,16.53,10.89,11.62,6.93,17.58,10.12q4.37,2.34,8.79,4.55a71,71,0,0,0,10.1,4.57C297.31,528.81,306.74,512,309,500Zm-13-93.79,0,.09a2.28,2.28,0,0,1-.23-.3Zm-17.35-.24.06-.06C279.35,405.31,278.88,405.76,278.63,405.94Zm-3.79,3.8,0,0Zm9.76,20.58-.1.07C284.73,430.2,285.34,429.81,284.6,430.32ZM295,410.68a1.34,1.34,0,0,0,0,.2c0,.1-.05.2-.06.29-.1.59-.21,1.17-.33,1.75a40.17,40.17,0,0,1-1.85,6.17l-.08.22-.23.48c-.19.4-.38.8-.59,1.2a33.67,33.67,0,0,1-1.76,3.09,20,20,0,0,1-1.66,2.43l-.34.38c-.38.45-.77.88-1.18,1.31a25.94,25.94,0,0,1-2,1.89c-.07.06-.32.22-.42.32-.4.28-.79.56-1.2.81a22.26,22.26,0,0,1-2.44,1.35l-.27.13h0c-.5.16-1,.35-1.47.49s-.86.24-1.3.33l-.4.06a19.41,19.41,0,0,0-2.41,0,2.61,2.61,0,0,1-.27-.06c-.35-.08-.68-.19-1-.29l.08.07-.13-.09-.17-.05c-.24-.08-.31-.14-.29-.16-.37-.21-.72-.46-1.09-.66a.27.27,0,0,0-.08-.07c-.28-.25-.54-.52-.8-.8l-.08-.08a7.63,7.63,0,0,0-.64-1,10.08,10.08,0,0,0-.52-1,18.42,18.42,0,0,1-.66-2.5.51.51,0,0,0,0-.13c0-.36-.06-.72-.08-1.08a25.06,25.06,0,0,1,0-2.6,5.83,5.83,0,0,0,.12-1.18.78.78,0,0,1,0-.14c.15-.87.35-1.74.58-2.6s.47-1.58.76-2.36l.14-.36c0-.06.37-.81.47-1a35.61,35.61,0,0,1,3-5c0-.07.26-.34.39-.52l.76-.9c.67-.76,1.38-1.48,2.12-2.17.31-.29.63-.56.95-.83.14-.08.33-.27.41-.32a22.9,22.9,0,0,1,2.54-1.58l.71-.37.57-.25.88-.3q.69-.23,1.41-.39l.53-.11.3-.05.89-.06h1.45c.52,0,2.09.39.49,0,.46.12.95.16,1.42.27s.93.23,1.39.38l.38.13,0,0,0,0,.13,0c.88.32.21.19-.08,0a12.2,12.2,0,0,0,1.17.52c.41.23.81.47,1.2.73l.16.13c-.16-.15-.23-.25.09.06l0,0a1.16,1.16,0,0,0,.28.19s-.11,0-.19-.09c.28.26.55.53.82.8a5.63,5.63,0,0,0-.36,1.85C295.18,408.62,295.1,409.65,295,410.68Z" transform="translate(-3.54 -12.93)"/><path class="cls-2" d="M292,403.36l0,0Z" transform="translate(-3.54 -12.93)"/><path class="cls-2" d="M335.7,463.62a1,1,0,0,0-.15-.19l.05.08Z" transform="translate(-3.54 -12.93)"/><polygon class="cls-2" points="363.62 490.21 363.62 490.22 363.62 490.21 363.62 490.21"/><path class="cls-2" d="M335.49,463.37v0l0,0v0Z" transform="translate(-3.54 -12.93)"/><path class="cls-2" d="M335.51,463.36a.77.77,0,0,0-.14-.44c0,.13.08.27.1.37Z" transform="translate(-3.54 -12.93)"/><path class="cls-2" d="M377,497.66a24.5,24.5,0,0,0-5-6.23c-1.81-1.79-3.62-3.57-5.45-5.33-3.57-3.42-7.22-6.77-11.1-9.83a84,84,0,0,0-13-8.75,59.87,59.87,0,0,1-6-3.19l-.1-.08-.2-.18-.44-.45s0,.07,0,.08a.86.86,0,0,1-.12-.19l-.09-.09h0s0,.05,0,.07a.44.44,0,0,0,0-.09c-.32-.32-.17-.21,0,0,0,0,0-.05,0-.08l-.11-.19a1.84,1.84,0,0,0,0-.24l0,.06-.06-.21c0-.09,0-.17,0-.23v-.08l0-.16c.05-.15.1-.31.14-.47s.26-.59.36-.76.23-.38.36-.57,1-1.13,1.16-1.24l.07-.06c-.09.05-.06,0,.3-.26l.08-.05.08-.09a.27.27,0,0,1-.07.08,14.69,14.69,0,0,1,1.27-.76l.47-.22.09,0a17.8,17.8,0,0,1,2.12-.54,4.93,4.93,0,0,1,.91-.15l-.59.08.92-.08a41.2,41.2,0,0,1,4.16-.06c3.11.09,6.22.39,9.33.33,2.94-.06,5.77-2.55,5.63-5.63a5.71,5.71,0,0,0-5.63-5.63c-5.64.11-11.18-.75-16.81.14a19.44,19.44,0,0,0-13.11,8.34c-3,4.34-3.5,10.46-.46,14.92s7.87,6.12,12.33,8.64a73.42,73.42,0,0,1,6.39,4.07c.47.33.94.67,1.4,1l.74.54c1,.75,1.94,1.55,2.9,2.35,3.79,3.17,7.38,6.58,10.92,10,1.73,1.68,3.52,3.33,5.12,5.13,0,.05.29.32.43.49.29.44.55.88.82,1.34-.05-.11-.09-.2-.07-.22l.07.22h0c.42.73.14.29,0,0,.07.21.16.51.18.57a2.38,2.38,0,0,0,.08.28v0c0,.21,0,.41,0,.62s0,.42,0,.63a13.28,13.28,0,0,0-.33,1.56c-.12.4-.25.82-.41,1.22l-.1.17c-.18.33-.35.68-.54,1s-.5.85-.77,1.27l-.38.55c-.7.75-1.32,1.56-2.07,2.27-.4.38-1,.72-1.32,1.14l-.59.4a25.31,25.31,0,0,1-3,1.69l-.78.31c-.59.2-1.18.38-1.78.53s-1.09.22-1.63.35h0l-1,.08a32.19,32.19,0,0,1-4.71-.11l-.19,0-.9-.15q-1.17-.21-2.34-.48c-3-.7-6-1.66-9-2.63a5.68,5.68,0,0,0-6.93,3.93,5.76,5.76,0,0,0,3.93,6.92c5.56,1.82,11.18,3.51,17.06,3.81a28.61,28.61,0,0,0,15.55-3.64C374.44,520.25,382.15,508.21,377,497.66Zm-41.7-34.85a1.65,1.65,0,0,0,.07.26h0C335.19,462.82,335.21,462.76,335.28,462.81Zm31,39,0,0C366.15,501.54,365.83,501,366.32,501.77Zm0,0a1,1,0,0,1,.11.13Zm-4.64,12.54Zm5.72-8.94v.07C367.39,506.35,367.38,505.75,367.42,505.41Zm0-.17,0,0Zm0-1a.87.87,0,0,1,0,.32C367.49,504.39,367.48,504.3,367.47,504.2Z" transform="translate(-3.54 -12.93)"/><path class="cls-2" d="M335.55,463.43l0-.07v0Z" transform="translate(-3.54 -12.93)"/><path class="cls-2" d="M337.42,459.14a1.36,1.36,0,0,0,.39-.32h0A3.68,3.68,0,0,1,337.42,459.14Z" transform="translate(-3.54 -12.93)"/><path class="cls-2" d="M123.62,582.91a5.76,5.76,0,0,0-2-7.69c-5.52-3.83-11-7.73-16.32-11.81l-1-.74-.06,0-.08-.07-1.91-1.49q-2.07-1.64-4.1-3.31-3.75-3.07-7.36-6.3a175.18,175.18,0,0,1-14.2-14.12,86.93,86.93,0,0,1-6-7.23l-.14-.19c-.24-.31-.48-.63-.71-.95-.47-.63-.94-1.27-1.4-1.91q-1.49-2.09-2.88-4.23a105.92,105.92,0,0,1-5.34-9.15q1.41-8.76,3-17.49,4.49-24.85,10.15-49.48c.84,1.18,1.7,2.31,2.56,3.39,5.93,7.4,12.64,14.3,19.25,21.09,13.56,13.93,28.14,26.94,44.14,38a198.37,198.37,0,0,0,27.72,16.09c2.66,1.26,6.2.83,7.7-2,1.33-2.5.83-6.35-2-7.7a193.84,193.84,0,0,1-24-13.59q-5.7-3.77-11.16-7.89c-3.09-2.32-6.66-5.17-10.23-8.19a387.12,387.12,0,0,1-39.08-38.72c-1.55-1.73-3.1-3.47-4.54-5.29l-.62-.83c-.45-.6-.88-1.22-1.29-1.84a38.89,38.89,0,0,1-2-3.34c-.25-.48-.49-1-.73-1.47-.06-.12-.09-.21-.13-.29-.11-.28-.22-.56-.31-.84a19.79,19.79,0,0,1-.81-3c0-.05-.07-.89-.07-1v-.65l1-3.84c.72-2.85-.92-6.24-3.93-6.93-3.29-.75-5.7,1-6.92,3.93a17.83,17.83,0,0,0-1.32,5.31q-7.17,29-12.7,58.32Q52.3,492.69,51,500a5,5,0,0,0-2.17.2c-2.68.87-5,4-3.93,6.92s2.26,5.61,3.55,8.32q-2.77,17.55-5,35.2-4,32.32-6,64.87t-2,65.13q0,32.42,2,64.8.25,4.13.54,8.25c.21,2.93,2.45,5.77,5.63,5.63,2.87-.13,5.85-2.48,5.63-5.63Q47,721.34,46.74,688.89t1.48-64.82Q50,591.7,53.7,559.46q.93-8,2-16.08c.32-2.39.6-4.49,1-7.33.24-1.69.49-3.38.74-5.07a137,137,0,0,0,9.25,12.08,201,201,0,0,0,29.69,27.59c6.38,5,12.91,9.69,19.55,14.28C118.35,586.61,122.28,585.46,123.62,582.91Z" transform="translate(-3.54 -12.93)"/><path class="cls-2" d="M154.6,619.88l-.14-.07-.26-.11C153.91,619.61,153.84,619.7,154.6,619.88Z" transform="translate(-3.54 -12.93)"/><path class="cls-2" d="M171.35,726.08a129.49,129.49,0,0,0,10.37-32.36,180.8,180.8,0,0,0,3.64-34.94c-.08-11.2-2.15-22.59-7.94-32.32-5.15-8.65-13.28-16-23.21-18.56a32.32,32.32,0,0,0-26.42,4.54,5.31,5.31,0,0,0-1.74,1.33,27,27,0,0,0-4.61,5.06c-1.74,2.39-.48,6.38,2,7.7h0A324.38,324.38,0,0,0,121,688.59q.53,9,1.54,17.92a149.36,149.36,0,0,0,2.71,17.89c1.34,5.57,3.77,11,7.86,15.14s9.59,6.77,15.3,6.38C159.64,745.15,166.82,735.43,171.35,726.08Zm-1-88.66-.22-.5A1.69,1.69,0,0,1,170.39,637.42Zm-32.81,88.86,0,.11A.45.45,0,0,1,137.58,726.28Zm4.79,6.49-.15-.11C141.52,732.19,142.12,732.57,142.37,732.77Zm15.68-5.87c-.28.43-.57.85-.86,1.26-.1.15-.21.29-.32.44a.34.34,0,0,0,.06-.06l-.07.08a.91.91,0,0,0-.11.16c-.15.19-.34.34-.3.27-.6.66-1.13,1.4-1.76,2-.35.35-.71.69-1.07,1-.17.14-.34.28-.5.43-.86.57-1.71,1.07-2.61,1.56l-.33.12a13.14,13.14,0,0,1-1.52.42l-.27,0h-1.5s.06,0,.06.06l-.3-.07h-.09c-.38,0-.36,0-.21,0l-.12,0c-.48-.11-.95-.28-1.42-.41h-.05l-.31-.14a16.18,16.18,0,0,1-1.62-.93l-.41-.29a8.89,8.89,0,0,0-1.23-1.08c-.36-.36-.71-.73-1-1.11l-.32-.38-.19-.28a23,23,0,0,1-1.72-3c0-.07-.13-.24-.21-.41s-.05-.12-.09-.22c-.25-.67-.5-1.35-.72-2a52.06,52.06,0,0,1-1.67-7.19c-.21-1.22-.39-2.45-.56-3.68,0-.32-.09-.64-.14-1l0-.29c0-.25-.11-.87-.11-.87,0-.4-.11-.8-.16-1.2q-1-8.32-1.66-16.7a322.78,322.78,0,0,1-.67-33.79q.29-8.39,1-16.75c.24-2.82.52-5.65.84-8.47.15-1.37.32-2.73.49-4.1.08-.63.15-1.26.24-1.89s.14-1,.2-1.44q.45-3.15,1-6.28l.49-.3c.39-.21.79-.41,1.19-.6.11-.06.36-.14.52-.23,1.82-.69,3.69-.89,5.53-1.41-1.6.45-.21,0,.37,0s.91,0,1.37-.06a28.61,28.61,0,0,1,3.07.08l.45,0-.07,0,.1,0,.2,0a1.27,1.27,0,0,1,.41.1l.63.08a30.33,30.33,0,0,1,3,.78c.43.14.86.29,1.28.45l.06,0,.16.06.1,0a1.67,1.67,0,0,0,.31.11l-.17,0c.94.46,1.86.93,2.75,1.46s1.68,1.1,2.5,1.69l.59.48c.42.36.84.74,1.25,1.12.77.72,1.51,1.48,2.22,2.27.34.37.66.75,1,1.14l.45.55.06.09a47.32,47.32,0,0,1,3.41,5.45c.51,1,1,1.92,1.41,2.91l.08.17.09.23a1.36,1.36,0,0,0,.07.18c.2.53.4,1.07.59,1.61a52.51,52.51,0,0,1,1.92,7.08c.24,1.19.48,2.41.62,3.63,0,.41.1,1,.11,1.12.07.7.14,1.4.19,2.1a107.55,107.55,0,0,1-.22,16.45c-.21,2.63-.48,5.25-.78,7.87-.15,1.25-.31,2.5-.47,3.74l0,.14c0,.3-.08.6-.13.9-.1.74-.21,1.49-.33,2.23a141.66,141.66,0,0,1-7.74,30c-.22.56-.44,1.11-.67,1.67l0,.09c-.12.28-.24.56-.37.84-.54,1.23-1.11,2.45-1.7,3.66A56.63,56.63,0,0,1,158.05,726.9Z" transform="translate(-3.54 -12.93)"/><path class="cls-2" d="M146.35,734.6l.3,0h.24A1,1,0,0,0,146.35,734.6Z" transform="translate(-3.54 -12.93)"/><path class="cls-2" d="M156.45,729.05c.13-.15.27-.29.41-.43v0A2.27,2.27,0,0,0,156.45,729.05Z" transform="translate(-3.54 -12.93)"/><path class="cls-2" d="M149.25,618.36a3.87,3.87,0,0,1-.61-.12h0C149.34,618.51,149.45,618.45,149.25,618.36Z" transform="translate(-3.54 -12.93)"/><path class="cls-2" d="M223.16,630.88,223,631l-.09.08C223.54,630.71,223.39,630.73,223.16,630.88Z" transform="translate(-3.54 -12.93)"/><path class="cls-2" d="M225.91,713.79h0l-.06,0Z" transform="translate(-3.54 -12.93)"/><path class="cls-2" d="M246.82,617.21a20,20,0,0,0-4.62-3.78,5.68,5.68,0,0,0-7.7,2,7.19,7.19,0,0,0-.32.76c-8-.71-15.88,3.27-21.36,8.86-6.07,6.2-9.35,14.45-10.75,22.91-1.52,9.2-1.57,18.58-1.95,27.88-.18,4.7-.38,9.41-.56,14.11a73.25,73.25,0,0,0,.6,14.5c1.39,8.76,6.64,16.95,15.06,20.29s18.36-.64,24.08-7.24c6-6.9,8.95-16,11.17-24.67a144.27,144.27,0,0,0,4.06-27.43,193.11,193.11,0,0,0-.26-26.46C253.65,631.2,252.12,623.22,246.82,617.21Zm-26.54,97.42h0ZM231.87,709l.14-.22S232,708.88,231.87,709Zm11.67-50.54c-.07,4.12-.28,8.24-.66,12.34-.09,1-.19,2-.3,3-.06.54-.12,1.07-.19,1.61l-.09.7c0,.33,0,.41,0,.35-.18,1.91-.6,3.84-1,5.72a114.17,114.17,0,0,1-2.88,12c-.58,1.95-1.21,3.89-1.92,5.81-.14.4-.29.79-.44,1.19a4.69,4.69,0,0,1-.55,1.37s.42-1,.15-.37c-.09.19-.17.39-.26.58-.23.52-.47,1-.73,1.53a35.62,35.62,0,0,1-2.8,4.67l-.13.19-.15.16c-.27.32-.54.64-.83.94-.58.63-1.21,1.18-1.83,1.75-.16.11-.37.29-.48.37-.32.22-.65.44-1,.64s-.68.4-1,.58l-.53.26H226s-.06,0-.09,0l-.17.08c-.6.31-.19,0,.12-.07a7.12,7.12,0,0,0-1,.37c-.43.14-.87.26-1.31.36l-.76.14-.81,0c-.39,0-.77,0-1.16,0l-.24,0c-.35-.08-.7-.15-1.05-.26-.15,0-.68-.25-.87-.31l-.43-.21c-.32-.17-.62-.35-.93-.54l-.55-.39c-.2-.17-.5-.41-.58-.49a18.86,18.86,0,0,1-1.63-1.72l-.05-.06c-.26-.4-.54-.78-.79-1.19a20.46,20.46,0,0,1-1.15-2.11l0-.09a11.74,11.74,0,0,0-.48-1.29c-.28-.88-.52-1.78-.72-2.68q-.16-.79-.3-1.59c0-.1,0-.2-.06-.31s0-.14,0-.26c-.19-2.08-.29-4.17-.28-6.27,0-4.35.28-8.7.45-13,.34-8.5.46-17,1.16-25.51.08-.89.16-1.78.26-2.66.05-.52.12-1,.18-1.55s-.06.37-.05.4a2.72,2.72,0,0,1,.13-.88,55.29,55.29,0,0,1,1.2-5.83q.36-1.38.81-2.73c.14-.42.28-.83.43-1.25l.24-.61c.14-.37.18-.58.14-.52a19.13,19.13,0,0,1,2.27-4.09c.23-.37.48-.73.73-1.09.06-.07.22-.3.35-.47l0,0c.16-.19.32-.39.49-.58s.58-.66.88-1c.56-.59,1.14-1.16,1.75-1.71l.74-.63-.15.09A2.07,2.07,0,0,0,223,631l0,0,.17-.12.17-.13a24.07,24.07,0,0,1,2-1.3c.31-.19.64-.36,1-.53l.49-.25.56-.25.28-.1c.34-.12.68-.24,1-.34.76-.23,1.52-.38,2.29-.54l.28,0c.36,0,.73,0,1.09,0a18.24,18.24,0,0,1,2.56.16,5.62,5.62,0,0,0,4-1.65c.1-.1.19-.21.28-.32.17.25.34.49.5.75a23.1,23.1,0,0,1,1.12,2.08l0,0c.11.28.22.57.32.85.27.77.5,1.56.71,2.35.4,1.52.67,3.06.92,4.61v.06c0,.41.09.83.13,1.24.08.82.15,1.65.2,2.47.13,1.94.22,3.88.3,5.82C243.56,650,243.62,654.23,243.54,658.43Z" transform="translate(-3.54 -12.93)"/><path class="cls-2" d="M349.82,657.79a7.24,7.24,0,0,0-1.09-.46q.67-30.83-.49-61.66a4.84,4.84,0,0,0,.54-1.37,6.27,6.27,0,0,0-.77-4.63q-.9-20.37-2.58-40.69c-.24-2.93-2.42-5.78-5.63-5.63-2.84.13-5.89,2.48-5.63,5.63q1.56,18.75,2.44,37.57c-11.39.08-22.28,5.21-30.72,13.07-11.35,10.58-16.7,25.3-18.68,40.38a131.08,131.08,0,0,0-.76,22.76c.29,6.83.68,13.81,2.37,20.46,1.54,6.07,4.39,12.42,9.4,16.41a21.45,21.45,0,0,0,9.91,4.67,24.54,24.54,0,0,0,11.51-.85,36,36,0,0,0,16.51-11.84c-.1,1.75-.19,3.51-.3,5.26q-1.26,20.76-3.35,41.45c-.29,2.94,2.8,5.75,5.63,5.63,3.3-.15,5.31-2.48,5.63-5.63q3.38-33.52,4.57-67.22l.5-.88q1.41-2.43,3-4.73C353.53,663.06,352.36,659.13,349.82,657.79ZM331.68,678.2c-.87,1.49-1.77,3-2.74,4.38-.43.62-.87,1.25-1.34,1.85-.11.14-.24.3-.3.36-.24.29-.48.57-.73.85a31.77,31.77,0,0,1-3.28,3.18,1.36,1.36,0,0,0-.22.21c-.24.19-.52.37-.76.54-.73.51-1.47,1-2.24,1.44s-1.32.73-2,1c-.15.07-1.23.39-.35.17s-.23.07-.36.12q-1,.38-2.1.66c-.35.09-.71.17-1.06.24l-.33.06a10,10,0,0,0-2.1.11l-1.07,0h0a17.71,17.71,0,0,1-2-.5l-.64-.22-.29-.14a15.52,15.52,0,0,1-1.67-1c-.26-.17-.51-.4-.78-.55l.2.12,0,0a15.17,15.17,0,0,1-1.34-1.32l-.56-.64a2.43,2.43,0,0,1-.14-.2,22.81,22.81,0,0,1-1.8-3c-.15-.29-.28-.59-.42-.88-.27-.7-.53-1.4-.76-2.11a50,50,0,0,1-1.83-8v.09c0-.34-.09-.69-.13-1l-.21-2c-.15-1.72-.26-3.44-.37-5.16a155.8,155.8,0,0,1,0-21.06,47.63,47.63,0,0,1,.53-5.21l-.06.32.1-.55c.06-.43.13-.86.2-1.29.16-1,.34-2,.54-3a71.44,71.44,0,0,1,2.72-10c.29-.82.6-1.63.92-2.43.1-.24.54-1.6.1-.25a11.38,11.38,0,0,1,.53-1.19c.66-1.44,1.39-2.86,2.18-4.24s1.56-2.55,2.42-3.77l.66-.91.06-.08c.54-.68,1.09-1.35,1.66-2q1.62-1.83,3.41-3.5c.64-.6,1.29-1.18,2-1.74l.84-.69.37-.27a46.63,46.63,0,0,1,4-2.65c.39-.23,4.44-2.53,4.59-2.32l-.67.29.68-.27,1.37-.5c.79-.27,1.6-.52,2.42-.74s1.4-.35,2.1-.5l1.07-.2.44-.07a38.13,38.13,0,0,1,4-.2q.45,12.59.61,25.17.25,22.58-.48,45.13C335.35,671.41,333.61,674.86,331.68,678.2Z" transform="translate(-3.54 -12.93)"/><path class="cls-2" d="M305.49,691.1c.37.3.93.52,0,0Z" transform="translate(-3.54 -12.93)"/><path class="cls-2" d="M298.6,674.79v0C298.52,673.28,298.54,674.4,298.6,674.79Z" transform="translate(-3.54 -12.93)"/><path class="cls-2" d="M153.33,649.18a5.63,5.63,0,1,0,5.63,5.63A5.7,5.7,0,0,0,153.33,649.18Z" transform="translate(-3.54 -12.93)"/><path class="cls-2" d="M226.26,646.58a5.63,5.63,0,1,0,5.63,5.62A5.69,5.69,0,0,0,226.26,646.58Z" transform="translate(-3.54 -12.93)"/><path class="cls-2" d="M209.09,760.11h0a.76.76,0,0,0-.33.32A1.17,1.17,0,0,1,209.09,760.11Z" transform="translate(-3.54 -12.93)"/><path class="cls-2" d="M215.69,740.69c-2.79.91-4.9,3.93-3.93,6.93.2.6.34,1.21.48,1.82l0-.07a.45.45,0,0,0,0,.14l0,.12c.07.27.05.36,0,.35a2,2,0,0,0,0,.22,18.2,18.2,0,0,1,0,2.09c0,.13-.08.48-.09.69l-.06.31c-.13.62-.29,1.23-.47,1.83-.11.34-.24.67-.34,1s-.09.37-.05.34c-.19.38-.5.84-.59,1q-.53,1-1.14,1.92l-.49.71.06,0-.06.05-.09.12c-.19.29-.28.29-.24.19-.3.35-.6.84-.78,1.05a35.55,35.55,0,0,1-2.74,2.75c-.51.46-1,.9-1.55,1.33l-.64.52c-.64.51-.21.18,0,0a22.36,22.36,0,0,1-3.4,2.31,36.24,36.24,0,0,1-3.41,1.86c-.17.08-.37.18-.57.26l-.25.09q-1.1.4-2.22.72c-.55.15-1.1.27-1.65.38l-.48.1h-.32a17.16,17.16,0,0,1-1.9,0l-.85,0H188a28.88,28.88,0,0,1-3.31-.9l-.77-.38q-.85-.43-1.68-1l-.65-.43-.15-.1c.25.16-.49-.38-.56-.44l-.59-.51q-.65-.59-1.26-1.23a6.75,6.75,0,0,1-1.41-1.61c0,.11.79,1.09.16.19-.25-.35-.49-.69-.73-1-.38-.59-.75-1.19-1.09-1.81s-.67-1.24-1-1.88l-.13-.27s-.33-.79-.38-.92a46.59,46.59,0,0,1-2.32-8.84c-.49-2.91-4.23-4.8-6.92-3.93-3.14,1-4.46,3.8-3.93,6.92,2.09,12.43,9.2,25.26,22.22,28.69,6.85,1.8,13.87.15,20-3.14a45.63,45.63,0,0,0,14.86-12.76c4.53-6.09,6.65-14.41,4.25-21.78C221.71,741.83,218.67,739.73,215.69,740.69Z" transform="translate(-3.54 -12.93)"/><path class="cls-2" d="M212.26,749.51l0-.07a.58.58,0,0,0,.07.54C212.29,749.82,212.27,749.64,212.26,749.51Z" transform="translate(-3.54 -12.93)"/><path class="cls-2" d="M54.36,175.11a5.63,5.63,0,1,0-5.63-5.63A5.69,5.69,0,0,0,54.36,175.11Z" transform="translate(-3.54 -12.93)"/><path class="cls-2" d="M125.55,216.78a5.63,5.63,0,1,0-5.63-5.62A5.7,5.7,0,0,0,125.55,216.78Z" transform="translate(-3.54 -12.93)"/></svg>