<?xml version="1.0" encoding="utf-8"?>
<!-- Generator: Adobe Illustrator 23.1.1, SVG Export Plug-In . SVG Version: 6.00 Build 0)  -->
<svg version="1.1" id="Layer_1" xmlns="http://www.w3.org/2000/svg" xmlns:xlink="http://www.w3.org/1999/xlink" x="0px" y="0px"
	 viewBox="0 0 612 792" style="enable-background:new 0 0 612 792;" xml:space="preserve">
<style type="text/css">
	.st0{fill:#EE89B8;}
	.st1{fill:#4757A6;}
</style>
<polygon class="st0" points="0,651.53 611.42,651.53 0,33.96 "/>
<g>
	<g>
		<path class="st1" d="M76.57,519.6c-6.45-1.2-12.91-1.55-18.97,1.38c-5.38,2.6-9.6,8.63-9.42,14.7c0.17,5.85,3.84,10.62,9.13,12.85
			c4.9,2.07,10.3,1.87,15.12-0.32c4.63-2.11,8.26-6.55,10.42-11.07c2.2-4.61,3.64-9.56,4.41-14.6c0.88-5.75,1.17-11.7-0.6-17.33
			c-1.81-5.76-5.41-10.54-10.45-13.86c-5.4-3.56-12.03-4.61-18.32-3.4c-6.42,1.24-11.91,5.3-15.62,10.57
			c-1.95,2.78-0.59,7.31,2.32,8.85c3.32,1.75,6.76,0.64,8.85-2.32c0.11-0.16,0.36-0.42,0.44-0.61c-0.05,0.12-1.01,1.2-0.3,0.43
			c0.3-0.32,0.59-0.65,0.9-0.97c0.31-0.31,0.63-0.61,0.97-0.9c0.19-0.16,0.41-0.31,0.58-0.48c-0.36,0.36-1.08,0.8-0.25,0.23
			c0.73-0.5,1.49-0.95,2.28-1.34c0.23-0.11,0.46-0.21,0.68-0.32c0.62-0.31-0.72,0.29-0.67,0.29c0.53-0.11,1.08-0.39,1.61-0.54
			c0.42-0.12,0.85-0.23,1.28-0.32c0.25-0.05,0.49-0.09,0.74-0.14c0.51-0.1,0.96,0.09-0.6,0.08c1.01,0.01,2-0.13,3.02-0.06
			c0.19,0.01,0.38,0.04,0.56,0.05c0.84,0.05-1.43-0.25-0.6-0.08c0.43,0.09,0.86,0.16,1.29,0.27c0.43,0.1,0.85,0.23,1.27,0.36
			c0.24,0.08,0.48,0.16,0.71,0.25c1.04,0.38-0.03,0.14-0.32-0.15c0.53,0.52,1.67,0.84,2.33,1.25c0.42,0.27,0.82,0.6,1.25,0.86
			c-0.1-0.06-1.2-1.01-0.42-0.31c0.19,0.17,0.38,0.33,0.57,0.5c0.37,0.34,0.73,0.7,1.07,1.07c0.18,0.19,1.14,1.38,0.47,0.5
			c-0.64-0.84,0.21,0.33,0.37,0.57c0.32,0.5,0.62,1.02,0.89,1.55c0.09,0.18,0.18,0.36,0.27,0.54c0.51,0.99-0.19-0.32-0.17-0.45
			c-0.04,0.33,0.36,0.97,0.47,1.31c0.33,1.01,0.58,2.05,0.76,3.1c0.28,1.6-0.08-1.1,0.02,0.07c0.05,0.54,0.09,1.07,0.12,1.61
			c0.05,1.09,0.04,2.18-0.01,3.27c-0.02,0.48-0.06,0.96-0.1,1.44c-0.04,0.41-0.26,1.05-0.15,1.44c-0.03-0.1,0.25-1.63,0.06-0.49
			c-0.03,0.2-0.06,0.41-0.1,0.61c-0.1,0.61-0.21,1.22-0.33,1.83c-0.38,1.92-0.84,3.83-1.41,5.7c-0.28,0.91-0.58,1.81-0.92,2.69
			c-0.07,0.18-0.14,0.35-0.21,0.53c-0.39,1,0.16-0.41,0.21-0.5c-0.27,0.48-0.47,1.03-0.72,1.53c-0.39,0.77-0.83,1.52-1.3,2.25
			c-0.12,0.19-1.16,1.62-0.46,0.69c0.64-0.86-0.33,0.35-0.56,0.59c-0.29,0.31-0.59,0.61-0.91,0.89c-0.09,0.08-0.48,0.34-0.55,0.48
			c0.05-0.09,1.31-0.93,0.44-0.34c-0.35,0.23-0.69,0.47-1.06,0.68c-0.17,0.1-0.34,0.19-0.52,0.28c-0.53,0.29-1,0.14,0.6-0.24
			c-0.67,0.16-1.32,0.4-1.99,0.56c-1.02,0.23,1.81-0.15,0.24-0.05c-0.4,0.02-0.8,0.03-1.19,0.02c-0.33-0.01-1.58-0.16-0.33,0.02
			c1.3,0.18-0.01-0.02-0.3-0.09c-0.38-0.09-0.76-0.19-1.13-0.31c-0.08-0.03-0.54-0.16-0.54-0.2c-0.01-0.04,1.55,0.75,0.76,0.31
			c-0.33-0.18-0.67-0.35-0.99-0.55c-0.12-0.07-0.23-0.17-0.35-0.23c-0.64-0.35,1.15,1.04,0.65,0.5c-0.22-0.23-0.48-0.43-0.69-0.66
			c0.03,0.03-0.36-0.41-0.36-0.41c0.16-0.08,0.97,1.57,0.46,0.53c-0.06-0.12-0.13-0.25-0.21-0.36c-0.55-0.83,0.38,1.21,0.26,0.66
			c-0.05-0.21-0.45-1.03-0.34-1.24c0.03-0.06,0.08,1.79,0.12,0.64c0.01-0.24,0.01-0.48,0.01-0.71c0.02-1.12-0.08,0.69-0.09,0.67
			c-0.07-0.18,0.17-0.69,0.22-0.86c0.05-0.17,0.14-0.34,0.17-0.51c-0.31,1.42-0.42,0.95-0.13,0.4c0.11-0.21,0.24-0.42,0.37-0.62
			c0.59-0.92,0.08,0.07-0.26,0.27c0.36-0.21,0.68-0.78,1-1.08c0.04-0.04,0.52-0.39,0.55-0.49c-0.1,0.3-1.25,0.89-0.27,0.23
			c0.46-0.31,0.95-0.57,1.44-0.83c0.17-0.09,0.78-0.39-0.07,0.02c-0.98,0.47,0.18-0.03,0.42-0.1c0.55-0.17,1.11-0.28,1.68-0.41
			c1.23-0.28-0.42,0.11-0.44,0.04c0,0.01,1.02-0.09,1.08-0.09c1.24-0.07,2.48-0.04,3.71,0.07c0.29,0.03,0.58,0.06,0.88,0.09
			c0.88,0.09-0.08,0.03-0.41-0.06c0.68,0.2,1.47,0.24,2.16,0.37c1.74,0.32,3.41,0.27,4.98-0.65c1.34-0.78,2.62-2.32,2.97-3.86
			C81.81,524.38,80.12,520.27,76.57,519.6L76.57,519.6z"/>
	</g>
</g>
<g>
	<g>
		<path class="st1" d="M74.74,527.8c4.17,5.53,8.34,11.07,12.52,16.6c1.05,1.4,2.11,2.49,3.86,2.97c1.55,0.43,3.61,0.23,4.98-0.65
			c1.38-0.89,2.6-2.22,2.97-3.86c0.36-1.58,0.37-3.63-0.65-4.98c-4.17-5.53-8.34-11.07-12.52-16.6c-1.05-1.4-2.11-2.49-3.86-2.97
			c-1.55-0.43-3.61-0.23-4.98,0.65c-1.38,0.89-2.6,2.22-2.97,3.86C73.73,524.4,73.72,526.44,74.74,527.8L74.74,527.8z"/>
	</g>
</g>
<g>
	<g>
		<path class="st1" d="M103.28,479.69c-0.82,18.31-0.58,36.66,0.77,54.94c0.38,5.16,0.85,10.32,1.4,15.47
			c0.19,1.76,0.6,3.27,1.89,4.57c1.12,1.12,2.96,1.97,4.57,1.89c3.19-0.14,6.85-2.86,6.47-6.47c-1.95-18.22-2.83-36.56-2.62-54.88
			c0.06-5.18,0.21-10.35,0.45-15.52c0.15-3.38-3.08-6.62-6.47-6.47C106.12,473.39,103.45,476.07,103.28,479.69L103.28,479.69z"/>
	</g>
</g>
<g>
	<g>
		<path class="st1" d="M124.47,512.74c0.1,0.38,0.17,0.76,0.26,1.13c0.18,0.79-0.15-1.53-0.09-0.72c0.01,0.17,0.03,0.34,0.04,0.51
			c0.06,0.87,0.05,1.73,0.02,2.6c-0.07,1.7-0.28,3.4-0.4,5.1c-0.28,3.86,0.02,8.2,2.39,11.43c1.86,2.52,4.17,4.25,7.17,5.23
			c2.19,0.71,4.67,0.83,6.96,0.7c5.2-0.31,9.93-1.44,14.06-4.69c5.44-4.27,7.97-12.08,7.13-18.82c-0.47-3.76-1.52-7.45-3.83-10.53
			c-2.77-3.7-6.29-6.21-10.56-7.92c-8.13-3.26-18.42-1.71-25.52,3.28c-1.4,0.99-2.5,2.16-2.97,3.86c-0.43,1.55-0.23,3.61,0.65,4.98
			c1.77,2.74,5.89,4.4,8.85,2.32c1.19-0.84,2.44-1.51,3.76-2.13c0.62-0.3-0.83,0.34-0.74,0.32c0.16-0.04,0.33-0.13,0.49-0.19
			c0.33-0.12,0.66-0.23,0.99-0.34c0.72-0.23,1.45-0.42,2.19-0.58c0.4-0.08,0.8-0.14,1.2-0.22c0.63-0.12-0.86,0.14-0.86,0.11
			c0,0,0.48-0.05,0.52-0.05c0.75-0.07,1.5-0.11,2.25-0.1c0.69,0,1.37,0.05,2.06,0.11c1.14,0.09-1.48-0.26-0.36-0.05
			c0.39,0.07,0.78,0.14,1.17,0.23c0.66,0.15,1.31,0.34,1.96,0.56c0.25,0.09,1.39,0.54,0.33,0.1c-1.07-0.45,0.2,0.11,0.45,0.24
			c0.6,0.31,1.18,0.65,1.74,1.02c0.14,0.09,0.27,0.2,0.42,0.29c0.56,0.36-0.69-0.55-0.63-0.5c0.28,0.27,0.61,0.51,0.9,0.78
			c0.27,0.25,1.36,1.08,1.39,1.48c0.01,0.14-0.9-1.29-0.57-0.73c0.07,0.12,0.17,0.24,0.25,0.36c0.19,0.28,0.37,0.57,0.54,0.87
			c0.15,0.25,0.28,0.51,0.41,0.78c0.12,0.25,0.57,1.27,0.09,0.16c-0.47-1.1-0.06-0.08,0.03,0.19c0.11,0.33,0.21,0.65,0.3,0.99
			c0.05,0.19,0.49,1.63,0.36,1.73c-0.06,0.04-0.16-1.58-0.13-0.99c0.01,0.15,0.03,0.29,0.04,0.44c0.03,0.34,0.05,0.69,0.06,1.03
			c0.01,0.59,0,1.18-0.05,1.77c-0.02,0.29-0.16,1.41,0,0.16c0.17-1.27-0.02-0.01-0.08,0.3c-0.13,0.62-0.29,1.23-0.49,1.83
			c-0.09,0.27-0.21,0.54-0.3,0.81c-0.18,0.55,0.33-0.94,0.37-0.88c0.03,0.04-0.22,0.46-0.25,0.52c-0.25,0.51-0.54,1-0.85,1.48
			c-0.08,0.12-0.17,0.23-0.24,0.35c-0.3,0.53,0.56-0.86,0.59-0.74c0.03,0.13-0.55,0.65-0.64,0.75c-0.39,0.42-0.82,0.77-1.23,1.16
			c-0.41,0.39,0.73-0.65,0.75-0.58c0,0.02-0.32,0.22-0.35,0.24c-0.29,0.17-0.57,0.36-0.86,0.52c-0.25,0.14-0.54,0.23-0.78,0.39
			c0.02-0.01,1.36-0.48,0.64-0.29c-0.21,0.05-0.43,0.15-0.64,0.21c-0.43,0.13-0.87,0.24-1.3,0.34c-0.22,0.05-0.44,0.09-0.66,0.13
			c-0.2,0.04-1.23,0.18-0.26,0.06c1-0.12-0.47,0.04-0.71,0.06c-0.48,0.04-0.97,0.08-1.46,0.1c-0.86,0.04-1.71-0.02-2.57-0.04
			c-0.7-0.02,0.76,0.11,0.75,0.11c-0.16-0.07-0.4-0.08-0.57-0.12c-0.28-0.06-1.46-0.51-0.5-0.08c0.98,0.45-0.19-0.17-0.41-0.28
			c-0.57-0.27,0.56,0.41,0.58,0.47c-0.06-0.13-0.35-0.34-0.46-0.44c-0.17-0.14-0.55-0.68,0.11,0.19c0.67,0.88,0.19,0.26,0.07,0.04
			c-0.07-0.13-0.14-0.26-0.22-0.39c-0.5-0.78,0.36,0.75,0.29,0.73c-0.12-0.03-0.27-0.87-0.3-1c-0.03-0.15-0.06-0.3-0.09-0.45
			c-0.22-0.91,0.09,0.79,0.1,0.8c-0.29-0.34-0.08-1.84-0.07-2.27c0.02-0.8,0.08-1.6,0.14-2.4c0.32-3.83,0.67-7.59-0.35-11.36
			c-0.88-3.26-4.64-5.59-7.95-4.52C125.64,505.87,123.53,509.24,124.47,512.74L124.47,512.74z"/>
	</g>
</g>
<g>
	<g>
		<path class="st1" d="M188.9,537.81c-0.25-14.7-0.49-29.41-0.74-44.11c-3.24,1.86-6.49,3.72-9.73,5.58
			c13.27,10,26.55,20.01,39.82,30.01c1.79,1.35,4.71,1.06,6.53,0c1.98-1.16,3.18-3.3,3.2-5.58c0.04-4.09,0.23-8.18,0.6-12.25
			c0.18-2.03,0.33-4.09,0.68-6.1c-0.3,1.73-0.03,0.25,0.03-0.15c0.08-0.55,0.16-1.09,0.25-1.63c0.16-1.01,0.32-2.02,0.5-3.03
			c1.43-8.06,3.52-15.99,6.22-23.72c1.12-3.2-1.27-7.21-4.52-7.95c-3.61-0.82-6.75,1.09-7.95,4.52
			c-5.65,16.12-8.58,33.24-8.74,50.32c3.24-1.86,6.49-3.72,9.73-5.58c-13.27-10-26.55-20.01-39.82-30.01
			c-1.79-1.35-4.71-1.06-6.53,0c-1.94,1.14-3.24,3.32-3.2,5.58c0.25,14.7,0.49,29.41,0.74,44.11c0.06,3.38,2.93,6.62,6.47,6.47
			C185.89,544.12,188.97,541.43,188.9,537.81L188.9,537.81z"/>
	</g>
</g>
<g>
	<g>
		<path class="st1" d="M252.61,491.48c-1.65,10.28-2.73,20.65-3.09,31.06c-0.09,2.52-0.13,5.04-0.13,7.56
			c0,2.82,0.23,5.82,1.82,8.25c3.43,5.22,9.79,5.64,15.46,5.97c6,0.36,12.02-0.17,17.92-1.27c3.33-0.62,5.53-4.83,4.52-7.95
			c-1.15-3.57-4.38-5.18-7.95-4.52c-0.55,0.1-1.1,0.2-1.65,0.29c-0.24,0.04-1.74,0.23-0.8,0.13c0.99-0.11-0.78,0.09-1.04,0.12
			c-0.63,0.07-1.27,0.13-1.91,0.18c-2.15,0.17-4.3,0.23-6.46,0.19c-2.24-0.04-4.46-0.24-6.68-0.47c-0.79-0.08,0.66,0.09,0.66,0.09
			c-0.2-0.07-0.51-0.08-0.7-0.12c-0.35-0.07-0.7-0.14-1.05-0.24c-0.2-0.06-0.48-0.2-0.67-0.22c0.03,0,1.23,0.65,0.75,0.3
			c-0.09-0.07-0.33-0.23-0.44-0.26c0.26,0.2,0.51,0.39,0.77,0.59c-0.34-0.36-0.33-0.32,0.05,0.13c0.59,0.74,0.22,0.26,0.11,0.05
			c0.02,0.03,0.39,1.3,0.32,0.69c-0.18-1.57,0,1.22-0.05,0.06c-0.04-0.99-0.04-1.98-0.04-2.98c0.01-2.28,0.06-4.55,0.14-6.82
			c0.16-4.47,0.44-8.93,0.85-13.38c0.23-2.51,0.5-5.01,0.82-7.51c0.03-0.24,0.06-0.48,0.09-0.73c0.03-0.24,0.06-0.48,0.09-0.73
			c-0.03,0.25-0.07,0.5-0.1,0.75c0.16-0.61,0.18-1.31,0.27-1.93c0.19-1.29,0.38-2.57,0.59-3.86c0.28-1.77,0.29-3.38-0.65-4.98
			c-0.78-1.34-2.32-2.62-3.86-2.97C257.45,486.25,253.18,487.9,252.61,491.48L252.61,491.48z"/>
	</g>
</g>
<g>
	<g>
		<path class="st1" d="M258.25,523.04c6.33,0,12.67,0,19,0c3.38,0,6.62-2.97,6.47-6.47c-0.16-3.5-2.84-6.47-6.47-6.47
			c-6.33,0-12.67,0-19,0c-3.38,0-6.62,2.97-6.47,6.47C251.94,520.08,254.62,523.04,258.25,523.04L258.25,523.04z"/>
	</g>
</g>
<g>
	<g>
		<path class="st1" d="M252.66,499.56c11.18,0,22.36,0,33.54,0c3.38,0,6.62-2.97,6.47-6.47c-0.16-3.5-2.84-6.47-6.47-6.47
			c-11.18,0-22.36,0-33.54,0c-3.38,0-6.62,2.97-6.47,6.47C246.35,496.6,249.03,499.56,252.66,499.56L252.66,499.56z"/>
	</g>
</g>
<g>
	<g>
		<path class="st1" d="M97.51,220.33c0,17.89,0,35.77,0,53.66c0,3.38,2.97,6.62,6.47,6.47c3.5-0.16,6.47-2.84,6.47-6.47
			c0-17.89,0-35.77,0-53.66c0-3.38-2.97-6.62-6.47-6.47C100.48,214.02,97.51,216.71,97.51,220.33L97.51,220.33z"/>
	</g>
</g>
<g>
	<g>
		<path class="st1" d="M160.12,266.17c0,16.02,0,32.05,0,48.07c0,3.38,2.97,6.62,6.47,6.47c3.5-0.16,6.47-2.84,6.47-6.47
			c0-16.02,0-32.05,0-48.07c0-3.38-2.97-6.62-6.47-6.47C163.08,259.86,160.12,262.54,160.12,266.17L160.12,266.17z"/>
	</g>
</g>
<g>
	<g>
		<path class="st1" d="M55.18,322.87c6.08,14.36,12.78,28.45,20.09,42.22c3.54,6.67,7.17,13.3,11.07,19.77
			c3.69,6.12,7.85,12.18,13.13,17.03c11.19,10.28,26.03,13.18,40.57,15.32c7.96,1.17,16.04,2.11,24.08,1.4
			c7.85-0.7,15.3-2.73,22.24-6.51c12.19-6.64,21.63-17.73,28.13-29.83c3.66-6.81,6.56-14.05,9.04-21.36
			c1.15-3.39,2.24-6.81,3.23-10.26c1.44-5,1.46-10.24-2.15-14.34c-2.54-2.89-6.34-4.15-9.94-5.1c-3.31-0.87-6.66-1.56-10.03-2.1
			c-6.91-1.1-13.88-1.69-20.88-1.77c-13.63-0.15-27.21,1.4-40.7,3.14c-13.55,1.74-27.09,3.73-40.74,4.47
			c-6.53,0.36-13.08,0.43-19.61,0.02c-1.62-0.1-3.23-0.23-4.84-0.39c-0.8-0.08-1.61-0.17-2.41-0.27c-0.4-0.05-0.8-0.12-1.2-0.15
			c2.09,0.19,0.17,0.02-0.28-0.05c-3.2-0.48-6.38-1.11-9.53-1.89c-3.18-0.79-6.31-1.75-9.39-2.86c-3.19-1.15-7.22,1.29-7.95,4.52
			c-0.83,3.64,1.11,6.72,4.52,7.95c25.22,9.12,52.47,6.62,78.51,3.27c13.04-1.68,26.06-3.57,39.19-4.41
			c6.59-0.42,13.2-0.57,19.79-0.27c3.13,0.15,6.26,0.4,9.38,0.77c0.4,0.05,0.82,0.14,1.22,0.15c-1.9-0.07-0.56-0.08-0.1-0.01
			c0.81,0.12,1.62,0.24,2.42,0.38c1.62,0.27,3.23,0.58,4.83,0.92c1.47,0.32,2.94,0.67,4.4,1.05c0.75,0.2,1.49,0.39,2.23,0.62
			c0.35,0.11,0.69,0.24,1.03,0.35c0.63,0.25,0.46,0.17-0.54-0.24c0.22,0.1,0.43,0.21,0.64,0.32c0.26,0.14,0.5,0.31,0.76,0.46
			c0.71,0.41-1.21-1.13-0.36-0.25c0.87,0.91-0.73-1.36-0.14-0.24c0.6,1.14-0.39-1.47-0.03-0.12c0.35,1.33,0.08-1.53-0.01-0.14
			c-0.01,0.18-0.14,1.1-0.05,1.22c0.04-0.3,0.08-0.6,0.12-0.9c-0.04,0.21-0.08,0.41-0.12,0.62c-0.1,0.48-0.22,0.95-0.35,1.42
			c-1.91,6.9-4.27,13.71-6.97,20.34c-0.43,1.06,0.08-0.15,0.13-0.3c-0.14,0.42-0.36,0.83-0.53,1.24c-0.36,0.82-0.73,1.64-1.11,2.45
			c-0.76,1.62-1.55,3.23-2.39,4.81c-1.64,3.08-3.44,6.08-5.44,8.94c-0.45,0.64-0.91,1.28-1.39,1.91c-0.15,0.2-0.34,0.41-0.48,0.63
			c0.97-1.52,0.32-0.42,0.04-0.07c-1.07,1.33-2.19,2.62-3.35,3.87c-2.06,2.21-4.29,4.22-6.62,6.14c-1.09,0.9,1.21-0.89,0.07-0.05
			c-0.31,0.23-0.63,0.47-0.94,0.7c-0.63,0.46-1.27,0.9-1.93,1.33c-1.3,0.86-2.64,1.66-4.01,2.39c-0.69,0.37-1.38,0.72-2.08,1.05
			c-0.23,0.11-0.47,0.22-0.71,0.33c-0.45,0.2-1.61,0.47,0.12-0.03c-1.64,0.48-3.21,1.23-4.86,1.7c-1.64,0.47-3.3,0.85-4.97,1.14
			c-0.39,0.07-0.98,0.27-1.37,0.22c0.27-0.03,0.54-0.07,0.8-0.1c-0.31,0.04-0.61,0.08-0.92,0.11c-0.92,0.1-1.84,0.19-2.77,0.25
			c-3.72,0.24-7.46,0.15-11.18-0.13c-1.72-0.13-3.43-0.31-5.14-0.51c-0.47-0.06-0.93-0.12-1.4-0.17c-1.62-0.2,1.47,0.22-0.14-0.02
			c-1.08-0.16-2.17-0.31-3.25-0.48c-3.33-0.52-6.65-1.06-9.95-1.73c-3.36-0.68-6.7-1.48-9.95-2.56c-0.81-0.27-1.61-0.55-2.4-0.86
			c-0.26-0.1-0.53-0.21-0.79-0.31c-1.4-0.54,1.34,0.62-0.02,0c-1.61-0.73-3.19-1.51-4.71-2.41c-0.67-0.4-1.33-0.82-1.97-1.25
			c-0.35-0.24-0.69-0.48-1.03-0.72c-0.11-0.08-0.22-0.16-0.33-0.25c-0.55-0.42-0.44-0.33,0.33,0.25c-0.01,0.02-3.39-3.02-3.67-3.3
			c-1.16-1.17-2.26-2.4-3.31-3.68c-0.18-0.21-0.35-0.43-0.52-0.64c-0.09-0.11-0.17-0.22-0.26-0.32c-0.42-0.54-0.34-0.43,0.25,0.32
			c-0.16,0.05-1.55-2.12-1.71-2.35c-3.94-5.63-7.26-11.69-10.59-17.69c-7.32-13.22-14.09-26.75-20.26-40.54
			c-1.5-3.34-2.95-6.69-4.38-10.06c-0.59-1.38-2.49-2.59-3.86-2.97c-1.55-0.43-3.61-0.23-4.98,0.65c-1.38,0.89-2.6,2.22-2.97,3.86
			C54.11,319.7,54.46,321.18,55.18,322.87L55.18,322.87z"/>
	</g>
</g>
<g>
	<g>
		<path class="st1" d="M90.61,338.37c3.07,13.48,8.59,26.53,16.17,38.09c2.24,3.42,4.67,7.79,8.9,8.94c2.6,0.71,5.32,0.34,7.62-1.08
			c2.07-1.29,3.47-3.22,4.84-5.18c3.83-5.47,7.12-11.32,9.83-17.42c3.24-7.3,5.8-14.83,7.43-22.65c-4.16,0-8.31,0-12.47,0
			c2.58,6.79,5.11,13.61,7.73,20.38c2.11,5.46,4.6,11.35,9.14,15.26c2.56,2.21,5.55,3.95,8.92,4.52c4.27,0.72,8.16,0,12.08-1.78
			c6.2-2.82,10.87-8.62,14.36-14.28c4.06-6.6,7.07-13.96,8.8-21.51c0.76-3.29-1.01-7.16-4.52-7.95c-3.3-0.75-7.14,0.99-7.95,4.52
			c-0.68,2.95-1.54,5.84-2.61,8.67c-0.21,0.57-0.38,1.35-0.73,1.85c0.1-0.24,0.21-0.49,0.31-0.73c-0.12,0.27-0.23,0.54-0.35,0.81
			c-0.12,0.27-0.24,0.54-0.36,0.81c-0.68,1.47-1.41,2.92-2.19,4.34c-0.68,1.23-1.39,2.43-2.15,3.61c-0.35,0.54-0.7,1.09-1.07,1.62
			c-0.23,0.33-0.46,0.64-0.69,0.97c-0.72,1.01,0.9-1.06,0.03-0.04c-0.88,1.04-1.76,2.05-2.75,2.99c-0.44,0.42-0.89,0.82-1.36,1.21
			c-0.81,0.68-0.41-0.11,0.21-0.14c-0.25,0.01-0.73,0.52-0.97,0.68c-0.54,0.36-1.1,0.69-1.67,0.99c-0.28,0.15-0.57,0.28-0.86,0.42
			c-0.79,0.39,1.57-0.56,0.32-0.15c-0.6,0.19-1.19,0.34-1.79,0.5c-1.01,0.28,0.48-0.07,0.62-0.06c-0.4-0.06-0.89,0.07-1.3,0.07
			c-0.31,0-0.62-0.03-0.93-0.04c-1.09-0.03,0.51,0,0.59,0.08c-0.25-0.24-1.33-0.34-1.73-0.46c-1.21-0.39,1.41,0.75,0.32,0.14
			c-0.19-0.11-0.39-0.2-0.58-0.31c-0.24-0.13-0.47-0.28-0.7-0.43c-0.14-0.09-0.27-0.18-0.41-0.28c-0.53-0.39-0.36-0.25,0.52,0.41
			c-0.67-0.79-1.54-1.46-2.23-2.25c-0.56-0.64,1,1.38,0.28,0.36c-0.13-0.19-0.27-0.37-0.4-0.56c-0.4-0.58-0.77-1.17-1.11-1.78
			c-0.59-1.03-1.13-2.09-1.62-3.16c-0.14-0.3-0.85-1.94-0.39-0.86c0.46,1.08-0.01-0.03-0.08-0.21c-0.13-0.33-0.26-0.65-0.39-0.98
			c-2.68-6.88-5.24-13.81-7.85-20.71c-0.98-2.59-3.23-4.88-6.23-4.75c-2.72,0.12-5.64,1.9-6.23,4.75c-1.25,5.97-3,11.83-5.26,17.5
			c-0.16,0.4-0.33,0.81-0.49,1.21c-0.43,1.07,0.12-0.21,0.14-0.34c-0.13,0.72-0.67,1.53-0.97,2.19c-0.63,1.39-1.3,2.76-1.99,4.12
			c-1.39,2.72-2.89,5.37-4.51,7.95c-0.81,1.29-1.65,2.57-2.51,3.82c-0.21,0.3-0.41,0.6-0.62,0.89c-0.09,0.12-0.81,1.28-0.19,0.29
			c0.58-0.93-0.09,0.03-0.23,0.2c-0.75,0.94,1.15-0.6,0.17-0.12c0.95-0.47,1.94-0.64,2.98-0.31c0.3,0.14,0.6,0.28,0.91,0.42
			c-0.43-0.26-0.4-0.22,0.08,0.13c0.85,0.81,0.01-0.08-0.13-0.21c-0.92-0.85,0.69,1.01,0.23,0.32c-0.86-1.26-1.75-2.49-2.58-3.76
			c-3.41-5.2-6.38-10.68-8.88-16.37c-0.14-0.33-0.34-0.67-0.44-1.01c0.46,1.63,0.14,0.34-0.02-0.07c-0.33-0.81-0.65-1.63-0.97-2.45
			c-0.63-1.64-1.21-3.29-1.76-4.96c-1.1-3.33-2.03-6.72-2.81-10.14c-0.75-3.3-4.73-5.56-7.95-4.52
			C91.68,331.53,89.81,334.83,90.61,338.37L90.61,338.37z"/>
	</g>
</g>
</svg>
