<svg id="Layer_1" data-name="Layer 1" xmlns="http://www.w3.org/2000/svg" viewBox="0 0 514.47 363.81"><defs><style>.cls-1{fill:#fec468;}.cls-2{fill:#f68e75;}.cls-3{fill:#bd432a;}</style></defs><title>tv</title><path class="cls-1" d="M532.26,377.77" transform="translate(-17.79 -13.96)"/><path class="cls-2" d="M17.79,375.06l514.47,2.71L168.45,14A512.82,512.82,0,0,0,17.79,375.06Z" transform="translate(-17.79 -13.96)"/><path class="cls-3" d="M104.79,172.32q-1.74-20.83-1.73-41.75c0-3.48,0-7,.13-10.45,0-1.54,0-3.08.13-4.62a5.76,5.76,0,0,1,.21-1.18c.25-.95-.11.17.1-.33s.27-.11,0-.15c-.43-.08.71.19.82.23-.36-.14.1.07.14.1a6.1,6.1,0,0,1,.77.47c-.32-.24.06.06.1.1q.33.3.63.63a5.8,5.8,0,0,1,.73,1.14,3.44,3.44,0,0,1,.43,1,11.74,11.74,0,0,1,.4,1.52,12,12,0,0,1,.11,3.07c-.17,2.18-1.48,5.07-2.79,7.33-1.68,2.91-3.64,5.66-5.19,8.64a3,3,0,0,0,1.76,4.32l23.66,8.77a3,3,0,0,0,3.61-2,3,3,0,0,0-2-3.62l-23.66-8.77,1.75,4.32c3.07-5.9,7.82-11.15,8.68-18,.67-5.28-1.17-11.59-6.25-14.12a7.38,7.38,0,0,0-5.36-.74,6.11,6.11,0,0,0-3.86,3.94,12.87,12.87,0,0,0-.65,4c-.08,2-.11,4-.15,6Q97,134,97.41,146q.39,13.19,1.5,26.33a3,3,0,0,0,2.94,2.94,3,3,0,0,0,2.94-2.94Z" transform="translate(-17.79 -13.96)"/><path class="cls-3" d="M133.85,135.17a133.59,133.59,0,0,0,.47,21.26,3,3,0,0,0,2.94,2.93,3,3,0,0,0,2.94-2.93,134.78,134.78,0,0,1-.48-21.26,2.94,2.94,0,1,0-5.87,0Z" transform="translate(-17.79 -13.96)"/><path class="cls-3" d="M162.49,132.19a12,12,0,0,0-9.29,6.36c-2,3.64-2.41,7.88-2.82,11.94-.38,3.81-.42,7.74,1.13,11.31a12.91,12.91,0,0,0,7.81,6.89c3.62,1.29,7.66,1.25,11.45,1.09a3,3,0,0,0,2.94-2.94,3,3,0,0,0-2.94-2.94c-3.41.15-6.75.25-9.89-.87a7.34,7.34,0,0,1-3.2-2.2,8.49,8.49,0,0,1-1.56-4.21,26.31,26.31,0,0,1,.08-5.54,43.88,43.88,0,0,1,.84-6c.65-2.86,2.38-6.64,5.45-7a3,3,0,0,0,2.94-2.94,3,3,0,0,0-2.94-2.94Z" transform="translate(-17.79 -13.96)"/><path class="cls-3" d="M182.32,120.75v49.31c0,3.78,5.88,3.78,5.88,0V120.75c0-3.78-5.88-3.78-5.88,0Z" transform="translate(-17.79 -13.96)"/><path class="cls-3" d="M193.6,129.25l-10.71,20.93a3,3,0,0,0,2.54,4.42l29.42.56c3.78.07,3.78-5.8,0-5.87l-29.42-.57,2.53,4.42,10.72-20.92a3,3,0,0,0-1.06-4,3,3,0,0,0-4,1.05Z" transform="translate(-17.79 -13.96)"/><path class="cls-3" d="M129.91,227.09l15.17-1.38c2.41-.22,4.83-.53,7.24-.63a7.14,7.14,0,0,1,4,.68c-.15-.08.15.14.25.31s.19.66.18.57a3.6,3.6,0,0,1-.46,1.7,18.27,18.27,0,0,1-4.06,4.79,75.3,75.3,0,0,1-10.61,8.48,3,3,0,0,0,1.48,5.47l15.3.28,7.41.14c.47,0,1,0,1.42.05a6.42,6.42,0,0,0,.82.07,10.16,10.16,0,0,1,1.24.29,5.8,5.8,0,0,1,.59.19c-.19-.08-.19-.08,0,0s.83.59.46.27c.23.25.26.27.08,0,.16.3.19.33.08.07.07.33.1.38.07.16,0,.37,0,.43,0,.16a1.55,1.55,0,0,1-.39.74,11.1,11.1,0,0,1-4,2.45,60,60,0,0,1-13.6,3.79c-1.57.24-2.44,2.2-2.05,3.61a3,3,0,0,0,3.61,2.05,60.28,60.28,0,0,0,12.58-3.38c3.68-1.44,7.94-3.2,9.38-7.25s-1.48-7.39-5.1-8.53a18.17,18.17,0,0,0-5.19-.66l-6.91-.13-15.8-.3,1.48,5.48a84.19,84.19,0,0,0,10.16-7.86c3-2.7,6.28-5.67,7.51-9.62a7.49,7.49,0,0,0-5.1-9.48c-3.65-1.16-7.88-.27-11.59.07l-15.66,1.42a3,3,0,0,0-2.94,2.94,3,3,0,0,0,2.94,2.94Z" transform="translate(-17.79 -13.96)"/><path class="cls-3" d="M135.31,200.4a41.48,41.48,0,0,0,.81,12.17,3,3,0,0,0,3.61,2.05,3,3,0,0,0,2.05-3.62c-.1-.46-.19-.93-.27-1.4,0-.25-.09-.51-.13-.76s0-.85,0-.09c0-.91-.2-1.84-.26-2.74a40.41,40.41,0,0,1,.08-5.61,3,3,0,0,0-2.93-2.94,3,3,0,0,0-2.94,2.94Z" transform="translate(-17.79 -13.96)"/><path class="cls-3" d="M175.4,280.71c3.78,0,3.78-5.88,0-5.88s-3.79,5.88,0,5.88Z" transform="translate(-17.79 -13.96)"/><path class="cls-3" d="M102.62,352a96.53,96.53,0,0,1,8.51-27.47c.5-1,1-2,1.54-3a6.38,6.38,0,0,0,.87-1.59l.18-.31-1.71.51a6.58,6.58,0,0,0,.88.51,20,20,0,0,1,4.33,4,43.7,43.7,0,0,1,3.55,5.09c1.11,1.79,2.07,3.93,3.59,5.43a5.3,5.3,0,0,0,7.31.06,15.26,15.26,0,0,0,3.75-5.95c1.71-4.11,2.37-8.52,3.67-12.75,1.1-3.56,3.08-7,6.41-8.94a5.73,5.73,0,0,1,4.36-.75,7.6,7.6,0,0,1,3.81,2.85,39.85,39.85,0,0,1,3.58,6.09q2,3.73,3.75,7.58A159.84,159.84,0,0,1,167.24,339a3,3,0,0,0,3.61,2.05,3,3,0,0,0,2.05-3.61q-2.62-7.69-6-15.13a118.4,118.4,0,0,0-7.06-13.89c-2.48-4-6-7.45-11-7.62-4.73-.17-8.89,2.92-11.65,6.5-3,3.91-4.13,8.61-5.28,13.31a42.66,42.66,0,0,1-2,6.72,17.68,17.68,0,0,1-1.37,2.58c-.07.1-.73.94-.74.91s.76.14.71.18-3-4.71-3.31-5.25a46.92,46.92,0,0,0-4.21-5.71,23.79,23.79,0,0,0-5.3-4.56,5.6,5.6,0,0,0-4.18-1,5.19,5.19,0,0,0-3.26,2.89A100.44,100.44,0,0,0,97,350.48a3,3,0,0,0,2,3.61c1.4.39,3.37-.47,3.62-2Z" transform="translate(-17.79 -13.96)"/><path class="cls-3" d="M183.17,309.62a183.15,183.15,0,0,0,.31,24.12c.45,5.7,1.28,13.18,7.45,15.56,6.89,2.66,12-4.28,14.37-9.76,2.91-6.8,4.36-14.28,2.87-21.63-1.42-7-5.89-13.64-12.37-16.84a3,3,0,0,0-4,1.06,3,3,0,0,0,1.05,4,17.94,17.94,0,0,1,9,10.79c1.79,5.57,1.15,11.51-.65,17a25.41,25.41,0,0,1-3.55,7.47,8.48,8.48,0,0,1-2.19,2.06,2.8,2.8,0,0,1-2.09.46,1.84,1.84,0,0,1-1.07-.47c-.42-.29.43.44-.2-.18a6.39,6.39,0,0,1-.5-.54s-.35-.53-.56-.92a5.8,5.8,0,0,1-.59-1.38A27.83,27.83,0,0,1,189.3,333a182.54,182.54,0,0,1-.25-23.39,2.94,2.94,0,0,0-5.88,0Z" transform="translate(-17.79 -13.96)"/><path class="cls-3" d="M230.72,324.79l-.08-18.19,0-9.23c0-2.34-.34-5,.3-7.23a3.05,3.05,0,0,1,1-1.5s.5-.28.09-.1a4,4,0,0,1,.56-.18c.51-.15.27-.08.1-.06a6.92,6.92,0,0,1,.91,0c.93,0-.24-.08.3,0a4.47,4.47,0,0,1,.61.14,6.54,6.54,0,0,1,.75.24c-.14-.06-.34-.16.16.1a4,4,0,0,1,1.66,1.45c2.42,3.72.94,9.06-.55,12.85a28,28,0,0,1-9,11.85,3.06,3.06,0,0,0-1.35,3.32A3,3,0,0,0,229,320.4,66.59,66.59,0,0,1,252.13,325a3,3,0,0,0,3.62-2.05,3,3,0,0,0-2.06-3.61A71.14,71.14,0,0,0,229,314.52l1.48,5.48a34.48,34.48,0,0,0,10.92-13.57c2.41-5.48,4-12.08,1.43-17.79-2.21-5-8.58-7.93-13.64-5.22-2.83,1.51-4,4.57-4.33,7.6a87.29,87.29,0,0,0-.08,9.84l.11,23.93c0,3.78,5.89,3.79,5.87,0Z" transform="translate(-17.79 -13.96)"/><path class="cls-3" d="M290.79,280.8v41c0,3.78,5.88,3.79,5.88,0v-41c0-3.78-5.88-3.78-5.88,0Z" transform="translate(-17.79 -13.96)"/><path class="cls-3" d="M278.69,270.83q22.86,5.16,46,8.77a3,3,0,0,0,3.62-2.05c.38-1.39-.48-3.37-2-3.61q-23.16-3.62-46-8.78a3,3,0,0,0-3.62,2.06,3,3,0,0,0,2.06,3.61Z" transform="translate(-17.79 -13.96)"/><path class="cls-3" d="M353,292.25l4.74,14.41c.67,2,1.19,4.29,2.47,6a5.93,5.93,0,0,0,6.39,2.36c2.38-.66,4.06-2.59,5.51-4.47s2.83-3.76,4.2-5.68q3.94-5.58,7.48-11.44,4.11-6.84,7.62-14l-5.37-.7c1.61,6.53,1.28,13.35,1.24,20q-.06,10.71-.14,21.41c-.06,6.95.21,14-.39,20.92-.25,2.87-.66,6.31-2.28,8.76-1.41,2.12-4.12,2.5-6.46,2.86a85.28,85.28,0,0,1-23.56.15c-1.57-.2-2.93,1.5-2.93,2.94a3,3,0,0,0,2.93,2.94,89.4,89.4,0,0,0,22.41,0c3.31-.43,6.94-.8,9.74-2.81,3-2.14,4.37-5.54,5.16-9,1.64-7.23,1.15-14.92,1.22-22.28s.11-14.93.15-22.4c.05-8.34.58-16.92-1.42-25.08-.58-2.35-4.25-3-5.37-.71A185.33,185.33,0,0,1,374,297.81c-2.21,3.3-4.47,6.62-7,9.71a8.14,8.14,0,0,1-1.6,1.61c-.08.06-.72.36-.41.28.14,0,0,0-.12-.05.24.26-.19-.35-.26-.47a2.58,2.58,0,0,1-.25-.56c-.38-1-.67-2-1-3l-4.81-14.64a3,3,0,0,0-3.62-2.05,3,3,0,0,0-2.05,3.61Z" transform="translate(-17.79 -13.96)"/></svg>