<svg id="Layer_1" data-name="Layer 1" xmlns="http://www.w3.org/2000/svg" viewBox="0 0 479.85 86.67"><defs><style>.cls-1{fill:#4558a7;}.cls-2{fill:#a6465d;}.cls-3{fill:#934a9c;}.cls-4{fill:#a59945;}.cls-5{fill:#46a549;}.cls-6{fill:#a56846;}.cls-7{fill:#6a2c90;}.cls-8{fill:#48a547;}.cls-9{fill:#a64647;}</style></defs><title>who</title><path class="cls-1" d="M67.11,357.39q9.39,24.5,20.64,48.23,3.15,6.63,6.44,13.17c1.7,3.39,7,3.19,8.72,0a204.2,204.2,0,0,0,18.2-44.74l-8.45,2.23a33,33,0,0,1,3.3,3.28c.23.27.46.54.68.82s.23.27.34.41c.35.43-.24-.3-.25-.32a10.28,10.28,0,0,0,1.34,1.88,61.72,61.72,0,0,1,4.51,8.16c2.66,5.64,4.8,11.52,7.61,17.09a59.31,59.31,0,0,0,6.25,9.79c1.55,2,5.6,2,7.15,0a133.29,133.29,0,0,0,22-41.13,5.1,5.1,0,0,0-3.53-6.21,5.17,5.17,0,0,0-6.22,3.53c-.56,1.74-1.16,3.46-1.79,5.18-.33.89-.68,1.77-1,2.66-.16.4-.32.81-.49,1.22-.09.21-.6,1.41-.17.41-1.41,3.29-3,6.53-4.64,9.69s-3.5,6.25-5.45,9.26c-1,1.47-1.94,2.92-3,4.35-.51.72-1,1.43-1.55,2.13l-.92,1.23c-.22.28-.18.23.12-.16l-.54.69h7.15c.52.67.21.29-.09-.13s-.43-.58-.63-.88c-.49-.69-1-1.4-1.39-2.12-.8-1.29-1.53-2.61-2.23-4-1.46-2.82-2.74-5.74-4-8.67-2.41-5.66-4.72-11.45-8.08-16.64a40.68,40.68,0,0,0-7.37-8.7c-2.81-2.44-7.39-1.64-8.44,2.23a200.37,200.37,0,0,1-7.46,22.08c-.17.43-.35.85-.52,1.28l-.3.71c-.36.85-.73,1.7-1.1,2.54q-1.17,2.64-2.41,5.24c-1.69,3.55-3.49,7-5.39,10.47h8.72q-5.72-11.38-11-23-2.64-5.79-5.16-11.64l-1.23-2.87c-.19-.44-.38-.88-.56-1.33,0,0-.33-.76-.12-.28s-.18-.42-.22-.5c-.83-2-1.66-4-2.48-6q-2.72-6.66-5.3-13.4c-.94-2.46-3.44-4.42-6.21-3.53-2.4.78-4.54,3.57-3.53,6.22Z" transform="translate(-66.85 -350.95)"/><path class="cls-2" d="M179.21,369.54a262,262,0,0,1-1.4,48.25c-.32,2.63,2.55,5.16,5.05,5,3-.14,4.71-2.23,5-5a262,262,0,0,0,1.4-48.25c-.17-2.63-2.2-5.18-5.05-5.05-2.59.11-5.23,2.22-5,5.05Z" transform="translate(-66.85 -350.95)"/><path class="cls-3" d="M223.93,370.45v51a5.05,5.05,0,1,0,10.1,0v-51a5.05,5.05,0,0,0-10.1,0Z" transform="translate(-66.85 -350.95)"/><path class="cls-4" d="M229,391l-47.34-1.75a5.09,5.09,0,0,0-5.05,5.05,5.15,5.15,0,0,0,5.05,5.05L229,401.05a5.08,5.08,0,0,0,5-5.05,5.15,5.15,0,0,0-5-5.05Z" transform="translate(-66.85 -350.95)"/><path class="cls-5" d="M288.3,361c-6.83-.44-13.81-.77-20.51,1a29.92,29.92,0,0,0-15.32,9.49c-8,9.45-11.27,25.06-1.21,34.36,4.23,3.9,9.7,6.23,15.22,7.67A55.05,55.05,0,0,0,288,415.16a31.66,31.66,0,0,0,16.72-7.6,24.51,24.51,0,0,0,8-17.16,24,24,0,0,0-7.85-18.92c-5.18-4.52-12.25-7.14-19.15-6.22-2.61.34-5.19,2.07-5.05,5.05.11,2.44,2.24,5.42,5.05,5.05a19.06,19.06,0,0,1,3.46-.16l.9.06c1,.07-.17-.06-.25,0a6.12,6.12,0,0,1,2,.4c.53.14,1.05.3,1.57.48l.86.32c.71.26-1.09-.56,0,0a32,32,0,0,1,3.14,1.86c.77.52,0-.08-.15-.13a3.48,3.48,0,0,1,.69.59c.41.36.8.74,1.18,1.14.21.22.41.45.61.68s.83.68,0,0a6.6,6.6,0,0,1,1,1.56,6,6,0,0,1,.89,1.7c0-.12-.4-1.06-.07-.15.11.3.22.6.32.9.18.55.34,1.1.47,1.67.06.24.11.5.16.75s.09.5.13.75q-.12-1-.06-.39a26.18,26.18,0,0,1,.05,3.65c0,.1-.08.76-.07.77s.19-1,0-.2-.31,1.5-.53,2.24c-.07.24-.15.49-.23.73,0,0-.42,1.24-.15.47s-.18.39-.21.45c-.11.23-.23.46-.35.68-.31.56-.64,1.11-1,1.64a3.2,3.2,0,0,1-.44.62c.37-.47.44-.56.21-.28l-.37.44a28.75,28.75,0,0,1-2.43,2.38c-.94.85.87-.58-.18.14l-.62.44c-.53.36-1.07.69-1.62,1s-1.12.61-1.7.88a3.6,3.6,0,0,1-.69.32c1.2-.3,0,0-.22.08a28.1,28.1,0,0,1-3.67,1.1c-.53.12-1.06.23-1.59.32.05,0-1.47.21-.73.12s-.78.07-.73.06a39,39,0,0,1-4.71.12c-1.42-.05-2.83-.17-4.24-.34,1,.12-.06,0-.3,0l-1.17-.2c-.78-.13-1.56-.28-2.33-.44a55,55,0,0,1-7.24-2,7.17,7.17,0,0,1-1.5-.58c.95.62.4.17.06,0l-.81-.38a25.45,25.45,0,0,1-3.05-1.73l-.58-.39c-.1-.08-.88-.79-.31-.22s-.2-.19-.28-.26l-.5-.45c-.41-.39-.8-.79-1.17-1.21-.14-.17-.27-.37-.42-.52.85.81.23.29,0-.06s-.56-1-.84-1.46-.36-.21.09.27a2.93,2.93,0,0,1-.31-.86,17.78,17.78,0,0,1-.48-1.91c-.19-1,0-.17,0,0,0-.51-.07-1-.08-1.54s0-1.32.06-2c0-.3.06-.61.09-.91.07-.78-.25,1.26,0,.07a31.6,31.6,0,0,1,.89-3.54c.15-.46.33-.92.5-1.37.43-1.17-.5,1,.06-.14.12-.22.21-.44.32-.66a27.7,27.7,0,0,1,1.86-3.15l.43-.6c.57-.83-.61.73.22-.27.43-.52.88-1,1.34-1.5s.87-.86,1.32-1.27c.23-.2.46-.4.7-.59,1-.84-.57.35.27-.22a30.5,30.5,0,0,1,3.27-2l.83-.39c.92-.46-.93.31.29-.12.7-.25,1.39-.5,2.1-.7s1.72-.46,2.58-.63l.88-.16c.14,0,1.59-.2.41-.08,1.63-.17,3.26-.29,4.91-.32,3.3-.06,6.6.14,9.9.36a5.08,5.08,0,0,0,5.05-5.05A5.18,5.18,0,0,0,288.3,361Z" transform="translate(-66.85 -350.95)"/><path class="cls-6" d="M353.77,367.67v45.45a5.06,5.06,0,0,0,10.11,0V367.67a5.06,5.06,0,0,0-10.11,0Z" transform="translate(-66.85 -350.95)"/><path class="cls-7" d="M414.25,418q7.28-23.65,15.88-46.88l-9.23,1.21c7.66,13.47,15.43,26.88,25,39.09q4,5.15,8.56,9.9a5.1,5.1,0,0,0,7.14,0,5.16,5.16,0,0,0,0-7.15q-3.9-4.08-7.46-8.5c-.27-.35-.55-.7-.83-1-.13-.18-.27-.35-.41-.53l-.15-.19c.34.44-.11-.14-.14-.19s-.27-.35-.41-.53L451.3,402q-1.65-2.22-3.24-4.5c-4.28-6.15-8.21-12.55-12-19-2.18-3.71-4.31-7.46-6.44-11.2a5,5,0,0,0-5-2.41,5.14,5.14,0,0,0-4.2,3.62q-8.61,23.21-15.89,46.87a5.12,5.12,0,0,0,3.53,6.22,5.17,5.17,0,0,0,6.22-3.53Z" transform="translate(-66.85 -350.95)"/><path class="cls-8" d="M446,396.94H416.33a5.05,5.05,0,1,0,0,10.1H446a5.05,5.05,0,0,0,0-10.1Z" transform="translate(-66.85 -350.95)"/><path class="cls-9" d="M488.11,420.54l.14-49.88-8.62,3.58,18.88,22.43,4.8,5.71c2.09,2.48,5,4.39,8.36,3.29,2.64-.87,4.44-3.05,6.31-5l5.21-5.33,11.63-11.9-8.44-2.23a465.08,465.08,0,0,1,10.5,52.67c.36,2.63,3.85,4.29,6.21,3.53,2.88-.94,3.92-3.4,3.53-6.22a465.08,465.08,0,0,0-10.5-52.67,5.1,5.1,0,0,0-8.45-2.23c-6.3,6.46-12.58,12.94-18.91,19.37-.23.23-1.28,1.05-.32.4-.34.23-.89.35.43,0a3.14,3.14,0,0,1,2.27.16c.15.07.56.57.33.17a6.09,6.09,0,0,0-.53-.61c-.38-.44-.75-.88-1.12-1.33l-4.48-5.32-8.64-10.27-9.92-11.79a5.09,5.09,0,0,0-8.63,3.57L478,420.54a5.05,5.05,0,1,0,10.1,0Z" transform="translate(-66.85 -350.95)"/></svg>