<svg id="Layer_1" data-name="Layer 1" xmlns="http://www.w3.org/2000/svg" viewBox="0 0 612 426.34"><defs><style>.cls-1{fill:#519382;}.cls-2{fill:#fff;}</style></defs><title>birthday</title><polygon class="cls-1" points="167.4 0 0 182.71 446.46 426.34 612 236.78 167.4 0"/><path class="cls-2" d="M108.35,441.11v0h0Z" transform="translate(0 -278.91)"/><path class="cls-2" d="M84.43,455.65l.06,0,.1,0a2.07,2.07,0,0,0-.52-.24l.21.11Z" transform="translate(0 -278.91)"/><path class="cls-2" d="M126.1,385.2c4.16-1.72,8.28-3.54,12.42-5.32l1.36-.58.72-.31c-.56.24.74-.31,1-.39l1.57-.65c2-.79,3.94-1.56,5.93-2.27a87.89,87.89,0,0,1,13.4-3.73c3.18-.59,5.27-4.59,4.3-7.57a6.32,6.32,0,0,0-7.57-4.3c-8.52,1.6-16.58,4.8-24.53,8.17-1.9.8-3.78,1.62-5.67,2.44l-2.73,1.18-1.37.59-.78.33-1.08.45-1.37.57c-1,.39-2,.79-3,1.17-2,.76-4,1.48-6,2.14a77.22,77.22,0,0,1-13.49,3.22,6.17,6.17,0,0,0-3.68,2.83,6.15,6.15,0,0,0,2.21,8.42,7.2,7.2,0,0,0,4.75.62,70.4,70.4,0,0,0,8.66-1.8c-.3,6.9.16,13.82.45,20.71.18,4.34.29,8.69.08,13-.09,2-.49,4.08-.53,6.1,0,.16,0,.32-.07.49q-.12.76-.27,1.53-.28,1.53-.66,3a48.89,48.89,0,0,1-1.85,5.8.69.69,0,0,1,.07-.13.61.61,0,0,0-.07.14.42.42,0,0,1,0,.1c-.33.87-.11.24,0-.09-.07.14-.12.31-.18.43-.17.39-.36.77-.55,1.16-.41.82-.86,1.63-1.34,2.42s-.85,1.36-1.32,2c0,.08-.31.43-.48.65l-.48.59a33.1,33.1,0,0,1-3.64,3.66l-.31.25-.76.57c-.75.51-1.52,1-2.31,1.44-.57.31-1.15.59-1.73.87l-.4.16c-.45.16-.91.31-1.37.45a22.21,22.21,0,0,1-2.28.54l-.08,0a10.25,10.25,0,0,0-1.36.11,22.82,22.82,0,0,1-2.48-.07c-.46-.09-.92-.18-1.38-.3s-.87-.26-1.3-.4l.35.18a4.67,4.67,0,0,0-.51-.23,1.29,1.29,0,0,1-.36-.19c-.36-.19-.71-.38-1.06-.6l-.3-.2c-.27-.32-.68-.59-1-.89l-.21-.23-.57-1a.23.23,0,0,1,0-.09c-.14-.4-.22-.81-.33-1.22v-.05c0-.39,0-.77,0-1.15v0c.08-.34.19-.67.27-1l.08-.15c.05-.08.09-.16.14-.23.29-.27.55-.58.85-.83,2.49-2.07,2.3-6.6,0-8.71-2.64-2.42-6-2.2-8.7,0a15.1,15.1,0,0,0-4.91,12.6,17.77,17.77,0,0,0,7.42,13.07c7.63,5.71,18.37,4.74,26.46.69,7.44-3.74,13.51-10.7,16.83-18.26,4.09-9.34,5.21-19.43,5.1-29.55-.11-10.51-1.34-21-.33-31.53ZM80.54,450.9c0-.09,0-.13,0,0Zm.27,1.34Zm1.82,2.37-.22-.15C81.86,454.1,82.34,454.38,82.63,454.61Z" transform="translate(0 -278.91)"/><path class="cls-2" d="M211,427.94a6.14,6.14,0,0,0,.62-4.74,6.15,6.15,0,0,0-7.57-4.3A6.62,6.62,0,0,0,201,421l-.06,0c.06-.08,0-.07-.06,0s-.36.2-.52.3l-.14,0h-.85c-.31-.07-.67-.25-1-.34h0a3.34,3.34,0,0,1-.4-.25c-.19-.19-.66-.56-.76-.66l-.33-.35c-.16-.32-.71-1-.82-1.14s-.4-.67-.58-1a10,10,0,0,0-.65-1.37h0c-.2-.52-.38-1.06-.55-1.59-.32-1-.59-2-.82-3.08q-.19-.88-.36-1.77a8.07,8.07,0,0,0-.19-1.28c0-.23-.06-.46-.08-.68-.05-.53-.09-1.06-.13-1.59-.08-1.14-.12-2.28-.14-3.42,0-.89,0-1.78,0-2.67a74.25,74.25,0,0,0,.63-10.63c0-3.22-2.8-6.31-6.15-6.16a6.32,6.32,0,0,0-6.16,6.16c-.27,3.27-.51,6.54-.59,9.81a69.49,69.49,0,0,1-2.43,10.4q-.83,2.58-1.83,5.08l-.16.39-.36.8c-.4.89-.82,1.76-1.25,2.62a69.07,69.07,0,0,1-5.57,9.22c-.24.34-.49.67-.73,1-.09.13-.2.25-.29.38-.53.65-1.05,1.31-1.6,1.94a39.9,39.9,0,0,1-3.65,3.82c-.33.3-.68.59-1,.89l-.08.05c-.67.44-1.33.86-2,1.24,0,0-.1.12-.32.19l-.2.06a1.6,1.6,0,0,0-.19.11l.1-.08c-.27.1-.55.19-.83.27s-.64.1-.94.18l-.41,0q-.42,0-.84,0c-.29-.07-.59-.13-.87-.21l-.49-.15h0c-.47-.24-1-.47-1.41-.75-.22-.14-.44-.32-.66-.46l-.3-.25c-.52-.48-1-1-1.49-1.51l-.32-.38c-.15-.21-.4-.55-.47-.66-.4-.6-.77-1.23-1.12-1.87-.2-.38-.38-.76-.56-1.14v0c-.3-.84-.58-1.69-.8-2.56-.12-.49-.22-1-.31-1.46l-.12-.7h0c0-.06-.06-.39-.06-.49,0-.39-.08-.79-.11-1.18,0-.55-.07-1.11-.1-1.66,0-1.11-.06-2.23,0-3.34,0-4.8.44-9.59.2-14.39-.16-3.21-2.72-6.31-6.16-6.16-3.19.15-6.33,2.72-6.15,6.16.46,9.18-1.44,18.72,1.32,27.69,2.38,7.73,8.32,15.47,16.56,17.35a19.1,19.1,0,0,0,13.86-2.2,35.65,35.65,0,0,0,9.43-8.44,77.56,77.56,0,0,0,9.67-14.83c2.56,4.53,6.35,8.26,11.63,9.14a15.32,15.32,0,0,0,7.37-.32A13.71,13.71,0,0,0,211,427.94Zm-43.36,1.32-.08.1Zm.12-.16a1.47,1.47,0,0,0-.1.13C167.84,428.94,168.29,428.41,167.73,429.1Zm33.06-7.91,0,0h0l0,0Zm-.08.07,0,0-.17.19h0Zm0,0,0,0-.25.07.3-.12Zm-.33.5.23-.29h0C200.51,421.54,200.42,421.62,200.34,421.73Zm.43-.51,0,0S200.84,421.19,200.77,421.22Z" transform="translate(0 -278.91)"/><path class="cls-2" d="M159.06,437.28l.18-.1c0-.06-.22,0-.61.28l.09,0Z" transform="translate(0 -278.91)"/><path class="cls-2" d="M225.08,394.05,224.6,391c-.07-.47-.13-.95-.2-1.43,0,0,0,0,0-.07l-.09-.68q-.42-3.22-.73-6.45a210.4,210.4,0,0,1-.94-25.72q.18-7.35.88-14.66c.3-3.21-3-6.29-6.16-6.15-3.59.16-5.83,2.71-6.16,6.15a218.5,218.5,0,0,0,1.72,53.47q1.14,7.38,2.78,14.66a6.21,6.21,0,0,0,7.58,4.3,6.3,6.3,0,0,0,4.3-7.57Q226.13,400.47,225.08,394.05Zm-.69-4.6a3.42,3.42,0,0,1-.09-.63Z" transform="translate(0 -278.91)"/><path class="cls-2" d="M282.14,408.34c-.06-.4-.12-.76,0,0Z" transform="translate(0 -278.91)"/><path class="cls-2" d="M240.66,389.06c.34,7.1,2.17,14.31,7.26,19.54,4.84,5,12.43,7.65,19.15,5.17,5.82-2.14,9.84-6.94,12.24-12.53.36-.83.68-1.68,1-2.53.56,2.24,1,4.51,1.41,6.79.14.82.27,1.63.38,2.45l.12.82c0-.17,0-.31-.07-.43,0,.17.05.35.06.45.19,1.51.35,3,.49,4.55.29,3,.49,6.08.66,9.12a76.66,76.66,0,0,1,.26,9.7l0,.46c0,.28,0,.43,0,.45-.07.23-.14.45-.18.61s-.15.59-.24.88l-.05.15c-.28.36-.59,1.27-.78,1.58s-.42.64-.62,1v0a28.62,28.62,0,0,1-3,3l-.67.56c-.62.44-1.23.89-1.86,1.31-1.49,1-3,2-4.58,2.84-.77.42-1.54.82-2.33,1.19l-.23.12-.29.11-.81.3a21.15,21.15,0,0,1-2.44.7l-.76.16-.46,0c-.41,0-.82,0-1.22,0H263c.06,0,.09,0,.09.06l-.2-.06c-.85,0-.46-.07-.12,0-.68-.2-2.25-.65-2.43-.73a6.15,6.15,0,0,0-4.74.62,6.15,6.15,0,0,0-2.21,8.42,7.21,7.21,0,0,0,3.68,2.83c7.54,3.17,16.09-.18,22.62-4.16,6.26-3.82,12.17-8.47,14.91-15.49,1.47-3.75,1.54-7.93,1.35-11.9-.16-3.34-.35-6.68-.59-10a132.1,132.1,0,0,0-2.87-20.49,60.64,60.64,0,0,0-9.07-21.11c-1.53-2.17-4.22-3.72-7-2.83a6.47,6.47,0,0,0-4.52,5.93c-.07.81-.15,1.62-.25,2.43,0,.32-.07.64-.11,1V382c-.26,1.68-.52,3.35-.84,5a53.5,53.5,0,0,1-1.78,7.16c-.17.51-.37,1-.55,1.52l.18-.39c-.08.16-.15.33-.22.5h0c-.1.26-.29.63-.16.34a24.26,24.26,0,0,1-1.52,2.79l-.39.58.2-.2c-.09.09-.17.19-.26.29l-.11.16c-.13.2-.29.34-.3.3-.13.16-.26.32-.4.47s-.53.5-.8.74-.45.31-.69.45l-.39.22c-.36.12-.72.26-1.09.35l-.34.05h-.16c-.22,0-.44,0-.67,0a9.24,9.24,0,0,0-1.57-.39l.33.19a3.88,3.88,0,0,0-.46-.22,1,1,0,0,1-.38-.2c-.41-.22-.8-.46-1.19-.71a10.41,10.41,0,0,0-.94-.77c-.39-.38-.75-.78-1.12-1.19-.14-.22-.3-.44-.44-.66-.28-.46-.54-.93-.78-1.4l-.19-.38c-.27-.62-.24-.51.12.31a3.79,3.79,0,0,1-.44-1.19,25.88,25.88,0,0,1-.93-3.69c0-.13-.31-1.5-.08-.44s0-.31,0-.46c-.07-.71-.12-1.42-.15-2.14-.34-6.95.9-13.91,0-20.85a6.72,6.72,0,0,0-1.8-4.35,6.16,6.16,0,0,0-8.7,0,5.88,5.88,0,0,0-1.81,4.35C241.56,375.15,240.32,382.11,240.66,389.06Zm23.87,58.49a1.33,1.33,0,0,1-.29,0Zm4.41-1.27a2.18,2.18,0,0,1-.49.21Zm14.59-13.22c0-.07,0-.3.09-.72A2,2,0,0,1,283.53,433.06Zm-25.92-32.22c-.36-.23-.22-.15,0,0Z" transform="translate(0 -278.91)"/><path class="cls-2" d="M263,447.54l-.23,0,.12,0Z" transform="translate(0 -278.91)"/><path class="cls-2" d="M259.54,402h0l.11,0c-.38-.2-.51-.25-.51-.23l.16.09Z" transform="translate(0 -278.91)"/><path class="cls-2" d="M268.32,395.85a.49.49,0,0,1,0-.11c-.11.23-.17.37-.2.45l.1-.21Z" transform="translate(0 -278.91)"/><path class="cls-2" d="M266.25,399.56a2.46,2.46,0,0,0-.47.55c.13-.16.27-.31.41-.46Z" transform="translate(0 -278.91)"/><path class="cls-2" d="M216.81,490q.23-9.07.87-18.14c.23-3.22-3-6.3-6.15-6.16a6.32,6.32,0,0,0-6.16,6.16,405.16,405.16,0,0,0,.54,63.76q.81,9,2,18.06a6.79,6.79,0,0,0,1.81,4.35,6.16,6.16,0,0,0,8.7,0,5.88,5.88,0,0,0,1.81-4.35A403.51,403.51,0,0,1,216.81,490Z" transform="translate(0 -278.91)"/><path class="cls-2" d="M284.2,489.66a1,1,0,0,0,.62.19h0A2.1,2.1,0,0,1,284.2,489.66Z" transform="translate(0 -278.91)"/><path class="cls-2" d="M274,554.37l.18.11.12.06h0l.23.05C274.15,554.33,274,554.31,274,554.37Z" transform="translate(0 -278.91)"/><path class="cls-2" d="M277.66,535a1.4,1.4,0,0,1-.39.41h0A.93.93,0,0,0,277.66,535Z" transform="translate(0 -278.91)"/><path class="cls-2" d="M309.62,505.88c1.74-1.49,3.49-3,5.26-4.41l1.21-1,.7-.55c.73-.58.18-.16-.09.06a33.17,33.17,0,0,1,2.74-2,66.79,66.79,0,0,1,5.77-3.66q1.44-.81,2.94-1.53c.45-.21,1-.39,1.46-.65l.68-.26a37.63,37.63,0,0,1,6.75-1.83l.58-.09,1.45-.12a28.53,28.53,0,0,1,3.46,0c.21,0,.47.06.73.09,0,0,.17-.05.41,0l.26.05h0l.55.1a26.94,26.94,0,0,1,3.34.9,6.2,6.2,0,0,0,7.57-4.3,6.3,6.3,0,0,0-4.3-7.57c-10.64-3.59-22.37-.81-31.93,4.49a104.57,104.57,0,0,0-16.88,12.29,29.46,29.46,0,0,0-2.77-8.19c-5.12-9.77-17.09-13-27.21-10a42.12,42.12,0,0,0-13.71,7.28,132,132,0,0,0-12.44,10.83q-2.81,2.76-5.44,5.67c-2.17,2.38-2.53,6.39,0,8.71,2.36,2.17,6.39,2.54,8.7,0a142.85,142.85,0,0,1,10.33-10.26c1.73-1.54,3.49-3.05,5.3-4.49l.46-.35c.4-.29.79-.59,1.2-.88.92-.66,1.87-1.29,2.84-1.88s1.83-1.06,2.78-1.53c.49-.24,2-.65.46-.25.53-.14,1.05-.42,1.58-.6a24.22,24.22,0,0,1,2.89-.79l.54-.1c.46,0,.92-.09,1.38-.11a22.82,22.82,0,0,1,2.48.07c.12,0,.25,0,.36.06.55.1,1.09.24,1.63.39.14.05.33.14.53.23-.13-.11-.11-.18.23,0l.37.18h0l.27.13c.38.2.75.42,1.11.65l.36.25h0c.35.35.73.68,1.07,1.05l.21.24a21.31,21.31,0,0,1,1.4,2.41v0c0,.07.05.14.08.24.15.42.29.84.42,1.27a27.61,27.61,0,0,1,.7,3c.07.41.11.85.19,1.27,0,.19.05.38.06.57.1,1,.17,2.06.23,3.1,0,.53,0,1.06.06,1.59q-5,4.25-9.95,8.5a106.39,106.39,0,0,0-9.73,9.26c-6.48,7.15-12,16.09-11.64,26.1.24,6.09,2.47,12.23,8,15.44A18.47,18.47,0,0,0,283,566.05a24,24,0,0,0,10.47-7.4,38,38,0,0,0,6.34-11.95c3-8.88,3.35-18.63,3.58-27.91q.09-3.82.05-7.67Zm19.74-13.62ZM265.65,495l.1-.08Zm25,5.63s0,.05,0,.07S290.7,500.61,290.69,500.58Zm-17.52,53.19c.2.29.36.61,0,0Zm.34.32c-.25-.16-.17-.12,0,0Zm16.72-20.84c0,.3-.07.6-.1.89s-.05.33-.08.49c-.14.9-.29,1.8-.47,2.69-.35,1.73-.77,3.45-1.29,5.14-.25.81-.52,1.61-.82,2.4-.09.24-.31.72-.39.88l.39-.81c-.19.4-.35.81-.54,1.21a30.08,30.08,0,0,1-2.54,4.31c-.23.27-.46.54-.7.8-.55.58-1.15,1.09-1.73,1.63l0,0c-.34.24-.69.46-1.05.67s-.63.36-1,.52l-.23.11c-.76.25-1.52.44-2.3.65h-.08a12.51,12.51,0,0,1-1.62,0h-.08c-.35-.08-.7-.18-1-.27.08.06.16.11.25.19a2.2,2.2,0,0,0-.51-.25c-.18,0-.29-.13-.3-.17l-.24-.13a5.51,5.51,0,0,0-.71-.68c-.06-.12-.13-.22-.2-.34l-.1-.18-.11-.23h0a12.74,12.74,0,0,1-.49-1.81l-.06-.33c0-.38-.07-.77-.08-1.16a28.87,28.87,0,0,1,.09-2.94l0-.19c.09-.48.19-1,.31-1.42a27.47,27.47,0,0,1,.87-2.8c.05-.12.1-.24.16-.36.16-.35.32-.7.49-1,.46-.9.95-1.78,1.48-2.63s1-1.62,1.6-2.39l.23-.33,0,0,0,0,.21-.3c.25-.35.27-.27.18-.11.21-.29.43-.65.55-.8A103.51,103.51,0,0,1,291,521.71c-.07,1.64-.14,3.28-.25,4.92C290.64,528.84,290.48,531.05,290.23,533.25Z" transform="translate(0 -278.91)"/><path class="cls-2" d="M343.26,489.94c0,.05.17.11.7,0h0A2.59,2.59,0,0,1,343.26,489.94Z" transform="translate(0 -278.91)"/><path class="cls-2" d="M287.08,545.74Z" transform="translate(0 -278.91)"/><path class="cls-2" d="M383.29,592.14a3.59,3.59,0,0,0,.55.23l-.06,0Z" transform="translate(0 -278.91)"/><path class="cls-2" d="M336.19,594.49l-.26.11-.11,0C336.51,594.56,336.51,594.39,336.19,594.49Z" transform="translate(0 -278.91)"/><path class="cls-2" d="M327.28,603.25c0,.22-.09.44-.14.67V604A2.25,2.25,0,0,0,327.28,603.25Z" transform="translate(0 -278.91)"/><path class="cls-2" d="M338.38,565.89c-.06.08.09.06.57-.26l-.11,0A3.88,3.88,0,0,1,338.38,565.89Z" transform="translate(0 -278.91)"/><path class="cls-2" d="M382,578.74a59.5,59.5,0,0,0-15.79-1.93c-1.46-7.14-4.33-14.09-10.1-18.73-4.06-3.26-8.94-5.52-14.24-5.4a24.17,24.17,0,0,0-13.71,5.09,83,83,0,0,0-19.46,21.3c-1.23,1.88-2.37,3.81-3.45,5.78-1.54,2.83-.79,6.84,2.21,8.42a6.26,6.26,0,0,0,8.43-2.2,84.94,84.94,0,0,1,6.55-10.23c.09-.13.19-.26.29-.38l.75-.94q1-1.28,2.1-2.49c1.33-1.53,2.73-3,4.17-4.42s2.87-2.75,4.4-4l.34-.28c.3-.21.59-.43.9-.64a23.54,23.54,0,0,1,2.64-1.61l.4-.18a1.23,1.23,0,0,1,.35-.19l.11,0c.08,0,.17-.08.24-.13l-.13.09.35-.12a13.08,13.08,0,0,1,1.36-.38l.47-.1c.36,0,.71,0,1.07,0,.15,0,.77.06,1,.07l.39.08a14.41,14.41,0,0,1,1.46.43h0c.32.22.77.37,1.1.55s.78.46,1.15.71l.4.27a22.88,22.88,0,0,1,1.75,1.66c.11.12.62.81.82,1l.29.42a25.42,25.42,0,0,1,1.38,2.38c.18.35.63.94.63,1.33,0,0-.45-1.15-.21-.49.12.33.26.66.37,1,.4,1.11.73,2.24,1,3.38l-2.18.32c-9.71,1.53-20.14,3.56-28.05,9.75a23.56,23.56,0,0,0-7.93,11.32,19.71,19.71,0,0,0,1.28,14.25,23.17,23.17,0,0,0,21.93,12.87c9.49-.69,17.79-6.35,22.84-14.28,4.27-6.71,5.89-14.92,5.81-22.88.5,0,1,0,1.5,0,1.11,0,2.23.13,3.34.24.47,0,.95.15,1.42.17-1.82-.06-.2,0,.31.06a49.83,49.83,0,0,1,5.38,1.23c.88.25,1.76.53,2.63.84l1.11.41.11.06c-.13-.08-.14-.1.23.08l.26.12.13,0h-.07a42.66,42.66,0,0,1,4.54,2.39c.77.48,1.53,1,2.26,1.52l.1.07c.33.32.74.6,1.09.9a32.64,32.64,0,0,1,3.78,3.93c2.05,2.5,6.61,2.28,8.71,0,2.44-2.66,2.18-6,0-8.7C398.69,585.61,390.44,581,382,578.74ZM355,593.65c0,.44-.15.93-.16,1.38,0,.12,0,.25-.06.38a35.63,35.63,0,0,1-1.46,5.75,7.79,7.79,0,0,0-.5,1.32l-.17.36a26.47,26.47,0,0,1-1.32,2.46c-.22.37-.46.74-.7,1.1l-.6.82-.15.18c-.32.38-.66.75-1,1.12-.61.63-1.24,1.24-1.91,1.81l-.33.27-.8.58a23.91,23.91,0,0,1-2.24,1.32l-.88.43-.35.13a20.45,20.45,0,0,1-2.46.72c-.27.06-.54.1-.81.15l-.45,0a19.38,19.38,0,0,1-2.41,0l-.1,0c-.4-.09-.8-.16-1.2-.27s-.78-.23-1.16-.36c-.69-.44-1.49-.75-2.18-1.2-.27-.17-.52-.4-.79-.58l-.08-.06c-.63-.56-1.18-1.2-1.76-1.81l-.06-.08c-.2-.29-.39-.58-.57-.88s-.4-.7-.58-1.06l-.07-.13a19.24,19.24,0,0,1-.56-2c0-.45,0-.9,0-1.36a.61.61,0,0,0,0-.14l-.06.22c0-.1.05-.21.07-.31a2.46,2.46,0,0,1,0-.28c0-.27.09-.45.12-.39s0-.08,0-.11c.11-.42.24-.84.38-1.24.06-.18.15-.35.2-.52,0,.12-.06.2-.09.3h0a18,18,0,0,1,1.14-1.9l-.17.17a2.85,2.85,0,0,0,.27-.32v0a1.4,1.4,0,0,1,.28-.3c.27-.3.54-.6.82-.89.51-.51,1.08-.94,1.6-1.43l.35-.24c.45-.3.9-.58,1.36-.85.77-.45,1.57-.84,2.37-1.23h-.1a.83.83,0,0,0,.21-.06l.06,0a1,1,0,0,1,.2-.08l.15-.07c.54-.21,1.1-.41,1.65-.6a92.7,92.7,0,0,1,12.16-3c1.1-.22,2.21-.42,3.31-.61.5-.09,1.1-.25,1.7-.38,0,.28,0,.56,0,.85C355.14,591.66,355.09,592.66,355,593.65Z" transform="translate(0 -278.91)"/><path class="cls-2" d="M327.79,601.68c-.2.4-.3,1,0,0Z" transform="translate(0 -278.91)"/><path class="cls-2" d="M329.32,599.29a2.09,2.09,0,0,0-.2.22l-.09.11-.1.15C329.34,599.35,329.4,599.24,329.32,599.29Z" transform="translate(0 -278.91)"/><path class="cls-2" d="M414.1,532.38a1,1,0,0,0,0-.1c-.12.22-.16.32-.17.32Z" transform="translate(0 -278.91)"/><path class="cls-2" d="M398.4,518.38l-.12,0-.31,0C397.65,518.31,397.47,518.35,398.4,518.38Z" transform="translate(0 -278.91)"/><path class="cls-2" d="M378.29,523.13h0C377.92,523.39,377.2,524.15,378.29,523.13Z" transform="translate(0 -278.91)"/><path class="cls-2" d="M419.52,513.52a42.82,42.82,0,0,0-8.55-4.37,43.65,43.65,0,0,0-8.22-2.45,43,43,0,0,0-19.32.45c-12.08,3.25-22.82,13.27-25.23,25.8-.61,3.15.88,6.79,4.3,7.57.21.05.43.08.65.11,1.92,10.35,10.91,19,21.32,20.79A34.23,34.23,0,0,0,404.26,559a39.2,39.2,0,0,0,13.63-10.21c4-4.58,7.73-10.07,9-16.11a18.73,18.73,0,0,0-.3-10.26A18.26,18.26,0,0,0,419.52,513.52Zm-4.44,12.89a.17.17,0,0,1-.06-.09S415.07,526.41,415.08,526.41Zm-.23-.56c-.07-.24-.1-.38,0,0Zm-1.21-1.46-.36-.28A1.46,1.46,0,0,1,413.64,524.39Zm-23.21-6.15-.54,0A1.36,1.36,0,0,1,390.43,518.24Zm2.65,31.33a2.9,2.9,0,0,1,.45-.06A2,2,0,0,1,393.08,549.57Zm5.34-1.42.43-.18A1.26,1.26,0,0,1,398.42,548.15Zm11.84-9.4,0,0C409.79,539.38,410,539,410.26,538.75Zm4.33-7.65c-.08.26-.16.51-.26.77a2.86,2.86,0,0,1-.19.41l.22-.37c-.09.15-.18.31-.26.47a1,1,0,0,1-.13.22,51.36,51.36,0,0,1-3.26,5.53l-.35.48c-.37.39-.7.87-1.05,1.27-.83,1-1.7,1.88-2.62,2.76-.74.72-1.53,1.38-2.32,2l-.58.42c-.55.39-1.1.75-1.67,1.1a30.47,30.47,0,0,1-3,1.62l-.23.12-.37.15c-.65.24-1.31.47-2,.66a33.83,33.83,0,0,1-3.45.8l-.14,0-.49,0c-.69,0-1.38.08-2.08.08s-1.37,0-2.06-.08l-.52-.05-.3,0a30.57,30.57,0,0,1-3.91-1.09c-.28-.13-.56-.25-.83-.39-.55-.29-1.09-.6-1.61-.94l-.63-.42-.07,0c-.43-.38-.86-.74-1.27-1.14s-.87-.89-1.28-1.37c-.1-.12-.32-.43-.34-.45l-.05-.08c-.35-.52-.68-1.05-1-1.59-.12-.22-.24-.44-.35-.66l-.3-.66c-.11-.32-.22-.64-.32-1-.18-.59-.32-1.19-.44-1.79,0,0,0,0,0-.08,0-.2,0-.41,0-.48a17.53,17.53,0,0,1,0-2.05,6,6,0,0,0-2.88-5.19c.32-.57.65-1.13,1-1.68.22-.33.45-.65.69-1s.35-.44.52-.64a29.94,29.94,0,0,1,2.14-2.22c.39-.37.8-.73,1.22-1.08.18-.16.38-.3.56-.47l-.08.08a27.13,27.13,0,0,1,2.58-1.68c.91-.53,2.12-.9,3-1.51l.31-.12c.46-.16.91-.32,1.38-.46a29.9,29.9,0,0,1,3.87-.94l.34-.09.33,0c.57,0,1.13-.11,1.7-.14a36.29,36.29,0,0,1,4,0c.64,0,1.28.08,1.91.14l.24,0,.24,0h.07l.3,0h-.18c1.27.23,2.54.48,3.8.81s2.34.66,3.49,1.07l1.6.6.9.41c1.15.54,2.28,1.13,3.38,1.77.47.28.94.57,1.4.88l.19.12.19.15.3.28a7.8,7.8,0,0,1,.58.57l.19.2.2.31c.05.07.2.42.32.64s.11.35.15.53.05.31.09.52c0,0,0,.06,0,.09,0,.52,0,1,0,1.56,0,.22-.08.44-.13.66C414.9,530.08,414.75,530.59,414.59,531.1Z" transform="translate(0 -278.91)"/><path class="cls-2" d="M477.45,499.76a48.54,48.54,0,0,0-9.94-2.41,6.72,6.72,0,0,0-4.74.62,6.58,6.58,0,0,0-1.62,1.39,6.26,6.26,0,0,0-7.65.8,65.25,65.25,0,0,0-18.1,28.91c-1.84,6-2.76,12.74-1,18.92a22.29,22.29,0,0,0,10.54,13.36,26,26,0,0,0,15.16,3.32,30.27,30.27,0,0,0,16.13-6.9c9.46-7.65,13.4-19.61,14.72-31.29a91.28,91.28,0,0,0,.55-9.91c0-4.25-.94-8.48-4.14-11.5C484.55,502.47,481,501,477.45,499.76ZM479,514.23s.08.08.1.07S479.06,514.28,479,514.23Zm-.12-.17h0Zm-.18-.32h0C478.64,513.6,478.62,513.55,478.72,513.74Zm-22.92,2,.15-.2C455.76,515.82,455.21,516.49,455.8,515.76Zm22.74,11.13v0C478.44,527.8,478.49,527.26,478.54,526.89Zm0-.09a1.16,1.16,0,0,1,0-.16Zm.35-3.7c-.09,1.25-.22,2.5-.35,3.75,0,.22-.07.47-.1.68-.11.74-.24,1.48-.38,2.22a48.5,48.5,0,0,1-2.17,7.78l-.24.63h0v0a1.67,1.67,0,0,0-.08.2c-.11.28-.19.35-.22.32-.13.32-.25.67-.35.87-.53,1.06-1.11,2.1-1.74,3.1-.27.42-.54.84-.83,1.25l-.31.44.05,0-.07.06-.21.3c-.16.21-.25.26-.26.22-.15.21-.29.42-.42.57-.41.47-.83.92-1.27,1.37-.72.72-1.48,1.38-2.25,2l-.31.22c-.5.35-1,.69-1.54,1-.9.54-1.84,1-2.77,1.44,1.6-.82.25-.12-.24,0s-1.18.38-1.78.53c-.43.11-.87.19-1.32.28l-.2,0a20.36,20.36,0,0,1-3.22,0l-.3,0c-.36-.07-.72-.13-1.07-.21-.68-.16-1.35-.44-2-.66.13.08-.15.07-.49-.09l-.24-.11-.15,0,.13,0-.34-.17c-.45-.23-.89-.47-1.31-.73-.27-.17-.53-.35-.79-.53s-.45-.35-.61-.5c-.32-.3-.64-.61-.93-.93l-.36-.39c-.19-.29-.39-.57-.57-.87s-.28-.47-.41-.72l-.15-.3a1.22,1.22,0,0,1-.08-.17l0,0c-.12-.34-.23-.67-.33-1-.16-.55-.27-1.1-.39-1.65v0c0-.14,0-.29-.05-.43-.06-.72-.08-1.43-.08-2.14s0-1.16.08-1.73l.09-.86c.24-1.32.49-2.62.83-3.92s.72-2.52,1.15-3.76c.22-.65.45-1.29.7-1.93.1-.25.19-.51.3-.76a1.19,1.19,0,0,1,.08-.2,64.06,64.06,0,0,1,3.58-6.94c.71-1.17,1.46-2.32,2.24-3.43.37-.53.85-1,1.17-1.6l.6-.74a59.74,59.74,0,0,1,5.64-5.94,3.47,3.47,0,0,0,.31-.36,3.94,3.94,0,0,0,1.72.72,48.69,48.69,0,0,1,8.17,1.82,17.81,17.81,0,0,1,3.5,1.26c-1.39-.8.36.17.67.32a15.54,15.54,0,0,1,1.65.9l.29.19.3.33s0,0,0,0l0,.11,0,0,0,.09a1.14,1.14,0,0,0,.1.19v0l-.05-.06c0,.06,0,.15.06.26s0,.38,0,.58A70.54,70.54,0,0,1,478.9,523.1Zm.27-7.91,0-.26C479.17,515.07,479.19,515.18,479.17,515.19Zm-.08-.67v-.06a.82.82,0,0,0,.11.18Z" transform="translate(0 -278.91)"/><path class="cls-2" d="M475.36,538.69a1.7,1.7,0,0,1,.3-.52h0C475.39,538.42,475.32,538.65,475.36,538.69Z" transform="translate(0 -278.91)"/><path class="cls-2" d="M479,514.36l0-.11-.07-.13-.08-.08c0,.05,0,.19.2.39Z" transform="translate(0 -278.91)"/><path class="cls-2" d="M471.64,544.89a2.42,2.42,0,0,1,.47-.52l0,0C471.77,544.58,471.62,544.83,471.64,544.89Z" transform="translate(0 -278.91)"/><path class="cls-2" d="M452.2,551.3a6.05,6.05,0,0,1,.73.2,3.23,3.23,0,0,0-.75-.21Z" transform="translate(0 -278.91)"/><path class="cls-2" d="M559.74,519.49l0,.09v-.07Z" transform="translate(0 -278.91)"/><path class="cls-2" d="M552.47,541l.08,0c.12,0,.31-.14.47-.18l0,0C552.65,540.8,552.42,541,552.47,541Z" transform="translate(0 -278.91)"/><path class="cls-2" d="M571.61,515.91a12.84,12.84,0,0,0-6.93-7.84,33.36,33.36,0,0,0-18.5-3.64,7.43,7.43,0,0,0-3.51,1.12,6.22,6.22,0,0,0-5.33-3.18c-11-.36-19.63,9.23-21.13,19.52a39.85,39.85,0,0,0,1.11,16.61c1.5,5.3,4.76,10,9.87,12.42,4.54,2.1,9.35,2.76,14.31,3.06s10.22.44,14.91-1.32a21.84,21.84,0,0,0,12-10.8c2.58-5.21,3.41-10.86,3.61-16.62C572.15,522.2,572.42,518.88,571.61,515.91Zm-12,3.19a.8.8,0,0,0,.09.14.49.49,0,0,0,0,.12l-.07-.06A.81.81,0,0,1,559.66,519.1Zm.08-.06v.17l-.08-.12C559.66,519,559.71,518.93,559.74,519Zm-9.82,22.63-.22,0C550.07,541.64,550.84,541.59,549.92,541.67Zm9.87-19c0,2.22-.09,4.44-.31,6.64,0,.15-.09.66-.09.7-.08.47-.16.94-.26,1.41a25.51,25.51,0,0,1-.84,3.08c0,.13-.2.53-.29.78l-.28.59c-.4.79-.89,1.52-1.36,2.27l-.22.29c-.25.28-.51.56-.78.82s-.5.46-.76.69l-.52.34c-.34.21-.69.38-1,.56h.09l-.12,0-.21.11c-.22.11-.32.13-.34.1-.43.14-.87.27-1.31.38a11.78,11.78,0,0,0-1.55.3l-.32,0c-.49,0-1,.07-1.48.09-1.07,0-2.13,0-3.2,0-1.83,0-3.66-.15-5.49-.32l-1.2-.12-.1,0c-.9-.14-1.8-.32-2.69-.55-.68-.18-1.48-.6-2.18-.74l-.17-.08c-.41-.21-.81-.45-1.2-.7l-.08,0c-.23-.22-.47-.42-.69-.65,0,0-.14-.17-.27-.33-.24-.38-.49-.76-.7-1.17l-.18-.39c-.14-.42-.29-.84-.41-1.27-.3-1-.53-2.06-.74-3.1-.08-.42-.14-.85-.22-1.27,0-.19,0-.38-.07-.56a32.6,32.6,0,0,1-.17-3.28q0-.87.06-1.74c0-.21,0-.43,0-.65,0-.05,0-.18,0-.32a1.81,1.81,0,0,0,0-.19c.08-.35.14-.7.22-1a15.8,15.8,0,0,1,.45-1.67c.06-.21.13-.41.2-.62l.17-.46h0c.15-.27.27-.55.42-.81.24-.43.49-.84.76-1.25l.18-.26c.62-.66,1.24-1.27,1.89-1.89a3.69,3.69,0,0,1,.34-.25c.41-.26.82-.51,1.24-.73l.3-.15c.41-.12.81-.27,1.23-.38l.38-.08c.45,0,.9-.05,1.35,0a5.79,5.79,0,0,0,3.53-1.14,5.57,5.57,0,0,0,5.31,3.21,28.76,28.76,0,0,1,3.08-.18c.51,0,1,0,1.54,0l.66,0,.56.06.86.15c.43.08.86.18,1.29.29a28.35,28.35,0,0,1,3.35,1.07l.16.08c.45.22.9.44,1.35.68.17.1.45.32.71.49,0-.06,0-.12,0-.17l.08.07s0,.06,0,.09v0h0a1.48,1.48,0,0,0,.08.25c0-.07-.06-.13-.09-.19C559.8,520.59,559.8,521.6,559.79,522.62Zm.23-2.89a.33.33,0,0,1-.06-.12h0C560,519.69,560,519.74,560,519.73Z" transform="translate(0 -278.91)"/></svg>