<svg id="Layer_1" data-name="Layer 1" xmlns="http://www.w3.org/2000/svg" viewBox="0 0 517.11 376.27"><defs><style>.cls-1{fill:#7468af;}.cls-2{fill:#46464c;}</style></defs><title>child</title><polygon class="cls-1" points="0 376.27 517.11 376.27 206.17 0 0 225.77 0 376.27"/><path class="cls-2" d="M103.42,362.34a3.61,3.61,0,1,0-3.61-3.6,3.66,3.66,0,0,0,3.61,3.6Z" transform="translate(-55.79 -107.56)"/><path class="cls-2" d="M98.69,351a12.32,12.32,0,0,0-16.61-3c-5.53,3.66-8.15,10.94-6.93,17.37a9.13,9.13,0,0,0,6.71,7.23c3.24.84,6.9.48,10,1a21.58,21.58,0,0,1,2.22.51c.41.12.81.25,1.21.41-.62-.24.48.23.48.23a6.89,6.89,0,0,1,3,2.37c-.34-.45.08.17.15.29a5.93,5.93,0,0,1,.43.78c-.28-.64.11.47.11.49.32.88.06-.46.09.46,0,.23,0,.47,0,.7.06.95.2-.5,0,.41l-.27,1c-.15.4-.16.43,0,.11-.07.16-.15.32-.23.47a16.93,16.93,0,0,1-6,5.93,22.67,22.67,0,0,1-4.39,2.39c-.33.11-.67.22-1,.3a2.54,2.54,0,0,1-.88.17,4.12,4.12,0,0,1-2.21-.45c-1.8-.76-4,.81-4.44,2.52-.58,2.08.71,3.68,2.52,4.44,6.37,2.68,13.86-2.36,18.43-6.49S108.68,380,105.25,374c-3.62-6.29-11.06-7.54-17.67-7.95a24.53,24.53,0,0,1-3.8-.36s-1.15-.39-.57-.18c-.41-.15-.42-.24-.19-.07-.09-.06-.68-.86-.34-.33a4.53,4.53,0,0,1-.34-.61c.13.32.13.28,0-.13,0-.23-.12-.47-.18-.7-.25-1,0,.55-.06-.49,0-.61,0-1.21,0-1.83,0-1.14-.15.6.05-.53.07-.37.14-.74.23-1.11s.13-.48.2-.73.47-1.36.29-.9a14.83,14.83,0,0,1,1.06-2c.53-.9-.36.33.33-.45.24-.28.49-.55.76-.81,0,0,.9-.75.4-.38a10.22,10.22,0,0,1,1-.65c.15-.09.81-.34.17-.11.42-.15.84-.24,1.26-.37.13,0,.71-.11,0,0a9.63,9.63,0,0,1,1.31-.05s1,.08.5,0,.67.16.79.19,1.07.4.34.08c.29.13.55.3.84.44.78.39-.34-.42.28.2.11.11.92,1.06.49.47a3.71,3.71,0,0,0,4.94,1.29C99,355,99.84,352.6,98.69,351Z" transform="translate(-55.79 -107.56)"/><path class="cls-2" d="M74.84,389.33a3.61,3.61,0,1,0-3.6-3.61,3.67,3.67,0,0,0,3.6,3.61Z" transform="translate(-55.79 -107.56)"/><path class="cls-2" d="M112,344.46A108.17,108.17,0,0,0,121.56,394c.8,1.78,3.39,2.2,4.94,1.29a3.69,3.69,0,0,0,1.3-4.93,100.19,100.19,0,0,1-8.59-45.87,3.61,3.61,0,1,0-7.21,0Z" transform="translate(-55.79 -107.56)"/><path class="cls-2" d="M109,368.72a72.55,72.55,0,0,1,9.78.08,59.63,59.63,0,0,1,9.1,1.36,3.61,3.61,0,0,0,1.91-7A76.82,76.82,0,0,0,109,361.5a3.61,3.61,0,1,0,0,7.22Z" transform="translate(-55.79 -107.56)"/><path class="cls-2" d="M130.82,375.4A20.75,20.75,0,0,0,137,390.28c1.78,1.72,5.59,1.2,6-1.6a22.42,22.42,0,0,0-.69-8.58c-.14-.59-.26-1.19-.37-1.79-.18-1,0,.7,0-.33,0-.33,0-.65,0-1,0-.09.05-1,0-.48s.09-.38.11-.48c.07-.28.17-.54.26-.81-.29.8.05,0,.13-.16s.26-.39.39-.59.1-.16-.13.17c.09-.11.18-.22.28-.32a6.14,6.14,0,0,1,.51-.51c.1-.1.84-.64.16-.17a14.56,14.56,0,0,1,1.35-.85c.09-.05.93-.47.48-.26s.35-.12.44-.15a14.44,14.44,0,0,1,2.05-.56c.29-.06.58-.1.87-.17h-.08l.35-.05c1.43-.15,2.85-.21,4.28-.27a3.61,3.61,0,0,0,0-7.22,32.66,32.66,0,0,0-9.39,1.3,14.65,14.65,0,0,0-7.32,5.29c-2,2.71-2.17,6-1.68,9.18.21,1.31.54,2.6.82,3.9.07.33.12.65.19,1,.18.85,0-.44.05.34,0,.38.05.76.05,1.14,0,.17-.13,1.3,0,.5l6-1.6c-.38-.37-.75-.75-1.1-1.15-.06-.07-.58-.74-.32-.39s-.23-.34-.28-.41c-.29-.44-.57-.89-.83-1.36-.12-.24-.25-.47-.36-.71s-.36-.81-.09-.16a16.46,16.46,0,0,1-.89-2.9c-.06-.26-.1-.52-.15-.78.15.72,0,0,0-.15a14.8,14.8,0,0,1-.07-1.76,3.61,3.61,0,0,0-7.22,0Z" transform="translate(-55.79 -107.56)"/><path class="cls-2" d="M159.5,367.46l-.63,8.12c-.22,2.87-.78,5.9.59,8.58a8.93,8.93,0,0,0,6.34,4.39,12.88,12.88,0,0,0,7.95-1.28c7.81-3.72,16.22-16.41,8.82-24.16-3.86-4.05-9.86-3.57-14.89-2.78-1.87.29-3.07,2.73-2.52,4.44a3.72,3.72,0,0,0,4.44,2.52c.23,0,1.33-.19.51-.09l1.21-.13a20.23,20.23,0,0,1,2.58-.09c.35,0,.69,0,1,.07-.85,0,.2,0,.47.1s.72.23,1.09.33c-.67-.19-.3-.14-.1,0s.41.22.6.34.54.45.2.13.09.11.17.19.49.53.2.19.08.14.14.24.18.34.28.5c.25.43-.13-.56,0-.08a2.77,2.77,0,0,0,.12.41c.06.27.06,1,.06.15,0,.39,0,.77,0,1.15,0,.2,0,.4-.05.59,0-.15.15-.74,0-.07a15.35,15.35,0,0,1-.74,2.36c.29-.66-.2.38-.31.58-.19.37-.41.74-.63,1.1s-.47.71-.7,1.06c-.08.11-.41.56,0,0-.16.21-.33.41-.49.6a22.93,22.93,0,0,1-1.73,1.82c-.34.3-.68.6-1,.89.45-.37,0,0-.07.05l-.7.48c-.37.24-.75.46-1.14.67l-.59.29c-.48.25.49-.13,0,0-.35.09-.7.23-1.06.32l-.61.13c.8-.17-.09,0-.27,0s-.41,0-.61,0c.14,0,.72.16,0,0l-.62-.15s-.56-.18-.16,0-.95-.56-.53-.27-.12-.15-.2-.21c-.28-.18.2.45-.07-.09s0-.12,0,0c-.21-.85-.1.18,0-.29s0-1.11.06-1.64c.09-1.22.19-2.44.28-3.66l.6-7.71a3.63,3.63,0,0,0-3.61-3.61,3.71,3.71,0,0,0-3.61,3.61Z" transform="translate(-55.79 -107.56)"/><path class="cls-2" d="M183.51,344.45c-.9,14.62-1.45,29.59,4.58,43.29.78,1.78,3.39,2.2,4.94,1.29,1.84-1.07,2.08-3.14,1.29-4.93-5.38-12.22-4.41-26.37-3.59-39.65a3.64,3.64,0,0,0-3.61-3.61,3.68,3.68,0,0,0-3.61,3.61Z" transform="translate(-55.79 -107.56)"/><path class="cls-2" d="M192.71,340.48A234.06,234.06,0,0,0,196,389.86c.33,1.92,2.69,3,4.44,2.52a3.7,3.7,0,0,0,2.52-4.44,224.54,224.54,0,0,1-3-47.46,3.61,3.61,0,0,0-7.22,0Z" transform="translate(-55.79 -107.56)"/><path class="cls-2" d="M209.78,376.62l10.34,0c3.46,0,6.92,0,9.07-3.19a14.9,14.9,0,0,0,1.66-4.14,23,23,0,0,0,1.05-5.63,10.54,10.54,0,0,0-3.49-8.43,8,8,0,0,0-9.1-1,12.34,12.34,0,0,0-5,6.06c-2.6,6-4.43,13.06-3.43,19.63.93,6.07,5.32,12.05,11.54,13.38a3.69,3.69,0,0,0,4.44-2.52,3.65,3.65,0,0,0-2.52-4.44A10.35,10.35,0,0,1,223,386c.59.2-.57-.29-.7-.37s-.39-.24-.59-.36-.52-.42-.1-.06a10.21,10.21,0,0,1-1-1,10.62,10.62,0,0,1-2.24-4,14.57,14.57,0,0,1-.45-6.21,37.49,37.49,0,0,1,1.69-7.19c.32-1,.66-2,1-3,.22-.66.09-.25,0-.1.09-.21.19-.42.29-.63.23-.47.48-.93.75-1.37.11-.17.72-.92.32-.48.14-.15,1-.91.44-.5.17-.12.34-.22.52-.33-.34.21-.4-.06,0,0,.59.14-.08-.37,0,0h.33c-.34-.07-.38-.08-.12,0,.09,0,.77.17.36.09s.1.05.16.12c-.34-.43,0,0,.07.07a5.56,5.56,0,0,1,.47.5c-.34-.44,0,.05,0,.13s.24.41.33.63c-.23-.57.13.7.14.8.22,2-.6,4.49-1.35,6.44-.23.57.19-.38-.09.15-.13.21-.11.22.06,0l-.26.25c.05-.2.24-.12.31-.25l-.35.08c.28,0,.29-.05,0,0-1.37.06-2.76,0-4.13,0l-9.11,0a3.61,3.61,0,1,0,0,7.22Z" transform="translate(-55.79 -107.56)"/><path class="cls-2" d="M237.92,359.53v34.69h7.21a40.64,40.64,0,0,1,.82-10.53,29.52,29.52,0,0,1,3.44-9.54,6.58,6.58,0,0,1,2.46-2.33c.3-.17.62-.33.94-.48-.55.25.35-.12.45-.16a17.4,17.4,0,0,1,2.09-.55c.36-.07.73-.13,1.09-.18-.62.08.43,0,.52,0,.69-.05,1.38-.08,2.07-.1,1.56,0,3.12,0,4.67.13a3.61,3.61,0,1,0,0-7.22c-7.32-.41-15.41.09-20.05,6.6-2.35,3.3-3.65,7.6-4.54,11.5a48.25,48.25,0,0,0-1.17,12.9,3.61,3.61,0,1,0,7.21,0V359.53a3.61,3.61,0,1,0-7.21,0Z" transform="translate(-55.79 -107.56)"/><path class="cls-2" d="M290,363a17,17,0,0,0-14.32,5.81c-2.15,2.59-3.28,6.07-1.28,9.13,1.57,2.39,4.39,3.6,6.8,4.93l8,4.4,3.87,2.14c.29.16.58.31.86.48l.31.17c.33.22.4.26.22.14l-.09-.06a2.15,2.15,0,0,1-.24-2.27c0-.19.7-.59,0-.11A70.61,70.61,0,0,1,280.16,395a76.5,76.5,0,0,1-8.75,2.75q-2.12.53-4.26.93c-1.46.28-3,.52-4.22.67-1.93.23-3.61,1.49-3.61,3.6,0,1.77,1.66,3.85,3.61,3.61A80.9,80.9,0,0,0,294.52,396c2.39-1.42,5.64-3,6.36-5.91,1-4-2.64-6-5.56-7.58l-7.73-4.28-3.87-2.14c-.67-.38-1.36-.74-2-1.12l-.6-.36c-.07,0-.84-.67-.4-.26l-.48-.48c.24-.1.26.64.27.68.08.24-.08,0,0-.23-.15.34.33-.52.39-.6a8.64,8.64,0,0,1,2.41-2.07,10,10,0,0,1,6.62-1.4c1.94.19,3.61-1.79,3.61-3.61A3.68,3.68,0,0,0,290,363Z" transform="translate(-55.79 -107.56)"/><path class="cls-2" d="M287.9,420.88c-16.61-6.87-37.36-2-49.52,11.16-.68.73-1.32,1.49-1.94,2.27-.49.62-1,1.26-1.44,1.89,0,0-.43.5-.16.2,0,0-.68.83-.4.48-.1.12-.75.35,0,.09l-.54.15.42-.06q-.5,0,0,0l.22,0a4.07,4.07,0,0,1-.5-.13c.18,0,.61.38.13,0-.15-.1-.32-.19-.47-.3.64.44-.39-.45-.6-.66-.46-.46-.16-.16-.05,0-.18-.22-.33-.46-.49-.69-.29-.43-.55-.88-.81-1.33s-.44-.82-.64-1.24l-.36-.78q-.16-.36,0,.09l-.19-.46a43.2,43.2,0,0,0-3-6.42c-4.82-8-12.48-13.77-21.05-17.24-18.88-7.63-40.1-1.22-55.75,10.58a133.42,133.42,0,0,0-11.8,10.37c-3.6,3.45-6.89,6.55-11.1,8.94a18.22,18.22,0,0,1-5.58,2.25c-.41.09-.83.17-1.25.24-.69.14-.13,0,0,0l-.8.08a20.43,20.43,0,0,1-3,0l-.63-.05s-1-.13-.46,0-.19,0-.3-.06l-.77-.16a20.36,20.36,0,0,1-2.66-.8c.74.27-.61-.3-.8-.39-.35-.19-.69-.39-1-.6-.17-.11-.32-.23-.49-.33-.79-.51.34.31-.09-.06a14.69,14.69,0,0,1-1.08-1c-.16-.17-.92-1.16-.47-.51a13.18,13.18,0,0,1-.71-1.12c-.1-.18-.6-1.4-.34-.65-.17-.48-.33-1-.46-1.45-.23-.92-.38-1.85-.53-2.78,0-.14-.1-.71,0,0,0-.22,0-.43-.08-.64-.06-.53-.12-1.07-.19-1.6-.55-4.37-1.34-9-5.24-11.65-4.34-3-10.13-1.25-14.74.17-4.16,1.27-8.59,3.14-11.52,6.48a14.1,14.1,0,0,0-3.2,6,3.61,3.61,0,1,0,7,1.92c.07-.27.14-.52.22-.78,0-.1.25-.73.09-.31s.21-.42.21-.41a5.7,5.7,0,0,1,.3-.54c.13-.22.79-1.05.33-.51a14.15,14.15,0,0,1,1.07-1.12c.19-.18.39-.35.59-.52.41-.36-.44.3,0,0s.8-.55,1.21-.81A24.67,24.67,0,0,1,85,424.73c-.58.26.72-.28.88-.34l1.46-.5c1-.31,1.95-.59,2.94-.85s2.21-.54,3.32-.77a5.81,5.81,0,0,1,2.78.06c-.49-.16.06,0,.2.1s.31.21.47.29c.41.19-.5-.57,0,0,.11.12.25.27.37.38-.54-.52,0,0,.2.35.09.15.17.32.25.48.39.68-.14-.55.07.16a24.78,24.78,0,0,1,.65,2.57c.08.4.14.81.2,1.22.11.7,0,.12,0,0l.12,1c.54,4.42,1.12,8.6,4,12.2,5.17,6.54,15.18,8,22.77,5.59,9.67-3,16.44-11.14,23.69-17.7a69.09,69.09,0,0,1,24.45-14.61,48.18,48.18,0,0,1,13.87-2.5,44.88,44.88,0,0,1,6.66.31c-.63-.08.14,0,.3.05l.71.11c.53.09,1.06.2,1.59.31,1.06.22,2.12.48,3.16.78s2.07.63,3.09,1l1.35.52c.67.27.28.12.13.06l1,.44a42.62,42.62,0,0,1,5.64,3.14,29,29,0,0,1,4.56,3.63q1.15,1.1,2.22,2.28c.31.35.62.71.91,1.08l.45.55c-.39-.5.21.29.28.39a33.11,33.11,0,0,1,3.21,5.49c.29.63.51,1.26,1,2.32a31.89,31.89,0,0,0,1.57,3.35c2.18,3.91,6.25,8.06,11.14,6.17a8.53,8.53,0,0,0,3.58-2.61c.44-.55.86-1.11,1.27-1.68s.18-.23.08-.11l.66-.82a38.34,38.34,0,0,1,4.44-4.48c.4-.34.8-.68,1.21-1s-.66.47.25-.19l.56-.41q1.29-.92,2.64-1.74c.9-.55,1.82-1.06,2.76-1.54l1.26-.61.64-.29c.1-.05,1-.43.43-.2a45.48,45.48,0,0,1,6-2c1-.26,2.06-.48,3.1-.66l1.39-.22c-.62.09,0,0,.09,0l1.05-.11a42.87,42.87,0,0,1,6.31-.1c.52,0,1,.08,1.57.13l.87.09c-.15,0-.64-.1.09,0,1,.16,2.07.34,3.09.58a38.4,38.4,0,0,1,6,1.94c1.8.74,4-.81,4.44-2.52.56-2.08-.72-3.7-2.53-4.44Z" transform="translate(-55.79 -107.56)"/></svg>