<svg id="Layer_1" data-name="Layer 1" xmlns="http://www.w3.org/2000/svg" viewBox="0 0 156.95 166.09"><defs><style>.cls-1{fill:#b9d76c;}.cls-2{fill:#424142;}</style></defs><title>family</title><polygon class="cls-1" points="81.62 0 0 90.77 156.94 166.09 156.94 0 81.62 0"/><path class="cls-2" d="M204.31,513.4c-7.19.51-12.22,6.55-16.05,12.06-2.06,3-4.41,7-2,10.48a13.79,13.79,0,0,0,4.2,3.5,39.21,39.21,0,0,0,5.48,2.79c3.89,1.6,8.22,2.77,12.43,1.95a23.18,23.18,0,0,0,5.8-2.11,42.79,42.79,0,0,0,5.15-2.91A12.17,12.17,0,0,0,225,531a14.47,14.47,0,0,0-1.86-9.25c-3.64-6.39-11.27-8.83-18.24-9.07-.93,0-1.86,0-2.79,0-.64,0-.64,1,0,1,6.56-.24,14.06,1.09,18.57,6.3a14.26,14.26,0,0,1,3.45,8.32,10.42,10.42,0,0,1-3.23,8.35,21.21,21.21,0,0,1-4.32,3,42.69,42.69,0,0,1-5.12,2.53,15.92,15.92,0,0,1-5.8,1.24,20.26,20.26,0,0,1-6-1,35.34,35.34,0,0,1-10.23-4.94,6.58,6.58,0,0,1-3.1-4.15,8.48,8.48,0,0,1,1.49-5.35,43.18,43.18,0,0,1,6.2-8.1,18.11,18.11,0,0,1,7.93-5.11,13.1,13.1,0,0,1,2.4-.41c.64,0,.65-1,0-1Z" transform="translate(-115.16 -467.74)"/><path class="cls-2" d="M194.68,525.47a4,4,0,0,1-.17,1.76,4.26,4.26,0,0,0-.09,1.63,2,2,0,0,0,.78,1.31,2,2,0,0,0,1.51.31,5,5,0,0,0,2.74-1.57,2.58,2.58,0,0,0,.7-1.44,2.12,2.12,0,0,0-.42-1.48c-.84-1.14-2.23-1.32-3.54-1.42a.5.5,0,0,0-.5.5.51.51,0,0,0,.5.5,3.86,3.86,0,0,1,2.52.76,1.31,1.31,0,0,1,.46.93,1.42,1.42,0,0,1-.43.94,4.18,4.18,0,0,1-2.06,1.27,1.06,1.06,0,0,1-.93-.13,1.13,1.13,0,0,1-.37-.85,5,5,0,0,1,.19-1.43,4.28,4.28,0,0,0,.08-1.85c-.15-.63-1.11-.37-1,.26Z" transform="translate(-115.16 -467.74)"/><path class="cls-2" d="M200.94,530.18A8,8,0,0,0,197,533a.49.49,0,0,0,.18.68.51.51,0,0,0,.68-.17,6.85,6.85,0,0,1,3.35-2.37.52.52,0,0,0,.35-.62.52.52,0,0,0-.62-.35Z" transform="translate(-115.16 -467.74)"/><path class="cls-2" d="M213.32,523.25a2.9,2.9,0,0,0-3.06,1.73,2.84,2.84,0,0,0,.74,3.37,3.54,3.54,0,0,0,3.4.72,3.41,3.41,0,0,0,2.31-3,2.94,2.94,0,0,0-2.76-3c-.64,0-.64,1,0,1a1.93,1.93,0,0,1,1.75,1.69,2.36,2.36,0,0,1-1.35,2.25c-1.43.72-3.76-.46-3.32-2.23a2,2,0,0,1,2-1.57.52.52,0,0,0,.62-.35.52.52,0,0,0-.35-.62Z" transform="translate(-115.16 -467.74)"/><path class="cls-2" d="M211.11,530.49l3,1a.5.5,0,0,0,.62-.34.52.52,0,0,0-.35-.62l-3-1a.5.5,0,0,0-.62.35.52.52,0,0,0,.35.61Z" transform="translate(-115.16 -467.74)"/><path class="cls-2" d="M213.21,526.82a.5.5,0,0,0,0-1,.5.5,0,0,0,0,1Z" transform="translate(-115.16 -467.74)"/><path class="cls-2" d="M196.91,527.81a.5.5,0,0,0,0-1,.5.5,0,0,0,0,1Z" transform="translate(-115.16 -467.74)"/><path class="cls-2" d="M194.88,523a2,2,0,0,0,1.51,2.17A2.46,2.46,0,0,0,199,524a3.74,3.74,0,0,0,.64-1.54.5.5,0,0,0-.35-.61.5.5,0,0,0-.61.35,3.18,3.18,0,0,1-.54,1.3l-.19.21-.13.13-.07,0a1.42,1.42,0,0,1-.57.27l-.08,0h-.3l-.11,0-.14,0-.06,0a1.69,1.69,0,0,1-.29-.17l-.05,0-.13-.13c-.07-.07,0,0,0,0a.75.75,0,0,1-.07-.12.2.2,0,0,1,0-.08s0,.05,0,0,0-.1,0-.15,0,0,0,0,0-.2,0-.1a.52.52,0,0,0-.35-.62.51.51,0,0,0-.61.35Z" transform="translate(-115.16 -467.74)"/><path class="cls-2" d="M210.85,522.57a2.19,2.19,0,0,0,1.92,1.35,2.06,2.06,0,0,0,1.93-1.22,2.11,2.11,0,0,0,.13-1.42.49.49,0,0,0-.61-.35.5.5,0,0,0-.35.61.9.9,0,0,1,0,.16c0-.09,0,0,0,0v.12s0,.2,0,.07a2.1,2.1,0,0,1-.06.24s-.06.15,0,.09l-.05.09-.06.1s-.09.13,0,.09l-.07.07-.09.08-.06.06,0,0-.12.08-.11.05c-.08,0,.07,0-.05,0l-.13,0h-.31c-.1,0,.09,0,0,0l-.12,0-.15,0s-.14-.06,0,0l-.25-.13s-.11-.09,0,0a.73.73,0,0,1-.09-.08.94.94,0,0,1-.1-.1c-.09-.09,0,0,0,0a.61.61,0,0,1-.07-.1s-.09-.18,0-.06a.5.5,0,1,0-1,.27Z" transform="translate(-115.16 -467.74)"/><path class="cls-2" d="M208.62,523.19a11.63,11.63,0,0,0-2.72,3.24,11.9,11.9,0,0,0-.88,2,2.26,2.26,0,0,0-.13,1.83,1.43,1.43,0,0,0,1.49.53,1.33,1.33,0,0,1,1.46.62c.63,1.09-.72,2.14-1.71,1.53-.55-.34-1,.52-.51.86a2.33,2.33,0,0,0,3.14-.8,2.26,2.26,0,0,0-1.18-3.09,2.12,2.12,0,0,0-.93-.15c-.18,0-.72.15-.87,0s.13-.89.2-1.09a9.57,9.57,0,0,1,.42-1.05,10.91,10.91,0,0,1,2.92-3.74c.5-.41-.21-1.11-.7-.71Z" transform="translate(-115.16 -467.74)"/><path class="cls-2" d="M200,535.78a6.81,6.81,0,0,0,7.13,5.14c3.16-.21,6.29-2.8,5.44-6.24-.15-.62-1.12-.36-1,.27.73,2.94-2.24,5-4.86,5a5.79,5.79,0,0,1-5.79-4.42c-.14-.63-1.11-.37-1,.26Z" transform="translate(-115.16 -467.74)"/><path class="cls-2" d="M185.67,531.37a6.52,6.52,0,0,0-1.21-2.53,2.45,2.45,0,0,0-2.22-1.14,3.19,3.19,0,0,0-2,1.52,4.74,4.74,0,0,0-.72,2.19,4,4,0,0,0,2,3.89,4.16,4.16,0,0,0,4.23-.14,2.14,2.14,0,0,0,.92-1,1.19,1.19,0,0,0-.6-1.28,6,6,0,0,0-3.08-.94c-.65,0-.65,1,0,1a5.19,5.19,0,0,1,2.14.56c.14.07.59.27.57.41s-.43.43-.59.53a3.17,3.17,0,0,1-3,.09,3,3,0,0,1-1.59-2.65,3.41,3.41,0,0,1,1.45-3c.71-.43,1.3,0,1.75.6a5.28,5.28,0,0,1,1,2.17c.15.62,1.11.36,1-.27Z" transform="translate(-115.16 -467.74)"/><path class="cls-2" d="M225.42,529.67a2.7,2.7,0,0,0,0-.94,2,2,0,0,1,0-.94c.16-.38.65-.52,1-.58a2.17,2.17,0,0,1,2.57,1.19,4.74,4.74,0,0,1,.22,1.5,3.47,3.47,0,0,1-.16,1.54.87.87,0,0,1-.62.35,9.78,9.78,0,0,1-1.06.18c-.34,0-.67.07-1,.08a3.48,3.48,0,0,1-.91,0,.34.34,0,0,1-.27-.45,1,1,0,0,1,.56-.59,4.05,4.05,0,0,1,2.11-.43c.65,0,.65-1,0-1-1.35-.07-4,.55-3.66,2.43.17.88,1.07,1.08,1.83,1.09a10.76,10.76,0,0,0,2.77-.32,1.8,1.8,0,0,0,1-.63,2.16,2.16,0,0,0,.37-1.1,9,9,0,0,0,0-2.2,2.87,2.87,0,0,0-3.14-2.62,2.94,2.94,0,0,0-2.17.72,1.74,1.74,0,0,0-.46,1.17,7.4,7.4,0,0,1,0,1.33c-.14.63.82.89,1,.27Z" transform="translate(-115.16 -467.74)"/><path class="cls-2" d="M205.19,544.08c-.19,2.3-2.28,3.83-4.08,4.94s-3.75,2.24-4.87,4.14c-.21.36.14.9.56.74a68.78,68.78,0,0,1,6.66-2.14l-.63-.49.46,18.63c0,.54.86.7,1,.13a24.94,24.94,0,0,1,1.94-5.58A25.71,25.71,0,0,1,207.6,562a10.19,10.19,0,0,1,1.78-2.3c1.92-1.63,2.75,1.95,3.22,3.19q1.16,3.06,2.21,6.16a.5.5,0,0,0,1-.14,140.27,140.27,0,0,0-.23-19.23l-.75.44a8.3,8.3,0,0,0,3,.83.5.5,0,0,0,.5-.5c0-4.51-5.89-4.7-8.15-7.52-.4-.5-1.11.21-.71.71,1.17,1.46,2.92,2.12,4.54,2.93s3.3,2,3.32,3.88l.5-.5a6.83,6.83,0,0,1-2.54-.7c-.3-.15-.79,0-.75.43a140.27,140.27,0,0,1,.23,19.23l1-.13q-1.26-3.67-2.65-7.29c-.58-1.51-1.46-3.93-3.57-3.07a5.24,5.24,0,0,0-2.09,2,23.31,23.31,0,0,0-1.83,2.94,25.43,25.43,0,0,0-2.33,6.4l1,.13-.46-18.63a.51.51,0,0,0-.63-.48,67.11,67.11,0,0,0-6.66,2.15l.56.73c2.27-3.87,8.68-4.42,9.09-9.59.05-.64-.95-.64-1,0Z" transform="translate(-115.16 -467.74)"/><path class="cls-2" d="M201.07,514.5a30.08,30.08,0,0,0-5.27-8l-.71.71q3.42,2.79,6.93,5.48a.5.5,0,0,0,.73-.3,13.27,13.27,0,0,0,.27-3.21,4,4,0,0,1,.9-3l-.86-.35a22.42,22.42,0,0,0,.48,5.66.5.5,0,0,0,.84.22,70.06,70.06,0,0,0,6-9.21l-.91-.39-1.89,8.58a.51.51,0,0,0,.92.38,14.18,14.18,0,0,1,3.07-4.16,4.5,4.5,0,0,1,4.72-.89l-.18-.68-4.7,7.12a.5.5,0,0,0,.43.75l2.37-.24,1.18-.12a8,8,0,0,0,1-.07l.15,0v-.15a3.7,3.7,0,0,0-.62.26l-1,.38-2.4.9c-.6.22-.34,1.19.26,1l3.43-1.28c.63-.24,1.67-.61,1.29-1.5s-1.4-.59-2.06-.53l-3.55.36.43.75,4.71-7.12a.5.5,0,0,0-.18-.68,5.36,5.36,0,0,0-5.37.6,13.86,13.86,0,0,0-3.8,4.81l.92.38,1.88-8.57a.5.5,0,0,0-.91-.39,69.6,69.6,0,0,1-5.87,9l.84.22a21.21,21.21,0,0,1-.45-5.39.51.51,0,0,0-.85-.36c-1.78,1.77-.85,4.43-1.42,6.61l.73-.29q-3.39-2.61-6.72-5.33a.5.5,0,0,0-.71.71A29.16,29.16,0,0,1,200.2,515c.27.59,1.13.08.87-.5Z" transform="translate(-115.16 -467.74)"/><path class="cls-2" d="M190.22,522.19c-4.37,8-2.15,17.25.4,25.39.2.62,1.16.36,1-.26-2.47-7.87-4.74-16.92-.51-24.62.31-.57-.55-1.07-.86-.51Z" transform="translate(-115.16 -467.74)"/><path class="cls-2" d="M220.8,520.28l0,14.2c0,2.22.05,4.44,0,6.66a17.2,17.2,0,0,1-1.22,6.42c-.26.58.61,1.09.86.5,1.79-4.07,1.39-8.74,1.38-13.08l0-14.7a.5.5,0,0,0-1,0Z" transform="translate(-115.16 -467.74)"/><path class="cls-2" d="M200.52,549.72a3.61,3.61,0,0,0,.36,2.37.5.5,0,0,0,.86-.5l-.06-.13a.25.25,0,0,1,0-.09c0,.07,0,.08,0,0l0-.07,0-.09a4.21,4.21,0,0,1-.12-.48c0-.14,0,.08,0,0s0-.08,0-.12a1.93,1.93,0,0,1,0-.24c0-.08,0-.16,0-.24v0c0-.06,0,0,0,0s0-.1,0-.13a.53.53,0,0,0-.35-.62.52.52,0,0,0-.62.35Z" transform="translate(-115.16 -467.74)"/><path class="cls-2" d="M216,547.87c0,.38,0,.77-.08,1.15v0a.88.88,0,0,0,0,.16c0,.09,0,.18,0,.26a5.41,5.41,0,0,1-.12.58.5.5,0,0,0,1,.26,12.64,12.64,0,0,0,.31-2.45.5.5,0,0,0-.5-.5.51.51,0,0,0-.5.5Z" transform="translate(-115.16 -467.74)"/><path class="cls-2" d="M205.38,546.56a6.14,6.14,0,0,0,3.5,1.3,3.4,3.4,0,0,0,2.87-1.5c.34-.54-.52-1.05-.87-.5a2.42,2.42,0,0,1-2.17,1,5.53,5.53,0,0,1-2.83-1.16.5.5,0,0,0-.68.18.51.51,0,0,0,.18.68Z" transform="translate(-115.16 -467.74)"/><path class="cls-2" d="M215.36,553.11a98.92,98.92,0,0,0-13.52,1.36c-.63.11-.36,1.07.27,1a96.55,96.55,0,0,1,13.25-1.33c.64,0,.64-1,0-1Z" transform="translate(-115.16 -467.74)"/><path class="cls-2" d="M167.07,518.38c-3.79-.69-7.32,1.11-10.12,3.54a33.72,33.72,0,0,0-7.2,9.28,38.8,38.8,0,0,0-4,11.13c-.77,3.91-1,8.34,1.41,11.76a8.18,8.18,0,0,0,4.25,3.13,18.6,18.6,0,0,0,5.76.62,26.22,26.22,0,0,0,10.2-2,16.6,16.6,0,0,0,7.78-6.65,24.43,24.43,0,0,0,2.95-11c.26-4.24.15-8.64-1.48-12.62a46.31,46.31,0,0,0-2.9-5.65,10.44,10.44,0,0,0-3.23-3.78,4.75,4.75,0,0,0-2.17-.7c-.64-.06-.64.94,0,1a5.33,5.33,0,0,1,3.71,2.67,41.26,41.26,0,0,1,2.71,4.75,21.75,21.75,0,0,1,2,5.73,30.68,30.68,0,0,1,.41,6.13,29.44,29.44,0,0,1-1.75,10.65,15.25,15.25,0,0,1-6.39,7.51,22.25,22.25,0,0,1-9.17,2.85,31.3,31.3,0,0,1-4.84.09,9.69,9.69,0,0,1-5.45-1.6c-3.09-2.33-3.64-6.51-3.26-10.11a35.92,35.92,0,0,1,3.11-10.93,37.87,37.87,0,0,1,6-9.2c2.29-2.61,5.27-5.11,8.8-5.65a7.91,7.91,0,0,1,2.66,0c.63.12.9-.85.27-1Z" transform="translate(-115.16 -467.74)"/><path class="cls-2" d="M156.8,530.92a6,6,0,0,0-3.24-.56c-.86.11-1.87.63-1.83,1.63a.51.51,0,0,0,.5.5q2.86.07,5.73,0a.51.51,0,0,0,.43-.76,1.79,1.79,0,0,0-2-1,.5.5,0,1,0,.26,1,.82.82,0,0,1,.84.51l.43-.75q-2.86.1-5.73,0l.5.5c0-.51.79-.64,1.18-.66a5.14,5.14,0,0,1,2.38.46.52.52,0,0,0,.69-.18.51.51,0,0,0-.18-.69Z" transform="translate(-115.16 -467.74)"/><path class="cls-2" d="M171.25,532.18l-3,0a1.57,1.57,0,0,0-1.21.42,1,1,0,0,0-.08,1.25,2.06,2.06,0,0,0,.72.33l.59.19a10.75,10.75,0,0,0,1.35.27,9.66,9.66,0,0,0,2.79-.05.51.51,0,0,0,.3-.74,4.64,4.64,0,0,0-1-1.08.51.51,0,0,0-.68.18.51.51,0,0,0,.18.69,3.32,3.32,0,0,1,.68.72l.3-.74a8.35,8.35,0,0,1-4.58-.55l.18.18c0,.1-.05,0,0,0a.68.68,0,0,1,.29-.06c.34,0,.68,0,1,0l2.15,0a.5.5,0,0,0,0-1Z" transform="translate(-115.16 -467.74)"/><path class="cls-2" d="M160,535.22l-1.4,4a1,1,0,0,0,0,.91,1,1,0,0,0,.71.42,6,6,0,0,0,.95,0h1.09a.5.5,0,0,0,0-1c-.58,0-1.16,0-1.73,0a1.33,1.33,0,0,1-.21,0h0c-.06,0-.06,0,0,0a.1.1,0,0,1,0,.11c0,.1,0,.1,0,0a7.92,7.92,0,0,0,.28-.82l1.18-3.4c.21-.61-.76-.88-1-.27Z" transform="translate(-115.16 -467.74)"/><path class="cls-2" d="M155.23,535.48a.5.5,0,0,0,0-1,.5.5,0,0,0,0,1Z" transform="translate(-115.16 -467.74)"/><path class="cls-2" d="M168.78,537.3a.5.5,0,0,0,0-1,.5.5,0,0,0,0,1Z" transform="translate(-115.16 -467.74)"/><path class="cls-2" d="M153.08,543.71c.23,1.5-.46,3.13.63,4.43s2.85,1.55,4.29,1.72c3.06.35,6.3-1,7.46-4,.23-.6-.74-.86-1-.26-1,2.59-4,3.58-6.52,3.26-1.16-.14-2.93-.46-3.62-1.52a3.05,3.05,0,0,1-.28-1.91,9.26,9.26,0,0,0,0-2c-.1-.64-1.06-.37-1,.26Z" transform="translate(-115.16 -467.74)"/><path class="cls-2" d="M175.13,518a3.19,3.19,0,0,0-4.38.77,3.27,3.27,0,0,0,.48,4.09,3.05,3.05,0,0,0,3.92-.1,3,3,0,0,0,.08-4.3c-1.38-1.61-3.58-1.75-5.55-1.63-.85,0-1.9,0-2.38.86a3.07,3.07,0,0,0-.09,2.38c.21.65.71,1.36,1.48,1.24s1.28-1.16,1.45-1.88a3.8,3.8,0,0,0-2-4.31c-1.81-.86-3.66-.12-5.06,1.14a4.3,4.3,0,0,0-1.52,4.62,2.75,2.75,0,0,0,3.61,1.75,3.3,3.3,0,0,0,1.59-3.77,4.23,4.23,0,0,0-3.68-2.71,6.57,6.57,0,0,0-5,1.61c-1.31,1.13-2.53,3.05-1.69,4.79a5,5,0,0,0,4.62,2.57,2.2,2.2,0,0,0,1.63-3.53c-1.19-1.47-3.54-1.2-5.16-.77a7.34,7.34,0,0,0-4.15,2.6c-.69.94-1.69,3.46.15,3.79a7.13,7.13,0,0,0,1.46,0l2-.08c.64,0,.64-1,0-1l-2.48.1c-.22,0-.68.13-.87,0s-.13-.71,0-1a4.53,4.53,0,0,1,1.91-2.46,8,8,0,0,1,3.23-1.19c1.09-.16,3.23-.28,3.48,1.2a1.28,1.28,0,0,1-1,1.29,3,3,0,0,1-2.15-.42c-1.15-.62-2.22-1.68-1.72-3.09a5.57,5.57,0,0,1,6.15-3.36,3.1,3.1,0,0,1,2.43,2,2.26,2.26,0,0,1-1.17,2.57c-1.09.43-2.06-.64-2.27-1.63a3.65,3.65,0,0,1,1.54-3.3,3.55,3.55,0,0,1,3.59-.91,2.77,2.77,0,0,1,1.73,3,2.61,2.61,0,0,1-.27.86c-.15.3-.36.67-.62.3a2.3,2.3,0,0,1-.24-1.74c.23-.65,1.25-.53,1.82-.56a9.19,9.19,0,0,1,2.4.1c1.34.28,2.92,1.31,2.83,2.87a2.05,2.05,0,0,1-2.44,1.71,2,2,0,0,1-1.34-2.67,2.13,2.13,0,0,1,3.28-1c.53.36,1-.51.5-.87Z" transform="translate(-115.16 -467.74)"/><path class="cls-2" d="M177.67,523.86a6.35,6.35,0,0,0-2.81.06,6.59,6.59,0,0,0-1.28.48,4.35,4.35,0,0,0-1.13.77,1.51,1.51,0,0,0-.3,1.32,6.23,6.23,0,0,0,.21,1.22,2.61,2.61,0,0,0,1.62,1.84,4.22,4.22,0,0,0,3.13-.66c.57-.3.07-1.16-.5-.87a3.66,3.66,0,0,1-2.11.62,1.42,1.42,0,0,1-1.12-1,4.63,4.63,0,0,1-.21-.91c0-.21-.14-.65,0-.82a1.27,1.27,0,0,1,.34-.27l.52-.31a5.18,5.18,0,0,1,1-.38,5.09,5.09,0,0,1,2.39-.1.5.5,0,1,0,.27-1Z" transform="translate(-115.16 -467.74)"/><path class="cls-2" d="M176.71,546c1.5.7,3.6,1.44,4.89-.07a4.72,4.72,0,0,0,.87-2.38c.17-1,.29-2,.36-3.07.06-.86.19-1.89-.52-2.52a3.17,3.17,0,0,0-2.24-.6,5.08,5.08,0,0,0-3.93,2.47,1.81,1.81,0,0,0,.37,2.33,3.5,3.5,0,0,0,3,.51c.63-.09.36-1.05-.27-1a2.53,2.53,0,0,1-2-.26c-.5-.42-.37-.9,0-1.38a4.06,4.06,0,0,1,2.83-1.7,2.24,2.24,0,0,1,1.64.34,1.11,1.11,0,0,1,.23.85c0,.39,0,.77-.07,1.16-.05.75-.14,1.5-.25,2.25a6.86,6.86,0,0,1-.45,1.89c-.76,1.59-2.7.83-3.89.27-.58-.27-1.09.59-.51.87Z" transform="translate(-115.16 -467.74)"/><path class="cls-2" d="M147.42,537.3a3.09,3.09,0,0,0-3.68-1.14c-1.45.6-2,2.08-2.17,3.54a3.3,3.3,0,0,0,4.7,3.62,1.58,1.58,0,0,0,.92-1.85,2.68,2.68,0,0,0-1.85-1.58.5.5,0,1,0-.27,1c.42.17,1,.38,1.15.84s-.21.66-.55.81a2.36,2.36,0,0,1-2.13-.21,2.3,2.3,0,0,1-1-2.26,3.54,3.54,0,0,1,1.25-2.78,2.07,2.07,0,0,1,2.77.56c.37.52,1.23,0,.86-.51Z" transform="translate(-115.16 -467.74)"/><path class="cls-2" d="M182.76,497.79A30,30,0,0,0,172,509.93l.92.12a15,15,0,0,1-.51-3.4h-1a20.17,20.17,0,0,0,.27,2.45c.1.57.14,1.53.64,1.92s1.46.06,2,0l2.65-.28c.63-.07.64-1.07,0-1l-1.93.21-1,.1a4.61,4.61,0,0,1-1.09.12c-.26-.06,0,.14-.11-.09a2.11,2.11,0,0,1-.1-.45c-.07-.3-.13-.61-.19-.91a18.14,18.14,0,0,1-.21-2.07c0-.64-1-.64-1,0a16.27,16.27,0,0,0,.54,3.67.51.51,0,0,0,.92.11,29,29,0,0,1,10.4-11.78c.54-.34,0-1.21-.51-.86Z" transform="translate(-115.16 -467.74)"/><path class="cls-2" d="M187.1,493.43a1.31,1.31,0,0,0-1.86.93,1.79,1.79,0,0,0,.58,2.19,1.49,1.49,0,0,0,2-.68,3.1,3.1,0,0,0-.11-2.2,20.25,20.25,0,0,1-.72-3.08l-1,.27c.64,1.7,2,2.87,3.2,4.21.42.48,1.13-.23.71-.71-1-1.19-2.38-2.25-3-3.77a.5.5,0,0,0-1,.27,19.23,19.23,0,0,0,.51,2.37,5.77,5.77,0,0,1,.45,1.95.6.6,0,0,1-.35.52.41.41,0,0,1-.52-.2c-.1-.21.05-1.47.46-1.21s1.05-.53.5-.86Z" transform="translate(-115.16 -467.74)"/><path class="cls-2" d="M191.64,490.25a1.23,1.23,0,0,0-1.55-.22,1.6,1.6,0,0,0-.73,1.41,2.41,2.41,0,0,0,.16.84,1.62,1.62,0,0,0,.39.7.85.85,0,0,0,.91.16,1.13,1.13,0,0,0,.57-.57,6.66,6.66,0,0,0,.53-1.8l-.91.12a2.37,2.37,0,0,0,1.6,1.06.53.53,0,0,0,.62-.35.51.51,0,0,0-.35-.62,1.55,1.55,0,0,1-.36-.08l0,0c.06,0,0,0,0,0l-.16-.1-.15-.09s0,0,0,0l-.06-.05-.13-.14,0,0,0-.05a.49.49,0,0,0-.49-.24.48.48,0,0,0-.42.36,8.66,8.66,0,0,1-.42,1.51c0,.13,0-.07,0,.06l-.07.12c0,.05,0,.05,0,0l0,.05,0,0c-.05,0,0,0,0,0h0a.17.17,0,0,1,.1,0s0,0,0,0,0,0,0,0h0a.43.43,0,0,1,0-.07l0-.07c0,.05,0,.06,0,0s-.09-.24-.12-.37l0-.15c0-.06,0-.07,0,0v-.25c0-.07,0-.07,0,0s0-.06,0-.09a.56.56,0,0,1,0-.12c0,.11,0,0,0-.06a.18.18,0,0,1,0-.07l0,0,.1-.1c-.09.08,0,0,.07,0s0,0,0,0,.05,0,0,0a.11.11,0,0,1,.08,0c-.11,0,0,0,0,0s0,0,0,0l.07,0h0l.06.07a.51.51,0,0,0,.71,0,.52.52,0,0,0,0-.71Z" transform="translate(-115.16 -467.74)"/><path class="cls-2" d="M195.41,487.54c-1,0-2.3.1-2.79,1.19a1.79,1.79,0,0,0,1.2,2.33,1.21,1.21,0,0,0,.79.11c.29-.07.46-.34.62-.57a6.76,6.76,0,0,0,.76-1.55,3.81,3.81,0,0,0-.35-3.32c-.38-.57-.85-1.11-1.27-1.65s-.82-1-1.51-.82a.5.5,0,0,0-.37.48c0,.64.45,1,.8,1.47a18.14,18.14,0,0,1,.89,1.69,8.75,8.75,0,0,0,2.48,2.73c.52.37,1-.49.5-.87a7.45,7.45,0,0,1-2.11-2.36c-.28-.49-.48-1-.77-1.49a4,4,0,0,0-.49-.65c-.13-.16-.3-.31-.3-.52l-.36.48c.1,0,.27.24.33.31.18.22.35.45.52.67a11.34,11.34,0,0,1,.94,1.25,3.08,3.08,0,0,1-.06,2.76,4.77,4.77,0,0,1-.34.63c-.06.1-.14.2-.19.3s-.1.13,0,.08.07-.05,0-.06c-.29-.18-.64-.26-.77-.62a.72.72,0,0,1,.43-.81,2.88,2.88,0,0,1,1.48-.19c.65,0,.65-1,0-1Z" transform="translate(-115.16 -467.74)"/><path class="cls-2" d="M249.43,519.75c-3.15-.77-6.29.47-9,2a13.16,13.16,0,0,0-3.63,2.88,10.47,10.47,0,0,0-1.95,3.92,35.65,35.65,0,0,0-1,10.35,28.67,28.67,0,0,0,1.52,9.32,13.68,13.68,0,0,0,5.06,6.77,10.07,10.07,0,0,0,7.67,1.64,7,7,0,0,0,3.61-2,11.16,11.16,0,0,0,2-4.28A47.39,47.39,0,0,0,256,539.86c.3-4-.87-7.85-1.8-11.67l-1.47-6a19.84,19.84,0,0,0-1.78-5.44.5.5,0,0,0-.87.5,16.45,16.45,0,0,1,1.51,4.48l1.18,4.82a81.32,81.32,0,0,1,2.16,9.76,27,27,0,0,1-1.1,9.86q-.6,2.34-1.35,4.65a7,7,0,0,1-2.34,3.9,7.71,7.71,0,0,1-7.28.5,11.36,11.36,0,0,1-5.67-5.29,21.21,21.21,0,0,1-2.2-8.23,44,44,0,0,1,.26-9.93,15.74,15.74,0,0,1,1.24-4.73,9.26,9.26,0,0,1,3.23-3.6c2.67-1.82,6.14-3.52,9.44-2.71.63.15.89-.81.27-1Z" transform="translate(-115.16 -467.74)"/><path class="cls-2" d="M239.39,534.66V540a.5.5,0,0,0,1,0v-5.33a.5.5,0,0,0-1,0Z" transform="translate(-115.16 -467.74)"/><path class="cls-2" d="M239.81,533.41l-.05,0c-.09,0,.09,0,0,0l-.1,0-.18-.12,0,0,0,0a.6.6,0,0,1-.08-.08l-.08-.08s-.09-.11,0,0,0,0,0,0a.21.21,0,0,1-.06-.1.93.93,0,0,1-.11-.19s.05.11,0,0a.14.14,0,0,1,0-.06l0-.1a1.74,1.74,0,0,1-.05-.22l0,.13a1.37,1.37,0,0,1,0-.35.5.5,0,0,0-.14-.35.53.53,0,0,0-.36-.15.52.52,0,0,0-.5.5,2.17,2.17,0,0,0,.34,1.31,2.23,2.23,0,0,0,1.13.9.51.51,0,0,0,.62-.35.51.51,0,0,0-.35-.61Z" transform="translate(-115.16 -467.74)"/><path class="cls-2" d="M247,534.66v5.88a.5.5,0,0,0,1,0v-5.88a.5.5,0,0,0-1,0Z" transform="translate(-115.16 -467.74)"/><path class="cls-2" d="M247.64,533.76a3.47,3.47,0,0,1-.25-.29l.08.1a2.12,2.12,0,0,1-.33-.56l.05.12a2.19,2.19,0,0,1-.12-.33.52.52,0,0,0-.23-.3.5.5,0,0,0-.38,0,.52.52,0,0,0-.35.62,3,3,0,0,0,.83,1.39.48.48,0,0,0,.7,0,.47.47,0,0,0,.15-.35.51.51,0,0,0-.15-.35Z" transform="translate(-115.16 -467.74)"/><path class="cls-2" d="M242.8,541.57h-.3l-.41,0a4.59,4.59,0,0,0-.74,0,1.9,1.9,0,0,0-1.27.53,1.33,1.33,0,0,0-.28,1.43,2.35,2.35,0,0,0,1,1.15,3.05,3.05,0,0,0,1.67.41.5.5,0,0,0,0-1h-.36s-.08,0,0,0,0,0,0,0l-.11,0-.28-.07-.13-.05h0l0,0-.26-.14a1.48,1.48,0,0,0-.13-.08h0l-.06-.06-.19-.19,0,0v0s-.06-.09-.08-.14-.06-.12,0-.07,0,0,0,0l0-.07a.13.13,0,0,0,0-.06c0-.06,0,0,0,0a.56.56,0,0,1,0-.13c0-.07,0,.08,0,0s0,0,0-.05,0,.05,0,0,0-.09.05-.09-.06.07,0,0l.05,0,0,0s0,0,0,0,.08,0,.11-.07l.09,0c.05,0,0,0,0,0l.08,0,.22-.05.07,0h0s.1,0,.13,0c.25,0,.5,0,.75,0a3.61,3.61,0,0,0,.87,0,.49.49,0,0,0,.35-.61.51.51,0,0,0-.61-.35Z" transform="translate(-115.16 -467.74)"/><path class="cls-2" d="M238.57,546.43c.41,1.89,1,4,3,4.71a2.67,2.67,0,0,0,2.57-.37,4.89,4.89,0,0,0,1.41-2.28.5.5,0,1,0-1-.26,3.79,3.79,0,0,1-1.09,1.78,1.74,1.74,0,0,1-1.79.11c-1.51-.69-1.88-2.49-2.2-4-.14-.63-1.1-.36-1,.26Z" transform="translate(-115.16 -467.74)"/><path class="cls-2" d="M240.72,549.64l.06-.06c.08-.08-.06,0,0,0l.12-.08H241l.16,0c.07,0-.09,0,0,0h.09a.38.38,0,0,1,.15,0h.08s-.12,0,0,0l.19,0s.17.07.06,0l.14.06a.57.57,0,0,0,.13.08c.1.07-.05,0,0,0l.08.06.12.12.07.09c.05.05,0-.07,0,0a3.45,3.45,0,0,1,.2.32.2.2,0,0,0,0,.08s0,.1,0,0,0,.07,0,.06l0,.08c0,.13.07.26.1.38s0,.23.07.35,0,0,0,0a.25.25,0,0,0,0,.08s0,.07,0,.08.08-.15.11-.2-.06,0,0,0l-.09,0-.21.07-.19.05-.09,0h-.06a1.87,1.87,0,0,1-.41,0h0l-.1,0-.22-.07h0l-.09,0-.07,0-.05,0,0,0a1.59,1.59,0,0,1-.13-.13l-.06-.06c.08.09,0,0,0,0a1.62,1.62,0,0,1-.1-.18s0,.1,0,0l0-.11s0-.06,0-.08,0,.06,0,0v-.1c0-.11,0,.08,0,0a.5.5,0,0,0-1-.26,1.8,1.8,0,0,0,.87,1.86,2.54,2.54,0,0,0,2.22.11,1,1,0,0,0,.56-.38.92.92,0,0,0,.09-.61,4.44,4.44,0,0,0-.23-1,2.56,2.56,0,0,0-1.28-1.53,1.91,1.91,0,0,0-2.14.29.5.5,0,0,0,0,.71.51.51,0,0,0,.7,0Z" transform="translate(-115.16 -467.74)"/><path class="cls-2" d="M254.71,548.09a16.19,16.19,0,0,0,1.82-.34,2.35,2.35,0,0,0,1.33-.71,5.58,5.58,0,0,0,.9-3,5.26,5.26,0,0,0-.58-3.24,6.79,6.79,0,0,0-2.32-2c-.55-.34-1.05.53-.5.86a5.93,5.93,0,0,1,1.92,1.59,4.22,4.22,0,0,1,.49,2.64,8,8,0,0,1-.21,1.37,3.22,3.22,0,0,1-.41,1.12,1.86,1.86,0,0,1-1.2.52q-.75.17-1.5.27c-.64.09-.37,1,.26,1Z" transform="translate(-115.16 -467.74)"/><path class="cls-2" d="M234.13,544.7c-1.34-.13-1.47-2-1.39-3s.75-2.48,2-2.57c.64,0,.64-1,0-1-1.87.14-2.91,1.85-3,3.57s.43,3.82,2.39,4a.51.51,0,0,0,.5-.5.5.5,0,0,0-.5-.5Z" transform="translate(-115.16 -467.74)"/><path class="cls-2" d="M242.9,525.94c-1-1.92-2.32-5-.26-6.71a6.91,6.91,0,0,1,3.48-1.16,15.56,15.56,0,0,1,3.61-.07,14.68,14.68,0,0,1,6.8,2.4,4.86,4.86,0,0,1,1.8,3.18q.5,2,.93,4a131.1,131.1,0,0,1,2.53,16.61,33.58,33.58,0,0,1-.2,8.32,76.75,76.75,0,0,1-2,7.9l-.62,2.2a4.82,4.82,0,0,1-.32,1,.92.92,0,0,1-.73.45,14,14,0,0,1-2.41.34l-1,0a2.83,2.83,0,0,1-1.05,0c-.33-.18-.21-.72-.22-1s0-.8,0-1.21c0-.76,0-1.53.06-2.29.07-1.57.18-3.14.34-4.7.06-.64-.94-.64-1,0-.16,1.6-.28,3.21-.34,4.82,0,.72,0,1.45-.06,2.17a9.68,9.68,0,0,0,.05,2.22c.28,1.34,2,1.1,3,1.06a18.49,18.49,0,0,0,2.1-.24,3.42,3.42,0,0,0,1.79-.6,2.84,2.84,0,0,0,.67-1.38c.22-.77.43-1.54.65-2.32.44-1.54.89-3.07,1.29-4.62a33.46,33.46,0,0,0,1.16-9.18,79,79,0,0,0-.89-9.33q-.65-4.71-1.61-9.38c-.32-1.59-.68-3.18-1.06-4.77a6.74,6.74,0,0,0-1.63-3.57,11.05,11.05,0,0,0-3.3-1.93,16.49,16.49,0,0,0-4.06-1.09,16.32,16.32,0,0,0-4.47,0,7.54,7.54,0,0,0-4,1.43c-2.43,2.11-1.07,5.56.1,7.92.28.58,1.15.07.86-.5Z" transform="translate(-115.16 -467.74)"/><path class="cls-2" d="M241.31,525.94c2.2,2.5,3.38,5.7,5.52,8.24a9.06,9.06,0,0,0,9.43,3.11.5.5,0,0,0-.26-1,7.8,7.8,0,0,1-5.38-.39,9.41,9.41,0,0,1-3.55-3c-1.83-2.45-3-5.33-5-7.65-.43-.48-1.13.23-.71.71Z" transform="translate(-115.16 -467.74)"/><path class="cls-2" d="M240.39,519.53c-3.36.54-5.38,3.61-6.27,6.66-1.09,3.72-1.15,7.67-1.23,11.51a.5.5,0,0,0,1,0,46.07,46.07,0,0,1,1-10.61c.75-3,2.46-6.07,5.75-6.59.63-.11.36-1.07-.27-1Z" transform="translate(-115.16 -467.74)"/><path class="cls-2" d="M241.74,523.7a5.4,5.4,0,0,0-2.57,1c-.85.53-1.67,1.09-2.47,1.67a.5.5,0,0,0-.18.68.49.49,0,0,0,.68.18c.76-.54,1.53-1.07,2.32-1.57a4.75,4.75,0,0,1,2.22-1c.64,0,.64-1,0-1Z" transform="translate(-115.16 -467.74)"/><path class="cls-2" d="M231.73,546.09q-.58,4.53-1.16,9.06c-.19,1.47-.37,2.94-.55,4.41l-.27,2.2a7.49,7.49,0,0,0-.18,2c.21,1.27,1.92,1.05,2.88,1.13,1.44.12,2.88.23,4.33.28a41.51,41.51,0,0,0,4.32-.05,18,18,0,0,0,4.13-.58c1.3-.42,1.52-2,1.83-3.18a28.42,28.42,0,0,0,.82-4.66c.06-.64-.94-.64-1,0a26,26,0,0,1-.62,3.72c-.14.6-.3,1.19-.49,1.78s-.27,1.2-.9,1.4a15.94,15.94,0,0,1-3.77.52c-1.28.09-2.56.1-3.84.07s-2.57-.12-3.85-.22l-1.8-.15c-.27,0-.77,0-1-.19s-.07-.64,0-.94q.48-3.91,1-7.84.56-4.41,1.13-8.81c.09-.64-.92-.63-1,0Z" transform="translate(-115.16 -467.74)"/><path class="cls-2" d="M239.32,497.06c.74,5.31,3.86,10,4.15,15.42l.76-.43a13.6,13.6,0,0,1-2.88-1.85l-.61.78,3.78,2.2a.51.51,0,0,0,.74-.3l1.12-5.68c.12-.63-.84-.9-1-.27l-1.12,5.68.74-.29-3.78-2.2c-.48-.28-1.05.41-.61.79a15.25,15.25,0,0,0,3.08,2,.51.51,0,0,0,.75-.44c-.3-5.49-3.43-10.28-4.18-15.68-.09-.64-1.06-.37-1,.26Z" transform="translate(-115.16 -467.74)"/><path class="cls-2" d="M236,496.32l.06-5.66-.94.25,1.86,2.64a2.66,2.66,0,0,0,.87,1,.8.8,0,0,0,1.06-.35,6,6,0,0,0,.38-1.39l.37-1.54.77-3.24h-1l2.65,6.29a.5.5,0,0,0,.61.34.49.49,0,0,0,.35-.61l-2.65-6.28c-.17-.41-.83-.53-1,0l-1.21,5-.15.65a2.86,2.86,0,0,1-.07.28c.24,0,.28-.06.14-.17a2.27,2.27,0,0,0-.29-.4l-.38-.55L236,490.41a.5.5,0,0,0-.93.25l-.06,5.66a.5.5,0,0,0,1,0Z" transform="translate(-115.16 -467.74)"/><path class="cls-2" d="M242.22,488.56a9.41,9.41,0,0,0,.12,2.7,3.32,3.32,0,0,0,.35,1.21,1.06,1.06,0,0,0,1,.48c.93-.13,1.18-1,1.26-1.84a6.43,6.43,0,0,0-.1-2.62,2.75,2.75,0,0,0-1.65-1.82.5.5,0,0,0-.62.35.5.5,0,0,0,.35.61,1.89,1.89,0,0,1,1,1.45,4.29,4.29,0,0,1,.05,1.24,7.48,7.48,0,0,1-.12,1.16c0,.14-.17.58-.41.48,0,0,0,0,0,0a.64.64,0,0,1-.1-.26c-.05-.19-.1-.38-.13-.57a8.59,8.59,0,0,1-.11-2.58.51.51,0,0,0-.5-.5.5.5,0,0,0-.5.5Z" transform="translate(-115.16 -467.74)"/><path class="cls-2" d="M248,489.35l0-3.34-.85.36a12.65,12.65,0,0,0,3.61,3,.5.5,0,0,0,.75-.43,36,36,0,0,1,.41-7L251,482a26.81,26.81,0,0,1,2,5.27.5.5,0,0,0,1-.26,27.87,27.87,0,0,0-2.09-5.52.5.5,0,0,0-.91.12,37.21,37.21,0,0,0-.45,7.3l.76-.43a11.78,11.78,0,0,1-3.41-2.83c-.29-.35-.85-.05-.86.35l0,3.34a.5.5,0,0,0,1,0Z" transform="translate(-115.16 -467.74)"/><path class="cls-2" d="M212.85,493.43q-1.17,3.26-2.58,6.41l.78-.1a3.57,3.57,0,0,1-.67-1.26.5.5,0,0,0-1,0,1.65,1.65,0,0,0,.74,1.87,3.14,3.14,0,0,0,2.41.17c.63-.13.36-1.09-.27-1a2.49,2.49,0,0,1-1.48,0,.68.68,0,0,1-.44-.83h-1a4.85,4.85,0,0,0,.92,1.7.51.51,0,0,0,.79-.1c1-2.18,1.88-4.4,2.68-6.66.22-.6-.75-.86-1-.26Z" transform="translate(-115.16 -467.74)"/><path class="cls-2" d="M209.73,490a63.22,63.22,0,0,0-.25-9.23l-1,.13a12.94,12.94,0,0,0,4.31,6.67.5.5,0,0,0,.83-.22,39.64,39.64,0,0,0,1.28-6.65l-1,.13a32.81,32.81,0,0,0,2.27,8c.25.59,1.11.09.86-.5a31.89,31.89,0,0,1-2.16-7.78c-.09-.61-.93-.38-1,.13a38.78,38.78,0,0,1-1.24,6.39l.83-.23a12.05,12.05,0,0,1-4-6.22c-.14-.53-1-.45-1,.13a63.22,63.22,0,0,1,.25,9.23c0,.64,1,.64,1,0Z" transform="translate(-115.16 -467.74)"/><path class="cls-2" d="M215.86,479.61a22.69,22.69,0,0,0,2.82,8.79.5.5,0,0,0,.78.1,8,8,0,0,1,4.75-2.28c.63-.07.64-1.07,0-1a9.12,9.12,0,0,0-5.46,2.57l.79.1a21.51,21.51,0,0,1-2.68-8.28c-.07-.64-1.07-.64-1,0Z" transform="translate(-115.16 -467.74)"/><path class="cls-2" d="M216.43,484.29a18,18,0,0,0,6.7-1c.6-.22.34-1.19-.27-1a17.19,17.19,0,0,1-6.43,1c-.64,0-.64,1,0,1Z" transform="translate(-115.16 -467.74)"/><path class="cls-2" d="M214.53,479.26a13.36,13.36,0,0,0,6.38.72c2-.39,4-1.42,6.13-1.06.63.1.9-.86.27-1-2-.34-3.9.39-5.83.88a9.3,9.3,0,0,1-3.15.29,19.45,19.45,0,0,1-3.53-.82.5.5,0,0,0-.27,1Z" transform="translate(-115.16 -467.74)"/><path class="cls-2" d="M240.9,582.7c-4.6-4.93-13.48-5.11-18.06,0a4.63,4.63,0,0,0-1.1,5.11c.8,1.79,2.49,3,4,4.11,4,2.86,7.9,5.75,11.9,8.56a86.74,86.74,0,0,0,13.54,8.1.51.51,0,0,0,.74-.3,101.94,101.94,0,0,1,3.32-14.2c1.26-4,3.09-8.23,1.45-12.4a11.61,11.61,0,0,0-7.38-6.79,8.85,8.85,0,0,0-5.64.08,6.31,6.31,0,0,0-3.39,3.88c-1.6,4.41-.61,9.75,1.61,13.76.31.56,1.17.06.86-.5a17.08,17.08,0,0,1-1.88-11.67,6.36,6.36,0,0,1,2.55-4.23,7.09,7.09,0,0,1,5.37-.42,10.52,10.52,0,0,1,7,6.31c1.46,3.88-.26,7.79-1.43,11.49A99.14,99.14,0,0,0,251,608l.73-.3c-7.94-3.64-14.9-9.05-21.94-14.13-1.75-1.26-3.61-2.45-5.23-3.86-1.32-1.15-2.66-2.77-2-4.64a7.53,7.53,0,0,1,3.6-3.7,11.43,11.43,0,0,1,4.45-1.37,11.61,11.61,0,0,1,9.63,3.42c.44.47,1.15-.24.71-.71Z" transform="translate(-115.16 -467.74)"/><path class="cls-2" d="M247.38,582.9v.59a.52.52,0,0,0,.14.36.39.39,0,0,0,.16.1.34.34,0,0,0,.2,0,.46.46,0,0,0,.35-.14.53.53,0,0,0,.15-.36v-.59a.53.53,0,0,0-.15-.36.39.39,0,0,0-.16-.1.31.31,0,0,0-.19,0,.48.48,0,0,0-.5.5Z" transform="translate(-115.16 -467.74)"/><path class="cls-2" d="M245.49,586a.5.5,0,0,0,0-1,.5.5,0,0,0,0,1Z" transform="translate(-115.16 -467.74)"/><path class="cls-2" d="M245.46,589.26a19.48,19.48,0,0,0,2.76,1.33,3.67,3.67,0,0,0,1.49.36,2,2,0,0,0,1.2-.58,7.13,7.13,0,0,0,1.51-2.29,9.33,9.33,0,0,0,.72-2.79c.06-.64-.94-.64-1,0a7.5,7.5,0,0,1-1.78,4.22,1.07,1.07,0,0,1-.84.44,4.3,4.3,0,0,1-1.21-.4A17,17,0,0,1,246,588.4a.5.5,0,0,0-.5.86Z" transform="translate(-115.16 -467.74)"/><path class="cls-2" d="M187.73,569a10.46,10.46,0,0,0-1.54-5.41,4.58,4.58,0,0,0-4-2.13c-1.87.2-2.13,2-2.16,3.54a15.54,15.54,0,0,0,.89,5.49,15.06,15.06,0,0,0,2.62,4.63c1,1.21,2.65,2.68,4.33,2.75a2.47,2.47,0,0,0,1.92-1.11,15,15,0,0,0,3.5-7.12c.24-1.31.54-3.6-1.1-4.18-.95-.34-1.94.28-2.74.75a17.18,17.18,0,0,0-2.62,1.88c-.49.42.22,1.12.71.71a14.54,14.54,0,0,1,1.78-1.34,5.71,5.71,0,0,1,2.16-1.08c1.43-.15,1,2.32.83,3.1a14,14,0,0,1-1.39,3.91,14.71,14.71,0,0,1-1.08,1.73,7.21,7.21,0,0,1-1.36,1.55c-.66.48-1.56-.06-2.16-.43a7.87,7.87,0,0,1-1.67-1.38,12.92,12.92,0,0,1-2.34-3.59,14.5,14.5,0,0,1-1.18-4.17,14.77,14.77,0,0,1-.1-2.1,4.3,4.3,0,0,1,.31-2c.45-.78,1.51-.64,2.22-.35a4.21,4.21,0,0,1,1.76,1.42,9.49,9.49,0,0,1,1.4,4.91c.06.63,1.06.64,1,0Z" transform="translate(-115.16 -467.74)"/><path class="cls-2" d="M203.09,582.8a.5.5,0,0,0,0-1,.5.5,0,0,0,0,1Z" transform="translate(-115.16 -467.74)"/><path class="cls-2" d="M207.27,583.6a.5.5,0,0,0,0-1,.5.5,0,0,0,0,1Z" transform="translate(-115.16 -467.74)"/><path class="cls-2" d="M197.36,587.08a8.58,8.58,0,0,0,2.85,5.28,11.21,11.21,0,0,0,4.92,2.95c3.35.88,7.35-.62,8.47-4.1.2-.62-.77-.88-1-.27-1,3-4.57,4.17-7.42,3.35a10.18,10.18,0,0,1-4.22-2.57,7.63,7.63,0,0,1-2.63-4.64c-.05-.64-1.05-.65-1,0Z" transform="translate(-115.16 -467.74)"/><path class="cls-2" d="M159.31,564.89a.5.5,0,0,0,0-1,.5.5,0,0,0,0,1Z" transform="translate(-115.16 -467.74)"/><path class="cls-2" d="M166.27,563.89a.5.5,0,0,0,0-1,.5.5,0,0,0,0,1Z" transform="translate(-115.16 -467.74)"/><path class="cls-2" d="M158.26,568.23a11,11,0,0,0,6.5,4.87,5.42,5.42,0,0,0,4.16-.4,3.49,3.49,0,0,0,1.74-3.13c0-.64-1-.64-1,0A2.58,2.58,0,0,1,168,572a5.22,5.22,0,0,1-3.75-.13,10.17,10.17,0,0,1-5.16-4.18c-.34-.55-1.21-.05-.86.5Z" transform="translate(-115.16 -467.74)"/><path class="cls-2" d="M185.48,515q0-6.25,0-12.49l-1,.13a13.86,13.86,0,0,0,2.94,5.3l4.41,5.57.61-.78a18.24,18.24,0,0,0-5.63-1.79c-1.78-.26-3.91.08-5.5-.89V511a34.78,34.78,0,0,1,8.91-4l-.64-.48a2.18,2.18,0,0,1-.77,1.23c-.34.37-.69.74-1,1.12-.64.75-1.24,1.52-1.81,2.32a31.52,31.52,0,0,0-3,5.25c-.26.58.6,1.09.87.51a31.73,31.73,0,0,1,3.27-5.61,30.88,30.88,0,0,1,2.13-2.57,3.91,3.91,0,0,0,1.36-2.25.5.5,0,0,0-.63-.48,35.75,35.75,0,0,0-9.15,4.13.51.51,0,0,0,0,.87c1.58,1,3.46.73,5.22.92a17.65,17.65,0,0,1,5.92,1.75.5.5,0,0,0,.6-.79l-4.11-5.18a13.68,13.68,0,0,1-3-5.25.51.51,0,0,0-1,.14q.08,6.24,0,12.49a.5.5,0,0,0,1,0Z" transform="translate(-115.16 -467.74)"/><path class="cls-2" d="M224.3,513.63q0-6.06,0-12.13l-.85.35A77,77,0,0,1,230.4,512l.69-.68-5.67-2.6a33.16,33.16,0,0,1-5.15-2.69l-.12.91a44.09,44.09,0,0,1,10.17-2.09l-.26-.93a16.37,16.37,0,0,0-7.16,7.44c-.28.58.58,1.09.86.5a15.61,15.61,0,0,1,6.81-7.08.5.5,0,0,0-.25-.93A44.74,44.74,0,0,0,219.89,506a.5.5,0,0,0-.12.91,32.32,32.32,0,0,0,5.15,2.69l5.66,2.6a.5.5,0,0,0,.68-.68,77.75,77.75,0,0,0-7.09-10.36c-.28-.35-.85,0-.85.36q0,6.06,0,12.13a.5.5,0,0,0,1,0Z" transform="translate(-115.16 -467.74)"/><path class="cls-2" d="M256.92,506.66l0-8.35c0-.28-.13-1.78.19-1.78s.48.36.61.51l.69.76,2.8,3.14.35-.86a68.82,68.82,0,0,0-10.67,1.85l.56.73c1.1-1.51,3-2.11,4.69-2.76a8.92,8.92,0,0,0,4.46-3l-.92-.38c-1.12,3.16-3.77,5.61-4.34,9-.1.63.86.9,1,.27.57-3.36,3.23-5.85,4.35-9,.2-.56-.61-.83-.92-.38-1.05,1.54-2.95,2.16-4.61,2.8a9.34,9.34,0,0,0-4.53,2.93c-.27.37.18.84.57.73a67.74,67.74,0,0,1,10.4-1.81.5.5,0,0,0,.35-.85c-1.13-1.28-2.26-2.56-3.41-3.82a2.2,2.2,0,0,0-1.46-.9,1.12,1.12,0,0,0-1.09,1.08,19.87,19.87,0,0,0,0,2.44v7.63a.5.5,0,0,0,1,0Z" transform="translate(-115.16 -467.74)"/><path class="cls-2" d="M237.19,482.38a19.17,19.17,0,0,0-1-8.19l-.84.49,6.59,6.14.36-.85a31.91,31.91,0,0,1-9.68-.86l.12.91a34.55,34.55,0,0,1,8.66-4.21l-.39-.92a21.25,21.25,0,0,0-6.24,7.68c-.28.58.58,1.08.86.5a20.33,20.33,0,0,1,5.89-7.31c.41-.32.2-1.11-.39-.92a35.52,35.52,0,0,0-8.89,4.32c-.33.22-.34.82.11.91a32.74,32.74,0,0,0,9.95.9.51.51,0,0,0,.35-.86L236.08,474c-.34-.31-1,0-.84.49a18.37,18.37,0,0,1,.95,7.92c-.07.64.94.64,1,0Z" transform="translate(-115.16 -467.74)"/><path class="cls-2" d="M261.1,480.86l-1.17-8.68-.91.39c1,1.33,1.93,2.71,2.8,4.13a.51.51,0,0,0,.79.1,7.64,7.64,0,0,1,3.67-2.4l-.62-.35a5,5,0,0,1-.84.47,5.18,5.18,0,0,0-.78.62,8.52,8.52,0,0,0-1.31,1.78c-.9,1.57-1.72,3.2-2.57,4.8-.3.57.56,1.07.86.5.92-1.72,1.77-3.52,2.81-5.18a4.81,4.81,0,0,1,1.62-1.73c.6-.34,1.4-.68,1.18-1.52a.51.51,0,0,0-.62-.35,8.53,8.53,0,0,0-4.11,2.65l.78.1c-.87-1.41-1.8-2.79-2.8-4.12a.5.5,0,0,0-.91.38l1.16,8.68c.09.63,1.05.36,1-.27Z" transform="translate(-115.16 -467.74)"/><path class="cls-2" d="M257.05,474.72l8.61,4.36.25-.93a31.92,31.92,0,0,0-8.82.91l.56.73a5.64,5.64,0,0,1,2-2.16c.55-.34,0-1.2-.5-.86a6.6,6.6,0,0,0-2.37,2.52.5.5,0,0,0,.56.73,31.66,31.66,0,0,1,8.56-.87.5.5,0,0,0,.26-.93l-8.62-4.36c-.57-.29-1.08.57-.5.86Z" transform="translate(-115.16 -467.74)"/><path class="cls-2" d="M239.41,564.88a.5.5,0,0,0,0-1,.5.5,0,0,0,0,1Z" transform="translate(-115.16 -467.74)"/><path class="cls-2" d="M239,564c-1.78,2-3.56,4.43-3.53,7.27a.5.5,0,0,0,1,0c0-2.56,1.63-4.73,3.24-6.56.42-.48-.28-1.19-.71-.71Z" transform="translate(-115.16 -467.74)"/><path class="cls-2" d="M256.45,565.63a77.37,77.37,0,0,1,1.84,8.08c.11.64,1.07.37,1-.26a73.83,73.83,0,0,0-1.84-8.08.5.5,0,0,0-1,.26Z" transform="translate(-115.16 -467.74)"/><path class="cls-2" d="M166.94,555.63a16.83,16.83,0,0,0,2.52,1.93c.41.25.9.44,1.28.72.54.4.37,1.18.35,1.79-.07,2-.11,4.16,1.38,5.71a.5.5,0,0,0,.71,0c1.19-1.21,2.91-1.56,4.39-2.28a6.18,6.18,0,0,0,3.1-3.34,13.49,13.49,0,0,0,.77-5c0-.71-.14-1.45-.95-1.6s-1.6.41-2.32.67c-1.89.68-4.74.77-5.61-1.5-.23-.59-1.19-.33-1,.27a4.25,4.25,0,0,0,3.29,2.61,6.52,6.52,0,0,0,2.6-.13c.86-.21,1.65-.73,2.52-.92.53-.11.43.5.43.87s0,.81-.05,1.22a12,12,0,0,1-.41,2.44,5.43,5.43,0,0,1-2.91,3.5c-1.58.77-3.33,1.16-4.6,2.45h.71c-1.69-1.75-.88-4.24-1.09-6.38-.1-1-1-1.32-1.75-1.78a14.56,14.56,0,0,1-2.69-2c-.47-.44-1.18.27-.71.71Z" transform="translate(-115.16 -467.74)"/><path class="cls-2" d="M178.07,554.14c3.2-.19,6.82-.54,9.72,1.1s4.6,4.29,6.33,6.88c.36.53,1.22,0,.86-.5-1.82-2.74-3.75-5.58-6.68-7.25s-6.83-1.43-10.23-1.23c-.64,0-.64,1,0,1Z" transform="translate(-115.16 -467.74)"/><path class="cls-2" d="M170.32,561.9c-1,7.19,2.41,13.77,5.71,19.89.31.57,1.17.07.87-.5-3.16-5.84-6.57-12.25-5.61-19.12.09-.63-.88-.9-1-.27Z" transform="translate(-115.16 -467.74)"/><path class="cls-2" d="M203.5,569.8h-2.78c-.44,0-.95-.08-1.28.28a2.47,2.47,0,0,0-.42,1.28,2.14,2.14,0,0,0,.08,1.37,1.66,1.66,0,0,0,1,.57,3.61,3.61,0,0,0,3.85-1.56c.34-.55-.53-1-.87-.5a2.57,2.57,0,0,1-2.41,1.14h-.12l-.19,0a2.65,2.65,0,0,1-.37-.12l-.09-.05,0,.07s0,.24,0-.06,0-.35,0-.53a4,4,0,0,1,.09-.48l.06-.22c0-.05,0-.11,0-.15s0,0,0,0-.15.13-.09,0-.07,0,0,0h3.39a.5.5,0,0,0,0-1Z" transform="translate(-115.16 -467.74)"/><path class="cls-2" d="M215.57,569.58c1.05,0,2.1,0,3.15,0a1,1,0,0,1,1,.43,2.1,2.1,0,0,1,.25,1.28c0,.7,0,1.78-.78,2.12a2.67,2.67,0,0,1-2-.21,7.26,7.26,0,0,1-2.47-1.78c-.44-.47-1.15.24-.71.71a8.05,8.05,0,0,0,2.68,1.94,3.71,3.71,0,0,0,2.84.28c1.1-.44,1.35-1.54,1.44-2.6s0-2.4-1.1-3a4.28,4.28,0,0,0-2-.22h-2.28a.5.5,0,0,0,0,1Z" transform="translate(-115.16 -467.74)"/><path class="cls-2" d="M240.12,564.94c-.13,2.38-.17,4.77-.1,7.15a.5.5,0,0,0,1,0c-.07-2.38,0-4.77.1-7.15,0-.64-1-.64-1,0Z" transform="translate(-115.16 -467.74)"/><path class="cls-2" d="M241.73,564.63a8.78,8.78,0,0,0,1.51,3.84c.84,1.14,2.45,1.06,3.74,1.24a9.13,9.13,0,0,0,4.19.06,32.53,32.53,0,0,0,4.09-1.94c.58-.28.07-1.14-.5-.86-1.11.55-2.21,1.15-3.35,1.64a6.83,6.83,0,0,1-3.93.17l-1.94-.28a1.89,1.89,0,0,1-1.6-.77,8.51,8.51,0,0,1-1.25-3.36c-.1-.64-1.06-.37-1,.26Z" transform="translate(-115.16 -467.74)"/><path class="cls-2" d="M256.33,567.84a20.38,20.38,0,0,1-.29,6.7c-.13.63.83.89,1,.26a21.4,21.4,0,0,0,.32-7,.51.51,0,0,0-.5-.5.5.5,0,0,0-.5.5Z" transform="translate(-115.16 -467.74)"/><path class="cls-2" d="M244.28,520a31.12,31.12,0,0,0,4.21,12.84.51.51,0,0,0,.92-.12c.73-3.57,1.25-7.18,1.78-10.79h-1l4.41,15.32a.5.5,0,0,0,.91.12c1.14-1.83,1.42-4.12,1.9-6.18l1.62-6.9-1-.13.05,13.18a.5.5,0,0,0,1,0l-.05-13.18a.5.5,0,0,0-1-.13l-1.56,6.66c-.47,2-.73,4.37-1.85,6.17l.92.12-4.41-15.31c-.13-.44-.89-.52-1,0-.52,3.6-1.05,7.21-1.78,10.78l.92-.12A29.84,29.84,0,0,1,245.28,520c-.06-.64-1.06-.64-1,0Z" transform="translate(-115.16 -467.74)"/><path class="cls-2" d="M254.52,554.52l.06,10.25a.5.5,0,0,0,1,.13,72,72,0,0,0,3.17-9.85l-1-.13a34.05,34.05,0,0,1-.27,9.35l1,.27,2.41-17.71c.08-.63-.88-.9-1-.27l-2.4,17.71c-.08.63.87.91,1,.27a34.86,34.86,0,0,0,.31-9.62c-.07-.52-.84-.73-1-.13a71.46,71.46,0,0,1-3.16,9.85l1,.13-.06-10.25a.5.5,0,0,0-1,0Z" transform="translate(-115.16 -467.74)"/><path class="cls-2" d="M234.76,548.91A125.53,125.53,0,0,1,233,563.63a.5.5,0,0,0,.83.49,17.08,17.08,0,0,0,3.55-4.72c.92-1.81,1.28-3.88,2.33-5.63l-.93-.25a110.13,110.13,0,0,1-1.33,11.17c-.08.44.48.92.83.49a34.58,34.58,0,0,0,5.58-9.41l-1-.13a27.8,27.8,0,0,1,.11,3.87,3,3,0,0,1-1.11,2.59.5.5,0,0,0,.5.86,3.56,3.56,0,0,0,1.55-2.76,21.72,21.72,0,0,0,0-4.56.5.5,0,0,0-1-.13,32.91,32.91,0,0,1-5.33,9l.84.49a112.62,112.62,0,0,0,1.37-11.44c0-.51-.69-.66-.93-.25-1,1.69-1.38,3.68-2.24,5.44a16.42,16.42,0,0,1-3.48,4.7l.83.48a127.59,127.59,0,0,0,1.81-15c0-.64-1-.64-1,0Z" transform="translate(-115.16 -467.74)"/></svg>