<svg id="Layer_1" data-name="Layer 1" xmlns="http://www.w3.org/2000/svg" viewBox="0 0 560.06 792"><defs><style>.cls-1{fill:#fbef4f;}.cls-2{fill:#266934;}</style></defs><title>food</title><path class="cls-1" d="M4.17,0,0,792,560.06,231.94C406.47,78.34,205.48,1.05,4.17,0Z"/><path class="cls-2" d="M33.08,184.68q7.2,3.3,14.54,6.22,6.15,36.65,12.31,73.28l4.29,25.54c.36,2.1,2.39,4.37,4.16,5.4a9,9,0,0,0,12.37-3.24,10.29,10.29,0,0,0,.91-7q-7.3-43.5-14.62-87,9.58,3.07,19.38,5.48a9.5,9.5,0,0,0,7-.92,9.16,9.16,0,0,0,4.16-5.4c1.06-4.66-1.4-9.93-6.32-11.12a284.43,284.43,0,0,1-27.58-8.22l-1.38-8.24c-.35-2.1-2.39-4.37-4.16-5.4a9.05,9.05,0,0,0-12.37,3.24,9.42,9.42,0,0,0-1,2.89l-2.55-1.15a9.76,9.76,0,0,0-7-.91,9.23,9.23,0,0,0-5.4,4.16,9.09,9.09,0,0,0-.91,7C29.61,181.39,31,183.71,33.08,184.68Z"/><path class="cls-2" d="M107,268.18c2.74,3.85,6.14,7.49,10.46,9.58a21.93,21.93,0,0,0,15.37,1.87,21.68,21.68,0,0,0,11.21-7.35A42.25,42.25,0,0,0,150.69,260c2-5.4,3.27-11.69-.18-16.84-1.93-2.88-4.51-4.82-7.3-6.82a66.11,66.11,0,0,0-6-3.79,78.49,78.49,0,0,0-14.71-6.34,7.55,7.55,0,0,0-2.67-.34,9.11,9.11,0,0,0-2.45-4.75,9.21,9.21,0,0,0-6.4-2.65c-4.73.21-9.25,4-9,9,.18,4.48-.2,8.94-.46,13.41a68.29,68.29,0,0,0,.67,15.45A29,29,0,0,0,107,268.18Zm15.53-9.29a22.7,22.7,0,0,1-1.8-3,25.15,25.15,0,0,1-1.1-4.26,57.57,57.57,0,0,1-.19-7.31c1.08.37,2.15.77,3.2,1.19a66.39,66.39,0,0,1,11.65,6.7,37,37,0,0,1-1.27,3.67,29.29,29.29,0,0,1-2.37,4.33,18.89,18.89,0,0,1-1.4,1.43c-.24.15-.48.29-.73.42l-.68.19h-.55c-.4-.1-.79-.21-1.18-.34a15.65,15.65,0,0,1-1.52-.91A22.47,22.47,0,0,1,122.54,258.89Z"/><path class="cls-2" d="M165.07,211.27c1.43-.37,2.86-.77,4.28-1.18.49,2.55.92,5.12,1.3,7.69a104.53,104.53,0,0,1,.2,26.45l.09-.73a8.92,8.92,0,0,0,6.41,10.39,9.16,9.16,0,0,0,7-.91c1.84-1.18,3.84-3.14,4.16-5.41a107.74,107.74,0,0,0,1.17-18.82,146.25,146.25,0,0,0-2-18.55c-.32-2-.7-4-1.1-6,5.32-2.14,10.54-4.51,15.62-7.13,4.22-2.17,5.8-8.42,3.25-12.37a9.26,9.26,0,0,0-12.38-3.25c-3.49,1.8-7.05,3.46-10.65,5h0c-.82-3.08-1.66-6.16-2.5-9.23s-1.69-6.15-2.52-9.24c-.7-2.64-1.51-5.3-2-8a28.57,28.57,0,0,1,2.16-2,48.21,48.21,0,0,1,8.72-5.11,48.62,48.62,0,0,1,9.91-2.7,47.14,47.14,0,0,1,10.88.08l-1.94-.26c2.5.34,4.63.41,6.9-.92a9,9,0,0,0,3.25-12.37c-1.18-1.83-3.14-3.85-5.41-4.16a57.42,57.42,0,0,0-12.07-.63,60.25,60.25,0,0,0-11.56,1.9,58,58,0,0,0-20.82,10.85c-3.6,2.88-6.9,6.57-7.75,11.25-.92,5.07.48,9.89,1.77,14.76,1.92,7.25,4,14.47,5.88,21.74-1.67.48-3.33.95-5,1.39-4.58,1.18-7.81,6.52-6.32,11.12A9.22,9.22,0,0,0,165.07,211.27Z"/><path class="cls-2" d="M255.06,159.51c-3.19-3.51-9.6-3.47-12.79,0a9.24,9.24,0,0,0,0,12.79c.36.41.7.83,1,1.25a34.1,34.1,0,0,1,3,5.23,35.44,35.44,0,0,1,1.78,6.47,34.34,34.34,0,0,1,0,6.25,33.2,33.2,0,0,1-1.64,5.95,36.13,36.13,0,0,1-3.24,5.54,35.19,35.19,0,0,1-4.49,4.48,29.1,29.1,0,0,1-3.9,2.36c-.46.16-.93.29-1.41.41l-.24-.26c-.29-.46-.56-.93-.8-1.41a32.26,32.26,0,0,1-1.48-5.88c-.07-.67-.13-1.35-.18-2a9.59,9.59,0,0,0-2.65-6.39,9.18,9.18,0,0,0-6.39-2.65c-4.63.21-9.39,4-9.05,9a55.25,55.25,0,0,0,1.56,10.39,26.58,26.58,0,0,0,4,9c2.69,3.62,6.08,6.58,10.58,7.69,5.68,1.4,11.33-.09,16.32-2.91,13.6-7.69,22.49-23.66,21.1-39.33A44,44,0,0,0,255.06,159.51Z"/><path class="cls-2" d="M127.42,351.22c2-3.27,2.21-7.25,1.39-10.92-1-4.35-3.48-8.22-6.21-11.65-4.63-5.83-11.65-9.88-18.73-11.91a45.73,45.73,0,0,0-24.4.28,65.36,65.36,0,0,0-23.15,11.7c-4.41,3.5-6.35,8.91-6.24,14.43a110,110,0,0,0,1.23,12.67,124.91,124.91,0,0,0,4.75,21.09,131.13,131.13,0,0,0,20.5,39.81c1.49,1.95,3,3.88,4.56,5.77a8.71,8.71,0,0,0,4,2.33,9,9,0,0,0,5.88-.46,8.64,8.64,0,0,0,3.62-2.79,8.23,8.23,0,0,0,1.94-5.47,184.83,184.83,0,0,0-6.1-30.21c-.93-3.21-1.94-6.38-3-9.54a385.76,385.76,0,0,0,33.68-19.21A19.3,19.3,0,0,0,127.42,351.22ZM92.1,353.39q-5.35,3-10.78,5.81l-.27-.72a9.75,9.75,0,0,0-4.16-5.4,9.2,9.2,0,0,0-7-.91c-.32.1-.63.22-.94.35-.08-.5-.17-1-.24-1.51l.21,1.52h0a58.08,58.08,0,0,1-.81-10.2l.1-.08a60.48,60.48,0,0,1,10.86-6.06,48.07,48.07,0,0,1,9.41-2.66,36.35,36.35,0,0,1,7.3-.07,32,32,0,0,1,5.77,1.59,29.75,29.75,0,0,1,4.63,2.7,27,27,0,0,1,3,3,21,21,0,0,1,1.18,1.92c-2.42,1.56-4.95,3-7.4,4.46Q97.58,350.33,92.1,353.39Z"/><path class="cls-2" d="M203.25,361.6A66.73,66.73,0,0,0,208.86,345c.73-3.4,1.23-6.85,1.63-10.31,0-.21,0-.42,0-.63,1.34.38,2.67.77,4,1.17,3.33,1,6.61,2.2,9.83,3.51q5.06,2.21,9.88,4.85c4.14,2.29,10.06,1.15,12.38-3.24s1.17-9.93-3.25-12.37a124.33,124.33,0,0,0-27.51-11.19c-4.5-1.22-9.63-2.72-14.16-1.61a9.24,9.24,0,0,0-9.05-2.71l-.32.06c-4.1.26-8.15-.63-12.25-.65-6.2,0-12.36,2-16.62,6.7-4,4.4-6.57,10-8.52,15.54a58.08,58.08,0,0,0-3,16.21,38,38,0,0,0,.48,9,14.58,14.58,0,0,0,7,9.48,49.54,49.54,0,0,0,7.57,3.33,47.17,47.17,0,0,0,6.67,2.16,32.35,32.35,0,0,0,8.7,1,25.58,25.58,0,0,0,10-2.45C197,370.65,200.87,366.22,203.25,361.6Zm-23.41-4.44a47,47,0,0,1-9.24-2.91l-.72-.32a44.13,44.13,0,0,1,.26-5.86,50.81,50.81,0,0,1,3-11.18,34.94,34.94,0,0,1,2.9-5.26,14.28,14.28,0,0,1,1-1l.45-.26c.34-.1.68-.19,1-.27a50.6,50.6,0,0,1,7.78.42,40.24,40.24,0,0,0,6.39.13c-.1,1.58-.24,3.16-.43,4.73a74.48,74.48,0,0,1-4.1,15.9,26.64,26.64,0,0,1-2,3.66,18.86,18.86,0,0,1-1.32,1.36c-.31.19-.61.37-.93.54a12.74,12.74,0,0,1-1.5.4A18.66,18.66,0,0,1,179.84,357.16Z"/><path class="cls-2" d="M356.32,276,328.56,233a20.64,20.64,0,0,0-6.18-9.22c-1.81-1.5-3.92-2.76-6.39-2.65a9.36,9.36,0,0,0-5.48,1.94c-3.41,2.64-4.79,7.86-2.33,11.67l3.76,5.83c0,.18.08.35.11.53a35.88,35.88,0,0,1-.17,6.95c-1.07,7.21-2.8,14.37-4.34,21.48l-.87,3.88a9.61,9.61,0,0,0-4.53-3c-7.8-2.53-16.25.6-22,6.06-5.35,5.09-8,12.41-9.05,19.56-1,6.78-1.77,13.41-.67,20.22a19.6,19.6,0,0,0,13,15.84,18.91,18.91,0,0,0,12-.39A28.15,28.15,0,0,0,305.88,325c5.09-5.17,8.22-11.73,10.61-18.49,2.25-6.34,3.93-12.91,5.54-19.43,1.69-6.84,3.18-13.71,4.61-20.6.16-.79.33-1.58.5-2.37l13.56,21a9.59,9.59,0,0,0,5.41,4.16,9.25,9.25,0,0,0,7-.92C357,285.85,359.06,280.29,356.32,276Zm-58.2,28.13a39.07,39.07,0,0,1-3.82,6.72,24.83,24.83,0,0,1-2.44,2.48c-.54.36-1.1.68-1.67,1-.42.13-.85.26-1.28.36h-.1c-.1-.16-.18-.32-.27-.49a17.56,17.56,0,0,1-.51-2,53.74,53.74,0,0,1,.5-11.26,41.54,41.54,0,0,1,1.94-8.08,22,22,0,0,1,1.35-2.42,19.89,19.89,0,0,1,1.65-1.66c.5-.33,1-.63,1.54-.91.36-.11.74-.21,1.11-.3h.45c.26.06.51.13.76.21a8.4,8.4,0,0,0,6-.44c-.54,2.07-1.11,4.13-1.69,6.19C300.58,297.12,299.49,300.7,298.12,304.17Z"/><path class="cls-2" d="M110.2,491.73c4.74,0,9.27-4.16,9-9a9.21,9.21,0,0,0-9-9.05H41.9a9.43,9.43,0,0,0-7.81,4.49A9,9,0,0,0,25.63,472c-4.73,0-9.26,4.16-9,9a9.2,9.2,0,0,0,9,9,9.45,9.45,0,0,0,7.81-4.48,9,9,0,0,0,8.46,6.11h7.22V607.92c0,4.73,4.16,9.26,9,9a9.2,9.2,0,0,0,9-9V491.73h43Z"/><path class="cls-2" d="M161.41,514.18a27,27,0,0,0-13.48-3.52c-13.09-.14-25.12,7.5-32.38,18.17.18-5.33.62-10.66,1.31-16l0-.19c.36-2.51.42-4.69-.92-7a9,9,0,0,0-12.37-3.24c-1.84,1.18-3.82,3.13-4.16,5.4a185.76,185.76,0,0,0-2.09,26,182.62,182.62,0,0,0,1.9,26q.94,6.89,2.47,13.66c1.41,6.34,10.76,9.12,15.11,4A33.54,33.54,0,0,0,122.92,567a45,45,0,0,0,2-8.26c.89-5.32,1.42-10.73,3.31-15.81a34.76,34.76,0,0,1,3.07-5.23,36,36,0,0,1,4.45-4.45,35.28,35.28,0,0,1,5.31-3.11,28.57,28.57,0,0,1,4.73-1.31,24.16,24.16,0,0,1,3.61,0,20,20,0,0,1,2,.54c.44.23.88.48,1.3.75s.59.58.87.89a21.19,21.19,0,0,1,1.29,2.33,56,56,0,0,1,2.88,11.18,64.82,64.82,0,0,1,.41,9.75c-.17,4.74,4.28,9.26,9,9a9.24,9.24,0,0,0,9-9,67.12,67.12,0,0,0-5.34-29.18A23.86,23.86,0,0,0,161.41,514.18Z"/><path class="cls-2" d="M243,467.49c-.84-2.16-2-4.26-4.15-5.4a9.5,9.5,0,0,0-3.47-1.1c-10.63-2.73-22.22,1.88-29.29,10a49,49,0,0,0-8.25,13.53,52.71,52.71,0,0,0-4.41,16.71,24.58,24.58,0,0,0,5.51,17.31,18.81,18.81,0,0,0,15,7,21,21,0,0,0,14.66-7.14,43,43,0,0,0,7.86-13.6c.32-.82.6-1.65.89-2.47a9,9,0,0,0,3.66,4.26,9.06,9.06,0,0,0,12.38-3.24c1.07-2,1.78-4.74.91-7Zm-21.23,13.44a24.08,24.08,0,0,1,2.72-1.62,94.33,94.33,0,0,1-5.58,20.95,32.87,32.87,0,0,1-2.95,5.19,20.12,20.12,0,0,1-1.44,1.48c-.27.17-.53.34-.81.49l-.17.06h-.08l-.26-.15c-.21-.19-.41-.38-.6-.58-.25-.4-.49-.8-.71-1.22a14.29,14.29,0,0,1-.37-1.43,21.15,21.15,0,0,1,.05-3.28,48,48,0,0,1,2.67-9,42.53,42.53,0,0,1,4.34-7.7A28.44,28.44,0,0,1,221.75,480.93Z"/><path class="cls-2" d="M285.85,423.22a9.2,9.2,0,0,0-9,9v27.65c0,4.73,4.16,9.26,9,9a9.2,9.2,0,0,0,9-9V432.27C294.9,427.54,290.74,423,285.85,423.22Z"/><path class="cls-2" d="M289.11,384.19c-4.73,0-9.26,4.16-9.05,9a9.21,9.21,0,0,0,9.05,9c4.73,0,9.26-4.16,9-9A9.2,9.2,0,0,0,289.11,384.19Z"/></svg>