<svg id="Layer_1" data-name="Layer 1" xmlns="http://www.w3.org/2000/svg" viewBox="0 0 224.26 149.3"><defs><style>.cls-1{fill:#808ac4;}.cls-2{fill:#3a3b3f;}</style></defs><title>hobbies</title><polygon class="cls-1" points="0 149.3 0 0 197.72 0 115.06 90.22 224.26 148.47 0 149.3"/><path class="cls-2" d="M236.34,563.47c4,2.33,5.26,6.28,5.61,10.62l-.48.47c-1.16,1.14-2.49,2.25-2.65,4-.12,1.28,1.88,1.27,2,0,.05-.59.59-1.06,1-1.46l.27-.27c0,3.91-.38,7.92-.08,11.17.11,1.27,2.11,1.28,2,0-.36-3.9.12-8.54-.09-13a18,18,0,0,1,3.2-2.43c2.69-1.54,5.84-2,8.85-2.41a1,1,0,0,0,.7-1.23,1,1,0,0,0-1.23-.7c-3.48.5-7,1.08-10,3-.58.39-1.14.82-1.69,1.27-.42-3.45-1.5-6.64-4-9a25.49,25.49,0,0,0,14.82-6.63c.94-.87-.47-2.28-1.42-1.41a23.32,23.32,0,0,1-16.24,6.15A1,1,0,0,0,236.34,563.47Z" transform="translate(-227.14 -542.42)"/><path class="cls-2" d="M251.48,574.09a1,1,0,0,0-.47,1,1.11,1.11,0,0,0-.18.36c-.45,1.92-.89,4.09.18,5.9a3.67,3.67,0,0,0,4.73,1.66,8.3,8.3,0,0,0,2.16-1.6,5.79,5.79,0,0,0,1.46-2.29,4.23,4.23,0,0,0-1.8-4.67A6,6,0,0,0,251.48,574.09Zm4.61,1.8a3.09,3.09,0,0,1,1.11,1,1.79,1.79,0,0,1,.3.69,1.92,1.92,0,0,1,0,.63,4.56,4.56,0,0,1-2.15,2.71,3,3,0,0,1-.75.4,1.3,1.3,0,0,1-.67,0,2.29,2.29,0,0,1-1.1-.81,3.2,3.2,0,0,1-.52-1.93,12.24,12.24,0,0,1,.42-2.62,1,1,0,0,0,0-.29,4.26,4.26,0,0,1,1.58-.26,3.73,3.73,0,0,1,.88.12A3.14,3.14,0,0,1,256.09,575.89Z" transform="translate(-227.14 -542.42)"/><path class="cls-2" d="M262.2,578.51c0,1.28,2,1.28,2,0a12,12,0,0,0-.45-3.63,22.68,22.68,0,0,1-1.06-3.37,2.15,2.15,0,0,1,.78-2.18,2.11,2.11,0,0,1,2.31-.13c1,.85,2.37-.55,1.41-1.41-2.14-1.91-5.9-.48-6.42,2.27a7.52,7.52,0,0,0,.63,4.1A11.57,11.57,0,0,1,262.2,578.51Z" transform="translate(-227.14 -542.42)"/><path class="cls-2" d="M266.64,572.32a1,1,0,0,0,1,1,13.43,13.43,0,0,0,2.37,0c.5,1.32,1.06,2.6,1.63,3.88s2.24.16,1.73-1-.91-2.07-1.32-3.12a16.22,16.22,0,0,0,3.58-1.14,1,1,0,0,0,.36-1.36,1,1,0,0,0-1.37-.36,12.59,12.59,0,0,1-3.24,1c-.19-.62-.36-1.25-.5-1.9a30.22,30.22,0,0,1-.22-7.78c.08-1.29-1.92-1.29-2,0a31.76,31.76,0,0,0,.3,8.32c.1.52.25,1,.4,1.54a14.15,14.15,0,0,1-1.72-.08A1,1,0,0,0,266.64,572.32Z" transform="translate(-227.14 -542.42)"/><path class="cls-2" d="M280.05,574.15c.24,1.26,2.17.73,1.93-.53-.41-2.14-1-4.32-1.18-6.5a5.11,5.11,0,0,1,.37-2.81,6,6,0,0,1,1.81-2c.34-.26.69-.51,1-.74.13-.1.42-.38.59-.38s.16,0,.28.19c.51.95.94,1.95,1.39,2.93q1.46,3.16,2.73,6.4a1,1,0,0,0,1.23.7,1,1,0,0,0,.7-1.23q-1.57-4-3.38-7.85c-.45-1-.86-2.39-1.86-3-1.22-.69-2.45.27-3.4,1-2,1.44-3.46,3.18-3.54,5.73a18.34,18.34,0,0,0,.49,3.9C279.52,571.35,279.78,572.75,280.05,574.15Z" transform="translate(-227.14 -542.42)"/><path class="cls-2" d="M294.29,573a1,1,0,0,0,1.93-.54,38.12,38.12,0,0,1-.59-8.4c.05-1.28-1.95-1.28-2,0A40.59,40.59,0,0,0,294.29,573Z" transform="translate(-227.14 -542.42)"/><path class="cls-2" d="M292.7,556.38a1,1,0,0,0,0-2A1,1,0,0,0,292.7,556.38Z" transform="translate(-227.14 -542.42)"/><path class="cls-2" d="M300.42,563.06l3.8.21q0,4.54.22,9.07c.05,1.29,2.05,1.29,2,0q-.18-4.47-.22-9l2.87.16a1,1,0,0,0,1-1,1,1,0,0,0-1-1l-2.88-.16q0-4,0-7.93a1,1,0,0,0-2,0c0,2.61-.06,5.22,0,7.82l-3.79-.21a1,1,0,0,0,0,2Z" transform="translate(-227.14 -542.42)"/><path class="cls-2" d="M317.35,573.9a8.11,8.11,0,0,0,4.25-3.15,3.78,3.78,0,0,0,1-2.36,2.43,2.43,0,0,0-1.74-2.08,6,6,0,0,0-2.27-.16l0,0a6.86,6.86,0,0,0,2.47-3.51,2.48,2.48,0,0,0-2.18-3.08,14.78,14.78,0,0,0-4.9.59,1,1,0,0,0,.53,1.93,16.65,16.65,0,0,1,3.58-.53c.3,0,.77-.12,1,.17s0,.82-.18,1.09a8.67,8.67,0,0,1-4.59,3.57c-1,.36-.92,2,.26,2l4.56-.18c.32,0,1.35-.13,1.46.35s-.6,1.09-.81,1.35c-1.35,1.67-4,3.26-6,1.65a1,1,0,0,0-1.42,0,1,1,0,0,0,0,1.42A5.6,5.6,0,0,0,317.35,573.9Z" transform="translate(-227.14 -542.42)"/><path class="cls-2" d="M352.11,600.6c3.13-3.9,6.06-11.47.93-15-5.42-3.76-11.35.55-15,4.64-1.1,1.26-2.37,2.87-4.19,3-2.11.13-2.59-2-2.33-3.69a9.14,9.14,0,0,1,6.58-7.18,1,1,0,0,0-.54-1.93c-4.59,1.28-8.83,6.07-8,11.09a4.18,4.18,0,0,0,4.94,3.64c2.83-.48,4.44-3,6.3-5s4.49-4,7.42-4c2.63,0,5.32,1.48,5.56,4.31.45,5.31-3.7,10.54-8.12,12.94-2.36,1.28-6.64,2.81-9.11,1.07-1.51-1.06-1.18-2.88.1-4s3.5-1.29,5.25-1.39c1.28-.07,1.28-2.07,0-2-3,.17-6.4.61-7.89,3.58a4.34,4.34,0,0,0,2.69,6.1c2.8,1,6.26.09,8.87-1.09A17.81,17.81,0,0,0,352.11,600.6Z" transform="translate(-227.14 -542.42)"/><path class="cls-2" d="M363,585.76c-9.38-2.23-15.13-10.58-19.69-18.42a1,1,0,0,0-1.72,1c4.82,8.29,11,17,20.87,19.34C363.74,588,364.27,586.06,363,585.76Z" transform="translate(-227.14 -542.42)"/><path class="cls-2" d="M357.46,575a3.51,3.51,0,0,0,1.58,1.82c-.3.51-.62,1-1,1.5a1,1,0,0,0,.36,1.36,1,1,0,0,0,1.37-.35,18.14,18.14,0,0,0,1.14-1.79,8.06,8.06,0,0,0,2,.19,7.48,7.48,0,0,0,5.77-3.22,1,1,0,0,0-.36-1.37,1,1,0,0,0-1.37.36,5.44,5.44,0,0,1-3.09,2.09,5.59,5.59,0,0,1-2,.1,13,13,0,0,0,.69-2.08,3.68,3.68,0,0,0-.27-2.8,3.52,3.52,0,0,0-2.75-1.41c-1.27-.05-1.77,1.32-2,2.34A5.83,5.83,0,0,0,357.46,575Zm1.8-1.75a4.2,4.2,0,0,1,.18-1.06,5.22,5.22,0,0,1,.18-.56c0-.05.06-.11.09-.17a3,3,0,0,1,.51.15.65.65,0,0,1,.41.38,2.76,2.76,0,0,1-.17,1.65A13.41,13.41,0,0,1,360,575l-.19-.12A1.77,1.77,0,0,1,359.26,573.21Z" transform="translate(-227.14 -542.42)"/><path class="cls-2" d="M374.44,562.37a4.69,4.69,0,0,1-4,1.37h-.13a8.85,8.85,0,0,0,.09-1.53,4.57,4.57,0,0,0-4.17-4.52,2.69,2.69,0,0,0-2.47,1.87,4,4,0,0,0-.13,2.75c.61,1.91,2.44,2.62,4.25,3a18.82,18.82,0,0,1-1.14,2.62c-.59,1.14,1.14,2.15,1.73,1a21.69,21.69,0,0,0,1.4-3.29c2.18.23,4.49-.15,6-1.89a1,1,0,0,0-1.41-1.41Zm-6.66.87a3.64,3.64,0,0,1-1.94-.93,2,2,0,0,1-.4-1.4c0-.36.22-1.09.66-1.25-.07,0,.18,0,.25.06l.41.13a2.84,2.84,0,0,1,.92.61,2.62,2.62,0,0,1,.72,1.91,8.4,8.4,0,0,1-.07,1Z" transform="translate(-227.14 -542.42)"/><path class="cls-2" d="M379.22,560.57c.87,2.56,1.74,5.11,2.63,7.65.42,1.21,2.36.69,1.93-.53-.88-2.53-1.76-5.06-2.62-7.6l-.14-.41c1.59-1.06,3.43-1.73,4.58-3.37s1.12-4.27-.77-5.38-4.29,0-5.76,1.49a3.83,3.83,0,0,0-1.51,3,15,15,0,0,0,1.11,3.62A1,1,0,0,0,379.22,560.57Zm.64-6.06a8.58,8.58,0,0,1,1.2-1.21c.71-.59,1.85-1.19,2.76-.64s.65,1.62.26,2.32a6,6,0,0,1-2.42,2c-.44.25-.87.5-1.29.76-.19-.55-.37-1.09-.55-1.63S379.42,555.07,379.86,554.51Z" transform="translate(-227.14 -542.42)"/><path class="cls-2" d="M268.2,586.77a12.19,12.19,0,0,0-4.79,4.94c-1.11,1.9-1.91,4.35-1.26,6.54.72,2.44,3.12,3.36,5.48,3.06,2.9-.36,5.17-2.23,7.3-4.07,1-.84-.44-2.25-1.41-1.41a14.7,14.7,0,0,1-5,3.27c-1.55.47-3.84.51-4.39-1.38-.51-1.72.24-3.63,1.11-5.1a10.8,10.8,0,0,1,3.73-4c2-1.09,4.48-.43,6.65-.6,1.27-.1,1.28-2.1,0-2C273.07,586.23,270.55,585.65,268.2,586.77Z" transform="translate(-227.14 -542.42)"/><path class="cls-2" d="M270.4,593.46c-1.13.63-.12,2.35,1,1.73a19.39,19.39,0,0,1,3.44-1.48l.92-.26a1.27,1.27,0,0,1,.66-.09s0,.07.05.13a1.68,1.68,0,0,1,.08.54,27.36,27.36,0,0,1-1,7.69,1,1,0,0,0,1.92.53,33.84,33.84,0,0,0,.87-4.89c.08-.78.14-1.57.16-2.35a6.64,6.64,0,0,0-.13-2,2.18,2.18,0,0,0-1.31-1.53,3.67,3.67,0,0,0-2.29.14A21.91,21.91,0,0,0,270.4,593.46Z" transform="translate(-227.14 -542.42)"/><path class="cls-2" d="M282,585.8a1,1,0,0,0-1,1,7.8,7.8,0,0,0,.67,4.79c.85,1.33,2.57.94,3.79.44a8.45,8.45,0,0,0,3.9-3.33,21.53,21.53,0,0,1,1,6.34,4.69,4.69,0,0,1-1.3,3.48,2,2,0,0,1-2.78.06c-.89-.93-2.31.49-1.41,1.41a3.9,3.9,0,0,0,4.4.75,5.37,5.37,0,0,0,2.82-3.63,14.27,14.27,0,0,0-.08-5.82,27.78,27.78,0,0,0-1.56-5.68c-.33-.84-1.7-1.06-1.93,0a6.45,6.45,0,0,1-3.11,4.26,6.09,6.09,0,0,1-1.21.51,1.85,1.85,0,0,1-.61.13c-.35,0-.12,0-.26-.16a4.12,4.12,0,0,1-.34-1.67,9.1,9.1,0,0,1,.05-1.88C283.05,586.26,282.47,585.81,282,585.8Z" transform="translate(-227.14 -542.42)"/><path class="cls-2" d="M300.51,589.74a5.39,5.39,0,0,1,.27-3.73c.43-.92,1.65-2.71,2.88-2.26,1,.37,1.27,2,1.45,2.87a25.91,25.91,0,0,1,.5,5.12,1,1,0,0,0,1.87.5c1.09-1.72,1.77-3.67,2.89-5.37A7.21,7.21,0,0,1,312.1,585c.41-.29,1.63-1.08,2-.61a2.58,2.58,0,0,1,.29,1.06,13.07,13.07,0,0,1,.2,1.53,13.93,13.93,0,0,1-.12,2.81,13.28,13.28,0,0,1-2,5.25c-.71,1.08,1,2.08,1.73,1a15.31,15.31,0,0,0,2.36-6.76,14.55,14.55,0,0,0-.08-3.61,4.54,4.54,0,0,0-1.17-3c-1.8-1.51-4.64.61-5.81,2a17.18,17.18,0,0,0-2.11,3.44,20,20,0,0,0-.57-3c-.45-1.57-1.43-3.25-3.22-3.43-1.94-.2-3.62,1.47-4.45,3.07a7.48,7.48,0,0,0-.57,5.49A1,1,0,0,0,300.51,589.74Z" transform="translate(-227.14 -542.42)"/><path class="cls-2" d="M232.31,607.87a26.1,26.1,0,0,1,5.76-6.33,14.86,14.86,0,0,0,5.76,3,9.47,9.47,0,0,0,4.29.37c1.59-.38,2-1.78,2.07-3.23a8.31,8.31,0,0,0-.64-4.52c-.74-1.24-2.29-1.51-3.63-1.46-2.85.09-5.43,1.54-7.7,3.19l-.2-.21c-.86-1-2.27.46-1.42,1.41l0,0a28,28,0,0,0-6,6.7C229.9,608,231.63,609,232.31,607.87Zm14.36-10.13c.81.08,1.21.34,1.38,1.14a10.72,10.72,0,0,1,.17,2.33c0,.77.09,1.74-.87,1.83a7.19,7.19,0,0,1-1.9-.16,13,13,0,0,1-5.75-2.59C241.75,598.83,244.17,597.49,246.67,597.74Z" transform="translate(-227.14 -542.42)"/><path class="cls-2" d="M249.4,616.22a43.62,43.62,0,0,1,3-9.21,1,1,0,0,0-.36-1.37,1,1,0,0,0-1.37.36,46.57,46.57,0,0,0-3.17,9.69,1,1,0,0,0,1.93.53Z" transform="translate(-227.14 -542.42)"/><path class="cls-2" d="M256.42,609c1.73-.11,3.46-.13,5.19-.12l-.78,1.11c-.53.78-1,1.57-1.52,2.38a51.17,51.17,0,0,0-2.67,5.08,1,1,0,0,0,1.13,1.47q3.45-.51,6.88-1.09a1,1,0,0,0,.7-1.23,1,1,0,0,0-1.23-.7c-1.62.28-3.25.52-4.87.78.61-1.23,1.26-2.44,2-3.61.52-.86,1.07-1.7,1.64-2.52s1.5-1.66,1.4-2.66a1,1,0,0,0-1-1c-2.29-.06-4.57,0-6.85.11C255.15,607.07,255.14,609.07,256.42,609Z" transform="translate(-227.14 -542.42)"/><path class="cls-2" d="M281,616.62c-1.15.62-2.32,1.23-3.49,1.82l-1.71.84-.44.25a5.31,5.31,0,0,0,.18-.51c.15-.47.29-.94.44-1.41.31-1,.62-2.05.94-3.08.63-2,1.25-4.09,1.88-6.14a1,1,0,0,0-.7-1.23,8.57,8.57,0,0,0-4.16.47c-1.37.45-2.72,1-4.09,1.43-1.2.42-.68,2.35.54,1.92l3.64-1.27a10.94,10.94,0,0,1,2.47-.64c-1.09,3.53-2.2,7.06-3.25,10.6-.25.86-.16,1.88.87,2.14a4,4,0,0,0,2.58-.75c1.79-.86,3.56-1.77,5.31-2.71C283.1,617.73,282.09,616,281,616.62Z" transform="translate(-227.14 -542.42)"/><path class="cls-2" d="M284.73,615.18c2,.86,3.7-.89,4.76-2.43a8.81,8.81,0,0,0,1.19-2.42q1.62,1.63,3.22,3.29a1,1,0,0,0,1.42-1.41l-5.16-5.27a.93.93,0,0,0-1.11-.16s-.06,0-.11-.06c-3.13-1-6.88,1.14-6.7,4.64A4.26,4.26,0,0,0,284.73,615.18Zm.21-5.81a3.4,3.4,0,0,1,3.47-.72.93.93,0,0,0,.43,0c.28,1.14-.66,2.52-1.29,3.35-.37.48-1,1.36-1.68,1.39a1.68,1.68,0,0,1-1.32-1A2.65,2.65,0,0,1,284.94,609.37Z" transform="translate(-227.14 -542.42)"/><path class="cls-2" d="M248.84,671.34a1,1,0,0,0-.7-1.23,99.58,99.58,0,0,1-13-3,1,1,0,0,0-.54,1.93c1.8.54,3.62,1,5.45,1.45a57,57,0,0,1-3.73,8.43c-1.51,2.69-3,5.38-3.31,8.5-.13,1.28,1.87,1.27,2,0,.3-3,2-5.66,3.48-8.27A57.27,57.27,0,0,0,242,671c1.86.41,3.73.77,5.61,1.06A1,1,0,0,0,248.84,671.34Z" transform="translate(-227.14 -542.42)"/><path class="cls-2" d="M250.94,680.24a1,1,0,0,0-2,0,44.53,44.53,0,0,0,.07,5.66,1,1,0,0,0,1,1,1,1,0,0,0,1-1A44.53,44.53,0,0,1,250.94,680.24Z" transform="translate(-227.14 -542.42)"/><path class="cls-2" d="M249.2,675.75a1,1,0,0,0,0,2A1,1,0,0,0,249.2,675.75Z" transform="translate(-227.14 -542.42)"/><path class="cls-2" d="M260.08,675.39A2.75,2.75,0,0,0,258,674a3.66,3.66,0,0,0-2.26.87,4.14,4.14,0,0,0-1.4,1.83,7.18,7.18,0,0,0-.27,2.61q0,3.19,0,6.4a1,1,0,0,0,2,0c0-2,0-4,0-6a6.13,6.13,0,0,1,.2-2.49A2.33,2.33,0,0,1,257.8,676c.53-.06.93,1.06,1.08,1.49a20.37,20.37,0,0,1,.69,2.66,28.35,28.35,0,0,1,.55,5.66,1,1,0,0,0,2,0,30.51,30.51,0,0,0-.49-5.48A13,13,0,0,0,260.08,675.39Z" transform="translate(-227.14 -542.42)"/><path class="cls-2" d="M271.26,677.41a.68.68,0,0,0,.09-.17,1,1,0,0,0-.11-.77c0-2.73.21-5.51-.09-8.15-.14-1.26-2.14-1.28-2,0a70,70,0,0,1,.16,7.53,7.1,7.1,0,0,0-6.2,3,3.77,3.77,0,0,0,.18,4.5,4.3,4.3,0,0,0,4,1.48,4.22,4.22,0,0,0,2.84-2,15.1,15.1,0,0,0,.73,1.85c.57,1.15,2.29.14,1.73-1A15.5,15.5,0,0,1,271.26,677.41Zm-2.48,3.76a2.32,2.32,0,0,1-1.57,1.68,2.3,2.3,0,0,1-1.22,0,2.23,2.23,0,0,1-1.08-.64l-.12-.14,0,0a2.59,2.59,0,0,1-.19-.33,2.08,2.08,0,0,1-.14-.53,2.05,2.05,0,0,1,.41-1.28,3.36,3.36,0,0,1,.4-.5l.3-.29.2-.17a5.81,5.81,0,0,1,.61-.4l.37-.2.24-.11a6,6,0,0,1,.85-.27l.4-.09h.13l.18,0a4.59,4.59,0,0,1,.83,0,25.52,25.52,0,0,0,.25,2.62A1,1,0,0,0,268.78,681.17Z" transform="translate(-227.14 -542.42)"/><path class="cls-2" d="M283,682.87c-1.19,0-2.09-1.56-2.55-2.49-.08-.15-.13-.32-.2-.47a6.64,6.64,0,0,0,1.24-.65c1.63-1.12,2.64-3.46,1.24-5.18a2.78,2.78,0,0,0-2.55-1,2.72,2.72,0,0,0-2,1.63,6.81,6.81,0,0,0-.4,3.78,10.26,10.26,0,0,1-2.35,0,1,1,0,0,0,0,2,11,11,0,0,0,2.86,0c.76,2,2.35,4.38,4.7,4.44A1,1,0,0,0,283,682.87Zm-3.25-6.42c.09-.69.5-1.86,1.3-1.25s-.06,2-.76,2.45a3.84,3.84,0,0,1-.53.28A7.32,7.32,0,0,1,279.79,676.45Z" transform="translate(-227.14 -542.42)"/><path class="cls-2" d="M289.24,672.32a3.81,3.81,0,0,0-2.19.24,3.23,3.23,0,0,0-1.57,1.74,8.8,8.8,0,0,0-.78,4.66,18.69,18.69,0,0,0,.55,2.55,5.26,5.26,0,0,1,.24,2.33,1,1,0,0,0,.7,1.23,1,1,0,0,0,1.23-.7,9.35,9.35,0,0,0-.44-4.16,7.42,7.42,0,0,1-.15-3.74,6.09,6.09,0,0,1,.62-1.65,1.11,1.11,0,0,1,1.08-.57,2.41,2.41,0,0,1,2.18,1.44,1,1,0,0,0,1.73-1A4.32,4.32,0,0,0,289.24,672.32Z" transform="translate(-227.14 -542.42)"/><path class="cls-2" d="M312.56,615.85A29.89,29.89,0,0,1,318.27,603c.69-.9-.82-2-1.57-1.21-1.08,1.19-2.18,2.38-3.31,3.53a6.66,6.66,0,0,0-10.89,1.57c-1.07,2.21-.61,5.07,2.07,5.75s5-1.24,6.88-2.78c.38-.31.74-.64,1.1-1a31.13,31.13,0,0,0-1.92,6.41C310.4,616.58,312.33,617.12,312.56,615.85Zm-5.24-5.52c-1.41.73-3.73.61-3.38-1.53a4.67,4.67,0,0,1,3.28-3.45,4.76,4.76,0,0,1,4.77,1.38A21.11,21.11,0,0,1,307.32,610.33Z" transform="translate(-227.14 -542.42)"/><path class="cls-2" d="M321.55,609.35a1,1,0,1,0,.53,1.93,1.3,1.3,0,0,1,1,.37,1.26,1.26,0,0,1,.32,1.27,6.86,6.86,0,0,1-.85,1.87,19.76,19.76,0,0,1-1.18,1.79,18.4,18.4,0,0,1-1.28,1.5c-.31.31-.79.9-1.25.86-.09,0-.1,0-.16-.12a3.92,3.92,0,0,1-.26-1.06,10.91,10.91,0,0,1-.16-2.21,10,10,0,0,1,.33-2.43c.11-.42.33-1.23.89-1.27,1.28-.07,1.28-2.07,0-2-2.4.15-3,2.78-3.16,4.73a12.54,12.54,0,0,0,.09,3.18c.14,1,.31,2.23,1.22,2.82,1.89,1.24,3.7-.8,4.8-2.14a20.37,20.37,0,0,0,1.76-2.49,8.46,8.46,0,0,0,1.19-2.74,3.26,3.26,0,0,0-.93-3A3.37,3.37,0,0,0,321.55,609.35Z" transform="translate(-227.14 -542.42)"/><path class="cls-2" d="M328.71,628.84a3.07,3.07,0,0,1-3.77-.25c-.95-.86-2.37.55-1.41,1.41a5.13,5.13,0,0,0,4.94,1.15,6.19,6.19,0,0,0,3.71-3.94c1.7-4.17,2.09-8.84,2.56-13.28a1,1,0,0,0-1.47-.84,1,1,0,0,0-.64-.29c-1.59-.1-3.4,0-4.67,1.05a4.5,4.5,0,0,0-.78,5,2.34,2.34,0,0,0,1.74,1.37,3.31,3.31,0,0,0,2.67-1.09c.22-.2.41-.42.61-.63a41,41,0,0,1-1.33,6.37C330.45,626.27,330,628,328.71,628.84Zm2.2-11.83a4.48,4.48,0,0,1-1.33,1.16c-.46.21-.57,0-.7-.45a2.2,2.2,0,0,1,.78-2.62,5.28,5.28,0,0,1,2.68-.31A8.43,8.43,0,0,1,330.91,617Z" transform="translate(-227.14 -542.42)"/><path class="cls-2" d="M335.88,625.16a1,1,0,0,0-.7,1.23,1,1,0,0,0,1.23.7,11.18,11.18,0,0,0,5.11-2.55,2.1,2.1,0,0,0,.92-1.85c-.2-1.41-1.73-1.46-2.75-1.94a3.56,3.56,0,0,1-.72-.39c-.18-.14-.18-.21-.18-.44a8.45,8.45,0,0,1,.09-1.3h1.35a1,1,0,0,0,0-2h-1.3a2.45,2.45,0,0,0-1.2.16c-.78.4-.78,1.39-.87,2.15a3.64,3.64,0,0,0,.27,2.35,3.89,3.89,0,0,0,1.87,1.34,8.09,8.09,0,0,0,1.08.37l.13,0a6.11,6.11,0,0,1-.63.51A9.46,9.46,0,0,1,335.88,625.16Z" transform="translate(-227.14 -542.42)"/><path class="cls-2" d="M326.55,554.17c.54,0,1.09-.07,1.62-.11.29,0,1.46-.27,1.62-.1s.15,1.8.23,2.31a3.65,3.65,0,0,0,2.51,3.29,3.48,3.48,0,0,0,3.61-1.09c.54-.65.77-1.68,1.72-.87.72.62,1.12,1.34,2,1.78a8,8,0,0,0,4.8.67,1.92,1.92,0,0,0,1.38-1.24,2.6,2.6,0,0,0,.08-1c0-.66-.14-.54.6-.52,1.87,0,4,.7,5.82.3a4.32,4.32,0,0,0,3.26-3.26,4.89,4.89,0,0,0-.23-2.62c-.16-.52-.51-1.18-.31-1.72s.89-.61,1.46-.7c1.26-.19.73-2.12-.54-1.93-1.78.27-3.21,1.31-3,3.28.12,1,.77,1.94.69,3a2.31,2.31,0,0,1-1.89,2.07,13.32,13.32,0,0,1-3.55-.33,9,9,0,0,0-3.15.11,1.69,1.69,0,0,0-1.24,1.5c0,.2.18,1.06.07,1.18s-1.13,0-1.34,0a4.48,4.48,0,0,1-3.07-1.3c-.66-.71-1.19-1.49-2.22-1.66a2.23,2.23,0,0,0-2.05.75c-.55.61-.74,1.58-1.63,1.79-2.49.6-1.71-3.32-2.26-4.6a1.74,1.74,0,0,0-1.81-1.1c-.61,0-1.24.08-1.85.12-.25,0-.75.12-1.13.12,0-.41,0-.86,0-1.2a1,1,0,0,0-2,0C324.84,552.43,324.63,554.15,326.55,554.17Z" transform="translate(-227.14 -542.42)"/><path class="cls-2" d="M240.36,634.38a1,1,0,0,0,1-1,1,1,0,0,0-1-1,35.64,35.64,0,0,1-5,.2c-.5,0-1.55.14-1.83-.39a4.37,4.37,0,0,1-.2-1.87q-.09-5.09,0-10.17a1,1,0,0,0-2,0c0,1.94,0,3.88,0,5.81s-.09,3.81.1,5.68a3.46,3.46,0,0,0,.78,2.05,3.13,3.13,0,0,0,2.29.84A34.78,34.78,0,0,0,240.36,634.38Z" transform="translate(-227.14 -542.42)"/><path class="cls-2" d="M245.83,637.24c.73,2,3.36,1.89,4.89,1a6.38,6.38,0,0,0,2.84-4.29,2.61,2.61,0,0,0-.59-2.77,2.87,2.87,0,0,0-2.92-.33,8,8,0,0,0-2.86,1.93,1.34,1.34,0,0,0-.24.12,3,3,0,0,0-1,1.43s0,0,0,0-.1.16-.14.25a1.06,1.06,0,0,0-.1.72A3.66,3.66,0,0,0,245.83,637.24Zm1.89-.62h0S247.71,636.62,247.72,636.62Zm.59.23Zm1-3.22,0,0,0,0,.39-.26a6,6,0,0,1,.73-.42l.15-.07.14-.06.25-.08.2,0h.22l.18.05,0,0h0l.06.08v.11a.91.91,0,0,1,0,.17s0,.08,0,.09c0,.16-.07.33-.11.49a9.18,9.18,0,0,1-.28.89l-.07.19,0,.07c-.07.15-.14.29-.22.43a3.79,3.79,0,0,1-.2.34l-.1.13-.13.16c-.1.11-.2.22-.3.31l-.14.12,0,0h0c-.11.08-.23.15-.35.22l-.16.09a.07.07,0,0,0-.05,0h-.05l-.43.13-.1,0h-.55l-.24-.05-.12,0a1.5,1.5,0,0,1-.18-.09l-.11,0h.05l-.05,0v-.06l0-.06v-.06a4.51,4.51,0,0,1,0-.52s0-.19,0-.21l.06-.26s0-.09,0-.14.12-.21.19-.31l.14-.19v0l0,0,0,0a.94.94,0,0,0,.83-.86l.07-.06Z" transform="translate(-227.14 -542.42)"/><path class="cls-2" d="M257.42,625.72a1,1,0,0,0-2,0c0,2.51-.06,5-.06,7.52a16.65,16.65,0,0,0,1.14,6.81,1,1,0,0,0,1.36.36,1,1,0,0,0,.36-1.36,15.71,15.71,0,0,1-.86-6.31C257.37,630.4,257.4,628.06,257.42,625.72Z" transform="translate(-227.14 -542.42)"/><path class="cls-2" d="M268.63,636.88a1,1,0,0,0,.36-1.37,9.36,9.36,0,0,0-3-2.87,1.54,1.54,0,0,0-2,.07.94.94,0,0,0-.93-.75c-.68,0-1.38-.05-2.06,0a1.75,1.75,0,0,0-1.59,1.42,12.69,12.69,0,0,0-.62,4.23,2.7,2.7,0,0,0,.58,1.89,1.82,1.82,0,0,0,2.18.24,6.7,6.7,0,0,0,1.56-1.2,12.72,12.72,0,0,0,1.27-1.37,11,11,0,0,0,1.26-1.85c.06-.12.12-.25.17-.38l.24.19a7.54,7.54,0,0,1,1.2,1.39A1,1,0,0,0,268.63,636.88Zm-7.25-3.09h0C261.38,633.57,261.4,633.83,261.38,633.79Zm-.53,4.37s0,.15,0,0Zm.54-.75a6.26,6.26,0,0,1-.57.45c0-.17,0-.37,0-.56,0-.36,0-.72.05-1.08A9.35,9.35,0,0,1,261,635l.15-.61c0-.13.11-.31.15-.46h1.73a.89.89,0,0,0,.68-.27,1.41,1.41,0,0,0,.14.44l.07.1a1,1,0,0,1-.1.19A10.93,10.93,0,0,1,261.39,637.41Z" transform="translate(-227.14 -542.42)"/><path class="cls-2" d="M274.08,627.35a1,1,0,0,0-.36-1.37,1,1,0,0,0-1.37.36,22.12,22.12,0,0,0-1.44,2.67,1.14,1.14,0,0,0-.1.77,1.07,1.07,0,0,0,.46.6,1,1,0,0,0,.77.1.94.94,0,0,0,.6-.46A22.12,22.12,0,0,1,274.08,627.35Z" transform="translate(-227.14 -542.42)"/><path class="cls-2" d="M279.25,636.59c-1.54,1.15-3.91.9-5.7.79-1.29-.07-1.28,1.93,0,2A13.35,13.35,0,0,0,279,639a4.56,4.56,0,0,0,2.27-1.55,2.55,2.55,0,0,0,.26-2.54c-.82-1.76-3.34-1.41-4.93-1.47-.56,0-1.67,0-2-.63s.18-1.21.54-1.6a4.92,4.92,0,0,1,4.37-1.51,1,1,0,0,0,1.24-.7,1,1,0,0,0-.7-1.23,7,7,0,0,0-4.93.9c-1.48.91-2.89,2.53-2.53,4.38.4,2.06,2.78,2.37,4.5,2.4.46,0,.91,0,1.37,0a2.76,2.76,0,0,1,1.15.2C280,635.86,279.52,636.39,279.25,636.59Z" transform="translate(-227.14 -542.42)"/><path class="cls-2" d="M257.66,654.4c-1.41-2.79-5.12-2.25-7.63-1.86-1.93.3-3.84.68-5.78.89a23.93,23.93,0,0,1-2.68.14c-.72,0-2.16.09-2.53-.72-.58-1.23,3.15-2.64,4-2.89a10.64,10.64,0,0,1,5.46-.17c1.25.29,1.79-1.63.53-1.93a12.76,12.76,0,0,0-9.08,1.25c-1.21.68-2.83,1.7-3,3.23a3,3,0,0,0,2.57,3.06,15.66,15.66,0,0,0,5.42-.06c1.88-.23,3.73-.58,5.6-.87,1.37-.21,3.05-.55,4.38,0s1.32,2.34.38,3.36c-1.24,1.35-3.46,1.55-5.17,1.65a20.65,20.65,0,0,1-6.36-.65,1,1,0,0,0-.53,1.93,20,20,0,0,0,10.48.18C256.43,660.17,259.17,657.39,257.66,654.4Z" transform="translate(-227.14 -542.42)"/><path class="cls-2" d="M264.65,656l0-.05h0Z" transform="translate(-227.14 -542.42)"/><path class="cls-2" d="M261.8,651.43h-.2a.8.8,0,0,0-.47-.31,1,1,0,0,0-1.23.7,13,13,0,0,0-.36,2.32,6.09,6.09,0,0,0,.13,2.17,2.61,2.61,0,0,0,1.59,1.68,6.39,6.39,0,0,0,1.84.36,4.09,4.09,0,0,0,2.16-.3,2.62,2.62,0,0,0,1.31-1.5,3.5,3.5,0,0,0-.79-3.43A6.52,6.52,0,0,0,261.8,651.43Zm2.65,3.21,0-.07ZM261.68,656l0,0S261.69,656,261.68,656Zm2.84.23Zm-.08.06s0,0,0,0Zm.26-.34,0,0v0c0,.08,0,0,0,0l-.08.15-.09.08h0l-.07,0-.06,0h0l-.19.05a.41.41,0,0,1-.16,0h-.45c-.25,0-.5,0-.75-.07l-.16,0-.37-.08-.32-.1a.4.4,0,0,1-.13-.07l0,0,0,0-.05,0,0,0a.94.94,0,0,0-.08-.15l0,.05a.43.43,0,0,1,0-.05l-.06-.24v0h0c0-.09,0-.17,0-.26,0-.33,0-.68,0-1,0-.17,0-.33,0-.5a1.5,1.5,0,0,1,0-.2v-.06a.22.22,0,0,0,0-.06,11.59,11.59,0,0,1,1.2.25l.31.1.2.07.05,0,.12,0,.14.08.35.2.08.06.1.08.21.2,0,0,.05.06.18.32h0l0,.07a2.68,2.68,0,0,1,.07.27s0,0,0,0a.32.32,0,0,0,0,.08v.06c0,.1,0,.21,0,.31s0,.06,0,.09l0,.11Z" transform="translate(-227.14 -542.42)"/><path class="cls-2" d="M261.61,655.83Z" transform="translate(-227.14 -542.42)"/><path class="cls-2" d="M264.33,656.29l.07,0s0,0-.07,0Z" transform="translate(-227.14 -542.42)"/><path class="cls-2" d="M264.73,655.39v0a.06.06,0,0,1,0,0v0A.14.14,0,0,0,264.73,655.39Z" transform="translate(-227.14 -542.42)"/><path class="cls-2" d="M274.66,652.74a1,1,0,0,0-.7-1.23,5.46,5.46,0,0,0-5,1.75,4.13,4.13,0,0,0-1,2.56,4.26,4.26,0,0,0,.7,2.4,3.59,3.59,0,0,0,2.33,1.61,1,1,0,0,0,1.23-.69,1,1,0,0,0-.7-1.23l-.3-.07c-.07,0-.34-.16-.12,0l-.2-.1-.16-.12-.28-.27-.12-.17-.12-.2a1.29,1.29,0,0,0-.09-.2,1.72,1.72,0,0,1-.07-.21,1.12,1.12,0,0,1-.06-.23l0-.14c0-.18,0-.36,0-.54v0s0-.06,0-.09.05-.18.07-.27.07-.16.07-.17.08-.16.13-.24.09-.14.14-.21c-.12.18.09-.1.12-.13l.24-.25.11-.09a4.39,4.39,0,0,1,.51-.32l.22-.1.23-.09a4.39,4.39,0,0,1,.6-.15l.12,0h.06l.26,0h.36s.41,0,.17,0A1,1,0,0,0,274.66,652.74Z" transform="translate(-227.14 -542.42)"/><path class="cls-2" d="M277.68,657.63l0-.15c0-.09.05-.18.08-.26a.5.5,0,0,1,0-.13l0-.06a4.4,4.4,0,0,1,.3-.52l.07-.1,0,0,.19-.21a5.11,5.11,0,0,1,.48-.45l.06-.05.13-.09.24-.16.3-.17.2-.1a4.69,4.69,0,0,1,.61-.18l.06,0h.06c.13,0,.26,0,.39,0a1,1,0,0,0,0-2,5.59,5.59,0,0,0-4.77,2.92,3.94,3.94,0,0,0-.45,2.81,3.18,3.18,0,0,0,1.51,2,2.65,2.65,0,0,0,2.77,0,1,1,0,0,0-1-1.73.57.57,0,0,1-.13.08h0l-.1,0h-.17l-.15,0-.08,0h0l-.19-.11a.18.18,0,0,0-.07-.05l0,0-.15-.15-.06-.07a2.39,2.39,0,0,0-.13-.21v0h0a.86.86,0,0,1-.06-.23.61.61,0,0,1,0-.15C277.67,657.83,277.68,657.73,277.68,657.63Z" transform="translate(-227.14 -542.42)"/><path class="cls-2" d="M287.33,664.3a1,1,0,0,0-.7-1.23,2.45,2.45,0,0,1-.87-.7,3.11,3.11,0,0,1-.52-1.12s0-.08,0-.13h.13c.86-.23,1.72-.46,2.58-.71a11.17,11.17,0,0,0,2.32-.8,1.72,1.72,0,0,0,.74-2.28,3.25,3.25,0,0,0-1.91-1.32c-1.54-.57-3.63-1.17-4.78.38a6.18,6.18,0,0,0-.9,2.11,6.92,6.92,0,0,0-.23,2.48,4.72,4.72,0,0,0,2.92,4A1,1,0,0,0,287.33,664.3ZM286,657.49c-.07.09.13-.09,0,0a.31.31,0,0,1,.18-.08,4.3,4.3,0,0,1,1.52.26,8.12,8.12,0,0,1,1.11.4c-1.13.38-2.3.7-3.47,1a7.66,7.66,0,0,1,.33-1A2.67,2.67,0,0,1,286,657.49Z" transform="translate(-227.14 -542.42)"/><path class="cls-2" d="M302.82,661.8a1,1,0,0,0,1.23-.7,1,1,0,0,0-.69-1.23,6.8,6.8,0,0,0-5.75,1.63,9.9,9.9,0,0,0-1.76,2l0-4.24a1,1,0,0,0-2,0c0,2.6,0,5.2.05,7.8a1,1,0,0,0,1.86.5,15.65,15.65,0,0,1,3-4.33A4.82,4.82,0,0,1,302.82,661.8Z" transform="translate(-227.14 -542.42)"/><path class="cls-2" d="M294.63,628.18a50.34,50.34,0,0,0-4.15,8.51,1,1,0,0,0-1,1,1.06,1.06,0,0,0,.33.72,48.76,48.76,0,0,0-1.69,6.3c-.25,1.26,1.67,1.8,1.93.53a48.7,48.7,0,0,1,1.78-6.55l4.83,0a1,1,0,0,0,.47-.14c.45,2.58.82,5.18,1.07,7.78.12,1.27,2.13,1.29,2,0-.32-3.31-.78-6.61-1.4-9.88q-.47-2.43-1.05-4.83a6.61,6.61,0,0,0-1.6-3.61A1,1,0,0,0,294.63,628.18Zm-2,8.49a47.29,47.29,0,0,1,2.9-6,20.07,20.07,0,0,1,.5,2.16c.31,1.3.57,2.6.83,3.91l-.15,0Z" transform="translate(-227.14 -542.42)"/><path class="cls-2" d="M309.11,637.33a12.49,12.49,0,0,1,2.34-.42c1.08,0,2.72.33,2.7,1.7a1,1,0,0,0,2,0,3.86,3.86,0,0,0-3.48-3.64,9.31,9.31,0,0,0-3.2.23,8.45,8.45,0,0,0-2.74.92,5.05,5.05,0,0,0-2.09,4.6,56.42,56.42,0,0,0,.63,5.94,1,1,0,0,0,1,1,1,1,0,0,0,1-1c-.2-1.66-.44-3.33-.58-5-.1-1.12-.19-2.57.62-3.47A3.46,3.46,0,0,1,309.11,637.33Z" transform="translate(-227.14 -542.42)"/><path class="cls-2" d="M322.08,648.73a1,1,0,0,0,2,0q0-4.2.33-8.39c1.87,0,3.75,0,5.63.11,1.29,0,1.29-2,0-2-1.82-.06-3.64-.1-5.47-.11.15-1.65.32-3.31.54-5,.07-.54-.51-1-1-1a1,1,0,0,0-1,1c-.22,1.66-.39,3.32-.54,5-1.19,0-2.39,0-3.58,0a1,1,0,0,0,0,2c1.14,0,2.28,0,3.41,0Q322.1,644.53,322.08,648.73Z" transform="translate(-227.14 -542.42)"/><path class="cls-2" d="M313.78,668.69a16.45,16.45,0,0,0-6.29-.32c-.83.12-1.76.21-2.13,1.08s-.14,2.35-.14,3.36l0,6.34c-.92,0-1.83,0-2.74.08a1,1,0,0,0,0,2c.91,0,1.83-.06,2.74-.08l0,5.59a1,1,0,0,0,2,0l0-5.63c1.24,0,2.48,0,3.72,0a1,1,0,0,0,0-2c-1.24,0-2.48,0-3.72,0,0-1.41,0-2.82,0-4.23V672a8.94,8.94,0,0,0,0-1.37v-.15l.33-.06a14.09,14.09,0,0,1,5.71.25C314.5,670.93,315,669,313.78,668.69Z" transform="translate(-227.14 -542.42)"/><path class="cls-2" d="M316.36,671.16a1.51,1.51,0,0,0-.69,1.55,1.33,1.33,0,0,0,.14.44c-.05,1-.1,1.91-.13,2.86a1,1,0,0,0-.57.82,27.29,27.29,0,0,0,.73,9.31,1,1,0,0,0,2-.27,116.36,116.36,0,0,1,.07-13.85A1,1,0,0,0,316.36,671.16Z" transform="translate(-227.14 -542.42)"/><path class="cls-2" d="M316.78,665.73a1,1,0,0,0,0-2A1,1,0,0,0,316.78,665.73Z" transform="translate(-227.14 -542.42)"/><path class="cls-2" d="M332.49,674.11c-1.63.74-2.42,2.45-3,4-.15.42-.28.85-.41,1.29,0-.69-.07-1.38-.11-2.06l-.4-7.45c-.07-1.28-2.07-1.29-2,0q.23,4,.43,8.07a4.83,4.83,0,0,0-1.15-.54,14.67,14.67,0,0,1-2.38-.93,3.44,3.44,0,0,1-1.63-1.25,2.26,2.26,0,0,1,.25-2c.27-.53.69-1.43,1.41-1.15a1,1,0,0,0,1.23-.7,1,1,0,0,0-.7-1.23c-1.89-.76-3.31,1.14-3.93,2.66a3.7,3.7,0,0,0,1.2,4.67,10.73,10.73,0,0,0,2.29,1.22,13.18,13.18,0,0,0,1.37.5,3.38,3.38,0,0,1,1,.38c.05,0,.1.17.12.17s-.17.2-.24.27a11.38,11.38,0,0,1-1,.79c-.8.57-1.61,1.11-2.43,1.63-1.09.68-.09,2.41,1,1.73.76-.48,1.51-1,2.24-1.5a14.29,14.29,0,0,0,1.6-1.21q0,.4.09.81a3.29,3.29,0,0,0,1.5,2.56,1,1,0,0,0,1.51-.86,19.25,19.25,0,0,1,.76-4.25,7.72,7.72,0,0,1,1.73-3.52c2.54-2.29,3.3,3.05,3.3,4.54a1,1,0,0,0,2,0C338.08,677.82,336.66,672.22,332.49,674.11Z" transform="translate(-227.14 -542.42)"/><path class="cls-2" d="M341.86,674.17c.05-1.29-1.95-1.29-2,0a82.9,82.9,0,0,0,.15,9.19,1,1,0,0,0,1,1,1,1,0,0,0,1-1A82.9,82.9,0,0,1,341.86,674.17Z" transform="translate(-227.14 -542.42)"/><path class="cls-2" d="M354.24,678.83c-.48-1.5-.83-3.46-2.64-3.85a8.35,8.35,0,0,0-4.29.38,4.81,4.81,0,0,0-3,3.11c-.58,1.82-.14,3.74-.33,5.61a1,1,0,0,0,2,0c.17-1.71-.32-3.59.31-5.24a3.36,3.36,0,0,1,3-1.89,10,10,0,0,1,1.09-.06,2.3,2.3,0,0,1,.94.07c.55.25.71,1.44.86,1.93.6,1.87,1.19,3.74,1.79,5.6.39,1.23,2.32.7,1.93-.53C355.33,682.25,354.79,680.54,354.24,678.83Z" transform="translate(-227.14 -542.42)"/><path class="cls-2" d="M369.46,681c-.52-.75-1.06-1.47-1.59-2.21l-3.39-4.68a1,1,0,0,0-1.87.51v.09a.05.05,0,0,1,0,0,3.34,3.34,0,0,0-4,2.17,5.27,5.27,0,0,0-.2,2.7,3.41,3.41,0,0,0,1,2.26c1.57,1.28,3.27-1.09,4-2.27a9.33,9.33,0,0,0,1-2.32l1.17,1.62c.86,1.19,1.81,2.36,2.59,3.62a2,2,0,0,1,.43,1.47c-.11.47-.6.62-1,.73a3.8,3.8,0,0,1-3.22-.71,1,1,0,1,0-1,1.73,5.79,5.79,0,0,0,4.6,1,3,3,0,0,0,2.62-3.46A5.07,5.07,0,0,0,369.46,681Zm-8.89-.71c.05,0,0,0,0,0Zm.61-1.18a4.42,4.42,0,0,1-.44.53,3.27,3.27,0,0,1-.29.26c0-.17-.09-.33-.12-.5a3.66,3.66,0,0,1,0-1.58c.19-.76.87-1.49,1.71-1.2a.91.91,0,0,0,.32,0,6.36,6.36,0,0,1-.32,1A7.6,7.6,0,0,1,361.18,679.09Z" transform="translate(-227.14 -542.42)"/><path class="cls-2" d="M374.28,655.59c-3.14,2.42-6.32,4.73-10,6a.81.81,0,0,0,.23-.93,22.52,22.52,0,0,0-10.25-12.36,19.3,19.3,0,0,0-16.47-.94c-1.7.71-4.17,1.88-5.18,3.69a16.4,16.4,0,0,0-1.72,0,1,1,0,0,0-1,1,1,1,0,0,0,1,1,11.25,11.25,0,0,1,1.3,0c.26,2.47,3.36,4.21,5.25,5.33a43.71,43.71,0,0,0,18.15,6.23A22.81,22.81,0,0,0,366.4,663a32.73,32.73,0,0,0,6.67-4c-.73,2.1-1.76,4.09-2.69,6.1-.34.74-.69,1.48-1,2.23a7.23,7.23,0,0,0-.42.89.47.47,0,0,0-.06.09,9.63,9.63,0,0,0-1.46-1.65l-1.65-1.93c-.84-1-2.25.44-1.41,1.41l2.1,2.47c.52.61,1.1,1.59,1.86,1.94,1.61.75,2.25-1.1,2.77-2.21,1.72-3.72,4-7.54,4.67-11.62C375.88,656,375.05,655,374.28,655.59ZM343.18,659a36.21,36.21,0,0,1-6.89-3.82,6,6,0,0,1-1.91-1.9,14.37,14.37,0,0,1,3.77,1.29,1,1,0,0,0,1.37-.36,1,1,0,0,0-.36-1.36,16.79,16.79,0,0,0-4.23-1.5,10.63,10.63,0,0,1,2.77-1.76,17.17,17.17,0,0,1,14.4-.17,20.28,20.28,0,0,1,10.51,11.76,1,1,0,0,0,.88.68,18.07,18.07,0,0,1-3.82.74C354,663.08,348.35,661.34,343.18,659Z" transform="translate(-227.14 -542.42)"/><path class="cls-2" d="M345.07,652.12a1,1,0,0,0,0,2A1,1,0,0,0,345.07,652.12Z" transform="translate(-227.14 -542.42)"/><path class="cls-2" d="M351.57,654.33a1.08,1.08,0,0,0-.77-.1,1.06,1.06,0,0,0-.6.46,1,1,0,0,0-.1.77,1.29,1.29,0,0,1,.06.25c0,.12,0,.23,0,.35l-.09.33-.14.25a1,1,0,0,0-.1.77,1,1,0,0,0,.46.6,1,1,0,0,0,.77.1,1.09,1.09,0,0,0,.6-.46,2.84,2.84,0,0,0,.46-1.2,3.12,3.12,0,0,0,.05-.75,3.39,3.39,0,0,0-.15-.77A1.06,1.06,0,0,0,351.57,654.33Z" transform="translate(-227.14 -542.42)"/><path class="cls-2" d="M394.09,678.2a20.19,20.19,0,0,0-4-1.29l-1.05-.22a54.3,54.3,0,0,1-2.16-6.84,19.53,19.53,0,0,1,5.83,1.56c1.21.46,1.73-1.48.54-1.93a19.22,19.22,0,0,0-6.82-1.62c-.19-.92-.36-1.84-.5-2.77-.19-1.27-2.11-.73-1.92.53.12.82.27,1.63.43,2.44-2.35.51-5.14,2.18-5.93,4.55-.92,2.75,1.81,4.24,4,4.82,1.66.44,3.36.71,5,1,.43,1,.89,2.1,1.39,3.12h-.09c-1.28,0-1.29,2,0,2,.36,0,.72,0,1.08-.08.59,1.09,1.19,2.16,1.84,3.21s2.41.09,1.73-1c-.52-.83-1-1.68-1.48-2.54a11.42,11.42,0,0,0,1.11-.3c1.07-.34,2.87-.79,3.17-2C396.66,679.4,395.12,678.66,394.09,678.2Zm-12-3c-1-.33-2.18-1-1.62-2.2a6,6,0,0,1,2.83-2.5,7,7,0,0,1,1.54-.52,56.6,56.6,0,0,0,1.86,6.28A29.93,29.93,0,0,1,382.13,675.23Zm9,6.08c-.39-.78-.76-1.57-1.11-2.36.3.07.61.13.91.21a17.19,17.19,0,0,1,2.19.76c.26.12.61.36.91.49A12.67,12.67,0,0,1,391.09,681.31Z" transform="translate(-227.14 -542.42)"/><path class="cls-2" d="M417.74,678a36,36,0,0,0-5.09.1c0-.92,0-1.85,0-2.78a1,1,0,0,0-2,0c0,1,0,2,0,3-.91.13-1.82.29-2.73.49s-2.06.41-2.32,1.49c-.48,2,1.86,3.19,3.46,3.51.51.1,1,.16,1.56.21v.9l-.1,0a29.42,29.42,0,0,1-3.62.49,1,1,0,0,0-1,1,1,1,0,0,0,1,1,33.39,33.39,0,0,0,3.73-.49c0,.37,0,.74,0,1.11a1,1,0,0,0,2,0c0-.52,0-1,0-1.56l.73-.19a2.71,2.71,0,0,0,2-1.67,1.84,1.84,0,0,0-1.35-2.15,6.51,6.51,0,0,0-1.44-.32c0-.7,0-1.39,0-2.09a34.89,34.89,0,0,1,5.11-.11C419,680.05,419,678.05,417.74,678Zm-4.23,6.08-.09.07C413.42,684.06,413.43,684,413.51,684.07Zm-.41.25h0l-.47.14v-.23A4,4,0,0,1,413.1,684.32Zm-2.49-2.3a7.64,7.64,0,0,1-1.84-.33,2.94,2.94,0,0,1-.93-.48s-.13-.19-.23-.29c.6-.18,2.49-.49,2.77-.54l.24,0C410.62,680.91,410.61,681.47,410.61,682Z" transform="translate(-227.14 -542.42)"/></svg>