<svg id="Layer_1" data-name="Layer 1" xmlns="http://www.w3.org/2000/svg" viewBox="0 0 606.16 135.73"><defs><style>.cls-1{fill:#5683c3;}.cls-2{fill:#f49c3b;}</style></defs><title>lived</title><polygon class="cls-1" points="0 0 274.15 135.73 606.16 135.73 332.83 0 0 0"/><path class="cls-2" d="M161,283c-2.25-.11-4.5-.19-6.75-.28.23-4,.43-8,.57-12,.2-5.61-8.52-5.61-8.72,0q-.21,5.86-.56,11.74-7-.13-14-.06c1-1.44,2-2.87,2.81-4.32a61,61,0,0,0,4.91-12c1.57-5.4-6.84-7.71-8.4-2.32a50.06,50.06,0,0,1-4.67,11.09c-2.06,3.6-4.9,6.81-5.92,10.92a4.41,4.41,0,0,0,4.2,5.52c6.84-.18,13.67-.19,20.51-.08-.59,7.82-1.33,15.62-2.27,23.41C142.38,317,144.87,319,147,319c2.59,0,4.08-2,4.36-4.36q1.4-11.56,2.25-23.18c2.45.08,4.9.17,7.34.3a4.36,4.36,0,1,0,0-8.72Z" transform="translate(-5.84 -255.6)"/><path class="cls-2" d="M181.11,270.06c.2-5.62-8.52-5.61-8.72,0a282.35,282.35,0,0,0,3.43,54.87c.37,2.33,3.27,3.62,5.36,3.05,2.48-.68,3.42-3,3-5.37A269.46,269.46,0,0,1,181.11,270.06Z" transform="translate(-5.84 -255.6)"/><path class="cls-2" d="M209.53,280.55a21.94,21.94,0,0,0-8.3,3,37.67,37.67,0,0,0-3.52,2.4,34.57,34.57,0,0,1-.75-3.5,31,31,0,0,1-.3-5.62l21.07-6a4.36,4.36,0,1,0-2.31-8.4l-22,6.26a4.52,4.52,0,0,0-2.36,1.7,4.62,4.62,0,0,0-3,4.11,39.81,39.81,0,0,0,2.57,17.85,6.77,6.77,0,0,0,3,3.81,5.55,5.55,0,0,0,5.85-.6c2.25-1.58,4.19-3.42,6.62-4.77a14.07,14.07,0,0,1,3.2-1.34,12.53,12.53,0,0,1,1.38-.3s1,0,1.26,0l.81,0,.12,0a10.53,10.53,0,0,1,1.56.41,5.84,5.84,0,0,1,1.55.94,4.32,4.32,0,0,1,1.16,3.94,10.23,10.23,0,0,1-2.85,5.38,15.48,15.48,0,0,1-13.55,4.5c-2.34-.3-4.36,2.22-4.36,4.36,0,2.6,2,4.06,4.36,4.36,10,1.28,20.45-4.6,24.12-14a13.69,13.69,0,0,0-2.4-14.37C219.26,281.23,214.12,280,209.53,280.55Z" transform="translate(-5.84 -255.6)"/><path class="cls-2" d="M244.1,260.07c-1.5-1.81-4.61-1.55-6.16,0a4.45,4.45,0,0,0,0,6.17A39.58,39.58,0,0,1,230.11,324a4.49,4.49,0,0,0-1.57,6c1.12,1.9,4,2.91,6,1.56a48.33,48.33,0,0,0,9.59-71.43Z" transform="translate(-5.84 -255.6)"/><path class="cls-2" d="M113,286.65c-.07-.15-.13-.3-.2-.46s-.06-.14-.13-.33c-.31-.88-.62-1.75-.86-2.66s-.41-1.81-.57-2.73v-.06c0-.25,0-.5-.08-.76,0-.46-.06-.93-.08-1.39a27.08,27.08,0,0,1,.06-3c0-.31,0-.62.08-.92,0,.27.15-.93.17-1.08a27.49,27.49,0,0,1,.67-2.71c.15-.51.32-1,.5-1.51l.22-.57.11-.23c.93-2.08.66-4.79-1.57-6-1.9-1-5-.65-6,1.57a32.17,32.17,0,0,0,.85,28.62,4.4,4.4,0,0,0,6,1.57,4.46,4.46,0,0,0,1.57-6C113.45,287.61,113.21,287.13,113,286.65Z" transform="translate(-5.84 -255.6)"/><path class="cls-2" d="M273.27,361.53a41.79,41.79,0,0,1-13.7-11,35,35,0,0,1-4.6-7.34,20.14,20.14,0,0,1-1.21-4,13.3,13.3,0,0,1,0-3.62,4.48,4.48,0,0,0-3-5.36c-2.15-.59-4.91.73-5.37,3.05-1.6,8.14,2.05,15.68,6.93,22a50,50,0,0,0,16.59,13.82,4.46,4.46,0,0,0,6-1.57A4.4,4.4,0,0,0,273.27,361.53Z" transform="translate(-5.84 -255.6)"/><path class="cls-2" d="M262,283.9a4.47,4.47,0,0,0,6-1.56c.28-.43.59-.85.89-1.26a24.73,24.73,0,0,1,10-7.74l.6-.24a4.64,4.64,0,0,0,2.6-2,4.44,4.44,0,0,0,.44-3.36c-.67-2.09-3.07-3.9-5.36-3.05a34,34,0,0,0-16.7,13.25A4.4,4.4,0,0,0,262,283.9Z" transform="translate(-5.84 -255.6)"/><path class="cls-2" d="M303.1,330.86c1.68-8.29.95-17-.58-25.35-1-5.28-3.13-10.88-8.18-13.5-5.82-3-12.41-1.21-18,1.47-2.12,1-2.68,4-1.56,6a4.44,4.44,0,0,0,6,1.56c2.56-1.23,6.15-2.68,9-1.54,2.48,1,3.34,3.85,3.91,6.22a57.13,57.13,0,0,1,1.43,20.86,22.52,22.52,0,0,0-10.24-.9c-4.89.7-10.77,3.25-13,8-2.3,4.91,1.13,11.08,4.26,14.91a11,11,0,0,0,13.81,3.1c4.57-2.33,8-7.09,10.18-11.68a24,24,0,0,1,2.82,3.82c2.84,4.84,10.38.45,7.53-4.4A30.75,30.75,0,0,0,303.1,330.86Zm-18.66,13.36c-2.09-.44-3.61-4.25-4.31-6-.14-.34-.22-1.1-.36-1a4.9,4.9,0,0,1,1.34-1.1,12.25,12.25,0,0,1,4.42-1.78,13.12,13.12,0,0,1,7.32.56,26.47,26.47,0,0,1-2.34,4.39C289.38,341,286.68,344.69,284.44,344.22Z" transform="translate(-5.84 -255.6)"/><path class="cls-2" d="M333.37,347.57a247.1,247.1,0,0,1-9.73-51.91,4.46,4.46,0,0,0-4.36-4.36c-2.22,0-4.54,2-4.36,4.36a258.31,258.31,0,0,0,10,54.23C326.57,355.25,335,353,333.37,347.57Z" transform="translate(-5.84 -255.6)"/><path class="cls-2" d="M386,333.37c-5.65-5.76-12.19-11.26-19.91-13.57-.27-2-.57-4-.83-5.82-.77-5.62-1.12-12.88-4.86-17.44s-9.75-4.9-15.16-4.48a4.46,4.46,0,0,0-4.36,4.36c0,2.22,2,4.54,4.36,4.36s6.13-.8,8.12.92a6.24,6.24,0,0,1,1.53,3.4c.5,2.06.85,4.16,1.21,6.25.41,2.44.74,4.9,1,7.36-9.53.61-18.47,7.67-18.75,17.77-.14,5.18,2.58,10.62,7.93,11.89,5,1.18,10.54-1.11,14.34-4.3,4.56-3.82,6-9.16,6.11-14.79,5,2.32,9.31,6.4,13.09,10.26S390,337.38,386,333.37Zm-28.69,1.05a9.74,9.74,0,0,1-5.87,5.05c-.86.29-2.62.92-3.47.27s-.88-2.07-.88-2.95c0-5.82,5.68-9.14,10.9-9.4A14.9,14.9,0,0,1,357.33,334.42Z" transform="translate(-5.84 -255.6)"/><path class="cls-2" d="M393.22,288.73a4.4,4.4,0,0,0-3,5.37c4.75,13.9,9,28.51,7.45,43.36-1.14,11.18-6.21,22.85-15.54,29.53a4.49,4.49,0,0,0-1.57,6c1.11,1.89,4,2.94,6,1.56,11.5-8.24,17.82-21.26,19.62-35.08,2.12-16.22-2.32-32.44-7.53-47.66A4.46,4.46,0,0,0,393.22,288.73Z" transform="translate(-5.84 -255.6)"/><path class="cls-2" d="M341.83,374.74a18.68,18.68,0,0,1-3.14.86l-.35.08H338c-.62,0-1.24.07-1.87.07-.94,0-1.89,0-2.83-.13l-.94-.09-.39,0-1.27-.2c-4.53-.75-9.05-1.81-13.68-1.83a4.36,4.36,0,1,0,0,8.72c1.14,0,2.27.06,3.4.18l.77.09.48.07,1.44.23c2.23.39,4.45.84,6.69,1.17,4.78.69,9.73.95,14.35-.76,2.13-.79,3.81-3,3.05-5.36C346.52,375.7,344.12,373.9,341.83,374.74Z" transform="translate(-5.84 -255.6)"/><path class="cls-2" d="M424.79,313.58c-2.19,0-4.57,2-4.36,4.36.89,9.85,4.49,20,2.46,29.94-1.87,9.13-7.13,17-12.16,24.69-3.09,4.7,4.45,9.08,7.53,4.4,5.43-8.26,11-16.94,13-26.77,2.24-11-1.18-21.39-2.15-32.26A4.47,4.47,0,0,0,424.79,313.58Z" transform="translate(-5.84 -255.6)"/><path class="cls-2" d="M453,330c-2.18,0-4.59,2-4.36,4.36,1.16,11.74,2.77,26-5.84,35.57-3.75,4.16,2.4,10.34,6.17,6.17,10.41-11.54,9.81-27.27,8.39-41.74A4.48,4.48,0,0,0,453,330Z" transform="translate(-5.84 -255.6)"/><path class="cls-2" d="M473.81,338.77a199,199,0,0,1-.26,20.58,10.6,10.6,0,0,1-2.54,6.22,77.88,77.88,0,0,0-5.67,8.26c-2.86,4.84,4.67,9.23,7.53,4.4a71.84,71.84,0,0,1,5.24-7.69,18.56,18.56,0,0,0,4-10c.81-7.22.53-14.57.38-21.81C482.41,333.17,473.69,333.15,473.81,338.77Z" transform="translate(-5.84 -255.6)"/><path class="cls-2" d="M505.61,355.47a4.35,4.35,0,0,0-6.16,0,4.2,4.2,0,0,0-1.28,3.08,29.9,29.9,0,0,1,.28,6,11.19,11.19,0,0,1-.44,1.63,10.37,10.37,0,0,1-.65,1.11,14.53,14.53,0,0,1-2,1.87l.65-.5a4.71,4.71,0,0,0-2,2.56,4.53,4.53,0,0,0,.44,3.36,4.4,4.4,0,0,0,2.61,2,4.17,4.17,0,0,0,3.36-.44,19.81,19.81,0,0,0,4-3.91,13.1,13.1,0,0,0,2.16-4.42,23.94,23.94,0,0,0,.22-9.24A4.75,4.75,0,0,0,505.61,355.47Z" transform="translate(-5.84 -255.6)"/><path class="cls-2" d="M524.28,362.55c-5.61,0-5.62,8.72,0,8.72S529.9,362.55,524.28,362.55Z" transform="translate(-5.84 -255.6)"/><path class="cls-2" d="M552.06,372.06c-5.61,0-5.62,8.71,0,8.71S557.68,372.06,552.06,372.06Z" transform="translate(-5.84 -255.6)"/><path class="cls-2" d="M86.4,268.25c-5.61,0-5.62,8.72,0,8.72S92,268.25,86.4,268.25Z" transform="translate(-5.84 -255.6)"/><path class="cls-2" d="M64.47,263.87c-5.61,0-5.62,8.71,0,8.71S70.09,263.87,64.47,263.87Z" transform="translate(-5.84 -255.6)"/></svg>