<svg id="Layer_1" data-name="Layer 1" xmlns="http://www.w3.org/2000/svg" viewBox="0 0 598.82 292.24"><defs><style>.cls-1{fill:#fdef2f;}.cls-2{fill:#b31f58;}</style></defs><title>lookup</title><polygon class="cls-1" points="0 292.24 0 0 598.82 291.47 0 292.24"/><path class="cls-2" d="M70.72,415.17l3.09-13.57c1-4.24,2.15-8.5,2.88-12.79.44-2.59-.14-5.26-2.64-6.61-2-1.08-4.63-.72-6.82-.71H53.36a3.75,3.75,0,0,0,0,7.49H65.24c1.24,0,2.5,0,3.76.06l-.21.88c-.31,1.35-.62,2.7-.92,4.06-.63-1.69-2.7-3.06-4.51-2.37a21.67,21.67,0,0,1-2.59.83c-.44.11-.88.2-1.32.28l-.5.09h-.17a24.2,24.2,0,0,1-2.69.11c-.45,0-.9,0-1.34-.06l-.91-.1a26,26,0,0,1-5.19-1.37l-.46-.18-.07,0c-.41-.19-.83-.38-1.24-.59a29,29,0,0,1-2.53-1.45l-1.13-.77-.33-.24-.15-.12c-.75-.62-1.48-1.26-2.17-1.95s-1.17-1.25-1.73-1.91l-.1-.12-.35-.48c-.3-.42-.59-.85-.86-1.28a24.3,24.3,0,0,1-1.34-2.46c0-.1-.32-.72-.36-.81-.21-.54-.41-1.09-.59-1.64a28.32,28.32,0,0,1-.73-2.74c-.09-.43-.18-.86-.25-1.29,0-.18-.06-.36-.08-.54s-.08-.7-.08-.71a32.39,32.39,0,0,1,0-6.07c0-.25.05-.5.08-.75,0,.16-.1.63,0-.14.07-.44.14-.88.23-1.32.2-1.07.46-2.12.76-3.16s.61-2,1-2.91l.21-.54,0-.07a.36.36,0,0,0,0-.09c.23-.53.47-1.05.73-1.57a36.08,36.08,0,0,1,3.21-5.21c.45-.61.22-.28.12-.15q.24-.32.51-.63c.34-.41.7-.81,1.07-1.21a21,21,0,0,1,2.28-2.14l.28-.2.66-.45c.46-.28.92-.53,1.4-.78a12.83,12.83,0,0,1,2.72-.87,30.78,30.78,0,0,1,6.59-.41q3,0,6.05.31l1.71.17.57.07.51.07c1.13.17,2.25.37,3.37.61a44.08,44.08,0,0,1,6.48,1.88l.69.27.11,0,.19.09c.5.24,1,.47,1.49.72a28.79,28.79,0,0,1,2.85,1.64c.46.31.91.62,1.35.95-.13-.1-.47-.39.11.08l.7.59a26.39,26.39,0,0,1,2.48,2.48A3.74,3.74,0,1,0,90,348.1c-6.38-7.22-15.78-10.34-25.07-11.55a62.68,62.68,0,0,0-13.89-.47A21.6,21.6,0,0,0,36.82,343c-12.76,13.63-14.84,38,.76,50.45,7.69,6.12,18.31,9,27.77,5.41A4.84,4.84,0,0,0,67,397.75L63.5,413.18a3.74,3.74,0,1,0,7.22,2Zm-27.79-27Zm5.26,3.05Z" transform="translate(-13.18 -255.6)"/><path class="cls-2" d="M93.91,422.71c.22.07.45.15.67.24l.11.05c.42.21.85.43,1.26.68.2.13.4.26.59.4-.27-.23-.24-.21.1.07s.7.65,1,1a3.74,3.74,0,0,0,5.29-5.3c-5.36-5.69-13.87-6.39-20.78-3.45q.54-3,.89-6c.22-1.95-1.88-3.83-3.75-3.74a3.85,3.85,0,0,0-3.74,3.74,74.81,74.81,0,0,1-2.84,13.36,36.31,36.31,0,0,0-7.74,26c.2,1.94,1.59,3.84,3.75,3.74,1.86-.08,3.95-1.65,3.74-3.74a30.15,30.15,0,0,1,.18-7.92,3.33,3.33,0,0,0,2.52-2.53,30.73,30.73,0,0,1,2.28-6.7c.69-1.65,1.3-3.33,1.87-5,.23-.25.45-.5.69-.74a15.76,15.76,0,0,1,4.54-3.34,7.49,7.49,0,0,1,2-.81,13.26,13.26,0,0,1,1.41-.37l.67-.13h.14a20.47,20.47,0,0,1,2.93,0h.14l.66.13A13.26,13.26,0,0,1,93.91,422.71Z" transform="translate(-13.18 -255.6)"/><path class="cls-2" d="M160.06,452.79c-4.44-4.67-11.25-4.15-16.35-.85a23.9,23.9,0,0,0-9.27,12.33c-2.31,6.52-2,13.68-1.6,20.48a3.75,3.75,0,0,0,7.49,0c-.27-5.07-.61-10.42.42-15.23a26.25,26.25,0,0,1,.91-3.26c.08-.23.17-.45.25-.68l0-.1v0c.23-.5.47-1,.73-1.47a23.19,23.19,0,0,1,1.54-2.47c.43-.61.18-.23.08-.11l.46-.55c.4-.45.82-.88,1.25-1.29l.54-.48.19-.16c.34-.25.69-.49,1-.71s.83-.47,1.25-.69l.22-.1c.23-.09.47-.17.7-.24a5.6,5.6,0,0,1,2.51-.41c.95,0,.41.06.28,0a4.12,4.12,0,0,1,.64.18l.33.19a1.27,1.27,0,0,0,.31.18c0,.05.09.09.17.17,2.81,2.66,4.83,7.06,6,10.88a33.53,33.53,0,0,1,1.43,7.24,36.43,36.43,0,0,1,.1,3.77q0,1.05-.12,2.1c0,.28-.05.55-.08.83s0,.3,0,.31a1.81,1.81,0,0,0-.06.36c-.29,1.93.48,4.12,2.61,4.61,1.78.4,4.3-.55,4.61-2.62a42.14,42.14,0,0,0-.84-17.17C166.42,462.52,163.9,456.82,160.06,452.79Z" transform="translate(-13.18 -255.6)"/><path class="cls-2" d="M245.09,432.43c-2.93-.39-5.33,1.38-7.24,3.39-6,6.3-9.94,14.18-12.61,22.4a125.21,125.21,0,0,0-3.79,15.3,25.08,25.08,0,0,0-10.14-1.13A37.89,37.89,0,0,0,198,475.74,25.8,25.8,0,0,0,182.84,496c-1.1,9,4.1,19.58,14.08,20.09,4.67.23,9.37-2,13.11-4.6a63.13,63.13,0,0,0,8.77-7.56,30.7,30.7,0,0,0,2.71,8.67,24.54,24.54,0,0,0,3.94,5.71,3.78,3.78,0,0,0,5.29,0,3.82,3.82,0,0,0,0-5.3,19.55,19.55,0,0,1-4.41-9.2c-.1-.46-.19-.92-.27-1.39,0-.1-.1-.64-.11-.73-.13-1-.2-2.06-.23-3.09s0-1.9,0-2.85a129.83,129.83,0,0,0,9.89-15.7,213.31,213.31,0,0,0,12.62-27.75c.86-2.34,1.71-4.69,2.47-7.06s1.3-5.15.41-7.62A7.55,7.55,0,0,0,245.09,432.43Zm-35.56,47.62ZM204,506.45a23.85,23.85,0,0,1-2.33,1.2,18.71,18.71,0,0,1-2.64.79c-.11,0-.61.09-.7.11a9.94,9.94,0,0,1-1.22,0l-.41,0-.31,0a9.92,9.92,0,0,1-1.41-.42s-.66-.4-.76-.47-.29-.19-.43-.29l-.2-.21a9.1,9.1,0,0,1-1.43-1.66q-.34-.56-.66-1.14c-.06-.11-.32-.69-.36-.76a15.48,15.48,0,0,1-.73-2.43c0-.13-.13-.78-.14-.82,0-.29-.06-.58-.08-.88a19.15,19.15,0,0,1,.06-2.73l0-.32c0-.09.05-.27.06-.33.09-.42.16-.84.27-1.26a19.75,19.75,0,0,1,.77-2.48s.11-.28.17-.41l.1-.23c.2-.38.39-.77.6-1.15a17.78,17.78,0,0,1,1.42-2.22c.06-.06.47-.56.55-.65.26-.29.53-.58.8-.86a23.46,23.46,0,0,1,2.1-1.88l.74-.51c.37-.26.76-.51,1.14-.74a26.83,26.83,0,0,1,2.59-1.38l.54-.24c-.08,0-.39.16,0,0l1.28-.49c.93-.32,1.88-.61,2.84-.85s1.8-.41,2.71-.56l.57-.09c.53-.07,1.05-.12,1.57-.16.94-.07,1.87-.1,2.81-.1.47,0,1,0,1.43,0a8.28,8.28,0,0,0,1,.09,10.67,10.67,0,0,1,3.71,1.14c-.12.72-.25,1.45-.37,2.17-.54,3.22-1,6.49-1.26,9.75C214.5,498.07,209.45,503.28,204,506.45Zm40.08-65.31c0,.14-.22.92-.32,1.24-.29,1-.65,2-1,3.05a196.73,196.73,0,0,1-10.12,24.17q-2.13,4.26-4.43,8.43c.58-3.2,1.21-6.39,2-9.56a97.39,97.39,0,0,1,3.19-10.87,52.11,52.11,0,0,1,4.51-9.51c.43-.72.88-1.42,1.35-2.12l.78-1.11.46-.63.09-.12,0,0a24.81,24.81,0,0,1,3.52-3.94c0,.11.05.22.06.32C244.11,440,244,441.44,244.08,441.14Zm.41-1.3c0-.34.28.11,0,0Z" transform="translate(-13.18 -255.6)"/><path class="cls-2" d="M313.31,482.6c-2.94-.52-6,.52-8.67,1.59a44,44,0,0,0-22.37,19.87c-.13.23-.24.47-.36.7q-.66-2.61-1.45-5.19-1.48-4.89-3.37-9.64c-1.31-3.32-2.49-7-4.76-9.84-2.62-3.22-7.15-4-10.28-1a26.59,26.59,0,0,0-5,7.88,57.53,57.53,0,0,0-4.69,19,149.76,149.76,0,0,0,0,21,3.75,3.75,0,1,0,7.49,0c-.55-11.15-1-22.22,2.35-32.6.18-.57.38-1.13.59-1.69.11-.31.23-.62.35-.93a1.45,1.45,0,0,0,.08-.21,37.4,37.4,0,0,1,2-3.9c.34-.58.69-1.16,1.06-1.72.14-.22.29-.45.45-.67l.09-.13c0,.05,0,.08.08.14.12.22.26.42.38.64.32.58.58,1.2.85,1.81.65,1.45,1.17,2.72,1.77,4.24q1.71,4.32,3.1,8.75A106.6,106.6,0,0,1,277.3,521c.2,1.94,1.57,3.84,3.74,3.74a3.85,3.85,0,0,0,3.75-3.74c0-.54.09-1.08.15-1.61v-.08c.05-.29.09-.59.15-.88.18-1.06.42-2.11.7-3.15s.56-2,.91-2.91q.27-.75.57-1.5l.05-.13c.15-.32.29-.64.44-.95a39.11,39.11,0,0,1,3.11-5.45c.3-.45.62-.89.94-1.32a2.34,2.34,0,0,1,.19-.26c.1-.14.21-.27.32-.41.72-.88,1.47-1.74,2.26-2.56s1.43-1.45,2.19-2.13l1.08-.94.7-.57.09-.07.15-.11a40,40,0,0,1,5.46-3.42q.63-.33,1.29-.63l.81-.37h0l.09,0c1.06-.41,2.13-.8,3.22-1.12.5-.15,1-.29,1.53-.4l.38-.08v0l-.12,0,.13,0a.58.58,0,0,0,.25.11l.27.27a.46.46,0,0,0,.12.11,1.11,1.11,0,0,0,.12.18l.6.88a25.71,25.71,0,0,1,4.24,15.28,3.78,3.78,0,0,0,3.75,3.75,3.82,3.82,0,0,0,3.74-3.75,33.42,33.42,0,0,0-4.38-17.61C318.76,486.38,316.67,483.19,313.31,482.6Zm-50.07,8.9c.15-.38.06-.14,0,0Zm4-7Zm20.08,26.12Z" transform="translate(-13.18 -255.6)"/><path class="cls-2" d="M420.08,513.89a75.27,75.27,0,0,0-5.39-10.59c.85-1.61,1.63-3.25,2.32-4.94,1.39-3.39,2.17-7.27,1.11-10.87-1-3.39-3.42-6-5.95-8.3a70.5,70.5,0,0,0-7.39-6.09,23.74,23.74,0,0,0-9.71-4.23,19.61,19.61,0,0,0-11.95,2.07,45,45,0,0,0-16.54,14.91,3.74,3.74,0,1,0,6.46,3.78,39.89,39.89,0,0,1,11.22-10.74,26.12,26.12,0,0,1,3.33-1.81l.8-.31.82-.26a10,10,0,0,1,1.94-.4,12.5,12.5,0,0,1,6.21,1.28,30.79,30.79,0,0,1,6.15,4.11,53.57,53.57,0,0,1,5.93,5.54,6.06,6.06,0,0,1,1.56,5.54,27.75,27.75,0,0,1-2.94,7.25c-.25.47-.5.91-.76,1.36a4.14,4.14,0,0,0-.39.68,40.37,40.37,0,0,1-8.38,10.25,29.94,29.94,0,0,1-6.42,4.29,28.5,28.5,0,0,1-7.39,2.42l-.67.11-.6.07c-.62.06-1.24.11-1.86.12s-1.39,0-2.07,0l-.83-.06L378,519l-.19,0a14.49,14.49,0,0,1-6.53-2.47,8.64,8.64,0,0,1-1.82-1.93c-.14-.22-.25-.44-.38-.66l-.12-.2a.82.82,0,0,0,0-.11,9.18,9.18,0,0,1-.28-.89s-.12-.59-.15-.69,0-.47,0-.71,0-.44,0-.53.06-.33.1-.48c0,0,.15-.43.21-.62a6.93,6.93,0,0,0,.49-.85,11.88,11.88,0,0,1,1.64-1.61,24.88,24.88,0,0,1,3.17-2.09,23.8,23.8,0,0,1,3.35-1.6,32.66,32.66,0,0,1,4.12-1.26c.76-.18,1.54-.34,2.31-.48l.78-.12.28,0,.3,0a48.81,48.81,0,0,1,8.8-.13,39.62,39.62,0,0,1,4,.48c1.51.26,3,.58,4.5.94a3.74,3.74,0,0,0,2-7.22c-12-2.95-26-2.88-36.54,4.47-2.9,2-5.57,4.48-6.57,8a13,13,0,0,0,1.4,9.9c3.4,6,10.62,8.36,17.11,8.6,12.31.47,23.06-6.71,30.25-16.21a66,66,0,0,1,2.89,6l-.19-.45a4.05,4.05,0,0,0,1.7,2.18,3.74,3.74,0,0,0,5.12-1.34A3.63,3.63,0,0,0,420.08,513.89Z" transform="translate(-13.18 -255.6)"/><path class="cls-2" d="M123.57,408.89v.05s0,0,0,0Z" transform="translate(-13.18 -255.6)"/><path class="cls-2" d="M120.82,400.73a10.37,10.37,0,0,0-6.71,1.52,7.35,7.35,0,0,0-3.35,6.39,3.83,3.83,0,0,0,3.75,3.75c1.9-.09,3.9-1.66,3.74-3.75,0-.06,0-.1,0-.15l0,0,.2-.12.61-.14c.07,0,.54,0,.63,0,.36,0,.73,0,1.1.05l.7.07.53.09c.35.07.67.16,1,.25l.13,0,.07,0,.3.17h0l.08.13a.11.11,0,0,1-.09-.09h0a5.21,5.21,0,0,0,0,1c0,.08-.13.9-.12.84-.07.4-.13.81-.2,1.21l-2.79,17.13c-2.19,0-4.38-.21-6.58-.22A16.84,16.84,0,0,0,105,431c-4.93,2.9-8.78,8.47-10.4,13.89s-1,12.86,5.32,14.89c6.75,2.19,11.85-4,15.38-8.73,1.53-2,3-4.18,4.37-6.32q-.27,14.24-.55,28.48a3.75,3.75,0,1,0,7.49,0q.39-20.42.79-40.85.93-5.67,1.85-11.34.56-3.39,1.1-6.78c.38-2.32,1-4.74.44-7.09C129.76,402.45,125,401,120.82,400.73Zm2.77,8.14h0l0,0C123.59,408.73,123.64,408.65,123.59,408.87Zm-11.73,34.06a68.24,68.24,0,0,1-4.08,5.71,28.52,28.52,0,0,1-2.34,2.58c-.33.3-.58.51-.71.61a7.56,7.56,0,0,1-.71.44c-.11.06-.5.22-.55.24l-.47.13-.33,0h-.39l-.28-.16-.19-.2a.91.91,0,0,1-.07-.14,1.87,1.87,0,0,0-.11-.2c-.1-.31-.17-.62-.24-.93,0,0-.07-.73-.07-.94a7.52,7.52,0,0,1,.38-2.66,16.46,16.46,0,0,1,2.69-5.61,19.16,19.16,0,0,1,3.74-4c2.1-1.38,3.6-1.54,6.14-1.48l1.8.06Q114,439.71,111.86,442.93Z" transform="translate(-13.18 -255.6)"/></svg>