<svg id="Layer_1" data-name="Layer 1" xmlns="http://www.w3.org/2000/svg" viewBox="0 0 548.26 387.7"><defs><style>.cls-1{fill:#7cc9a7;}.cls-2{fill:#0a3d5e;}</style></defs><title>movie</title><path class="cls-1" d="M562.66,395,14.4,392.13,402.1,779.84C508.43,673.51,561.93,534.38,562.66,395Z" transform="translate(-14.4 -392.13)"/><path class="cls-2" d="M203.48,440.39a29.62,29.62,0,0,0-2.51-8.45,6.13,6.13,0,0,0-10.1-1.13,48.78,48.78,0,0,0-5,6.88,66.58,66.58,0,0,0-3.57,6.4,82.22,82.22,0,0,0-5.52,15,72.1,72.1,0,0,1-2.29,7.5l-.25.58-.21.45q-.63-.52-1.23-1.08c-.88-.81-1.72-1.66-2.53-2.54s-1.36-1.57-2-2.37c.19.22-.49-.64-.63-.84-.39-.54-.78-1.09-1.14-1.64a60.76,60.76,0,0,1-4-7c-.27-.55-.53-1.09-.78-1.64l-.41-.92-.27-.62-.12-.31c-.15-.37-.3-.74-.44-1.12-.22-.56-.44-1.13-.64-1.7-1.91-5.29-3-11.41-7.41-15.29a4.8,4.8,0,0,0-4.56-1.21,4.61,4.61,0,0,0-3.28,3.28,291.33,291.33,0,0,0-4.71,59.25,4.7,4.7,0,0,0,9.39,0,284,284,0,0,1,.76-28.88q.51-6.58,1.33-13.14c.29.75.58,1.5.89,2.24a65.21,65.21,0,0,0,10.08,17,43,43,0,0,0,6.43,6.23c1.91,1.5,3.88,2.67,6.39,2.62,2.72-.06,4.82-1.85,6.17-4.05,3.64-5.94,4.41-13.24,6.77-19.7.3-.8.61-1.6.94-2.39.08-.21.27-.64.29-.69.17-.4.35-.79.54-1.18q1.18-2.55,2.58-5c.56-1,1.17-2,1.78-2.94.19.93.35,1.86.49,2.79,0,.12.14,1.15.16,1.28.05.45.09.91.14,1.36.45,4.81.61,9.65.87,14.48q.79,15,1.6,29.93c.13,2.44,2.07,4.81,4.7,4.69,2.43-.11,4.83-2.07,4.69-4.69q-.91-17.32-1.85-34.63A131.09,131.09,0,0,0,203.48,440.39Zm-28.59,27.92c.48.3.19.14,0,0Z" transform="translate(-14.4 -392.13)"/><path class="cls-2" d="M240.44,467.5c.67,3.69,1.29,7.39,1.83,11.1l.24,1.66.09.71c0,.08.06.43.09.6.13,1.05.27,2.1.4,3.15.29,2.38.55,4.77.78,7.15s2,4.82,4.7,4.7c2.33-.1,5-2.08,4.69-4.7q-1.26-12.76-3.5-25.4a5,5,0,0,0,3.1-1.35,4.75,4.75,0,0,0,1.38-3.32c-.1-2.26-2.09-5-4.7-4.69l-1.56.19q-1.65-7.91-3.68-15.74-1.83-7-4-13.83c-1-3.11-4.1-4.09-6.89-2.81-4.47,2.05-5.62,7.62-7,11.84-1.5,4.62-3,9.24-4.31,13.9q-1.23,4.26-2.3,8.55a4.69,4.69,0,0,0-3.3,4.46,5.07,5.07,0,0,0,1.54,3.42c-.83,4.1-1.5,8.24-2,12.42a98.13,98.13,0,0,0-.49,16.26c.13,2.45,2.06,4.81,4.7,4.69,2.42-.11,4.84-2.07,4.69-4.69a96.11,96.11,0,0,1,.24-13.68c.09-1.1.21-2.19.34-3.29,0-.39.09-.79.14-1.18,0-.13,0-.32.05-.38.05-.31.09-.62.14-.93.34-2.26.73-4.52,1.18-6.76.09-.42.19-.85.28-1.27Q233.92,468.09,240.44,467.5Zm-6.18-24.39c.13-.4.27-.81.4-1.22q2.19,8.14,3.94,16.38c-3,.25-6,.42-9,.54C231,453.53,232.61,448.31,234.26,443.11Z" transform="translate(-14.4 -392.13)"/><path class="cls-2" d="M275.43,497.59a4.76,4.76,0,0,0,6.64,0c.6-.66,1.23-1.29,1.89-1.9.35-.32.71-.64,1.08-.95l.48-.39,0,0a1.1,1.1,0,0,0,.17-.12,35.41,35.41,0,0,1,5-2.93c.22-.1.81-.34.64-.28l1.1-.41c1-.33,1.95-.61,2.94-.88a59,59,0,0,0,6-1.73c7.13-2.7,12.07-8.24,14.75-15.3a30.81,30.81,0,0,0,.36-20.2,44.59,44.59,0,0,0-12.85-19c-7-6.3-15.42-11.79-24.91-13.06-2.52-.33-4.69,2.43-4.69,4.7q0,26.31,0,52.64v14.89a4.36,4.36,0,0,0,.16,1.14A4.26,4.26,0,0,0,275.43,497.59ZM285,432c.91.46,1.81.95,2.69,1.47,1.56.91,3.07,1.9,4.54,2.94.56.39,1.11.81,1.67,1.22l.52.4,1.21,1a50.69,50.69,0,0,1,6.95,7.1l.34.47c.23.31.45.63.67.94.51.75,1,1.51,1.44,2.29s.75,1.34,1.1,2c.17.34.33.69.49,1l0,.07.17.4a29.14,29.14,0,0,1,1.4,4.64c.08.38.15.76.21,1.15v.08c.07.73.13,1.45.15,2.18s0,1.46,0,2.19c0,.34-.05.67-.08,1,0,.11,0,.23,0,.34a33.09,33.09,0,0,1-1,4.16l-.33.94-.18.47c-.31.82.08-.12.09-.21a6.4,6.4,0,0,1-1,1.92c-.35.62-.72,1.23-1.12,1.81-.15.22-.31.46-.48.67s-.2.2-.29.31c-.43.48-.88.95-1.35,1.39-.28.26-.57.5-.85.75l0,0-.18.13c-.55.36-1.09.72-1.67,1-.34.19-.68.35-1,.52l-.08,0-.54.2c-2,.72-4.13,1.18-6.2,1.75a39.43,39.43,0,0,0-6.47,2.44c-.81.38-1.61.82-2.39,1.27l0-44.48v-8.82l.17.06.24.11Z" transform="translate(-14.4 -392.13)"/><path class="cls-2" d="M261.08,544.94,261,545a1.12,1.12,0,0,0-.05.13L261,545Z" transform="translate(-14.4 -392.13)"/><path class="cls-2" d="M297.79,567.25q-3.12-13.79-5.45-27.71-1.17-7-2.14-14c-.05-.41-.11-.83-.17-1.25,0-.06-.16-1.23-.18-1.36-.14-1.13-.29-2.25-.43-3.38q-.44-3.63-.83-7.26A4.82,4.82,0,0,0,285.7,508a4.73,4.73,0,0,0-5.13,1,68,68,0,0,0-17.08,27.44c-.5,1.52-.89,3.06-1.26,4.6-2-3.41-4.17-6.73-6.39-10a178.12,178.12,0,0,0-12.43-16,4.67,4.67,0,0,0-4.57-1.2,4.83,4.83,0,0,0-3.28,3.28c-5.8,16.71-5,34.72-4.13,52.12.13,2.45,2.07,4.81,4.69,4.69,2.44-.11,4.84-2.06,4.7-4.69-.44-8.51-.86-17-.49-25.56.1-2.06.23-4.12.43-6.17.09-1,.21-2,.33-2.95,0-.21.12-.89.14-1,.08-.53.16-1,.25-1.58.21-1.24.46-2.48.73-3.71l.35.43.18.24.19.25.55.72,1.36,1.82c.89,1.23,1.77,2.46,2.63,3.71q2.66,3.82,5.08,7.81c1.55,2.54,2.83,5.38,4.65,7.74a6.88,6.88,0,0,0,10.37.78c2.07-2.07,2.85-4.77,3.49-7.53a60.45,60.45,0,0,1,2.37-7.8c.17-.47.36-.93.54-1.39.07-.16.26-.63.3-.7l.33-.75c.62-1.36,1.3-2.7,2-4a63.86,63.86,0,0,1,3.92-6.23q3,23.37,8.2,46.39a4.74,4.74,0,0,0,5.78,3.27A4.8,4.8,0,0,0,297.79,567.25Zm-36.87-22.1c-.05.05-.1.09-.09.07s.06-.13.14-.2a.38.38,0,0,1,.17-.2s0,0,0,.06a.33.33,0,0,0,0,.06l.07,0L261,545C260.91,545.28,260.88,545.26,260.92,545.15Z" transform="translate(-14.4 -392.13)"/><path class="cls-2" d="M315.13,528.18l-5.05-.11a4.7,4.7,0,1,0,0,9.39l3.4.07q-1.43,8.29-2.7,16.61t-2.34,16.57c-.32,2.44,2.39,4.8,4.7,4.69,2.82-.12,4.34-2.07,4.69-4.69,0-.14.11-.8.12-.89l.21-1.52c.15-1.13.31-2.27.47-3.4q.47-3.28.95-6.56,1-6.57,2.06-13.11c.41-2.5.86-5,1.3-7.49l11.8.25c1.52,5,2.83,10,4.12,15.11,1.12,4.4,2.58,8.87,5.22,12.62,1.41,2,4.17,3.14,6.42,1.68,2-1.28,3.2-4.27,1.69-6.42a23.33,23.33,0,0,1-1.46-2.33c-.2-.37-.39-.75-.57-1.13-.09-.19-.18-.38-.26-.57l-.07-.14a.62.62,0,0,1,0-.1c-.58-1.76-1.2-3.48-1.67-5.28-1-3.88-1.89-7.79-3-11.65-.15-.53-.31-1-.47-1.57h.64a4.7,4.7,0,0,0,0-9.39l-3.74-.08q-2.31-6.4-5.06-12.62-2.85-6.44-6.21-12.62c-1.27-2.36-4.19-2.76-6.42-1.69-4.25,2.05-5,7.08-5.84,11.2q-1.38,6.87-2.66,13.75C315.29,527.24,315.22,527.71,315.13,528.18Zm14-5.62.23.54.1.25c.12.28.24.57.35.85.59,1.43,1.14,2.88,1.69,4.33l-6.89-.15c.56-3,1.11-6,1.71-9,.13-.69.27-1.39.41-2.09.3.64.61,1.26.9,1.9.42.91.82,1.83,1.22,2.74Zm-.9-12.16v0l.05-.06a1.08,1.08,0,0,1-.08.19A.29.29,0,0,0,328.24,510.4Z" transform="translate(-14.4 -392.13)"/><path class="cls-2" d="M362.94,516.21l.77.08c.33.05.66.1,1,.17a29,29,0,0,1,2.93.7c.83.24,1.65.51,2.46.8l1.22.46.2.09.48.2a79.1,79.1,0,0,1,9.79,5.42q4.62,2.91,9.19,5.92-5.25,10.8-10.43,21.65c-1.05,2.21-.68,5.17,1.69,6.42,2.09,1.11,5.29.69,6.42-1.68q5.06-10.63,10.22-21.22l3.56,2.33,12,7.82a4.73,4.73,0,0,0,6.42-1.68,4.8,4.8,0,0,0-1.68-6.43L403,526.73q5.92-12.09,12-24.14c1.1-2.19.65-5.19-1.69-6.42-2.13-1.13-5.25-.66-6.42,1.68q-5.94,11.83-11.76,23.72c-5.88-3.9-11.76-8-18.19-10.88a43.07,43.07,0,0,0-14-3.87c-2.45-.23-4.8,2.32-4.69,4.69A4.82,4.82,0,0,0,362.94,516.21Z" transform="translate(-14.4 -392.13)"/><path class="cls-2" d="M325.39,585.1l-13.8.16a37.33,37.33,0,0,0-7.25.31c-3.35.71-5.13,3.75-5.09,7,0,3.52.16,7.05.3,10.58a4.42,4.42,0,0,0-1.82,3.67,5,5,0,0,0,2.13,3.91q.22,4.93.41,9.86a4.7,4.7,0,1,0,9.39,0l-.33-9.08h12.24a4.7,4.7,0,0,0,0-9.39H309l-.24-6.64c0-.26,0-.53,0-.79l4.09,0,12.57-.15a4.7,4.7,0,1,0,0-9.39Zm-19.06,9.63c-.41.07-.31,0,0,0Z" transform="translate(-14.4 -392.13)"/><path class="cls-2" d="M349.77,591.47c-.63,4.88.52,9.78.28,14.68a4.21,4.21,0,0,1-.09.49c-.1.44-.21.88-.35,1.31-.07.22-.15.43-.23.64q-.28.74.09-.18a3.6,3.6,0,0,1-.63,1.19c-.11.2-.23.38-.35.57-.3.41-.25.36.15-.16-.1.33-.65.68-.88.93l-.11.1-.18.12c-.12.08-.25.15-.38.22l-.45.14h-.49l-.1,0c-.19,0-.39-.11-.58-.18l-.16-.12s-.06-.08-.25-.25l-.06-.06c-.16-.34-.4-.89-.37-.71-.12-.45-.23-.9-.33-1.36,0-.12,0-.21,0-.28s-.05-.41-.07-.62a84.26,84.26,0,0,1-.19-15.64,4.72,4.72,0,0,0-4.7-4.7,4.81,4.81,0,0,0-4.69,4.7,84.68,84.68,0,0,0,.07,14.42,24.07,24.07,0,0,0,1.59,7.75,10.74,10.74,0,0,0,4.83,5.13,11.51,11.51,0,0,0,13.07-1.77c3.18-2.78,4.71-7,5.22-11.07.62-5.09-.89-10.17-.22-15.26.31-2.44-2.39-4.8-4.7-4.69C351.65,586.9,350.12,588.85,349.77,591.47Zm-3.48,20.12h.18C346.37,611.6,346.29,611.61,346.29,611.59Z" transform="translate(-14.4 -392.13)"/><path class="cls-2" d="M378.63,614.46q-.27-7.38-.55-14.75l-.27-7.37c-.05-1.29-.11-2.57-.14-3.86,0-.58,0-1.15,0-1.72,0-.06,0-.08,0-.13a4.37,4.37,0,0,1,.12-.49l.08-.14.14-.13.45-.26.17,0a3.74,3.74,0,0,1,.45-.12h0c.35,0,.85,0,.92,0l.27,0h.05a9.67,9.67,0,0,0,1,.27l.33.17c.13.08.82.55.92.6a16.37,16.37,0,0,1,1.82,1.81l.34.41,0,0c.31.43.62.86.91,1.31.59.88,1.14,1.79,1.68,2.69a4.7,4.7,0,1,0,8.11-4.74c-2.16-3.58-4.49-7-7.92-9.47a13.54,13.54,0,0,0-11.23-2.07,10.64,10.64,0,0,0-8,9.63,46.1,46.1,0,0,0,.09,6.22l.25,6.88.57,15.24a4.7,4.7,0,0,0,9.39,0Zm.19-29h0Z" transform="translate(-14.4 -392.13)"/><path class="cls-2" d="M413.1,594a34.54,34.54,0,0,0,3.45,2.94,4.6,4.6,0,0,0,4.82-.07c-.24.63-.48,1.25-.74,1.87,0,.1-.09.2-.13.31s-.07.15-.17.39c-.21.47-.41.95-.62,1.42-.84,1.88-1.73,3.73-2.66,5.57-1.9,3.73-4,7.37-6.26,10.89a4.75,4.75,0,0,0,1.68,6.43,4.81,4.81,0,0,0,6.43-1.69,127.71,127.71,0,0,0,18.47-47.7c.4-2.41-.64-5.17-3.28-5.77-2.27-.52-5.34.69-5.78,3.28a124.35,124.35,0,0,1-4.94,19.57l-.4-.93a4.52,4.52,0,0,0-.88-1.06,24.85,24.85,0,0,1-3.9-3.84,24.54,24.54,0,0,1-2.57-4.44l0-.1a5.13,5.13,0,0,0-2.16-2.81A4.69,4.69,0,0,0,407,580a4.6,4.6,0,0,0-.48,3.62,28.64,28.64,0,0,0,3.72,7A33.3,33.3,0,0,0,413.1,594Z" transform="translate(-14.4 -392.13)"/><path class="cls-2" d="M369.14,662.56c-4.68-.47-9.38-.72-14.07-.79a24.32,24.32,0,0,0,1.93-7.32c.67-6.21-1.42-12.91-4.87-18.06a7.74,7.74,0,0,0-11.16-3,14,14,0,0,0-6,6c-3,5.7-2.57,12.1-.55,18.05,1.13,3.34,2.66,6.53,3.73,9.89q.36,1.11.63,2.22c.11.45.22.9.3,1.35,0,0,.12.84.14.87a19.25,19.25,0,0,1,.08,2.4c0,.21,0,.42-.05.63,0-.19-.21,1.08-.25,1.24a4.7,4.7,0,0,0,9.06,2.5,21.37,21.37,0,0,0,.47-7.28,168,168,0,0,1,20.56.77c2.45.24,4.8-2.34,4.69-4.7A4.82,4.82,0,0,0,369.14,662.56ZM344,642.63s0,.1-.1.17S344,642.65,344,642.63Zm-.11.18c-.17.21-.43.43,0,0Zm-1.28,2.5c.09-.27.19-.54.28-.82a1.13,1.13,0,0,0,0-.24,12.18,12.18,0,0,1,.68-1.07l.28-.38c.13-.12.37-.45.6-.68l.08,0c.11.17.22.34.32.51.28.5.55,1,.81,1.52.13.26.25.51.37.77l.11.23.08.23a27,27,0,0,1,1,3.28c.07.27.13.55.18.83,0,0,.07.42.12.67s0,.35,0,.4c0,.36.06.71.07,1.07a18.25,18.25,0,0,1,0,2.09c0,.26,0,.51-.07.77.11-1.14,0,0-.06.28a17.81,17.81,0,0,1-.47,1.88c-.07.24-.15.49-.24.73s-.33.78-.28.7a21.43,21.43,0,0,1-1.08,1.94c-.85-2.12-1.72-4.24-2.38-6.42a34.32,34.32,0,0,1-.81-3.44,1,1,0,0,1,0-.2c0-.3-.06-.61-.07-.91a13.94,13.94,0,0,1,0-1.71c0-.1,0-.26,0-.41a2,2,0,0,0,.07-.23Q342.43,646,342.63,645.31Zm-.33,4.92Z" transform="translate(-14.4 -392.13)"/><path class="cls-2" d="M389.27,668.73Z" transform="translate(-14.4 -392.13)"/><path class="cls-2" d="M395.33,649.85a21.4,21.4,0,0,0-9-.12,4.1,4.1,0,0,0-4-.8,6.74,6.74,0,0,0-4.36,4.48,20.27,20.27,0,0,0-.6,4.39,30.73,30.73,0,0,0,.37,9c1.1,5.27,5.1,10.49,10.59,11.62s10.7-1.83,13.56-6.58,3.78-11.21,1.23-16.12A12.42,12.42,0,0,0,395.33,649.85Zm-4.17,19.48h-.06C390.53,669.5,390.84,669.38,391.16,669.33ZM394.4,666Zm.24-.71c-.05.18-.11.36-.17.53v0c-.32.6-.6,1.21-1,1.79l-.14.2c-.24.26-.47.53-.72.77l-.22.19c-.26.14-.5.31-.75.45h-.06l-.3.08a7.36,7.36,0,0,0-.81,0l-.37-.09-.16-.05,0,0-.5-.28c-.18-.12-1-.48-.35-.22l.21.08a1,1,0,0,1-.29-.18l-.42-.41-.33-.37c-.19-.27-.37-.54-.54-.82s-.19-.35-.28-.52l-.07-.14c-.14-.41-.28-.81-.39-1.24-.06-.24-.12-.48-.17-.72a3.73,3.73,0,0,0-.1-.39,15.54,15.54,0,0,1-.1-3.34c0-.48,0-1,.07-1.45l1.47-.25.58-.09.37,0a11.67,11.67,0,0,1,3.18,0c.2.07.46.14.58.17s.39.13.59.18l.89.51.34.32.21.31,0,0c.05.22.13.42.18.64l.05.3c0,.1,0,.19,0,.23,0,.48,0,1,0,1.44l0,.4c-.06.31-.1.63-.17.92S394.76,664.89,394.64,665.24Z" transform="translate(-14.4 -392.13)"/><path class="cls-2" d="M473.52,584.51a4.78,4.78,0,0,0-4.69,4.69q-.49,12.63-1,25.26c-.16,4.14-.25,8.29-.52,12.42-.06.93-.13,1.87-.24,2.8l-.06.53v.08c-.06.29-.11.59-.16.88-6.34-1.28-13.22,1.13-17.9,5.47a18.76,18.76,0,0,0-5.51,9.32,15.71,15.71,0,0,0,.18,7.91c-.55-.57-1.1-1.14-1.63-1.72s-1.15-1.29-1.7-1.95l-.83-1-.4-.51-.06-.08a74,74,0,0,1-5.64-9,4.72,4.72,0,0,0-5.3-2.15,5,5,0,0,0-1.8,1,15.15,15.15,0,0,0-17,13.89c-.53,4.62,1.65,10.67,6.78,11.62,5.63,1,10-3.71,13-7.86a24.38,24.38,0,0,0,1.76-2.88,68.4,68.4,0,0,0,8.16,9.18,4.77,4.77,0,0,0,6.64,0A5.14,5.14,0,0,0,447,658.8a11.55,11.55,0,0,0,13.66-.08c3.71-2.65,6.22-6.62,8.74-10.36a42.14,42.14,0,0,0,6-12.14c1.28-4.65,1.41-9.54,1.6-14.33q.63-16.33,1.27-32.69A4.74,4.74,0,0,0,473.52,584.51Zm-56,70.37c-.16.1-.3.18-.34.15A.74.74,0,0,1,417.5,654.88Zm1.38.44h0l0,0C419.42,656,419.1,655.59,418.88,655.32Zm2.33-4.2-.37.51c-.29.34-.57.69-.87,1-.43.47-.88.91-1.34,1.33,0-.33,0-.66,0-1a5.78,5.78,0,0,1,.12-.57c.09-.36.2-.69.31-1l.29-.56c.18-.32.39-.62.58-.92-.61,1,.24-.25.44-.45s.29-.27.44-.4c.34-.21.68-.41,1-.63a1.25,1.25,0,0,0,.23-.11l.39-.14L423,648c-.12.24-.23.48-.35.71A22.14,22.14,0,0,1,421.21,651.12Zm43.56-10.79h0Zm-2.62-.07a1.88,1.88,0,0,1-.44,0C462,640.26,462.14,640.23,462.15,640.26ZM452.53,651c-.07-.19-.07-.38,0,0Zm.19.51h0c-.11,0-.2-.06-.21-.09Zm-.13-.26s.06,0,.11.1Zm1,.41s.06,0,.15,0Zm5.9-5.5c-.52.73-1.07,1.45-1.58,2.2l0,0-.24.29c-.3.36-.6.72-.93,1.06s-.57.56-.86.83l-.16.17-.15.09c-.29.18-.62.34-.91.53a5,5,0,0,1-.51.16l-.32.09-.35,0s.09,0,.08.07l-.28-.06c-.23,0-.21,0-.1,0l-.21,0-.09-.05-.09-.1-.21-.34a.14.14,0,0,1,0-.06c0-.15-.06-.35-.1-.48s-.05-.35-.05-.43c0-.35,0-.7,0-1.06v-.13h0c.16-.73.36-1.43.59-2.14a.13.13,0,0,0,0,0c.15-.28.29-.56.44-.83s.33-.55.5-.81l.22-.31c.46-.51.9-1,1.41-1.51.18-.16.6-.69.84-.73,0,0-.77.54-.32.25.23-.14.44-.31.66-.45a14.42,14.42,0,0,1,2-1.11l.25-.12c.34-.1.66-.25,1-.35.13,0,1.09-.31,1.69-.45h0l.63-.06c.35,0,.7,0,1.05,0C462.17,642.27,460.86,644.23,459.5,646.17Z" transform="translate(-14.4 -392.13)"/><path class="cls-2" d="M453.17,651.63l.1,0h.2A.76.76,0,0,0,453.17,651.63Z" transform="translate(-14.4 -392.13)"/><path class="cls-2" d="M442.58,512.7a4.7,4.7,0,1,0-4.7-4.69A4.78,4.78,0,0,0,442.58,512.7Z" transform="translate(-14.4 -392.13)"/><path class="cls-2" d="M439.42,550.9a4.7,4.7,0,1,0,4.69-4.7A4.77,4.77,0,0,0,439.42,550.9Z" transform="translate(-14.4 -392.13)"/></svg>