<svg id="Layer_1" data-name="Layer 1" xmlns="http://www.w3.org/2000/svg" viewBox="0 0 501.27 712.7"><defs><style>.cls-1{fill:#f89a49;}.cls-2{fill:#7f441d;}</style></defs><title>music</title><path class="cls-1" d="M25.18,220.56,526.45,727.14V14.44C331,14.44,153.94,93.15,25.18,220.56Z" transform="translate(-25.18 -14.44)"/><path class="cls-2" d="M158.77,246.25a118.36,118.36,0,0,0-35.86-14.11,283.67,283.67,0,0,0,27.37-25.08c5.43-5.68-3.19-14.33-8.63-8.63A275.59,275.59,0,0,1,115,223c-2.52-9-5-18.1-7.27-27.2-3.21-12.69-22.83-7.31-19.62,5.41q11.4,45.07,26.38,89.14c1.76,5.2,7,8.62,12.51,7.1,5.07-1.39,8.88-7.29,7.1-12.51q-6.89-20.28-13-40.82a107.14,107.14,0,0,1,31.55,12.67C159.36,260.84,165.5,250.29,158.77,246.25Z" transform="translate(-25.18 -14.44)"/><path class="cls-2" d="M191.91,260.72l.2-38.31h8.23a6.23,6.23,0,0,0,4.14-1.68c1.73,4.29,3.31,8.64,4.7,13.07,2.35,7.47,14.13,4.28,11.77-3.25a188.92,188.92,0,0,0-29.43-57.45c-3.45-4.56-11.34-3.48-11.38,3.08q-.09,18.21-.19,36.41a5.45,5.45,0,0,0-1.31,3.72,6.7,6.7,0,0,0,1.27,3.61l-.21,40.8C179.66,268.57,191.86,268.58,191.91,260.72Zm.33-64.65q4.11,6.9,7.59,14.13h-7.66Q192.21,203.14,192.24,196.07Z" transform="translate(-25.18 -14.44)"/><path class="cls-2" d="M213.18,191l27.14,15.26a6,6,0,0,0,2,.65,376.34,376.34,0,0,1-12.92,39c-2.88,7.31,8.92,10.48,11.77,3.24a378.13,378.13,0,0,0,22.87-89.3c.43-3.3-3.12-6.07-6.11-6.1-3.65,0-5.67,2.84-6.1,6.1a352.43,352.43,0,0,1-6.5,35.19q-13-7.31-26-14.62c-2.79-1.56-6.8-.75-8.35,2.19A6.2,6.2,0,0,0,213.18,191Z" transform="translate(-25.18 -14.44)"/><path class="cls-2" d="M238.36,134.76a176.76,176.76,0,0,0,37.41,20.76,6.07,6.07,0,0,0-1,3.17q-2,41.38-1.23,82.82c.14,7.85,12.35,7.87,12.21,0q-.73-40.93,1.19-81.86a177.25,177.25,0,0,0,20,5.4c7.67,1.57,11-10.19,3.24-11.77a168.8,168.8,0,0,1-65.62-29.06c-2.66-2-6.8-.45-8.35,2.19C234.37,129.5,235.69,132.81,238.36,134.76Z" transform="translate(-25.18 -14.44)"/><path class="cls-2" d="M317.75,235.49c-.43,3.28,3.11,6.1,6.1,6.1,3.66,0,5.67-2.81,6.1-6.1,1-7.51.48-15,.09-22.56a6.2,6.2,0,0,0,1.22,1Q345,222.06,358,231.32c2.68,1.91,6.79.48,8.35-2.19,1.79-3.06.5-6.43-2.19-8.35-6.23-4.43-12.64-8.61-19.12-12.67a49.15,49.15,0,0,0,11.87-16.18c3.49-7.77,8.05-21.3.66-28.16-8-7.46-22.48,1.15-28.68,7.29-7.68,7.62-10.74,18.05-11.26,28.62C317.05,211.63,319.32,223.56,317.75,235.49ZM339,178.32a24.24,24.24,0,0,1,5.06-3.25c.57-.28,3.7-1,5.08-1.51,0,.82,0,1.64-.13,2.46a38.29,38.29,0,0,1-17.77,27.34,6,6,0,0,0-1.49,1.33c0-.37,0-.74,0-1.1C329.77,194.21,331.5,184.67,339,178.32Z" transform="translate(-25.18 -14.44)"/><path class="cls-2" d="M383.31,242.77c3.51,0,5.86-2.81,6.1-6.11.39-5.17.91-10.33,1.51-15.48.09,0,.18,0,.28,0h12.36q4.05,12.18,8.08,24.36c2.47,7.42,14.26,4.24,11.77-3.25q-3.95-11.92-7.91-23.86a5.51,5.51,0,0,0,1-3.36,6.35,6.35,0,0,0-4-5.7l-1.86-5.62C408.7,198,407,192,404.73,186.31c-2-5-4.79-9.85-9.83-12.33-3.34-1.65-8-.44-9,3.65a412.34,412.34,0,0,0-8.73,59C377,240,380.19,242.77,383.31,242.77Zm11.53-47.83q2.36,7,4.67,14.06h-7Q393.55,202,394.84,194.94Z" transform="translate(-25.18 -14.44)"/><path class="cls-2" d="M248.75,281.24c-3-.84-6.82,1-7.51,4.26Q236.47,308,230.2,330l-27.86-43.78c-2.2-3.46-8.61-4.47-10.54,0a100.44,100.44,0,0,0-8.24,47.68c.25,3.28,2.62,6.1,6.1,6.1,3.1,0,6.36-2.8,6.1-6.1a90.17,90.17,0,0,1,2.85-30.82L227,347.73a6.18,6.18,0,0,0,11.15-1.46q8.67-28.42,14.85-57.52A6.25,6.25,0,0,0,248.75,281.24Z" transform="translate(-25.18 -14.44)"/><path class="cls-2" d="M279.64,325.33l1.08-.15c1.3-.15,2.6-.29,3.9-.4,3.52-.31,7.05-.41,10.58-.42,2.44,7.08,4.92,14.14,7.51,21.16,2.69,7.31,14.49,4.15,11.77-3.25-2.91-7.9-5.69-15.86-8.41-23.83,0-.05,0-.1,0-.15a6.4,6.4,0,0,0-1.2-3.36q-7-20.79-13.21-41.84c-1.74-6-9.89-5.64-11.77,0-8.56,25.64-31.66,46.26-29,75.23.7,7.76,12.91,7.83,12.21,0-.69-7.61.82-14.83,3.41-21.74a6.43,6.43,0,0,0,4,.42q3.82-.84,7.7-1.46Zm-6-13.68c3.68-6.5,7.58-12.87,11.06-19.45q3.09,10,6.39,20a131.84,131.84,0,0,0-18.9,2.1C272.66,313.41,273.13,312.53,273.63,311.65Z" transform="translate(-25.18 -14.44)"/><path class="cls-2" d="M376.89,330.33c3.71-4.76,7.81-10.33,7.9-16.62.07-5.57-2.12-11.61-3.94-16.83C377.17,286.36,371.19,277,360.3,273c-11.29-4.1-23.53-.3-35.14-1.64-3.28-.38-6.1,3.08-6.1,6.1,0,.24,0,.46.06.68-2.86,1.43-4.83,4.82-2.82,8.44a229.07,229.07,0,0,1,21.86,55,5.4,5.4,0,0,0,3.55,4,6.08,6.08,0,0,0,.74,2.75c1.83,3.13,5.32,3.5,8.35,2.19A66.7,66.7,0,0,0,376.89,330.33Zm-27.2,7.19a242,242,0,0,0-21-53.68c8.26.23,16.7-1.66,24.8,0,8.54,1.7,12.91,8.58,15.62,16.32,1.36,3.89,3.43,8.84,3.48,13,.06,3.74-3.68,8-5.95,10.68A57.5,57.5,0,0,1,349.69,337.52Z" transform="translate(-25.18 -14.44)"/><path class="cls-2" d="M444.82,308.38c-1.53-3.28-2.87-6.67-4.18-10.06-3.8-9.83-7.68-19.37-14.4-27.61-3.15-3.86-8.8-1.18-10.2,2.7a286.49,286.49,0,0,0-16.87,91.73c-.15,7.86,12.06,7.86,12.21,0a273.71,273.71,0,0,1,4.7-45.5h21a47.18,47.18,0,0,0,9.75,12.67c5.83,5.24,14.49-3.36,8.63-8.63a40.68,40.68,0,0,1-7.79-9.82c0-.11,0-.22,0-.33A6.48,6.48,0,0,0,444.82,308.38Zm-26.13-.95q2.21-9.36,5.05-18.56c3.07,5.94,5.34,12.31,7.81,18.56Z" transform="translate(-25.18 -14.44)"/><path class="cls-2" d="M458.67,498a653.15,653.15,0,0,1-11.21-72.7c-.37-3.84-3.61-7.07-7.72-5.88a153.75,153.75,0,0,1-65,4.52c-5.26-.78-9.46,3.9-6.89,9A330.29,330.29,0,0,1,392.14,496c.4,1.47,1,3.23,1.57,5.07-4.77-.5-9.53-1.59-14.35.69-5.47,2.6-9.2,8.94-7.5,15,3.66,13.08,27.25,9.84,32.92.18a15,15,0,0,0,1.85-5.36c3.71-2.51,2.88-8.3-.6-10.37-.25-1.17-.51-2.32-.8-3.45q-3.18-12.62-7.38-24.94A346.57,346.57,0,0,0,383.37,437a167.43,167.43,0,0,0,52.73-4.06q3.28,30.42,9.26,60.46c-9.88.23-23.4,2.31-18.91,13.07,4.41,10.57,22,6.89,29.12,2.11a6,6,0,0,0,2.64-6.4A7,7,0,0,0,458.67,498Zm-75,15.23h0C384.27,513.61,383.45,513.42,383.7,513.19Zm2.41-.34a9.35,9.35,0,0,0-1.28,0,13,13,0,0,1,4.47-.42l1.46.13A29,29,0,0,1,386.11,512.85Z" transform="translate(-25.18 -14.44)"/><path class="cls-2" d="M461.17,83.85c-4.46-3.07-9-6-13.51-9a268.35,268.35,0,0,1,12-27.74c3.12-6.17-4.37-12.19-9.58-7.4-7.76,7.11-15.1,14.64-22.2,22.38-2.72-1.71-5.41-3.46-8.15-5.14-4.35-2.67-10.74,1.8-9,6.89a132.21,132.21,0,0,1,3.88,13.47c-5.81,7-11.45,14.23-16.74,21.68-2.65,3.73.87,9.43,5.27,9.19q7.51-.42,14.91-1.5A134.72,134.72,0,0,1,416.92,125c-.43,3.27,3.11,6.1,6.1,6.1,3.66,0,5.67-2.82,6.11-6.1.11-.84.16-1.68.25-2.51a5.7,5.7,0,0,0,4.18-4.1q2.4-8,4.86-16a174.42,174.42,0,0,0,22.75-8C465.74,92.41,464.5,86.14,461.17,83.85Zm-44.9,10.8c.36-.46.69-.94,1.05-1.4.05.41.1.81.14,1.21Zm13.08-4c-.4-3.42-.94-6.82-1.59-10.2.75-.87,1.47-1.77,2.22-2.64,1,.64,2,1.26,3,1.9Q431.11,85.18,429.35,90.67Zm13.53-2.23.6-1.76,1.52,1C444.29,87.94,443.59,88.21,442.88,88.44Z" transform="translate(-25.18 -14.44)"/><path class="cls-2" d="M317.25,365.28c-4.46-2.09-9.64-2.11-13.11,1.79-3,3.41-3.47,8.77-3.89,13.11a47.45,47.45,0,0,0-.16,6.19l-10.19-1.86c-4.36-.79-9.63-2.68-13.35.71-2.82,2.58-3.25,6.83-3.31,10.45a29.35,29.35,0,0,0,1.87,10.66,30.32,30.32,0,0,0,14.28,16.22c6.89,3.63,14.69,5.41,22.12,7.58,3.91,1.15,8.85,3.54,13,2.7,4.61-.95,6.74-5,7-9.41.41-8.4-.24-17-.37-25.42C330.88,386.26,329.39,371,317.25,365.28Zm-4,10.12c.07-1,.31-.13,0,0Zm-31,20.08c-.71.11-1.26-.24,0,0Zm29.44,22c-4.71-1.38-9.64-2.53-14.15-4.49a19.69,19.69,0,0,1-10-8.67,17.58,17.58,0,0,1-2-6.07,17.26,17.26,0,0,1-.09-2.16l4.41.8,9.67,1.76a8,8,0,0,0,2.53,0,60.26,60.26,0,0,0,3.2,8.68c1.39,3,5.71,3.74,8.36,2.19,3.07-1.8,3.57-5.35,2.18-8.35a38.77,38.77,0,0,1-3.46-13.58,45.81,45.81,0,0,1,.11-7.41,25.91,25.91,0,0,1,.43-2.78,4.81,4.81,0,0,1,.12-.48c.29.2.51.34.39.24a9.76,9.76,0,0,1,2.77,3.73,29.43,29.43,0,0,1,2.31,9.18c1,9.76.68,19.77.74,29.6Z" transform="translate(-25.18 -14.44)"/></svg>