<svg id="Layer_1" data-name="Layer 1" xmlns="http://www.w3.org/2000/svg" viewBox="0 0 287.6 765.64"><defs><style>.cls-1{fill:#f1b2d1;}.cls-2{fill:#ee224e;}</style></defs><title>never</title><polygon class="cls-1" points="0 765.64 287.6 765.64 287.6 284.82 0 0 0 765.64"/><path class="cls-2" d="M40.69,227.18c2.61.17,5.22.41,7.82.74L49,228l.51.07q.89.12,1.77.27-.59,26.16.45,52.32c0,.06,0,.12,0,.18-3.49,1.38-7,2.81-10.4,4.33-2.45,1.08-3.2,4.84-1.83,7,1.64,2.54,4.36,3,7,1.83l2.19-.95.88-.38.21-.09.11,0c1.4-.58,2.79-1.16,4.2-1.71,2.81-1.12,5.63-2.19,8.48-3.2q8.55-3.06,17.28-5.49a5.1,5.1,0,1,0-2.71-9.83c-5.16,1.44-10.26,3.06-15.32,4.82q-.84-23.34-.37-46.72,4.62,1.11,9.15,2.55a5.14,5.14,0,0,0,6.27-3.56,5.22,5.22,0,0,0-3.56-6.27A135.55,135.55,0,0,0,40.69,217a5.13,5.13,0,0,0-5.1,5.1A5.21,5.21,0,0,0,40.69,227.18Z" transform="translate(-12.59 -9.84)"/><path class="cls-2" d="M110.9,247.68c2.94.67,5.21-.9,6.27-3.56a126.44,126.44,0,0,0,7.59-27.94c.4-2.63-.66-5.61-3.56-6.27-2.43-.56-5.85.74-6.27,3.56a126.44,126.44,0,0,1-7.59,27.94C106.34,243.89,108.42,247.12,110.9,247.68Z" transform="translate(-12.59 -9.84)"/><path class="cls-2" d="M141.13,282.43a5.17,5.17,0,0,0,5.1-5.1q-.34-12,.11-24.08l10.68,12c2.18,2.43,6.48,1.71,8-1,2.69-4.82,5.45-9.61,8.23-14.39l9.84,23.91a5.59,5.59,0,0,0,2.34,3,5.25,5.25,0,0,0,3.93.52c2.37-.77,4.65-3.63,3.56-6.27l-14-33.95c-.79-1.93-2-3.35-4.23-3.65a5.11,5.11,0,0,0-5.08,2.44q-5.07,8.48-9.94,17.09-7.08-8-14.17-15.92A5.07,5.07,0,0,0,140,236a5.22,5.22,0,0,0-3.13,4.66,365.17,365.17,0,0,0-.8,36.69A5.17,5.17,0,0,0,141.13,282.43Z" transform="translate(-12.59 -9.84)"/><path class="cls-2" d="M80.58,346.28q-1.41,12.48-2.83,25l-1,8.53a271.06,271.06,0,0,0-17-30q-3.85-5.88-8-11.55c-1.31-1.78-3.47-3.09-5.76-2.35a5.27,5.27,0,0,0-3.75,4.92l.09,56.7q0,8.12,0,16.23a5.1,5.1,0,0,0,10.2,0l-.08-56.46a270,270,0,0,1,15.74,28q1.53,3.17,3,6.37c.47,1,.93,2.07,1.38,3.11.22.48.43,1,.64,1.45.12.28.24.56.35.84s.49,1.15.11.24c.8,1.89,2.54,4,4.92,3.74a6.93,6.93,0,0,0,4.55-1.93,8.17,8.17,0,0,0,2-3.57,50.79,50.79,0,0,0,.91-7.2l1.59-14.09q1.59-14,3.16-27.92c.31-2.66-2.56-5.22-5.09-5.1C82.66,341.31,80.9,343.43,80.58,346.28Z" transform="translate(-12.59 -9.84)"/><path class="cls-2" d="M107.5,417.37l9.49.37a5.14,5.14,0,0,0,5.1-5.1,5.21,5.21,0,0,0-5.1-5.1l-7.79-.3-2.81-.11.54-3.93c.33-2.5.64-5,.92-7.53.35-3.17.64-6.35.9-9.53l.27,0h15.22a5.1,5.1,0,0,0,0-10.19H109.43c.19-3.78.35-7.55.42-11.33s.07-7.4,0-11.09h8.57a5.27,5.27,0,0,0,3.6-1.49,5.1,5.1,0,0,0-3.6-8.71H108.15a4.65,4.65,0,0,0-3.52-1.45,5.18,5.18,0,0,0-5.1,5.1q.54,16.65-.53,33.3-.54,8.31-1.49,16.58c-.16,1.38-.32,2.76-.5,4.14-.08.65-.16,1.29-.25,1.94v.1c-.07.49-.13,1-.2,1.46-.44,3.1-1.33,6.4.37,9.3C99.15,417.62,103.69,417.22,107.5,417.37Zm-1.48-7.8h0v0C105.92,410.08,106,409.86,106,409.57Zm0-.1c0-.18.14-.62,0,0Z" transform="translate(-12.59 -9.84)"/><path class="cls-2" d="M129.2,358.82c0,.07.07.15.11.22a1.87,1.87,0,0,0,.1.26c.34.88.67,1.77,1,2.68.6,1.8,1.1,3.64,1.52,5.5s.77,3.75,1.06,5.64l.21,1.43.06.39v.1c.12,1,.23,1.93.34,2.89.9,8,1.39,16.06,3.15,23.92A56.58,56.58,0,0,0,141.39,415c2.31,4.59,9.57,2.32,9.5-2.57a116.72,116.72,0,0,1,.49-12.82c.09-1,.2-2,.31-3,0-.15.12-.91.13-1.07.05-.33.1-.66.14-1q.48-3.18,1.12-6.32a118.33,118.33,0,0,1,3.1-12q1-3.06,2.09-6.06c.38-1,.77-2,1.17-3,.05-.12.25-.58.32-.76.2-.46.4-.93.61-1.39,1.07-2.43.79-5.59-1.83-7-2.22-1.17-5.83-.77-7,1.83a129,129,0,0,0-7.39,21.75,147.75,147.75,0,0,0-2.26-16.1,58.73,58.73,0,0,0-4.51-13.19c-1.16-2.4-4.79-3.23-7-1.82a5.22,5.22,0,0,0-1.82,7C128.8,358,129,358.39,129.2,358.82Z" transform="translate(-12.59 -9.84)"/><path class="cls-2" d="M191.69,381.8a174.66,174.66,0,0,1-18.14,4.63V360.07h11.58a5.1,5.1,0,1,0,0-10.2H171.05a4.54,4.54,0,0,0-2.61-.71,5.19,5.19,0,0,0-5.1,5.1q0,31.88,0,63.76c0,2.51,2.35,5.45,5.1,5.1A87.12,87.12,0,0,0,190,417.73c2.47-1,4.48-3.45,3.56-6.27-.77-2.39-3.62-4.62-6.27-3.57a81.14,81.14,0,0,1-9.71,3.21c-1.34.35-2.69.66-4.05.94q0-7.64,0-15.26a173.84,173.84,0,0,0,20.85-5.15c2.54-.8,4.43-3.59,3.56-6.27A5.17,5.17,0,0,0,191.69,381.8Z" transform="translate(-12.59 -9.84)"/><path class="cls-2" d="M213.42,375.77q.27,1.67.51,3.33c.08.56.16,1.12.23,1.67l0,.18c.05.36.09.73.14,1.09q.46,3.58.82,7.17.72,7.31,1,14.64.34,8.17.19,16.36a5.14,5.14,0,0,0,5.09,5.1,5.19,5.19,0,0,0,5.1-5.1,266.11,266.11,0,0,0-1.75-35.81,156.94,156.94,0,0,0,28.64,15.8,5.64,5.64,0,0,0,3.93.52,5.19,5.19,0,0,0,3-2.35c1.16-2.18.8-5.86-1.83-7a157.52,157.52,0,0,1-27.51-15,24.28,24.28,0,0,0,4.3-14.79,22,22,0,0,0-11.2-18.05,20.38,20.38,0,0,0-12-2.64,5.31,5.31,0,0,0-4,2,5,5,0,0,0-.91,4.44A260.86,260.86,0,0,1,213.42,375.77Zm7.92-21.83c.51.46,1.5,1.18,1.72,1.82-.42-.56-.47-.62-.14-.17l.2.29c.27.39.52.8.76,1.22s.32.62.48.93c.06.15.12.31.17.46a21.08,21.08,0,0,1,.62,2.46h0c0,.07,0,.15,0,.26,0,.42.05.84.05,1.26s0,1-.05,1.45l0,.36c-.07.57,0,.48.05-.28a6.6,6.6,0,0,1-.56,2.49c-.13.46-.3.92-.45,1.38l0,.1v0c-.38.77-.76,1.52-1.21,2.25,0,.05-.07.11-.11.17-.53-3.15-1.11-6.3-1.75-9.43q-.9-4.32-1.94-8.6a9.94,9.94,0,0,1,1,.59,3.94,3.94,0,0,1,.88.61C220.11,352.57,221.09,353.71,221.34,353.94Z" transform="translate(-12.59 -9.84)"/><path class="cls-2" d="M48.57,507.55A5.12,5.12,0,0,0,53.65,510a5,5,0,0,0,4.24-3.65,56.53,56.53,0,0,1,1.41-6q.44-1.49,1-2.94c.2-.55.4-1.11.62-1.65l.26-.66a56.85,56.85,0,0,1,2.64-5.3c.25-.45.54-1.11.88-1.68a10,10,0,0,1,1,1.2l.47.69,1.17,1.59,2.05,2.79,8.18,11.17c1.3,1.77,3.47,3.08,5.76,2.34a5.37,5.37,0,0,0,3.74-4.92q2-20,3.92-40c.27-2.67-2.53-5.22-5.09-5.1-3,.13-4.82,2.24-5.1,5.1L78.2,489.24l-3-4a27.65,27.65,0,0,0-3.93-4.75,10.9,10.9,0,0,0-6.71-3,8.89,8.89,0,0,0-6.83,3c-2.53,2.86-4.24,6.61-5.72,10.1-.3.71-.58,1.43-.86,2.15-1.83-2.92-3.62-5.86-5.26-8.88-.39-.72-.77-1.46-1.12-2.2,0-.12-.6-1.47-.2-.43-.13-.35-.27-.69-.4-1.05a24.41,24.41,0,0,1-.71-2.35c-.11-.46-.21-.91-.29-1.37,0-.1-.08-.75-.1-.88a73,73,0,0,1,.18-10.35,5.11,5.11,0,0,0-5.1-5.1,5.21,5.21,0,0,0-5.09,5.1A55.17,55.17,0,0,0,33,476.4a34.28,34.28,0,0,0,3.72,11.78c1.68,3.23,3.7,6.28,5.62,9.37Zm16.67-20.2-.06,0a.53.53,0,0,1,.13-.13A.55.55,0,0,0,65.24,487.35Z" transform="translate(-12.59 -9.84)"/><path class="cls-2" d="M119.78,502.2a5.13,5.13,0,0,0,7.21,0,5.21,5.21,0,0,0,0-7.21l-8.36-9.62-.71-.8a15.64,15.64,0,0,0,6.45-7.1c1.86-4.19,2.22-8.67,2.16-13.2-.06-4-.36-8.63-3.75-11.38-3.55-2.87-8.57-3.13-12.77-1.58a18.08,18.08,0,0,0-9.33,7.52c-2.22,3.69-2.69,8.1-2.71,12.32,0,9.6.15,19.19.22,28.78a5.1,5.1,0,1,0,10.2,0l-.09-10.81c.93,1.05,1.9,2.07,2.8,3.09Zm-5.12-21.3a.17.17,0,0,0,.25,0l-.08.18Zm1.62-20.23h0C116.53,460.77,116.71,460.88,116.28,460.67Zm-.26-.1h0l-.25,0S115.91,460.54,116,460.57Zm-7.81,16.73c0-.45,0-.91,0-1.37,0-1.81,0-3.63,0-5.45,0-.89.08-1.78.12-2.67a2.18,2.18,0,0,0,0-.24c0-.05,0-.09,0-.16.12-.58.22-1.15.39-1.71.08-.29.18-.56.27-.84,0-.05,0-.08,0-.12a.85.85,0,0,0,.09-.14c.19-.3.35-.63.55-.93l.2-.3c.32-.45.27-.39-.15.17.11-.5,1.16-1.19,1.53-1.53h0l.12-.07c.42-.23.81-.51,1.24-.73L113,461a2.33,2.33,0,0,0,.37-.08c.34-.1.7-.17,1-.27l.1,0c.35,0,.71,0,1.07,0H116c0,.09.07.16.08.21a3.15,3.15,0,0,0,.14.39c0,.28,0,.59,0,.82.1,1.9.11,3.83,0,5.74,0,.62-.08,1.24-.14,1.86,0,.14-.14.79-.16.89-.1.45-.21.89-.34,1.33a7.15,7.15,0,0,1-.3,1l-.19.29c-.17.33-.35.64-.54.94s-.19.28-.28.42a10,10,0,0,0-1.22,1.15l-.17.11-.31.17c-.5.25-.41.23.27-.07-.31.38-1.55.42-2,.5A8.66,8.66,0,0,0,108.21,477.3Z" transform="translate(-12.59 -9.84)"/><path class="cls-2" d="M159.08,489.91h0Z" transform="translate(-12.59 -9.84)"/><path class="cls-2" d="M151.92,495.13h0Z" transform="translate(-12.59 -9.84)"/><path class="cls-2" d="M151.08,494.26a.43.43,0,0,0,.07.1l.1.12A1.05,1.05,0,0,0,151.08,494.26Z" transform="translate(-12.59 -9.84)"/><path class="cls-2" d="M152.27,469.19a5.79,5.79,0,0,0-2.71-.62,4.13,4.13,0,0,0-1.41-.62,5.23,5.23,0,0,0-6.27,3.56c-2.08,5.83-2,12.22-1.88,18.33.08,3.23.47,6.57,2.17,9.4a14.75,14.75,0,0,0,7.76,6.2c6.22,2.24,12.88-.58,16.66-5.7S169.8,487.5,167,482C164,476,158.05,472.14,152.27,469.19Zm6.25,18.51Zm-3.81,8.4h0Zm2.37-1c.25-.18.64-.37,0,0Zm-.15.15s0-.06.09-.1Zm2.19-3.9c0,.05,0,.28-.05.47.06-.28.17-.57,0,0a1.39,1.39,0,0,0,0,.27s0-.12,0-.23v0c-.07.25-.12.5-.19.75,0,.07-.14.34-.21.53l-.35.64c-.05.06-.11.19-.19.31a1.31,1.31,0,0,0-.12.11c-.07.06-.7.62-.95.88l-.75.44-.22.12-.07,0c-.17,0-.56.22-.9.31l-.24,0h-.74l-.2,0-.42-.14-.41-.13a12.47,12.47,0,0,0-1.17-.62c.08.06.14.1.13.12l-.14-.13h0c-.65-.39-.24-.18,0,0l-.38-.36s-.16-.17-.28-.29c.11.17.16.29-.1-.12l-.12-.12s0,0,.05,0h0c-.12-.19-.21-.4-.33-.59-.12-.45-.26-.9-.37-1.35a2,2,0,0,1-.06-.23c0-.18,0-.37,0-.53-.05-.64-.06-1.28-.08-1.93-.06-2.71-.11-5.43.06-8.14,0-.58.09-1.14.14-1.72.85.5,1.69,1,2.5,1.56l.91.66c.34.27.67.54,1,.83a32,32,0,0,1,2.28,2.38c-.76-.84.18.27.37.57s.54.91.78,1.38c0,.09.12.21.19.34s0,.15.07.26c.16.51.33,1,.45,1.51.05.22.09.44.14.66,0-.05,0-.09,0-.09v.1s0,.06,0,.1c.19.9,0,.18,0-.1C159.09,490.24,159.12,491.27,159.12,491.37Z" transform="translate(-12.59 -9.84)"/><path class="cls-2" d="M159.07,491.86v0a.13.13,0,0,1,0,.06Z" transform="translate(-12.59 -9.84)"/><path class="cls-2" d="M194.74,471.4c.44.58.5.65.17.21l-.2-.29c-.24-.33-.47-.67-.69-1-.8-1.23-1.54-2.5-2.35-3.73-1.92-2.94-4.28-5.87-7.58-7.32a5.33,5.33,0,0,0-5.14,0,5.14,5.14,0,0,0-2.53,4.4l0,38.45a5.1,5.1,0,1,0,10.19,0l0-24.69a24.14,24.14,0,0,0,2.61,3c2.53,2.44,5.25,4.58,7.54,7.28.28.32.54.65.81,1l.13.15.12.17c.49.69,1,1.38,1.46,2.09a46.57,46.57,0,0,1,2.74,4.81c1.67,3.37,7.1,3.28,8.8,0a218,218,0,0,0,12.56-29.43,5.13,5.13,0,0,0-3.56-6.27,5.22,5.22,0,0,0-6.28,3.56q-1.22,3.57-2.56,7.11c-.45,1.17-.92,2.34-1.39,3.51-.23.59-.47,1.17-.71,1.75-.08.2-.17.4-.25.59l-.16.37c-.84,1.94-1.71,3.86-2.6,5.78-.49-.64-1-1.27-1.49-1.89-2.39-2.9-5.27-5.17-7.95-7.77C196,472.78,194.91,472,194.74,471.4Z" transform="translate(-12.59 -9.84)"/><path class="cls-2" d="M282.93,472.64a5.25,5.25,0,0,0-5.36-1.83l-1.23.18-.54.08c-.89.11-1.77.2-2.66.29-1.69.16-3.39.27-5.09.34a95.67,95.67,0,0,1-10.44-.16,5.12,5.12,0,0,0-5.1,5.1,5.22,5.22,0,0,0,5.1,5.1,96.9,96.9,0,0,0,13.2,0A175.69,175.69,0,0,0,260,519.62c-.43,2.62.68,5.61,3.56,6.27,2.46.56,5.81-.75,6.27-3.56a172.84,172.84,0,0,1,5.37-22.89q1.69-5.51,3.76-10.9c.36-.93.72-1.86,1.1-2.79.2-.5.4-1,.61-1.49,0-.12.08-.2.1-.26a1.78,1.78,0,0,1,.1-.23c.79-1.84,1.6-3.66,2.45-5.47A5.22,5.22,0,0,0,282.93,472.64Z" transform="translate(-12.59 -9.84)"/><path class="cls-2" d="M248.33,456a5.54,5.54,0,0,0-3.05,2.35,5.38,5.38,0,0,0-.47,1.12A49.67,49.67,0,0,0,234.55,479c-1,3.78-1.86,8-1.34,11.94.71,5.27,5.55,7.54,10.07,9a35.31,35.31,0,0,0,13.65,1.67c2.65-.19,5.23-2.2,5.1-5.09-.12-2.6-2.25-5.31-5.1-5.1a33.15,33.15,0,0,1-5.81-.09l-1.25-.21c-.44-.08-.88-.18-1.31-.28a31,31,0,0,1-3-.87l-1.18-.45c-.26-.11-.51-.22-.76-.35l-.39-.24c0-.41,0-.81.07-1.22a11.68,11.68,0,0,1,.17-1.66c-.3,1.27,0-.22.08-.5a44.21,44.21,0,0,1,1.34-5.68c.28-.93.6-1.85.95-2.76.05-.15.31-.78.37-.92.13-.32.27-.63.42-.94a43,43,0,0,1,2.83-5.1c.52-.82,1.1-1.6,1.66-2.4l0,0,.33-.41c.35-.43.71-.85,1.08-1.27a6,6,0,0,0,.68-1,31.28,31.28,0,0,1,4.28-1,30.72,30.72,0,0,1,7.36.07,5,5,0,0,0,3.6-1.49,5.08,5.08,0,0,0,0-7.21l-1-.8a5,5,0,0,0-2.57-.69A33.43,33.43,0,0,0,248.33,456ZM243,488.89v0h0v0Z" transform="translate(-12.59 -9.84)"/><path class="cls-2" d="M148.89,591.8a37.39,37.39,0,0,0-6.59.68,3.33,3.33,0,0,0-2.46,3.31c-12.63,7.47-21.27,20.59-25.29,34.72-4.86,17-4.23,39.73,12.09,50.5,6.84,4.51,15.54,6,23.59,5a39.36,39.36,0,0,0,22.88-11.09,52.15,52.15,0,0,0,13.24-23.68,62.53,62.53,0,0,0,.88-29.66C183.24,604.31,166.51,591.66,148.89,591.8Zm29.43,62.28c-.12-.08-.22-.18-.35-.25q-4.42-2.69-9.07-5a4.71,4.71,0,0,0-.86-.32,27,27,0,0,0,1.48-3.85h11.32A56.34,56.34,0,0,1,178.32,654.08Zm-46-10.4H119.89a3.31,3.31,0,0,0-.94.16c0-.31,0-.62.07-.93,0-.49.11-1,.17-1.47a2.91,2.91,0,0,1,0-.31c0-.19,0-.39.08-.59.16-1,.34-2,.54-3,.35-1.76.77-3.46,1.24-5.13a32.2,32.2,0,0,0,11.68,4.86,3.9,3.9,0,0,0,.9.06A25.39,25.39,0,0,0,132.3,643.68Zm3.94-12a2.84,2.84,0,0,0-1.66-1,28.63,28.63,0,0,1-3.28-.83c-.53-.17-1.07-.36-1.59-.56-.22-.08-.46-.21-.7-.28l-.25-.11a29.83,29.83,0,0,1-5.38-3.2,57.83,57.83,0,0,1,3.39-6.89,34.59,34.59,0,0,0,8,9.07,3.7,3.7,0,0,0,2.4,1,3.54,3.54,0,0,0,.94-.15A33.38,33.38,0,0,0,136.24,631.68Zm8.63-31a31.22,31.22,0,0,1,4.7-2.07q1.22,0,2.43.12l.24,0A3.27,3.27,0,0,0,152,600v17.85a19.58,19.58,0,0,0-5.13,2.28,31.32,31.32,0,0,1-1.52-5.27,25.47,25.47,0,0,1-.52-4.69c0-.87,0-1.75,0-2.63,0-.43.05-.87.09-1.31,0-.14.15-1.37.1-1a3.79,3.79,0,0,0-1.49-3.81C144,601.17,144.42,600.9,144.87,600.67Zm1.45,52.4Zm.27,0h-.17l-.1-.07,0,0a11.1,11.1,0,0,0,2.1-.58l.24.08c-.42.15-.84.29-1.27.41C147.49,652.87,146.33,653.12,146.59,653.1Zm24-15.23a23.24,23.24,0,0,0-.1-3.12,5,5,0,0,0-.15-.77l.68.17a23.74,23.74,0,0,0,10.77-.15c0,1.29,0,2.58-.1,3.87ZM161.16,601l.34.14.29.12c1,.43,1.89.89,2.81,1.39a31.63,31.63,0,0,1,8.5,6.52c.64.66,1.25,1.36,1.83,2.07l.26.34a4.26,4.26,0,0,1,.26.35c.31.41.6.84.89,1.27a31.88,31.88,0,0,1,2.73,5h0a1.3,1.3,0,0,0,.05.14c.09.22.17.43.25.65.18.49.35,1,.51,1.48.39,1.25.72,2.52,1,3.8.19.93.34,1.85.46,2.78-5.15,1.66-11.57,1-15.56-2.81a15.06,15.06,0,0,0-2-3.35c0-.2-.12-.69-.13-.72a7.92,7.92,0,0,1-.05-.85,14.08,14.08,0,0,1,.1-2c0-.11.11-.6.13-.67.08-.42.18-.84.28-1.26.2-.78.44-1.55.7-2.31a39,39,0,0,1,1.61-4,3.5,3.5,0,0,0-1.22-4.65c-1.46-.85-3.88-.46-4.65,1.22-.63,1.38-1.24,2.83-1.79,4.32v-9.88l1.06.35Zm-29.38,10.49a49.52,49.52,0,0,1,4-4.3c.69-.65,1.4-1.29,2.12-1.89l.37-.31a37.76,37.76,0,0,0,3.17,19.68c-.3.31-.6.62-.88,1,0-.06,0-.11,0-.17a3.26,3.26,0,0,0-1-2.4,32.59,32.59,0,0,1-5.26-5.24,33.05,33.05,0,0,1-2.78-4.35,2.64,2.64,0,0,0-.69-.83C131.16,612.24,131.46,611.86,131.78,611.48Zm9.54,67.79ZM171.92,666a33.7,33.7,0,0,1-17.44,12.23c-.87.25-1.75.47-2.64.65l-1.17.22-.67.11-.22,0-.22,0a40.58,40.58,0,0,1-5.4.22c-.9,0-1.79-.11-2.68-.2l-.13,0-.62-.09c-.55-.09-1.1-.2-1.64-.32a29.49,29.49,0,0,1-5-1.52l-.19-.08-.59-.27c-.4-.19-.79-.39-1.18-.6A25.09,25.09,0,0,1,129.8,675a10.75,10.75,0,0,1-1.67-1.26,26.83,26.83,0,0,1-2-2,26.3,26.3,0,0,1-5.65-10.12,38.8,38.8,0,0,1-1.73-11.36,3.43,3.43,0,0,0,1.17.22h12.32a3.55,3.55,0,0,0,.72-.09c.13.49.29,1,.47,1.46,1.94,5.09,6,9.66,11.58,10.72,7.75,1.49,14.91-2.54,19.66-8.54a2.52,2.52,0,0,0,.83.69q4.64,2.31,9.07,5a3.29,3.29,0,0,0,1.1.39A47.1,47.1,0,0,1,171.92,666Z" transform="translate(-12.59 -9.84)"/><path class="cls-2" d="M266.06,585.8a3.45,3.45,0,0,0-4.18,2.37c-4.57,13.77-12.73,26.91-25.93,33.62a37,37,0,0,1-11.19,3.52,2.58,2.58,0,0,0-1.59.93A172.78,172.78,0,0,1,212,609.4c-1.34-2.27-2.65-4.56-3.95-6.85a50.68,50.68,0,0,0,24.17-33,48.2,48.2,0,0,0,1.08-12.33,3.4,3.4,0,1,0-6.8,0,43.83,43.83,0,0,1-14.21,33.95,34.25,34.25,0,0,1-3.92,3.2c-1.18.83-2.4,1.57-3.65,2.28q-2.3-4.11-4.61-8.2A92.08,92.08,0,0,0,193.7,578a17.83,17.83,0,0,0-11.7-7.25,42.4,42.4,0,0,0-4.79-.43.41.41,0,0,1,0-.11c0-.11.17-.84.19-.93.07-.33.16-.66.26-1a21.22,21.22,0,0,1,.77-2.2s.35-.8.39-.89c.15-.33.3-.65.46-1a89.34,89.34,0,0,0,4.4-9.47,17.52,17.52,0,0,0,.36-11c-1.31-4.06-3.9-7.4-6.51-10.69-1.14-1.44-3.61-1.2-4.81,0a3.48,3.48,0,0,0,0,4.8c2.1,2.65,4.35,5.59,5.08,8.88a6.3,6.3,0,0,1,.18,1.76,11.84,11.84,0,0,1-.05,1.19c0,.1,0,.15,0,.16s-.05.3-.08.45a17.39,17.39,0,0,1-.5,2c-.14.44-.29.87-.45,1.3,0,.07-.24.59-.25.63-2.29,5.34-5.81,10.36-6.25,16.23l-2,.16a88.85,88.85,0,0,0-13.56,2.27,99.79,99.79,0,0,0-16.74,5.86,4,4,0,0,0-.66-.31l-10.21-3.74c-2.76-1-5.89-1.83-8.1-3.66s-3.38-4.55-4.72-7.14l-5.16-10a3.4,3.4,0,1,0-5.87,3.43l5.39,10.44c1.55,3,3.2,6.16,5.88,8.35,3,2.41,6.56,3.59,10.09,4.89l5.1,1.86c-12.19,6.73-23,15.66-32.72,25.61h0A31.41,31.41,0,0,1,73.44,605a31,31,0,0,1-8.32-7.32A32.19,32.19,0,0,1,60,588.23a3.5,3.5,0,0,0-4.19-2.38A3.44,3.44,0,0,0,53.41,590a37.9,37.9,0,0,0,32.37,26,34.72,34.72,0,0,0,4.2.18l-1.22,1.39c-5.7,6.54-11,13.75-16.25,20.22-1.32,1.63-2.69,3.22-4.13,4.76a29.92,29.92,0,0,1-11-1.31,29.4,29.4,0,0,1-12.41-7.65c-3-3.15-7.85,1.66-4.81,4.81A36.39,36.39,0,0,0,61,649l-.63.4a18.51,18.51,0,0,1-4.68,2.18,15.51,15.51,0,0,1-1.59.43,3.11,3.11,0,0,0-1.62.27c-.49.05-1,.08-1.56.09a3.4,3.4,0,0,0,0,6.8c.49,0,1,0,1.46-.08,8,10.68,15.88,21.43,23.94,32.06A2.61,2.61,0,0,0,75,692L60.21,709.89a3.47,3.47,0,0,0,0,4.8c1.25,1.15,3.6,1.47,4.81,0L79.8,696.81a4.33,4.33,0,0,0,.41-.61c.52.68,1,1.37,1.56,2,4.48,5.8,9.31,11.36,15.38,15.57a41.23,41.23,0,0,0,19.38,6.78,2.58,2.58,0,0,0,0,.4v18.84a3.4,3.4,0,0,0,6.8,0V721s0-.08,0-.12a134.17,134.17,0,0,0,19.49-2c7.71-1.23,15.33-2.88,22.54-6,1.29-.55,2.54-1.17,3.76-1.83a3.88,3.88,0,0,0,.2,2.9,58.48,58.48,0,0,0,10.27,15.5,3.42,3.42,0,0,0,4.81,0,3.47,3.47,0,0,0,0-4.8c-.5-.54-1-1.09-1.45-1.65a13.36,13.36,0,0,1-1.28-1.52c.08.1.12.12-.05-.1l-.31-.42-.68-.93c-.43-.6-.84-1.2-1.24-1.82a55.56,55.56,0,0,1-4.2-7.69,3.08,3.08,0,0,0-2.41-1.62,70.74,70.74,0,0,0,11.49-9.43c5.5-5.45,10.7-11.17,16.31-16.51q3.51-3.33,7.14-6.55a3.5,3.5,0,0,0,.69,1.07,80.66,80.66,0,0,1,16.44,25.06,3.51,3.51,0,0,0,4.18,2.38c1.61-.44,3.07-2.47,2.37-4.18a89,89,0,0,0-18.19-28.07,2.68,2.68,0,0,0-.63-.49,284.46,284.46,0,0,1,24.59-18.72c1.62-1.09,3.24-2.17,4.88-3.23a3.44,3.44,0,0,0,0-5.87,75.23,75.23,0,0,1-14.32-12.7c15.65-2.79,28.08-14.74,35.24-28.47A90.48,90.48,0,0,0,268.44,590,3.44,3.44,0,0,0,266.06,585.8Zm-32.55,60.77c.26.21.54.41.81.61a297.74,297.74,0,0,0-32.83,25.63c-5.71,5.15-11.19,10.55-16.5,16.11-5,5.25-10,10.66-16.19,14.52s-13.31,6-20.51,7.53a145,145,0,0,1-22,3c-7.16.37-14.5-.1-21-3.29-6.17-3-10.93-7.78-15.34-13.08-4.84-5.81-9.31-12.15-13.92-18.31L60.66,658.83l-1.07-1.42A36.57,36.57,0,0,0,71.74,649c.63-.09,1.26-.2,1.89-.32A3.43,3.43,0,0,0,76,644.49a.49.49,0,0,0,0-.11c4.11-4.84,7.79-10.12,11.43-14.6,11.07-13.67,23.44-26.65,38.21-36.37,14.46-9.52,31.28-16,48.61-16.29,3.91-.06,8.29-.14,11.42,2.17,2.93,2.15,4.78,5.94,6.69,9.2,4,6.88,7.79,13.89,11.77,20.79C212,623,220.89,636.71,233.51,646.57Z" transform="translate(-12.59 -9.84)"/></svg>