<svg id="Layer_1" data-name="Layer 1" xmlns="http://www.w3.org/2000/svg" viewBox="0 0 183.42 143.5"><defs><style>.cls-1{fill:#f4d1a6;}.cls-2{fill:#dca66a;}.cls-3{fill:#e8bc90;}.cls-4{fill:#bb8853;}</style></defs><title>nickname</title><polygon class="cls-1" points="183.43 0 0 0 0 85.55 108.37 143.5 183.43 143.24 183.43 85.55 183.43 0"/><path class="cls-2" d="M192,550.4c-4.7,5.59-8.05,13.52-3.35,20.22,4,5.74,13.59,7.83,18.7,2.72,5.9-5.9,6-12.75,1.54-19.69-1.9-3-4.24-5.23-7.9-5.48-3.26-.23-7,.49-9.15,3.12-3.21,4,2.41,9.66,5.66,5.66,2.27-2.81,4.84,1,5.76,3,1.21,2.62,1.37,6.66-2,8.1-2,.85-5.8-.94-6.64-3.11-1.24-3.17,1.07-6.62,3-8.92,3.29-3.92-2.34-9.61-5.66-5.66Z" transform="translate(-174.16 -535.39)"/><path class="cls-2" d="M217.56,555.81A47.76,47.76,0,0,1,230,557l-2.39-5.88q-5.28,9.48-11.4,18.43c-1.46,2.14,0,5.27,2.39,5.88a57.76,57.76,0,0,0,16.55,1.85c5.13-.18,5.15-8.18,0-8a50,50,0,0,1-14.42-1.56l2.39,5.87q6.12-9,11.4-18.43a4,4,0,0,0-2.39-5.88,57.16,57.16,0,0,0-14.57-1.47c-5.14.15-5.16,8.15,0,8Z" transform="translate(-174.16 -535.39)"/><path class="cls-3" d="M195.92,550.21a11.47,11.47,0,0,0-5.81,7.68,1,1,0,1,0,1.93.53,9.43,9.43,0,0,1,4.89-6.48,1,1,0,0,0-1-1.73Z" transform="translate(-174.16 -535.39)"/><path class="cls-3" d="M190.84,563.6a1,1,0,0,0,0-2,1,1,0,0,0,0,2Z" transform="translate(-174.16 -535.39)"/><path class="cls-3" d="M215.23,553a1,1,0,0,0,0-2,1,1,0,0,0,0,2Z" transform="translate(-174.16 -535.39)"/><path class="cls-3" d="M219,550.63a20.92,20.92,0,0,1,8.8,1.66,1,1,0,0,0,1.36-.36,1,1,0,0,0-.35-1.36,23.15,23.15,0,0,0-9.81-1.94,1,1,0,0,0,0,2Z" transform="translate(-174.16 -535.39)"/><path class="cls-3" d="M222.91,562c-2.76,2.86-5.63,6.07-5.86,10.24-.08,1.28,1.92,1.28,2,0,.2-3.57,2.93-6.4,5.27-8.82.89-.93-.52-2.35-1.41-1.42Z" transform="translate(-174.16 -535.39)"/><path class="cls-3" d="M231.34,572.5h3.18a1,1,0,0,0,0-2h-3.18a1,1,0,0,0,0,2Z" transform="translate(-174.16 -535.39)"/><path class="cls-3" d="M197,571.16a5.75,5.75,0,0,0,3.06.49,6,6,0,0,0,3-1.26,1,1,0,0,0,0-1.42,1,1,0,0,0-1.41,0c.21-.16-.06,0-.1.06l-.25.16-.27.14c-.05,0-.31.2-.1,0a2.12,2.12,0,0,1-.57.19l-.29.07c-.06,0-.37.1-.1,0a2.42,2.42,0,0,1-.6,0,3,3,0,0,1-.6,0c.29.06,0,0-.1,0l-.29-.07-.29-.09s-.35-.14-.1,0a1,1,0,0,0-.77-.1,1,1,0,0,0-.6.45,1,1,0,0,0,.36,1.37Z" transform="translate(-174.16 -535.39)"/><path class="cls-4" d="M237.49,573.64c-1.05,1.81-4.06,1.3-5.78,1.27l-8.23-.18a.5.5,0,0,0,0,1l9.21.2c2,0,4.52.17,5.66-1.79a.5.5,0,0,0-.86-.5Z" transform="translate(-174.16 -535.39)"/><path class="cls-4" d="M223.74,553.41a59.63,59.63,0,0,1-7.07-.3c-.64-.07-.64.93,0,1a59.63,59.63,0,0,0,7.07.3.5.5,0,0,0,0-1Z" transform="translate(-174.16 -535.39)"/><path class="cls-4" d="M196.56,574.6a11.62,11.62,0,0,0,12.54-8,.5.5,0,0,0-1-.27,10.61,10.61,0,0,1-11.31,7.28c-.63-.09-.9.87-.27,1Z" transform="translate(-174.16 -535.39)"/><path class="cls-4" d="M203,555.64a5.48,5.48,0,0,0-6.89-1c-.54.34,0,1.21.5.86a4.49,4.49,0,0,1,5.68.83c.43.49,1.13-.22.71-.71Z" transform="translate(-174.16 -535.39)"/><path class="cls-4" d="M194.67,557.19a.5.5,0,0,0,0-1,.5.5,0,0,0,0,1Z" transform="translate(-174.16 -535.39)"/><path class="cls-4" d="M209.08,564.77a.5.5,0,0,0,0-1,.5.5,0,0,0,0,1Z" transform="translate(-174.16 -535.39)"/><path class="cls-4" d="M226.52,554.66a.5.5,0,0,0,0-1,.5.5,0,0,0,0,1Z" transform="translate(-174.16 -535.39)"/><path class="cls-4" d="M221.46,574.88a.5.5,0,0,0,0-1,.5.5,0,0,0,0,1Z" transform="translate(-174.16 -535.39)"/><path class="cls-4" d="M182.2,584.05c-1.62,1.41-2,3.67-2,5.71,0,2.19.45,4.7,2.62,5.75a3.6,3.6,0,0,0,3.59-.19,10.92,10.92,0,0,0,2.53-2.59c1.32-1.78,2.35-4.18,1.68-6.41a4.68,4.68,0,0,0-2.19-2.71,3.94,3.94,0,0,0-3.61-.12,1.51,1.51,0,0,0-.54,2.06,1.54,1.54,0,0,0,2.05.53c-.34.16.25-.05,0,0s.2,0,.27,0c-.27,0-.15,0,0,0l.23.07s.21.09,0,0,.16.1.16.1l.16.1c.17.08-.13-.16,0,0s.22.21.32.31c-.19-.2,0,.07.1.16l.11.22c.1.16,0-.18,0,0s.1.35.13.52c0-.22,0,0,0,.07s0,.21,0,.32,0,.15,0,.23c0,.26,0-.18,0,.08a4.71,4.71,0,0,1-.16.62,4.08,4.08,0,0,1-.34.84,11.47,11.47,0,0,1-.64,1.06,10.05,10.05,0,0,1-1.53,1.73l-.23.2h0c-.05,0-.43.25-.24.15-.19.1-.15,0,0,0h-.2c-.2,0,.19.07,0,0s-.35-.11-.09,0a1.11,1.11,0,0,1-.19-.09s-.27-.17-.14-.08-.05,0-.06,0l-.2-.2a1.63,1.63,0,0,1-.31-.55c0-.18-.1-.36-.14-.54l-.06-.31s0,.18,0,0c0-.42,0-.84,0-1.27s0-.76,0-1.15l0-.28c0-.26-.07.34,0-.1a5.05,5.05,0,0,1,.12-.56,5.52,5.52,0,0,1,.16-.54c0-.05.12-.26,0,0l.12-.24.14-.24s.24-.31.12-.18.06,0,.06-.06l.31-.28a1.51,1.51,0,0,0,0-2.12,1.53,1.53,0,0,0-2.12,0Z" transform="translate(-174.16 -535.39)"/><path class="cls-4" d="M191.94,588.85a5.74,5.74,0,0,0,2.79,6.74,4.42,4.42,0,0,0,2.74.47,4,4,0,0,0,2.16-1.25,9.5,9.5,0,0,0,2.49-8.54,1.51,1.51,0,0,0-1.84-1,1.54,1.54,0,0,0-1.05,1.85l.06.36c0-.27,0,0,0,.09a8.23,8.23,0,0,1,0,.86c0,.24,0,.49-.06.73,0-.27,0,0,0,.09a3.15,3.15,0,0,1-.09.42,7.42,7.42,0,0,1-.22.77l-.12.34s-.1.21,0,0,0,.07,0,.1c-.11.22-.22.44-.35.65s-.15.24-.23.36l-.1.15-.07.1-.15.18-.24.28-.28.27a.86.86,0,0,0-.14.13c.1-.1.11-.08,0,0l-.22.13s.22,0,.06,0l-.2.06c.06,0,.2,0,.05,0h-.21s.21,0,0,0l-.48-.14c-.26-.08.21.13,0,0l-.27-.15c-.07,0-.35-.25-.19-.12s-.12-.11-.16-.15l-.22-.22-.1-.12c-.12-.12.08.1.07.1a1.65,1.65,0,0,1-.35-.57c0-.06-.06-.13-.1-.19s.09.26,0,.08-.08-.23-.12-.35,0-.23-.08-.35a.44.44,0,0,1,0-.15s0,.34,0,.09,0-.52,0-.77,0,.15,0,.14a1.77,1.77,0,0,1,0-.2l.12-.4a1.5,1.5,0,1,0-2.89-.8Z" transform="translate(-174.16 -535.39)"/><path class="cls-4" d="M207.65,592.76c0-.82-.05-1.63,0-2.45,0-.2,0-.4.06-.61,0,.28,0-.29.06-.34a6.31,6.31,0,0,1,.32-1.15c.06-.17.07-.19,0-.06,0-.09.09-.18.14-.27s.18-.31.27-.46c.22-.33-.18.18.09-.11.12-.13.24-.25.37-.37h0l.21-.14.23-.13c-.17.07-.17.07,0,0s.58-.1.22-.08c.08,0,.59,0,.26,0a3,3,0,0,1,.51.15c-.29-.12.19.13.24.16s.15.1,0,0a1.8,1.8,0,0,1,.2.19,2.86,2.86,0,0,1,.38.4c-.14-.18.16.27.19.31l.21.4s.24.55.15.32c.08.19.14.37.21.56a20.46,20.46,0,0,1,1.05,4.88,1.53,1.53,0,0,0,1.5,1.5,1.51,1.51,0,0,0,1.5-1.5,24.14,24.14,0,0,0-.91-4.91,8.61,8.61,0,0,0-2.31-4.22,4.37,4.37,0,0,0-4.64-.87,5.89,5.89,0,0,0-3.06,3.6,14.5,14.5,0,0,0-.49,5.21,1.5,1.5,0,0,0,3,0Z" transform="translate(-174.16 -535.39)"/><path class="cls-4" d="M225.27,583.78a4.71,4.71,0,0,0-3.82,1.74,7.67,7.67,0,0,0-1.6,4.18,4.78,4.78,0,0,0,1.77,4.1,7.79,7.79,0,0,0,3.64,2,5.56,5.56,0,0,0,4.77-1.18,1.51,1.51,0,0,0,0-2.12,1.55,1.55,0,0,0-2.12,0c-.14.12-.14.12,0,0l-.18.12s-.39.18-.26.13l-.35.1c-.07,0-.47.07-.16,0a4,4,0,0,1-.85,0c.31,0-.09,0-.16,0l-.42-.11-.28-.1h0l-.39-.2a7.32,7.32,0,0,1-.8-.52c.2.15-.15-.14-.16-.14l-.32-.3-.33-.32-.2-.24c.06.08.06.08,0,0l-.11-.19c0,.1,0,.1,0,0s-.12-.53-.09-.29a2.44,2.44,0,0,1,0-.47s0-.48,0-.23a5.45,5.45,0,0,1,.2-.89c0-.14.08-.28.13-.42l.1-.28c0,.11,0,.12,0,0l.21-.39s.3-.42.15-.23c.09-.11.19-.22.29-.32s.36-.27.13-.12l.37-.22c.27-.17-.13,0,.15-.07a3.06,3.06,0,0,1,.41-.1c-.32,0,.23,0,.3,0a1.51,1.51,0,0,0,1.5-1.5,1.54,1.54,0,0,0-1.5-1.5Z" transform="translate(-174.16 -535.39)"/><path class="cls-4" d="M237.26,590.71c1.38-1.62,3.52-4.2,1.88-6.32-1.48-1.91-4.54-1.25-6.17.05a4.83,4.83,0,0,0-1.22,5.88A5.3,5.3,0,0,0,234,592.5a10.33,10.33,0,0,0,3,1.07,6,6,0,0,0,3.84-.44,4.33,4.33,0,0,0,2.23-2.7,1.5,1.5,0,1,0-2.89-.79c0,.07,0,.14-.07.22s.15-.27,0,0l-.11.2s-.14.18,0,0,0,0-.07.07-.12.1-.17.16.06,0,.08,0l-.25.17-.2.11c-.05,0-.28.12-.1,0s0,0,0,0l-.22.07c-.07,0-.49.08-.25.06-.21,0-.41,0-.61,0l-.31,0c.24,0,0,0-.05,0l-.6-.14a11.33,11.33,0,0,1-1.16-.4c.26.1-.1,0-.18-.08l-.41-.21-.44-.27c-.05,0-.22-.18,0,0l-.24-.21c-.07-.06-.32-.35-.14-.13a3.12,3.12,0,0,1-.27-.43c0,.05.09.28,0,0a1.21,1.21,0,0,0-.05-.18l-.06-.25c0-.16,0,.24,0,0s0-.3,0-.44-.06.23,0,0,0-.17.05-.25.17-.45.05-.18a4.91,4.91,0,0,1,.28-.5c.11-.18-.16.16,0,0a1.66,1.66,0,0,0,.13-.14c.07-.07.42-.34.16-.16.14-.09.27-.18.42-.26l.16-.08c.16-.08-.22.07.05,0l.47-.13s.24,0,0,0,.05,0,.1,0h.43c.28,0,0,0,0,0,.09,0,.2.06.29.07s-.18-.13,0,0,.15.13,0,0,0,0,0,0l0-.12c0,.15,0,.16,0,0s0,0,0,.05c0-.16,0-.19,0-.08a1.05,1.05,0,0,1,0,.19s-.09.22,0,.08-.09.16-.1.19c-.22.38-.47.75-.72,1.11l-.13.18-.09.12c-.15.2-.31.39-.47.58a1.53,1.53,0,0,0,0,2.12,1.51,1.51,0,0,0,2.12,0Z" transform="translate(-174.16 -535.39)"/><path class="cls-4" d="M179.81,605.7c-1.86,1.18-2.42,3.25-2.67,5.31-.29,2.29-.21,4.74,1.41,6.55a4.13,4.13,0,0,0,3.2,1.44,5.13,5.13,0,0,0,3-1.59,9.22,9.22,0,0,0,2.53-6,9.94,9.94,0,0,0-.32-3.8,3.19,3.19,0,0,0-3.2-2.35,1.54,1.54,0,0,0-1.5,1.5,1.52,1.52,0,0,0,1.5,1.5l.22,0c.16,0,0,0,0,0-.22-.12.16.12,0,0,.14.1.08,0,.14.2a2.45,2.45,0,0,1,.14.51,5.59,5.59,0,0,1,.08.91,10.76,10.76,0,0,1,0,1.27,6.55,6.55,0,0,1-1.28,3.78,3.34,3.34,0,0,1-1.44,1.15c.17-.06-.22,0-.05,0a.63.63,0,0,1-.26-.07,1.3,1.3,0,0,1-.64-.5c.1.11-.12-.17-.15-.22s-.16-.28-.23-.43c.07.15-.09-.27-.11-.33a4.42,4.42,0,0,1-.14-.63,9.25,9.25,0,0,1,0-2.29c0-.13,0-.25,0-.38s0-.31,0-.18,0-.11,0-.11,0-.2.05-.31a7.7,7.7,0,0,1,.27-1c0-.07.05-.14.08-.22s-.09.17,0-.06.19-.34.29-.51,0,0,0,0a2.09,2.09,0,0,1,.2-.22l.16-.15c.19-.17-.27.17.12-.07a1.53,1.53,0,0,0,.53-2,1.5,1.5,0,0,0-2.05-.54Z" transform="translate(-174.16 -535.39)"/><path class="cls-4" d="M187.62,602.76a25.25,25.25,0,0,0,.94,10.26,12.33,12.33,0,0,1,.71,3.28c0,1.93,3,1.93,3,0-.05-2.34-1.07-4.52-1.49-6.8a23.07,23.07,0,0,1-.16-6.74,1.51,1.51,0,0,0-1.5-1.5,1.53,1.53,0,0,0-1.5,1.5Z" transform="translate(-174.16 -535.39)"/><path class="cls-4" d="M193.63,611.05v8.46a1.5,1.5,0,0,0,3,0v-8.46a1.5,1.5,0,0,0-3,0Z" transform="translate(-174.16 -535.39)"/><path class="cls-4" d="M198.17,617.31c0,1.93.07,3.86.23,5.78q.12,1.45.3,2.88l.21,1.57a3.81,3.81,0,0,0,.38,1.48,1.74,1.74,0,0,0,1.92.75,2.44,2.44,0,0,0,1.14-.84q.93-1,1.8-2.13a48.23,48.23,0,0,0,3.21-4.54,1.5,1.5,0,0,0-2.59-1.52c-.74,1.19-1.52,2.34-2.37,3.46-.36.48-.74.95-1.13,1.41-.23.28-.47.56-.71.83l-.33.37c-.06.07-.46.39-.17.22l.76-.21h-.12l.75.21-.11-.07.54.53c.14.27,0-.26,0-.33,0-.25-.07-.5-.11-.74s-.09-.73-.13-1.1c-.11-.88-.19-1.77-.26-2.66-.14-1.79-.2-3.57-.2-5.36a1.5,1.5,0,0,0-3,0Z" transform="translate(-174.16 -535.39)"/><path class="cls-4" d="M209.58,626.22c1.26-.25,2.08-1.15,3.19-1.68.5-.23,1.06-.3,1.58-.5a6.51,6.51,0,0,0,1.93-1.22,11.7,11.7,0,0,0,2.5-3.06,8.74,8.74,0,0,0,1.36-3.84c0-1.72-1.72-2.45-3.17-2a6.88,6.88,0,0,0-3.12,2.05,9.07,9.07,0,0,0-2,7.46c.42,2.82,2,6.46,4.9,7.42,1.84.6,2.63-2.29.8-2.89-1-.33-1.59-1.63-2-2.52a8.73,8.73,0,0,1-.83-4.12,5.71,5.71,0,0,1,1.14-3.07,4.57,4.57,0,0,1,1.12-1,3.88,3.88,0,0,1,.63-.35,2.89,2.89,0,0,0,.35-.11c0,.12-.64-.39-.43-.13l-.39-.67c0-.07-.07.32-.1.4a8.33,8.33,0,0,1-.29.84,9.19,9.19,0,0,1-.64,1.25,8.77,8.77,0,0,1-2,2.33c-.82.66-1.9.71-2.82,1.18a9.58,9.58,0,0,1-2.48,1.37,1.5,1.5,0,0,0,.8,2.9Z" transform="translate(-174.16 -535.39)"/><path class="cls-4" d="M196.15,606.11a1.5,1.5,0,0,0,0-3,1.5,1.5,0,0,0,0,3Z" transform="translate(-174.16 -535.39)"/><path class="cls-4" d="M228.39,629.6a16.28,16.28,0,0,0-2.38,5.14c-.44,1.68-.9,3.92.21,5.45a3.74,3.74,0,0,0,5.23.65,9.08,9.08,0,0,0,2.86-5,7,7,0,0,0,.17-3.39,4.79,4.79,0,0,0-1.84-2.78,1.51,1.51,0,0,0-2,.54,1.54,1.54,0,0,0,.54,2c-.2-.14,0,.07.09.13.2.21.05.07,0,0a1.63,1.63,0,0,0,.11.17l.09.18s.09.22,0,.07,0,.11,0,.15l.06.26a1.55,1.55,0,0,1,0,.21s0-.23,0-.06,0,.34,0,.51,0,.44,0,.26a4.89,4.89,0,0,1-.14.64,9.37,9.37,0,0,1-.31,1l-.18.47c0,.07-.05.15-.08.22l-.1.23c0-.06-.1.23-.14.3a4.16,4.16,0,0,1-.24.47l-.24.37s-.15.19-.06.09-.18.18-.17.18-.33.28-.13.13a2.14,2.14,0,0,1-.32.2c-.08.05-.24.07,0,0l-.18.06-.19,0c.12,0,.2,0,0,0s-.45,0-.3,0-.31-.14-.09,0-.29-.25,0,0c0,0-.16-.18-.06-.05s0-.09-.06-.11,0,0,0,.06a2.33,2.33,0,0,1-.07-.25c-.09-.27,0,.15,0-.13a6.16,6.16,0,0,1,0-1s0-.23,0-.08,0-.1,0-.1c0-.19.07-.37.1-.56.08-.36.17-.73.27-1.09s.23-.77.37-1.14a7.82,7.82,0,0,1,.38-.9,15.8,15.8,0,0,1,1.26-2.14,1.51,1.51,0,0,0-.54-2.06,1.54,1.54,0,0,0-2.05.54Z" transform="translate(-174.16 -535.39)"/><path class="cls-4" d="M236.22,636.11c-.31,3.55-.77,7.09-1.39,10.6a1.55,1.55,0,0,0,1,1.85,1.51,1.51,0,0,0,1.84-1q1-5.67,1.5-11.4a1.51,1.51,0,0,0-1.5-1.5,1.53,1.53,0,0,0-1.5,1.5Z" transform="translate(-174.16 -535.39)"/><path class="cls-4" d="M241.69,630.32a1.5,1.5,0,0,0,0-3,1.5,1.5,0,0,0,0,3Z" transform="translate(-174.16 -535.39)"/><path class="cls-4" d="M245.71,633a162.18,162.18,0,0,0-3.77,18.27,1.56,1.56,0,0,0,1.05,1.85,1.51,1.51,0,0,0,1.84-1,164.42,164.42,0,0,1,3.77-18.27,1.5,1.5,0,0,0-2.89-.8Z" transform="translate(-174.16 -535.39)"/><path class="cls-4" d="M254.57,544.34c-2.52-1-4.89.79-6.34,2.7s-2.31,4.69-.83,6.84c1.36,2,4.18,2.74,6.48,2.55a6.3,6.3,0,0,0,5.6-3.87,3.88,3.88,0,0,0-.86-4.12,13.81,13.81,0,0,0-3.14-2.51,1.5,1.5,0,1,0-1.52,2.59,9.85,9.85,0,0,1,1.89,1.4,6.93,6.93,0,0,1,.77.79c-.07-.1.21.4.1.14,0,0,.06.28,0,.14s0,.27,0,.14a2.38,2.38,0,0,1-.18.63c.1-.22-.1.16-.14.22s-.29.38-.15.22a5,5,0,0,1-.46.46c-.12.11,0,0,0,0l-.23.17-.45.26-.15.07c.14-.06-.08,0-.09,0a6.57,6.57,0,0,1-.76.21,6,6,0,0,1-2.19-.08,6.53,6.53,0,0,1-1.14-.35h0l-.27-.15-.19-.11c-.38-.22.06.07-.13-.09a2.59,2.59,0,0,1-.37-.37c.16.21-.19-.37-.08-.14a1.61,1.61,0,0,1-.18-.92,2.51,2.51,0,0,1,.19-.95,1.39,1.39,0,0,1,.14-.33,6.24,6.24,0,0,1,.38-.66,5.58,5.58,0,0,1,.65-.88c.16-.18.33-.35.51-.52l.18-.16c.36-.32-.09.05.14-.1a2.29,2.29,0,0,1,1-.47s.28,0,.08,0h.31c.33,0,.15,0,.08,0a2.44,2.44,0,0,1,.46.14,1.5,1.5,0,0,0,1.84-1,1.54,1.54,0,0,0-1.05-1.85Z" transform="translate(-174.16 -535.39)"/><path class="cls-4" d="M262.58,548.57l3-.44,1.46-.21.68-.1.3,0h0c.12,0,.1,0-.07,0l-.66-.38a1.22,1.22,0,0,1-.2-.58,2.81,2.81,0,0,0,0,.3c0,.22.05-.23,0,0s0,.21-.06.31a7.66,7.66,0,0,1-.32,1l0,0-.1.24-.26.52c-.17.35-.36.69-.54,1a11.58,11.58,0,0,0-1.65,4.75,1.52,1.52,0,0,0,1.1,1.44,6,6,0,0,0,4.93-.7,1.5,1.5,0,1,0-1.51-2.59l-.36.22c-.06,0-.39.18-.15.08a3.24,3.24,0,0,1-.41.13l-.35.09c.16,0-.24,0-.29,0h-.42l-.21,0c.14,0,.16,0,.05,0l-.48-.12,1.1,1.45c0-.09,0-.17,0-.26q0,.29,0,0c0-.17.06-.33.1-.49s.18-.57.28-.84.06-.16,0,0l.11-.23c.05-.12.11-.23.17-.35.15-.31.31-.62.47-.92a15.36,15.36,0,0,0,1.61-3.64,3.56,3.56,0,0,0-.09-2.59,1.94,1.94,0,0,0-1.57-1,6,6,0,0,0-1.33.13l-5.14.75a1.5,1.5,0,0,0-1.05,1.84,1.54,1.54,0,0,0,1.84,1.05Z" transform="translate(-174.16 -535.39)"/><path class="cls-4" d="M272.36,543.49c0,3.88,2.65,6.9,3.71,10.4a1.51,1.51,0,0,0,2.95-.4,11.09,11.09,0,0,1,.34-2.81,6.79,6.79,0,0,1,.9-2.27c.14-.21,0,0,.16-.22,0-.05.42-.39.28-.29a.84.84,0,0,1,.66-.26,3.21,3.21,0,0,1,1.82.85,2.51,2.51,0,0,1,.66.81.46.46,0,0,1,0,.48,5.06,5.06,0,0,1-1.49,1.15,8.5,8.5,0,0,1-5,1,1.5,1.5,0,0,0,0,3,11.56,11.56,0,0,0,5.79-1.09c1.73-.8,3.84-2.29,3.7-4.44s-2-3.77-3.94-4.5a4.38,4.38,0,0,0-5.29,2,12.5,12.5,0,0,0-1.65,6.59l2.94-.4A33.67,33.67,0,0,0,276.7,548a10.31,10.31,0,0,1-1.34-4.54,1.5,1.5,0,0,0-3,0Z" transform="translate(-174.16 -535.39)"/><path class="cls-4" d="M290.49,546.28a28.17,28.17,0,0,0-.34,2.91,13.92,13.92,0,0,0,0,2.66,2.23,2.23,0,0,0,.69,1.39,3.76,3.76,0,0,0,1.53.74,7.81,7.81,0,0,0,2.67.37,5.91,5.91,0,0,0,4.58-2.39,3,3,0,0,0,.51-2.73,4.93,4.93,0,0,0-1.56-2.13,14.87,14.87,0,0,0-4.69-2.39,1.49,1.49,0,0,0-1.84,1,1.54,1.54,0,0,0,1.05,1.85l.79.29.38.14.21.09c.17.07.06,0,0,0a3,3,0,0,1,.77.36c.25.13.5.26.74.41l.37.25.13.1c.17.12-.19-.18,0,0s.44.39.64.61l.11.13c.19.22,0,0,0,0s.25.4.14.21,0,0,0,.09,0-.11,0-.13c0,.24,0,0,0-.06,0,.26.09-.11,0,0l-.21.34c-.12.2,0-.06,0,0a1.31,1.31,0,0,0-.11.12,3.57,3.57,0,0,1-.28.27c-.19.19,0,0,.05,0a.94.94,0,0,1-.23.16,3.54,3.54,0,0,1-.33.19.63.63,0,0,1-.2.1s.33-.12.05,0-.53.15-.8.22.25,0,0,0h-.19a4.69,4.69,0,0,1-.53,0l-.46,0c-.17,0,.05,0,.07,0l-.32-.06A6.37,6.37,0,0,1,293,551l-.19-.07c-.23-.07.23.13.06,0l-.05,0a.57.57,0,0,1,.26.31c.1.22.13.27.1.15s0-.07,0,.14c.06,0,0-.45,0-.52s0-.38,0-.57c0-.39,0-.79,0-1.19s.05-.8.1-1.19a2.4,2.4,0,0,1,0-.28c0-.13,0-.18,0,0,0-.23.06-.46.1-.7a1.5,1.5,0,1,0-2.89-.79Z" transform="translate(-174.16 -535.39)"/><path class="cls-4" d="M302.65,546.44a39.13,39.13,0,0,0,1.93,7.83,1.52,1.52,0,0,0,1.84,1,1.54,1.54,0,0,0,1.05-1.84c-.05-.29,0,.17,0,0a1.94,1.94,0,0,1,0-.24,5,5,0,0,1,0-.55s0-.39,0-.16,0-.15,0-.16a4.56,4.56,0,0,1,.13-.53c0-.1.06-.19.1-.29s0-.1,0,0c.08-.16.16-.33.25-.49s.19-.3.29-.46c-.16.26,0,0,0,0l.2-.22.4-.37c.16-.14-.19.12,0,0l.25-.17.47-.27c.07,0,.34-.14,0,0l.23-.08a3.86,3.86,0,0,1,.58-.17l.24,0c.29-.06-.17,0,0,0l.54,0h.25c.06,0,.46,0,.08,0a1.61,1.61,0,0,0,1.16-.15,1.57,1.57,0,0,0,.69-.89,1.52,1.52,0,0,0-1-1.85,6.73,6.73,0,0,0-7.77,8l2.89-.8a39.11,39.11,0,0,1-1.92-7.83,1.52,1.52,0,0,0-1.85-1,1.57,1.57,0,0,0-1.05,1.85Z" transform="translate(-174.16 -535.39)"/><path class="cls-4" d="M317.37,545.43c.35,2,.61,4.09,1.08,6.09a3.69,3.69,0,0,0,1.59,2.41,1.9,1.9,0,0,0,1.81,0,2.73,2.73,0,0,0,1-1.48,15.21,15.21,0,0,1,2.37-4.62c.77-.87,2.38-2.18,3.62-1.61.55.25.8,1.17,1,1.84a10,10,0,0,1,.24,3.4,1.51,1.51,0,0,0,1.5,1.5,1.53,1.53,0,0,0,1.5-1.5,11.31,11.31,0,0,0-1-6,4.34,4.34,0,0,0-5.16-2.1,8.25,8.25,0,0,0-4.49,3.31,13.87,13.87,0,0,0-1.39,2.5c-.22.49-.42,1-.62,1.49-.08.2-.16.41-.25.62,0,0-.31.51-.11.33l.66-.39-.14.05h.8c.31.06.22.27.15,0s-.15-.48-.2-.72c-.13-.64-.23-1.29-.34-1.94l-.7-4a1.51,1.51,0,0,0-1.84-1,1.53,1.53,0,0,0-1.05,1.85Z" transform="translate(-174.16 -535.39)"/><path class="cls-4" d="M254.06,561.79c-2.81.14-4.49,2.58-4.89,5.16s-.42,5.44,1.6,7.25c4.06,3.65,10.51.13,11.69-4.63.68-2.7-.7-5.94-3.6-6.58a1.54,1.54,0,0,0-1.85,1,1.51,1.51,0,0,0,1.05,1.84l.3.08s.23.09.1,0,.13.08.16.09l.19.12c-.15-.1.22.22.27.27s.15.19.08.09.12.2.14.23a2.35,2.35,0,0,1,.34,1.64A5.4,5.4,0,0,1,257,572a4.51,4.51,0,0,1-1,.47,3.9,3.9,0,0,1-1,.22,5.19,5.19,0,0,1-.56,0s-.29,0-.09,0l-.24-.05a2.33,2.33,0,0,1-1-.39c-.22-.14-.13-.06-.27-.2l-.32-.31a2.66,2.66,0,0,1-.42-.88,6.48,6.48,0,0,1-.15-2.43,6.06,6.06,0,0,1,.66-2.64,1.22,1.22,0,0,1,.24-.35l.22-.23s.19-.17.07-.08l.27-.17s.36-.17.25-.13a1.35,1.35,0,0,1,.35-.06,1.5,1.5,0,0,0,0-3Z" transform="translate(-174.16 -535.39)"/><path class="cls-4" d="M263.88,565.77l3.81-.28,1.85-.13.87-.07.55,0h.22c.26,0,.15-.06-.34-.14l-.54-.54a.8.8,0,0,1-.07-.8l-.22.39-.34.57-.79,1.35-1.58,2.69-3.15,5.38a1.52,1.52,0,0,0,1.3,2.26,41.63,41.63,0,0,0,5.12-.06,16.59,16.59,0,0,0,5-1.67,1.52,1.52,0,0,0,.54-2,1.55,1.55,0,0,0-2.06-.54,12.1,12.1,0,0,1-3.91,1.3,46.24,46.24,0,0,1-4.71,0l1.29,2.26,5.91-10.09c.55-1,.83-2.15-.15-2.94-.78-.64-1.93-.35-2.85-.28l-5.77.42a1.54,1.54,0,0,0-1.5,1.5,1.51,1.51,0,0,0,1.5,1.5Z" transform="translate(-174.16 -535.39)"/><path class="cls-4" d="M278,563.64c-.14,3.61,0,7.33,2.29,10.29a1.51,1.51,0,0,0,2.51-.66,7.4,7.4,0,0,0,.21-2.61c0-.39-.05-.78-.05-1.17a3.82,3.82,0,0,1,0-.58s0,.17,0,0l.09-.37.08-.21c.08-.23-.1.18,0,0s.16-.3.25-.44.24-.34.11-.17a4.28,4.28,0,0,1,.4-.45,5.25,5.25,0,0,1,1.57-1.2s.32-.16.18-.1l.11,0,.3-.09.11,0c-.17,0,.46,0,.17,0a1.37,1.37,0,0,1,.29.07c.08,0,.2.09.06,0l.26.15.09.07.08.08.2.21c-.14-.16.1.17.14.24a1.14,1.14,0,0,1,.1.19c-.11-.22,0,.06,0,.11a4.05,4.05,0,0,1,.12.5c0-.26,0,.17,0,.25s0,.15,0,.22.06-.27,0,0a3.47,3.47,0,0,1-.16.55c.1-.24-.09.14-.13.2s-.29.39-.13.21l-.29.3c0,.05-.43.37-.23.22-.16.11-.32.22-.48.31a2,2,0,0,1-.25.14l-.21.1-.08,0-.42.14c-.22.06-.45.12-.68.16a6.63,6.63,0,0,1-1.17.13c-.5,0-1,0-1.5,0a1.5,1.5,0,0,0,0,3c2.09,0,4.34-.12,6.13-1.32a5.36,5.36,0,0,0,2.53-5.35,4.6,4.6,0,0,0-4.43-4c-2.1.09-4,1.67-5.23,3.31a5.79,5.79,0,0,0-1.05,3.32c0,.53.05,1.06.07,1.59a3.82,3.82,0,0,1-.12,1.47l2.5-.66c.15.18-.17-.26-.2-.3s-.2-.33-.3-.51-.17-.34-.25-.52c.11.24-.05-.14-.07-.19a11.22,11.22,0,0,1-.33-1.13c-.05-.2-.09-.39-.12-.59s0-.2-.05-.3,0-.2,0-.1,0,.07,0-.1,0-.2,0-.3,0-.41,0-.61c0-.38,0-.77,0-1.15,0-.79,0-1.58.05-2.37a1.52,1.52,0,0,0-1.5-1.5,1.54,1.54,0,0,0-1.5,1.5Z" transform="translate(-174.16 -535.39)"/><path class="cls-4" d="M300.44,563.5l-3.42,0c-1.2,0-2.45,0-3.37.88a4.83,4.83,0,0,0-.55,5.6c1.36,1.93,4,1.89,5.82.74s3.22-3.08,2.95-5.22l-2.56,1.06a34.65,34.65,0,0,1,4.34,5.18,1.5,1.5,0,0,0,2.59-1.51,38.11,38.11,0,0,0-4.81-5.79,1.51,1.51,0,0,0-1.64-.31,1.49,1.49,0,0,0-.92,1.37,2.62,2.62,0,0,1-1.24,2.49,2.49,2.49,0,0,1-1.47.56c-.25,0,0,0-.14,0s-.33-.12-.15,0c0,0-.4-.25-.21-.12-.11-.12-.14-.14-.08-.07s0,0-.06-.1c.05.16,0-.23,0-.12,0-.07,0-.31,0-.44s0-.26,0-.38c0-.42-.08.21,0-.19,0-.14.07-.28.12-.42-.07.19,0,0,.06-.09s.05-.08,0,0c.11-.11.13-.13.05-.07h.08c1.46.07,3.11,0,4.63,0a1.5,1.5,0,1,0,0-3Z" transform="translate(-174.16 -535.39)"/><path class="cls-4" d="M309.8,559.41a15.41,15.41,0,0,0,1.57,8.52,1.5,1.5,0,0,0,2.05.54,1.53,1.53,0,0,0,.54-2.05l-.24-.5c-.19-.41.11.27-.06-.15s-.23-.6-.33-.9a13.56,13.56,0,0,1-.46-1.88c0-.13-.05-.27-.07-.4.05.33,0-.23,0-.29q0-.48-.06-1a15.5,15.5,0,0,1,.09-1.93,1.5,1.5,0,0,0-1.5-1.5,1.54,1.54,0,0,0-1.5,1.5Z" transform="translate(-174.16 -535.39)"/><path class="cls-4" d="M316.75,558.39a40.62,40.62,0,0,0,.52,9.54,1.5,1.5,0,0,0,1.84,1.05,1.54,1.54,0,0,0,1.05-1.84,38.42,38.42,0,0,1-.41-8.75,1.5,1.5,0,0,0-1.5-1.5,1.54,1.54,0,0,0-1.5,1.5Z" transform="translate(-174.16 -535.39)"/><path class="cls-2" d="M240.15,602.42a13.26,13.26,0,0,0-6.92,1c-2,.81-3.95,2.07-4.62,4.27-1.84,6.05,8.26,4,11.31,3.9.66,0,1.32,0,2,0a1.14,1.14,0,0,0,.32,0l-.21-1.25-.12.13a6,6,0,0,0-.66.58,9.1,9.1,0,0,1-2.81,1.47c-1.83.59-1,3.49.79,2.89a12.25,12.25,0,0,0,2.85-1.3,7.66,7.66,0,0,0,2.41-2.08,2.21,2.21,0,0,0-1.06-3.18,8.51,8.51,0,0,0-3.63-.2c-2.27.1-4.57.55-6.85.43a6.82,6.82,0,0,1-1.4-.23c-.85-.24,0,.13-.12.16a1.23,1.23,0,0,1,0-.27,2.88,2.88,0,0,1,1.37-1.75,10.28,10.28,0,0,1,6.54-1.58,1.54,1.54,0,0,0,1.84-1.05,1.52,1.52,0,0,0-1-1.85Z" transform="translate(-174.16 -535.39)"/><path class="cls-2" d="M242.38,601.05a8,8,0,0,0,1.33,2.76l1.83,2.73,3.65,5.45a1.51,1.51,0,0,0,2.74-1.16c-.34-1.76-.85-4.44.83-5.58a1.42,1.42,0,0,1,.72-.28c.36.07.45.44.61.78.59,1.2,1.16,2.42,1.74,3.63a1.5,1.5,0,0,0,2.59-1.51l-1.19-2.5a13.06,13.06,0,0,0-1.06-2,3.61,3.61,0,0,0-4.77-.77,5.7,5.7,0,0,0-2.58,3.55,12.66,12.66,0,0,0,.22,5.51l2.74-1.15-3.51-5.24-1.75-2.62a6.82,6.82,0,0,1-1.24-2.37,1.5,1.5,0,0,0-2.9.8Z" transform="translate(-174.16 -535.39)"/><path class="cls-2" d="M254.18,596.11a14.42,14.42,0,0,1,1.47,0l.79,0,.34,0,.22,0-.12,0a19.08,19.08,0,0,1,2.92.69,1.53,1.53,0,0,0,1.85-1,1.55,1.55,0,0,0-1-1.85,18.9,18.9,0,0,0-6.42-.9,1.5,1.5,0,1,0,0,3Z" transform="translate(-174.16 -535.39)"/><path class="cls-2" d="M257.32,590.46a18.38,18.38,0,0,0-1.58,7.7,1.5,1.5,0,0,0,1.5,1.5,1.52,1.52,0,0,0,1.5-1.5,15.12,15.12,0,0,1,.05-1.78c0-.13,0-.25,0-.38s0-.38,0-.11c0-.29.09-.59.15-.88a14.43,14.43,0,0,1,.41-1.6c.08-.29.18-.57.28-.85,0-.12.09-.24.14-.36l.09-.23h0a1.55,1.55,0,0,0-.54-2.05,1.51,1.51,0,0,0-2.05.54Z" transform="translate(-174.16 -535.39)"/><path class="cls-2" d="M266.3,588.84A112.76,112.76,0,0,0,268.84,603c.47,1.88,3.36,1.08,2.89-.8a107.38,107.38,0,0,1-2.43-13.31,1.54,1.54,0,0,0-1.5-1.5,1.52,1.52,0,0,0-1.5,1.5Z" transform="translate(-174.16 -535.39)"/><path class="cls-2" d="M265.28,599.45a22.23,22.23,0,0,0,8.06-1.72,1.5,1.5,0,1,0-.8-2.9c-1.22.44-2.45.87-3.7,1.19a16.26,16.26,0,0,1-1.82.36l-.24,0-.5,0c-.33,0-.67,0-1,0a1.52,1.52,0,0,0-1.5,1.5,1.54,1.54,0,0,0,1.5,1.5Z" transform="translate(-174.16 -535.39)"/><path class="cls-2" d="M277,585.29a24.07,24.07,0,0,0,3.29,13.46,1.52,1.52,0,0,0,2.8-.76c.06-2.56.72-5.38,2.76-7.12,1-.86,1.94-1,2.85,0s1.14,2.57,1.3,3.88a1.56,1.56,0,0,0,1.5,1.5c.73,0,1.61-.69,1.5-1.5-.27-2.14-.6-4.38-2.17-6a4.74,4.74,0,0,0-6-.84c-3.42,2.08-4.69,6.33-4.78,10.11l2.79-.76A21.17,21.17,0,0,1,280,585.29a1.51,1.51,0,0,0-1.5-1.5,1.53,1.53,0,0,0-1.5,1.5Z" transform="translate(-174.16 -535.39)"/><path class="cls-2" d="M297.78,590.34a7.91,7.91,0,0,0,6.16-3c1.44-2,1-5-1.38-5.92a5.31,5.31,0,0,0-3.34-.15,4,4,0,0,0-2.34,2.77,7.64,7.64,0,0,0,.71,6.34,7.76,7.76,0,0,0,6.1,3.58,1.5,1.5,0,0,0,1.5-1.5,1.53,1.53,0,0,0-1.5-1.5l-.29,0s.2,0,0,0l-.51-.11-.5-.16-.2-.07c.14.06,0,0-.05,0a8.16,8.16,0,0,1-.9-.53l0,0-.17-.14a4.16,4.16,0,0,1-.42-.42s-.33-.39-.19-.21a3.23,3.23,0,0,1-.29-.43c-.08-.13-.16-.27-.23-.41s-.14-.31-.08-.17a1.94,1.94,0,0,0-.07-.19,4.44,4.44,0,0,1-.15-.52,2.82,2.82,0,0,1-.07-.31s0-.25,0-.11a8.32,8.32,0,0,1,0-1,1.94,1.94,0,0,1,0-.24c0-.26,0,.19,0-.06s.06-.31.1-.46a4.48,4.48,0,0,1,.16-.52s.1-.27,0-.08l.13-.27.15-.25s-.14.15,0,0l.15-.15s-.1.11-.14.1.24-.06.1,0,.16,0,.19,0h.56l.31,0s-.17,0,0,0a2.63,2.63,0,0,1,.3.09h0l.06,0c.1.07.09.06,0,0,0,0,.12.19.05,0s0,0,0,.06.08.15,0,.06h0c0,.1.09.48.07.2,0,.07,0,.48,0,.34s-.05.2-.07.26c-.07.24.09-.16,0,0s-.09.18-.14.26l-.1.15c.07-.1-.1.11-.12.13a5.51,5.51,0,0,1-.43.41c-.19.16.15-.1-.06,0a2.2,2.2,0,0,1-.25.17l-.58.34a5.84,5.84,0,0,1-2.24.53,1.5,1.5,0,0,0,0,3Z" transform="translate(-174.16 -535.39)"/><path class="cls-2" d="M317.76,580c-1.16,0-2.31,0-3.47,0a7.62,7.62,0,0,0-3.35.52c-1.87,1-2.46,3.67-2.16,5.57a4.65,4.65,0,0,0,4,3.78,5.55,5.55,0,0,0,5-2,8.45,8.45,0,0,0,1.67-6.54l-2.25,1.29a12,12,0,0,1,2.64,1.7,13,13,0,0,1,1.18,1.17c.14.16.27.33.4.5s.07.19.1.11c-.57,1.85,2.32,2.64,2.89.8s-.85-3.19-2-4.28a14.3,14.3,0,0,0-3.71-2.59c-.9-.43-2.41.06-2.26,1.3a5.92,5.92,0,0,1-.91,4.56,2.89,2.89,0,0,1-1.59,1,2.05,2.05,0,0,1-1.59-.31,1.59,1.59,0,0,1-.67-1.41,3.11,3.11,0,0,1,.55-1.94,1,1,0,0,1,.59-.18c.52-.06,1.06,0,1.58-.06,1.11,0,2.22,0,3.34,0,1.93.07,1.93-2.93,0-3Z" transform="translate(-174.16 -535.39)"/><path class="cls-2" d="M336.31,575.75H331c-1.68,0-3,.22-3.81,1.9a7.78,7.78,0,0,0,1.08,8.17c2.15,2.54,5.4,1.64,7.52-.42a16.22,16.22,0,0,0,4.23-7.63,27.54,27.54,0,0,0,.07-11.54c-.33-1.89-3.22-1.09-2.9.8,1,5.52.8,12.42-3.74,16.45-.71.64-1.81,1.37-2.69.62a4.44,4.44,0,0,1-1.28-3.32,4.75,4.75,0,0,1,.29-1.58c.1-.27.13-.42.21-.45a3.87,3.87,0,0,1,1,0h5.33a1.5,1.5,0,0,0,0-3Z" transform="translate(-174.16 -535.39)"/><path class="cls-2" d="M256.58,654.7A98.07,98.07,0,0,0,270,635.12L267.23,634c-1.17,7.46-2.33,15-1.45,22.58a1.54,1.54,0,0,0,1.5,1.5,1.5,1.5,0,0,0,1.5-1.5c-.85-7.3.22-14.58,1.34-21.79.24-1.54-1.89-2.79-2.74-1.15a94.6,94.6,0,0,1-12.93,19c-1.26,1.45.85,3.58,2.13,2.12Z" transform="translate(-174.16 -535.39)"/><path class="cls-2" d="M267,645.79l-4.35-.93a1.62,1.62,0,0,0-1.16.16,1.5,1.5,0,0,0-.69.89,1.53,1.53,0,0,0,1.05,1.85l4.35.92a1.5,1.5,0,0,0,1.85-1,1.53,1.53,0,0,0-1-1.85Z" transform="translate(-174.16 -535.39)"/><path class="cls-2" d="M273.4,661.38a22.18,22.18,0,0,1,.35-4.81,9.1,9.1,0,0,1,.67-2.11c.22-.45.7-1.57,1.24-1.66h-.8c-.35-.5-.43-.53-.25-.09l.08.29a6.53,6.53,0,0,1,.12,1c0,.65,0,1.3,0,2,0,1.41,0,2.81,0,4.22,0,2.81-.07,5.62-.12,8.43,0,1.93,3,1.93,3,0,.06-3,.12-6.07.12-9.11,0-1.57,0-3.15,0-4.72a7.1,7.1,0,0,0-.86-4c-1-1.31-2.65-1-3.68.06a9.49,9.49,0,0,0-1.92,3.2,20.21,20.21,0,0,0-1,7.37,1.5,1.5,0,0,0,3,0Z" transform="translate(-174.16 -535.39)"/><path class="cls-2" d="M287.45,657.77c-2.37-.71-4.51,1.32-5.82,3.06a11.09,11.09,0,0,0-2.12,5.7,6.85,6.85,0,0,0,.35,3.18,2.76,2.76,0,0,0,3.13,1.63c2.1-.37,3.79-2.53,4.76-4.29a24.25,24.25,0,0,0,2.23-7.47l-3-.4c.3,4.43-.86,9.77,2.94,13.09a1.5,1.5,0,1,0,2.12-2.12,6.46,6.46,0,0,1-2-4.17c-.26-2.25.05-4.53-.1-6.8a1.51,1.51,0,0,0-2.95-.4,23.12,23.12,0,0,1-1.74,6.42,8.86,8.86,0,0,1-1.64,2.32,3.68,3.68,0,0,1-1,.79c-.16.1-.21.12-.14.06-.19,0-.23.06-.11,0l.16.1s0,0,0,0a2,2,0,0,1-.09-.35c0,.11,0,.06,0-.14s0-.24,0-.36a7.46,7.46,0,0,1,.78-3.82,7.7,7.7,0,0,1,1.56-2.2,5.52,5.52,0,0,1,1-.82c.35-.21.53-.3.83-.21,1.85.56,2.64-2.34.79-2.89Z" transform="translate(-174.16 -535.39)"/><path class="cls-2" d="M296.1,647.2c-.43,7.34-.79,14.85,1.46,22,.58,1.83,3.48,1.05,2.9-.8-2.18-6.85-1.78-14.08-1.36-21.16.11-1.93-2.89-1.92-3,0Z" transform="translate(-174.16 -535.39)"/><path class="cls-2" d="M305.5,659.37v9a1.5,1.5,0,0,0,3,0v-9a1.5,1.5,0,0,0-3,0Z" transform="translate(-174.16 -535.39)"/><path class="cls-2" d="M306.17,655.32a1.5,1.5,0,0,0,0-3,1.5,1.5,0,0,0,0,3Z" transform="translate(-174.16 -535.39)"/><path class="cls-2" d="M315.63,666.89a8.67,8.67,0,0,0,7.72-5c.63-1.43,1.23-3.55.45-5s-2.81-1.87-4.42-1.64c-3.2.48-6.5,3.11-6.65,6.5a14.09,14.09,0,0,0,1.12,5,9.28,9.28,0,0,0,2.09,4,6,6,0,0,0,4.74,1.55,13.74,13.74,0,0,0,5.41-2c1.69-.94.18-3.53-1.51-2.59s-3.84,2.23-5.8,1.42a3.2,3.2,0,0,1-1.62-1.91c-.42-1-.75-2.13-1.07-3.19a4.37,4.37,0,0,1-.12-3.14,5,5,0,0,1,2.17-2,4.17,4.17,0,0,1,2.81-.59c.27.05.19,0,.18.39a5.52,5.52,0,0,1-.28,1.5,5.65,5.65,0,0,1-5.22,3.84c-1.93.05-1.94,3.05,0,3Z" transform="translate(-174.16 -535.39)"/><path class="cls-2" d="M257.59,627.7a51.33,51.33,0,0,1,.54-10.06l-2.74.36,2.46,4.31a7.69,7.69,0,0,0,2.64,3.26,1.52,1.52,0,0,0,2.21-.9l1.34-5.43.64-2.59.33-1.35a2.12,2.12,0,0,0,.17-.68c-.05-.37.55,0-.33.17h-.8l-.06,0-.54-.54a5.46,5.46,0,0,1,.47,1.48l.49,1.76,1,3.65a1.5,1.5,0,0,0,2.89-.8l-1.58-5.67c-.26-.92-.42-2-1.31-2.52a2,2,0,0,0-2.67.67,7.07,7.07,0,0,0-.81,2.38l-.7,2.85-1.45,5.85L262,623c-.9-.5-1.37-1.83-1.85-2.68L258,616.49c-.59-1-2.53-1-2.74.35a55.61,55.61,0,0,0-.65,10.86c.07,1.93,3.08,1.94,3,0Z" transform="translate(-174.16 -535.39)"/><path class="cls-2" d="M268.77,615.05a4,4,0,0,0-.23,2.8,4.19,4.19,0,0,0,1.33,2,4.65,4.65,0,0,0,5.23.36,5.84,5.84,0,0,0,2.79-4.56,3.69,3.69,0,0,0-.65-2.89,4,4,0,0,0-2.33-1.22,5.31,5.31,0,0,0-5,1.69,1.61,1.61,0,0,0-.44,1.06,1.56,1.56,0,0,0,.44,1.06,1.52,1.52,0,0,0,2.12,0c.09-.1.17-.2.26-.29l.13-.12c.11-.1.22-.1-.07,0a2.75,2.75,0,0,0,.28-.19c.13-.08.26-.13.38-.2-.27.17-.23.09-.12.05l.17-.06.37-.11.21,0c.16,0,.11.06-.14,0a3.31,3.31,0,0,0,.44,0l.34,0c.25,0-.12,0-.14,0a.71.71,0,0,0,.21,0l.33.09c.15,0,.2.15-.08,0a1.76,1.76,0,0,0,.2.09,1.51,1.51,0,0,0,.36.22c-.05,0-.25-.22-.07,0-.06-.07-.19-.22-.19-.33a.7.7,0,0,0,.06.19c.1.3,0-.26,0-.06s0,.33,0,.5,0,.45,0,.45.07-.39,0-.1a1.18,1.18,0,0,1,0,.2,3.75,3.75,0,0,1-.09.39c0,.09-.09.42-.17.48l.08-.18-.07.14-.09.18-.24.38c-.12.18.06,0,0-.07s-.13.15-.13.15l-.34.34c-.2.17.05-.06.08-.07l-.16.11c-.12.07-.24.14-.37.2s0,0,.06,0l-.18.07-.45.11c-.13,0-.18,0,.12,0l-.18,0h-.42c-.2,0,.32.06.13,0l-.18,0a2,2,0,0,1-.23-.06c-.25-.07.21.11.06,0l-.36-.22c-.17-.1.27.26.07,0l-.16-.15s-.09-.13-.14-.16.2.28.06.06-.14-.24-.21-.37.12.37,0,.08c0-.07,0-.14-.06-.2a1.08,1.08,0,0,0,0-.21c0,.09,0,.36,0,.11a1.47,1.47,0,0,0,0-.21c0-.07,0-.33,0,0s0,0,0-.05.13-.37,0,0a1.67,1.67,0,0,0,.15-1.16,1.53,1.53,0,0,0-.69-.89,1.51,1.51,0,0,0-2.05.54Z" transform="translate(-174.16 -535.39)"/><path class="cls-2" d="M282.27,616v-4.7c0-.76,0-1.53,0-2.29,0,.16,0,.15,0,0s.06-.19,0-.09a.24.24,0,0,1-.1.15l.18-.18c-.29.24.29-.08.08,0s.25-.05.29-.05c-.36.06,0,0,.08,0s.16,0,0,0l.24.05.36.11c-.34-.11.13.08.2.12a2.2,2.2,0,0,1,.32.21h0l.2.17a2.23,2.23,0,0,1,.26.27l.17.19c-.1-.13-.1-.12,0,0,.75,1.15,1.21,2.43,1.86,3.63a1.51,1.51,0,0,0,2.05.54,1.53,1.53,0,0,0,.54-2c-.59-1.09-1-2.28-1.66-3.33a6.37,6.37,0,0,0-3.1-2.65,3.94,3.94,0,0,0-4,.66c-1.23,1.09-1,2.83-1,4.31v5a1.5,1.5,0,0,0,3,0Z" transform="translate(-174.16 -535.39)"/><path class="cls-2" d="M290.19,603.37a18.15,18.15,0,0,0,2.87,8.55,1.5,1.5,0,0,0,2.59-1.51,15.73,15.73,0,0,1-1-1.78c-.08-.16-.16-.33-.23-.49s-.18-.43-.07-.15c-.13-.31-.25-.63-.36-1a16.38,16.38,0,0,1-.52-1.91c-.07-.31-.12-.63-.17-.94s0-.18,0,0l0-.27c0-.18,0-.36-.05-.54a1.5,1.5,0,0,0-3,0Z" transform="translate(-174.16 -535.39)"/><path class="cls-2" d="M295.06,602.66a6.34,6.34,0,0,1,0,.76c0,.15,0,.29,0,.44v.1c0,.17,0,.15,0-.07a2,2,0,0,1-.16.75l-.12.36c0,.1-.1.47,0,.1a2.61,2.61,0,0,1-.36.68c0,.09-.11.18-.17.27l-.13.18c-.09.13-.08.12,0,0,0,0-.48.53-.52.56l-.24.22-.17.14c.16-.12.18-.13,0,0a1.5,1.5,0,0,0,.76,2.8,5.46,5.46,0,0,0,2.39-.66c-.33.14.19-.06.25-.09l.49-.16a8.24,8.24,0,0,1,1-.21l.2,0c-.19,0-.19,0,0,0l.49,0c.32,0,.65,0,1-.06a5.36,5.36,0,0,0,2.34-.67,1.51,1.51,0,0,0,.53-2.05,1.53,1.53,0,0,0-2.05-.54l-.2.12c-.16.07-.15.07,0,0a1.3,1.3,0,0,1-.46.12c-.07,0-.42.13-.07,0a2.52,2.52,0,0,1-.48,0,18.47,18.47,0,0,0-2.09.2,9,9,0,0,0-1.82.51l-.71.3c-.07,0-.41.16-.09,0l-.47.16c-.17,0-.16,0,0,0H294l.76,2.79a7.75,7.75,0,0,0,3.29-7,1.54,1.54,0,0,0-1.5-1.5,1.51,1.51,0,0,0-1.5,1.5Z" transform="translate(-174.16 -535.39)"/><path class="cls-2" d="M309.06,603.12c1.4-.76,3-1.82,3.22-3.54.29-2.14-2.19-3.29-4-3.13a4.58,4.58,0,0,0-3.94,2.81,4.69,4.69,0,0,0,.59,4.62,11,11,0,0,0,4.39,3.27,1.5,1.5,0,1,0,1.51-2.59,12.49,12.49,0,0,1-1.62-.85c-.24-.15-.48-.31-.71-.48l-.15-.11s.22.18,0,0l-.31-.27a5.29,5.29,0,0,1-.58-.58s-.11-.09-.11-.13.15.23.06.08l-.25-.39-.08-.15c-.11-.21,0,0,0,0s-.1-.28-.11-.32a1.12,1.12,0,0,0,0-.21s0,.3,0,.14,0-.28,0-.42,0-.13,0-.16-.06.3,0,.14.05-.24.08-.36a.88.88,0,0,0,0-.15c0-.16,0,.1,0,.11s.14-.28.2-.37.12-.17.11-.18-.18.21-.07.1l.26-.27c.19-.19-.21.12,0,0s.27-.22.39-.22-.27.09-.1,0l.15-.05.39-.09c.17,0-.12,0-.13,0l.23,0c.09,0,.37.06.44,0s-.28-.05-.12,0l.16,0c.06,0,.44.15.25.07s.12.07.17.1.24.16.08,0,0,.13,0,0a1.13,1.13,0,0,1-.11-.22s0-.41,0-.27,0-.09,0-.09-.09.18-.13.24-.09.14-.09.14.2-.23,0-.05a3,3,0,0,1-.31.31l-.13.11c-.13.12.22-.15,0,0l-.38.25c-.26.16-.53.3-.8.45a1.51,1.51,0,0,0-.53,2.05,1.53,1.53,0,0,0,2.05.54Z" transform="translate(-174.16 -535.39)"/><path class="cls-2" d="M313.51,595.81c.24,1.86.53,3.85,2,5.19a4.1,4.1,0,0,0,5.17.46c2.8-1.88,4.34-5.78,2.6-8.87-.82-1.45-3.3-.48-2.74,1.16,1.07,3.19,2.37,6.39,3.17,9.67a6.47,6.47,0,0,1,0,4.08,3,3,0,0,1-2.13,1.92,1.55,1.55,0,0,0-1.5,1.5,1.51,1.51,0,0,0,1.5,1.5c3.68-.4,5.71-4,5.44-7.45a24,24,0,0,0-1.49-5.87L323.41,593l-2.74,1.15c.85,1.52,0,3.41-1.19,4.49-2,1.81-2.77-1.22-3-2.78a1.54,1.54,0,0,0-1.5-1.5,1.51,1.51,0,0,0-1.5,1.5Z" transform="translate(-174.16 -535.39)"/><path class="cls-2" d="M275.05,635.67c0-3.68,0-7.36.05-11l-1,.13a16,16,0,0,0,4.47,7.38.51.51,0,0,0,.79-.1,12.21,12.21,0,0,0,.89-4.52,6.06,6.06,0,0,1,1.48-4l-.84-.22a33,33,0,0,0,3.62,9.49.5.5,0,0,0,.87-.51,31.26,31.26,0,0,1-3.52-9.25.51.51,0,0,0-.84-.22c-2.46,2.35-1.16,6-2.53,8.77l.79-.1a14.93,14.93,0,0,1-4.21-6.94.5.5,0,0,0-1,.14c-.08,3.67-.09,7.35-.05,11a.5.5,0,0,0,1,0Z" transform="translate(-174.16 -535.39)"/><path class="cls-2" d="M288,623.36a2.83,2.83,0,0,0-2.7,1.82,2.65,2.65,0,0,0,.86,3.07,1.32,1.32,0,0,0,1.55-.11,2.85,2.85,0,0,0,.79-1.27,3.13,3.13,0,0,0-.07-3.21c-.36-.46-1.07.13-.79.6l2.48,4.24.79-.6c-1.07-1.38-1.5-3.13-2.27-4.67-.67-1.35-2.33-3.69-4.11-2.79-1.16.58-1.26,2-1.22,3.1,0,.64,1,.64,1,0a3.35,3.35,0,0,1,.22-1.75.88.88,0,0,1,1.23-.41,4.52,4.52,0,0,1,1.85,2c.93,1.71,1.38,3.63,2.59,5.18.36.46,1.07-.12.79-.6l-2.49-4.24-.78.6c.41.54.14,1.36-.06,1.93-.14.38-.5,1.52-1.06,1a1.73,1.73,0,0,1-.31-1.94,1.84,1.84,0,0,1,1.71-1,.5.5,0,0,0,0-1Z" transform="translate(-174.16 -535.39)"/><path class="cls-2" d="M291.59,621.37c.14,2.46,2.44,3.78,3.28,5.93l.91-.38c-.91-1.23-2-2.69-1.56-4.31a3,3,0,0,1,3.46-2.17c.63.12.9-.85.27-1a4,4,0,0,0-4.59,2.56c-.74,2,.4,3.84,1.56,5.39a.5.5,0,0,0,.62.21.5.5,0,0,0,.29-.59,11.49,11.49,0,0,0-1.86-2.87,5.16,5.16,0,0,1-1.38-2.8c0-.64-1-.64-1,0Z" transform="translate(-174.16 -535.39)"/><path class="cls-2" d="M306.66,618.77c-1.13-.18-2.43-.3-3.32.57a4.22,4.22,0,0,0-.9,1.6,5.21,5.21,0,0,0-.35,1.91c.07,2.47,2.66,3.69,4.85,3.07a8.13,8.13,0,0,0,3.46-2.32c.45-.46-.25-1.17-.7-.71-1.24,1.27-2.93,2.59-4.82,2.09a2.33,2.33,0,0,1-1.7-1.54,4.13,4.13,0,0,1,.52-2.91c.57-1,1.67-.95,2.69-.79a.52.52,0,0,0,.62-.35.51.51,0,0,0-.35-.62Z" transform="translate(-174.16 -535.39)"/><path class="cls-2" d="M313,618.1a4.69,4.69,0,0,0,1.37,4.26,3.06,3.06,0,0,0,3.94.09,5.21,5.21,0,0,0,1.22-2,3.52,3.52,0,0,0,.18-2.47c-.54-1.42-2.18-1.85-3.56-1.69a6.47,6.47,0,0,0-4.41,2.57.49.49,0,0,0,.18.68.5.5,0,0,0,.68-.18,5.33,5.33,0,0,1,2.95-1.94c.94-.25,2.34-.32,3,.54s0,2.57-.61,3.41a2,2,0,0,1-2.76.4c-1.17-.76-1.36-2.36-1.2-3.64,0-.27-.25-.5-.5-.5a.53.53,0,0,0-.5.5Z" transform="translate(-174.16 -535.39)"/><path class="cls-2" d="M297.83,632.19c-3.12-.19-6.64,0-8.88,2.5a5.66,5.66,0,0,0-1.57,3.67c0,.58.05,1.3.62,1.61a3.18,3.18,0,0,0,2.14-.16c1.67-.45,3.33-1.21,5.09-1.22a3.88,3.88,0,0,1,1.12.11c.53.15.56.55.57,1a4.46,4.46,0,0,1-.62,2.28,9.91,9.91,0,0,1-3.32,3.34,6.45,6.45,0,0,1-4.44,1.25c-1.44-.22-3.23-1.34-3.16-3,.05-1,1.2-1.5,2.1-1.45a1.36,1.36,0,0,1,1.12.55.71.71,0,0,1,.12.58c-.06.18-.31.37-.49.21-.48-.42-1.19.28-.71.71a1.31,1.31,0,0,0,1.76,0,1.57,1.57,0,0,0,.18-2c-.89-1.45-3.1-1.23-4.27-.3-1.38,1.12-.78,3.15.29,4.25a5.35,5.35,0,0,0,4.44,1.47,9.88,9.88,0,0,0,5.05-2.51,7.86,7.86,0,0,0,2.88-4.49,3.05,3.05,0,0,0-.36-2.42,3.13,3.13,0,0,0-2.37-.62c-2.08,0-4,1-6,1.43-.3.07-.6.19-.72-.17a2.15,2.15,0,0,1,0-.76,4.06,4.06,0,0,1,.43-1.49,5.81,5.81,0,0,1,2.1-2.27c2-1.27,4.58-1.28,6.9-1.14.64,0,.64-1,0-1Z" transform="translate(-174.16 -535.39)"/><path class="cls-2" d="M302.56,635.85a1.84,1.84,0,0,0-2.63-.84c-1.09.6-1.34,2-1.26,3.18a4.66,4.66,0,0,0,1.69,3.44,3.24,3.24,0,0,0,3.53.32,5.4,5.4,0,0,0,2.32-3.69c.15-.63-.81-.9-1-.27a5.34,5.34,0,0,1-1.29,2.68,2.22,2.22,0,0,1-2.44.49,3.07,3.07,0,0,1-1.69-2.1,3.73,3.73,0,0,1,.12-2.67,1.13,1.13,0,0,1,.89-.63c.28,0,.65.07.75.36.22.6,1.19.34,1-.27Z" transform="translate(-174.16 -535.39)"/><path class="cls-2" d="M306.85,632.81a7.1,7.1,0,0,0,1.12,4.43,2.19,2.19,0,0,0,1.61,1,2.44,2.44,0,0,0,1.86-.79,8,8,0,0,0,1.73-4,11.31,11.31,0,0,0-.13-4.67c-.13-.54-1-.44-1,.13a14.3,14.3,0,0,0,1.22,4.89c.59,1.29,1.42,2.6,2.94,2.8.64.08.63-.92,0-1-1.18-.15-1.82-1.68-2.21-2.63a12.93,12.93,0,0,1-.95-4.06l-1,.13a9.88,9.88,0,0,1-.93,7.15,1.93,1.93,0,0,1-1.29,1.06,1.26,1.26,0,0,1-1.24-.8,6.55,6.55,0,0,1-.77-3.6c0-.64-1-.64-1,0Z" transform="translate(-174.16 -535.39)"/><path class="cls-2" d="M317,626.54c0,1.42,1,2.73,1.7,3.91s1.6,2.57,2.48,3.8c.37.52,1.24,0,.86-.5-.82-1.16-1.6-2.35-2.33-3.57-.36-.59-.71-1.2-1.05-1.81a4.3,4.3,0,0,1-.66-1.83c0-.64-1-.64-1,0Z" transform="translate(-174.16 -535.39)"/><path class="cls-2" d="M316.57,631.8a18.21,18.21,0,0,1,5.44-4.35c.57-.3.07-1.16-.5-.86a18.86,18.86,0,0,0-5.65,4.51.51.51,0,0,0,0,.7.5.5,0,0,0,.71,0Z" transform="translate(-174.16 -535.39)"/><path class="cls-2" d="M328.61,623.34a3.77,3.77,0,0,0-3.64,3.27,3.93,3.93,0,0,0,.09,1.37,2.71,2.71,0,0,0,.59,1.23c.74.77,1.86,0,2.41-.63a8.32,8.32,0,0,0,1.41-2.45.51.51,0,0,0-.18-.69.5.5,0,0,0-.68.18,11.83,11.83,0,0,1-.89,1.78,3.42,3.42,0,0,1-.61.71,1.91,1.91,0,0,1-.32.24c-.08,0-.29.21-.4.18s-.11-.14-.14-.2a2.82,2.82,0,0,1-.18-.45,2.94,2.94,0,0,1-.12-1,2.6,2.6,0,0,1,.77-1.7,2.8,2.8,0,0,1,1.89-.82.5.5,0,0,0,0-1Z" transform="translate(-174.16 -535.39)"/><path class="cls-2" d="M328.78,624.5a3.87,3.87,0,0,0,2.66,3.6c.57.19.84-.61.39-.91a8.08,8.08,0,0,1-3.05-4.31c-.49-1.41-1.25-2.86-3-2.87s-3.47,1.37-4.61,2.59-2.08,3-1.15,4.67a.5.5,0,0,0,.86-.5c-.86-1.56.61-3.18,1.71-4.15s2.88-2.3,4.18-1.27c1,.77,1.12,2.38,1.65,3.45a8.39,8.39,0,0,0,2.86,3.25l.39-.91a2.85,2.85,0,0,1-1.93-2.64.5.5,0,0,0-1,0Z" transform="translate(-174.16 -535.39)"/><path class="cls-2" d="M329.46,617.48c1.64,2.09,3.19,4.23,4.68,6.42.36.53,1.22,0,.86-.51-1.16-1.76-2.51-3.86-1.73-6s2.83-3.24,4.73-4.11c.58-.27.07-1.13-.51-.87-2.16,1-4.35,2.36-5.18,4.72s.51,4.83,1.83,6.82l.86-.51q-2.29-3.39-4.83-6.61c-.4-.51-1.1.2-.71.7Z" transform="translate(-174.16 -535.39)"/><path class="cls-2" d="M343.33,607.46a14.69,14.69,0,0,0-.55,3.73,11.34,11.34,0,0,0,.35,3.38c.7,2.26,3.39,2.11,5.05,1a7.2,7.2,0,0,0,2.15-2.41A12.17,12.17,0,0,0,351.7,610a4.07,4.07,0,0,0-.25-2.95,3.15,3.15,0,0,0-2.59-1.53c-2.32-.28-5.34-.41-6.68,1.93a.5.5,0,0,0,.86.51c.95-1.66,3.09-1.68,4.76-1.54.85.07,1.93.06,2.54.76a2.78,2.78,0,0,1,.44,2.39,10.65,10.65,0,0,1-1,2.55,7.86,7.86,0,0,1-1.55,2.15c-1.1,1-3.6,1.87-4.14-.14a12.64,12.64,0,0,1,.23-6.43.5.5,0,0,0-1-.27Z" transform="translate(-174.16 -535.39)"/><path class="cls-2" d="M310.46,645.87c0-1.23,0-2.47,0-3.7,0-.28,0-.57,0-.85l0-.43a2.7,2.7,0,0,0,.06-.36s.15-.11-.07,0-.08,0,0,.07.15.16.2.22a3.48,3.48,0,0,1,.38.64c.4.84.58,1.77,1.05,2.57.24.42.73.73,1.15.32a3.3,3.3,0,0,0,.57-1.51l1.14-4.06-.48.37s0,0,0,0,.1.17.15.26l.3.53c.19.35.38.71.56,1.07.37.73.71,1.46,1,2.21a.53.53,0,0,0,.62.35.52.52,0,0,0,.35-.62c-.4-1-.83-1.89-1.31-2.8-.23-.44-.46-.88-.71-1.31s-.52-.77-1-.72a.53.53,0,0,0-.49.36l-1,3.72-.25.89a2.17,2.17,0,0,0-.11.42s0,.11,0,.11l.5,0-.09-.14a7.9,7.9,0,0,1-.56-1.34,4.69,4.69,0,0,0-1.43-2.47.85.85,0,0,0-1.22.27,3.28,3.28,0,0,0-.26,1.55c-.08,1.45-.08,2.9,0,4.34,0,.64,1,.65,1,0Z" transform="translate(-174.16 -535.39)"/><path class="cls-2" d="M319.47,637.41c-.91.14-1.31,1.29-1.23,2.09a2.31,2.31,0,0,0,1.35,1.94,2.36,2.36,0,0,0,2.39-.22,2.39,2.39,0,0,0,.95-2.26c-.18-1-1.24-1.28-2.11-1.36a.5.5,0,0,0-.5.5.51.51,0,0,0,.5.5l.19,0h.11a3.25,3.25,0,0,1,.42.11.58.58,0,0,1,.38.3.42.42,0,0,1,0,.12,1,1,0,0,1,0,.19.57.57,0,0,1,0,.13s0-.08,0,0l-.06.22a1.48,1.48,0,0,1-.36.58,1.26,1.26,0,0,1-.62.34l-.1,0h-.43s.08,0,0,0l-.12,0a1.31,1.31,0,0,1-1-1l0-.1s0-.16,0-.07a1.93,1.93,0,0,1,0-.24v-.1s0-.12,0,0a1.22,1.22,0,0,1,.06-.26l0-.1c0,.06,0,0,0,0l.06-.1s.06-.1,0-.05l.07-.08.06-.05s.09,0,0,0l.15,0a.5.5,0,0,0,.35-.62.51.51,0,0,0-.61-.35Z" transform="translate(-174.16 -535.39)"/><path class="cls-2" d="M325.5,635.73a1.11,1.11,0,0,0-1.12.35,1.38,1.38,0,0,0-.25,1.27,2.32,2.32,0,0,0,3.73,1,2,2,0,0,0,.68-2.16,1.53,1.53,0,0,0-1-.78,3.06,3.06,0,0,0-1.53.07.5.5,0,0,0,.26,1,2.78,2.78,0,0,1,.86-.1l.12,0s.15.06.09,0a.57.57,0,0,1,.13.08s.07.06,0,0l.07.07c-.06-.06,0,0,0,.07h0v0a.85.85,0,0,1,0,.35,1.68,1.68,0,0,1-.27.46,1.24,1.24,0,0,1-.5.36l-.09,0-.17.05h-.37l-.18,0-.14,0h0l-.09-.05-.16-.08-.08-.06a3.07,3.07,0,0,1-.26-.25s-.05-.09-.06-.11l-.06-.1s0-.08,0,0a.87.87,0,0,1-.05-.22c0,.07,0-.14,0-.07a.31.31,0,0,1,0-.08c0-.06,0,0,0,0l0,0h0l.05,0c.07,0-.06,0,0,0s0,0,0,0,.06,0,0,0,0,0,0,0a.5.5,0,0,0,.27-1Z" transform="translate(-174.16 -535.39)"/><path class="cls-2" d="M330.07,635.34a.5.5,0,0,0,0-1,.5.5,0,0,0,0,1Z" transform="translate(-174.16 -535.39)"/><path class="cls-2" d="M330.93,635.2a1.33,1.33,0,0,0,0-.94,3.3,3.3,0,0,1-.32-.84c0-.26.18-.48.35-.65a9.13,9.13,0,0,1,.79-.72,2.54,2.54,0,0,1,1.87-.74,2.35,2.35,0,0,1,1.38,1.12.53.53,0,0,0,.69.18.52.52,0,0,0,.18-.69,3.54,3.54,0,0,0-1.94-1.57,3.15,3.15,0,0,0-2.5.69,11.51,11.51,0,0,0-1,.85,2.59,2.59,0,0,0-.73,1,1.48,1.48,0,0,0,.06,1.15c.1.27.35.61.23.89a.5.5,0,0,0,1,.27Z" transform="translate(-174.16 -535.39)"/><path class="cls-2" d="M336.08,627.49l2.52,4.09a.5.5,0,0,0,.86-.51L336.94,627c-.33-.55-1.2,0-.86.5Z" transform="translate(-174.16 -535.39)"/><path class="cls-2" d="M339,625.47a12.92,12.92,0,0,0-.44,4,.5.5,0,0,0,.85.35,17.59,17.59,0,0,1,3.41-2.52.5.5,0,0,0-.51-.87,19.26,19.26,0,0,0-3.61,2.69l.86.35a12.15,12.15,0,0,1,.4-3.7.5.5,0,0,0-1-.26Z" transform="translate(-174.16 -535.39)"/><path class="cls-2" d="M345.21,623a1.8,1.8,0,0,0-1.82.52,1.66,1.66,0,0,0-.2,1.94,1.74,1.74,0,0,0,1.83.88,3,3,0,0,0,1.84-1.23,1.3,1.3,0,0,0-.61-2c-.45-.13-.87.49-.48.83l1.11,1a.52.52,0,0,0,.71,0,.51.51,0,0,0,0-.71l-1.12-1-.48.83c.05,0,.06,0,0,0s.05,0,0,0l.07.07s0,0,0,0,0,.05,0,0a.29.29,0,0,1,0,.09c0,.06,0,.06,0,0v.09h0a.36.36,0,0,1,0,.1.53.53,0,0,1-.08.14,1.39,1.39,0,0,1-.27.28,2.23,2.23,0,0,1-.68.42,1.06,1.06,0,0,1-.43.08h0l-.09,0-.1,0s0,0,0,0-.17-.11-.11-.06l-.14-.14s0-.05,0,0a.41.41,0,0,1-.05-.09s-.09-.18-.06-.1a1.52,1.52,0,0,1-.06-.2c0,.09,0,0,0-.06v-.1c0,.05,0,0,0,0s.07-.19,0-.11l.1-.17c0,.07.06-.07.08-.08l.07-.07s0,0,0,0l.17-.09.11,0,.09,0h.21c-.1,0,.08,0,.1,0a.5.5,0,0,0,.27-1Z" transform="translate(-174.16 -535.39)"/><path class="cls-2" d="M347,620.53a4.87,4.87,0,0,1,1.39,1.66,5.19,5.19,0,0,0,1.55,1.71c.41.26.8-.16.74-.56a8.26,8.26,0,0,1-.06-1.86,8,8,0,0,1,.13-1c.05-.24,0-.35.27-.43s.59-.16.88-.23.47-.17.64,0a5,5,0,0,1,.83,1.55c.2.6,1.17.34,1-.27a5.46,5.46,0,0,0-1.18-2.1,1.26,1.26,0,0,0-1.15-.25,10.86,10.86,0,0,0-1.25.31,1.28,1.28,0,0,0-.81.61,3.73,3.73,0,0,0-.26,1.19,9.77,9.77,0,0,0,0,2.7l.74-.57a4.87,4.87,0,0,1-1.39-1.66,5.11,5.11,0,0,0-1.56-1.71c-.54-.34-1.05.52-.5.86Z" transform="translate(-174.16 -535.39)"/><path class="cls-2" d="M326.42,637.85a.5.5,0,0,0,0-1,.5.5,0,0,0,0,1Z" transform="translate(-174.16 -535.39)"/><path class="cls-2" d="M320.74,640a.5.5,0,0,0,0-1,.5.5,0,0,0,0,1Z" transform="translate(-174.16 -535.39)"/><path class="cls-2" d="M323.34,640.92a2,2,0,0,0,1.38,1,1.28,1.28,0,0,0,1.26-1.06,3.42,3.42,0,0,0,0-1.15.57.57,0,0,0-.23-.3.51.51,0,0,0-.69.18.65.65,0,0,0-.05.39s0,.08,0,.13l0-.14a2.92,2.92,0,0,1,0,.66v-.14a.45.45,0,0,1,0,.16.2.2,0,0,1,0,.11s0-.11,0,0l0,0s-.11.14,0,0l-.09.09,0,0c.09-.09.06,0,0,0l-.05,0,0,0-.14,0,.13,0h-.17l.14,0-.12,0c-.06,0-.07,0,0,0l-.06,0-.11-.07c-.07,0,0,0,0,0s-.05,0-.06,0a1.89,1.89,0,0,1-.2-.2l-.09-.11,0-.05,0,.06,0-.05a.51.51,0,0,0-.69-.18.51.51,0,0,0-.22.3.48.48,0,0,0,0,.39Z" transform="translate(-174.16 -535.39)"/><path class="cls-2" d="M314.92,647.1a12.4,12.4,0,0,0,1.24,4.07.5.5,0,0,0,.93-.25,9.82,9.82,0,0,1,.1-2.17,2.11,2.11,0,0,1,.35-.78,1.07,1.07,0,0,1,.23-.25.6.6,0,0,1,.13-.09l.12-.06a1.17,1.17,0,0,1,.2-.06s.1,0,0,0h.28l.13,0s.15.06.09,0,.16.09.11.05a.52.52,0,0,1,.21.27c0-.06,0,.08,0,.1s0,0,0,0a.34.34,0,0,1,0,.1s0,.19,0,.13a1.6,1.6,0,0,1,0,.21,1.25,1.25,0,0,1-.35.58,5.17,5.17,0,0,1-1.92.88.5.5,0,1,0,.26,1,6.28,6.28,0,0,0,2.31-1.08,2.18,2.18,0,0,0,.69-2.09,1.65,1.65,0,0,0-1.79-1.16,2.22,2.22,0,0,0-1.8,1.38,7.61,7.61,0,0,0-.35,3l.93-.26a11.08,11.08,0,0,1-1.1-3.56.5.5,0,0,0-1,0Z" transform="translate(-174.16 -535.39)"/><path class="cls-2" d="M321.75,646.24a2.65,2.65,0,0,0,.19,1.86,1.84,1.84,0,0,0,1.92.64,2.62,2.62,0,0,0,1.55-1,2.23,2.23,0,0,0,.38-.81,1,1,0,0,0,0-.58.82.82,0,0,0-.45-.48,6.59,6.59,0,0,0-2.5-.63.5.5,0,0,0,0,1l.42,0h0l.11,0,.25,0a7.06,7.06,0,0,1,.82.23l.33.14.15.07s0,0-.06-.07-.07-.14,0-.13a2.16,2.16,0,0,1-.08.29c0,.09,0,0,0,0l0,.08-.09.15-.09.14c.05-.08,0,0-.05,0l-.11.11-.06,0-.05.05-.09.06-.15.09-.13.06c-.06,0,0,0,0,0l-.13,0-.29.07c.11,0-.05,0-.08,0h-.25a1.06,1.06,0,0,1-.19-.06c-.06,0,0,0,0,0l-.09-.05s-.08,0,0,0l-.06-.06-.05-.06c.06.08,0,0,0,0a.25.25,0,0,0,0-.07c0-.05,0,.1,0,0a.75.75,0,0,1,0-.16c0-.09,0,0,0,0a.41.41,0,0,1,0-.11,2.41,2.41,0,0,1,0-.38,1.1,1.1,0,0,1,0-.18c0-.1,0,0,0,0a.65.65,0,0,0-.33-.74.5.5,0,0,0-.61.35Z" transform="translate(-174.16 -535.39)"/><path class="cls-2" d="M328.52,643.69a1.25,1.25,0,0,0-1.68.63,2.88,2.88,0,0,0-.24,1,1.84,1.84,0,0,0,0,.4,1.08,1.08,0,0,0,.26.62,1.54,1.54,0,0,0,1.57.37,1.81,1.81,0,0,0,1.17-1.07,1.19,1.19,0,0,0-.67-1.59.5.5,0,1,0-.27,1c.13,0-.1-.06,0,0s-.06,0-.05,0l0,0s0,.06,0-.05l0,0h0v0s0,.07,0,.1c0-.13,0-.1,0-.05s0,0,0,.06,0,.07,0,.11,0-.14,0-.05,0,.05,0,.08l0,0c0,.09.06-.11,0,0a.73.73,0,0,1-.05.09l-.07.11c.06-.1.06-.07,0,0l-.05.06-.09.09,0,0c.09-.1.05,0,0,0a1.55,1.55,0,0,1-.22.12l0,0,0,0-.12,0H328c-.1,0,.13,0,0,0h-.19l0,0-.12,0c.1,0,.09,0,.05,0l-.08,0-.06,0s.09.08,0,0l-.06-.06c-.05,0,.07.11,0,0s0,0,0,0,0-.07,0-.07v-.1c0-.05,0-.1,0-.15v-.08s0,.13,0,0a1.91,1.91,0,0,1,.06-.33l0-.08v0h0v0l0-.06,0-.09,0-.06,0,0,0,0,.05,0c.07-.06-.09.06,0,0l.13-.07c-.07.06-.09,0,0,0l.09,0s-.13,0,0,0h.08c-.13,0-.09,0,0,0s-.09,0,0,0a.51.51,0,0,0,.69-.18.51.51,0,0,0-.18-.68Z" transform="translate(-174.16 -535.39)"/><path class="cls-2" d="M332,644.09c0-.74,0-1.47,0-2.21a1.72,1.72,0,0,1,.11-.77,1,1,0,0,1,.47-.4,1.26,1.26,0,0,1,1.19.16,1.41,1.41,0,0,1,.65,1,.51.51,0,0,0,.5.5.5.5,0,0,0,.5-.5,2.48,2.48,0,0,0-2.17-2.26,2.11,2.11,0,0,0-1.58.48,1.93,1.93,0,0,0-.67,1.61c0,.79,0,1.57,0,2.36a.5.5,0,0,0,1,0Z" transform="translate(-174.16 -535.39)"/><path class="cls-2" d="M338.62,636.84a2,2,0,0,0-2.27.8,2.78,2.78,0,0,0-.44,2.38,1.06,1.06,0,0,0,1,.73,1.69,1.69,0,0,0,1.16-.63,4.81,4.81,0,0,0,1.18-2.32l-.84.22a5,5,0,0,1,1.41,4.39.52.52,0,0,0,.35.62.52.52,0,0,0,.62-.35,6.06,6.06,0,0,0-1.67-5.37.51.51,0,0,0-.84.22,4,4,0,0,1-.67,1.59,2.29,2.29,0,0,1-.55.57s-.12.07-.16,0,0-.08,0-.11a1.89,1.89,0,0,1,.3-1.38,1,1,0,0,1,1.21-.45.51.51,0,0,0,.62-.34.52.52,0,0,0-.35-.62Z" transform="translate(-174.16 -535.39)"/><path class="cls-2" d="M340.69,637.53a3.56,3.56,0,0,0,1.74-1.21,1.64,1.64,0,0,0,.27-1,1.07,1.07,0,0,0-.67-1,1,1,0,0,0-1.07.32,2.37,2.37,0,0,0-.47.87,1.56,1.56,0,0,0,2.49,1.81.5.5,0,1,0-.51-.87c-.1.07-.21.11-.3.17.09-.06,0,0,0,0l-.08,0-.2,0c-.08,0,0,0,0,0h-.16l-.06,0h-.07l-.08-.05s-.11,0,0,0,0,0,0,0l0,0c-.08-.07.06.1,0,0a.75.75,0,0,0-.07-.12s0,.12,0,0l0-.07a.58.58,0,0,0,0-.14c0,.13,0,.06,0,0v-.2s0,0,0-.06,0,.1,0,0v-.06a2.68,2.68,0,0,1,.07-.27l0-.08c0-.08,0,0,0,0s0-.11.08-.16a1,1,0,0,1,.08-.14c.05-.08,0,0,0,0a.24.24,0,0,1,.06-.08l.05,0c.08-.07-.09,0,0,0l.05,0c-.07,0-.08,0,0,0h0s0,0,0,0l.05,0-.07,0q.07,0,0,0l0,0c.07.06,0-.08,0,0l0,.06c-.05,0,0-.1,0,0s0,.1,0,.12,0-.13,0,0v.08s0,.08,0,0,0,0,0,.07,0,.15,0,.16l0,0,0,.06a.41.41,0,0,1-.05.09l0,.06,0,0s0,0,0,0-.09.1-.12.13-.13.15-.15.14l0,0-.05,0-.11.08a2.75,2.75,0,0,1-.38.2l-.21.1-.07,0-.07,0c.06,0,.06,0,0,0a.5.5,0,0,0-.3.23.5.5,0,0,0-.05.38.51.51,0,0,0,.62.35Z" transform="translate(-174.16 -535.39)"/><path class="cls-2" d="M345.66,634.37a6.89,6.89,0,0,0,1.57-1.87,3.21,3.21,0,0,0,.5-1.26,1,1,0,0,0-.84-1,1.54,1.54,0,0,0-1.3.33,2.57,2.57,0,0,0-.76,1.1,5.86,5.86,0,0,0-.35,1.24,1.44,1.44,0,0,0,1.46,1.89,3.32,3.32,0,0,0,1.49-.48.51.51,0,0,0,.18-.69.52.52,0,0,0-.69-.18,2.5,2.5,0,0,1-.88.35h-.16l-.09,0h-.07l-.05,0-.05,0-.1-.07c.07,0,0,0-.07-.07s-.05-.13,0,0a.75.75,0,0,1,0-.33,5,5,0,0,1,.25-1,2.7,2.7,0,0,1,.36-.72.77.77,0,0,1,.56-.31h0l.1,0s0,0,0,0,0,0,0,0v0s0,.18-.06.22l-.16.33a4.63,4.63,0,0,1-.24.43,6.11,6.11,0,0,1-1.31,1.52.49.49,0,0,0,.7.7Z" transform="translate(-174.16 -535.39)"/><path class="cls-2" d="M328,655.54a.5.5,0,0,0,0-1,.5.5,0,0,0,0,1Z" transform="translate(-174.16 -535.39)"/><path class="cls-2" d="M328.93,651.87h-1.18a5.16,5.16,0,0,0-1.18,0,1.54,1.54,0,0,0-1.09,1.59,3.58,3.58,0,0,0,1.89,3.39,1.69,1.69,0,0,0,2.15-.53.5.5,0,0,0-.18-.68.51.51,0,0,0-.69.18.6.6,0,0,1-.52.22,1.32,1.32,0,0,1-.68-.31,2.73,2.73,0,0,1-.91-1.52,2.38,2.38,0,0,1-.05-.88c0-.15.1-.41.2-.46a1,1,0,0,1,.45,0h1.79a.5.5,0,0,0,0-1Z" transform="translate(-174.16 -535.39)"/><path class="cls-2" d="M331.11,650.9A7.47,7.47,0,0,0,332,655a.51.51,0,0,0,.91-.12,17.1,17.1,0,0,1,1.34-3.35,2.39,2.39,0,0,1,1-.89c.22-.09.34.08.48.25a1.87,1.87,0,0,1,.33.68.5.5,0,0,0,1-.27,2.37,2.37,0,0,0-1.34-1.67c-.69-.2-1.49.4-1.93.88-1.06,1.14-1.28,2.71-1.85,4.1l.91-.12a6.46,6.46,0,0,1-.79-3.63.51.51,0,0,0-.5-.5.51.51,0,0,0-.5.5Z" transform="translate(-174.16 -535.39)"/><path class="cls-2" d="M338.77,648.58a3.94,3.94,0,0,0,.11,1.84,2.38,2.38,0,0,0,1,1.43,1.4,1.4,0,0,0,1.67-.29,4.23,4.23,0,0,0,.91-1.4,8.46,8.46,0,0,0,.63-2,.52.52,0,0,0-.35-.62.52.52,0,0,0-.62.35,7.27,7.27,0,0,1-.54,1.75,6,6,0,0,1-.42.79,1.88,1.88,0,0,1-.12.18l-.08.1-.15.14s0,0,0,0l-.06,0s-.16.08-.07,0-.2,0-.1,0h-.1c.06,0,.05,0,0,0s-.06,0,0,0l-.08,0c-.05,0-.06,0,0,0l-.07-.07s-.1-.12-.06-.06a2.12,2.12,0,0,1-.21-.36,3,3,0,0,1-.21-1.61.5.5,0,0,0-1-.27Z" transform="translate(-174.16 -535.39)"/><path class="cls-2" d="M346.4,650.57a19.12,19.12,0,0,1-1.25-4.26c0-.17,0-.34-.08-.52a.88.88,0,0,1,0-.36c0,.09,0,0,.1,0l.21,0a2.07,2.07,0,0,1,.43,0c.74.08.53,1.08.43,1.56s.82.89,1,.26c.2-.9.3-2.06-.63-2.6a2,2,0,0,0-1.39-.17,1.12,1.12,0,0,0-1.07.72,3.22,3.22,0,0,0,.1,1.41c.08.49.18,1,.3,1.45a19.59,19.59,0,0,0,.94,2.8.52.52,0,0,0,.62.35.5.5,0,0,0,.35-.61Z" transform="translate(-174.16 -535.39)"/><path class="cls-2" d="M350.77,641.75c-1.4-.44-3.44.6-3.14,2.26a1.5,1.5,0,0,0,1.61,1.16,2.52,2.52,0,0,0,2.2-3.41.5.5,0,0,0-.61-.35.5.5,0,0,0-.35.61,5.77,5.77,0,0,0,1.72,2.49.52.52,0,0,0,.71,0,.5.5,0,0,0,0-.71,4.89,4.89,0,0,1-1.47-2l-1,.26a1.58,1.58,0,0,1-.24,1.63,1.36,1.36,0,0,1-1.36.48.43.43,0,0,1-.28-.37.79.79,0,0,1,.24-.62,1.65,1.65,0,0,1,1.66-.42c.61.19.88-.77.27-1Z" transform="translate(-174.16 -535.39)"/><path class="cls-2" d="M346.5,646.65a3.25,3.25,0,0,1-.39.35l.1-.07a3.3,3.3,0,0,1-.73.42l.12-.05a4.2,4.2,0,0,1-.5.17.5.5,0,1,0,.26,1,3.75,3.75,0,0,0,1.85-1.08.51.51,0,0,0,0-.7.5.5,0,0,0-.71,0Z" transform="translate(-174.16 -535.39)"/><path class="cls-2" d="M336.3,651.39v2.27a.5.5,0,0,0,.5.5.51.51,0,0,0,.5-.5v-2.27a.5.5,0,0,0-1,0Z" transform="translate(-174.16 -535.39)"/><path class="cls-2" d="M336.15,654.65a.5.5,0,0,0,0-1,.5.5,0,0,0,0,1Z" transform="translate(-174.16 -535.39)"/><path class="cls-2" d="M332.1,661.53l-1.35,0a1.8,1.8,0,0,0-1.18.27,2.16,2.16,0,0,0-.6,1,4.3,4.3,0,0,0-.21,1.24,3.2,3.2,0,0,0,.66,2.06,2.4,2.4,0,0,0,2.11.69,2.29,2.29,0,0,0,2.16-1.36.52.52,0,0,0-.35-.62.53.53,0,0,0-.62.35c-.23.61-1.13.66-1.68.64a1.12,1.12,0,0,1-.79-.28,1.63,1.63,0,0,1-.39-.69,2.77,2.77,0,0,1,.19-2,1.14,1.14,0,0,1,.09-.16s.08-.07.07-.07a1.4,1.4,0,0,1,.54,0l1.35,0a.5.5,0,0,0,0-1Z" transform="translate(-174.16 -535.39)"/><path class="cls-2" d="M337.66,660.17a2.88,2.88,0,0,0-2.28.61,2.62,2.62,0,0,0-1,2.24,1.92,1.92,0,0,0,1.6,1.75,2.06,2.06,0,0,0,2-1.18,7,7,0,0,0,.89-3L338,661l1.46,1.76a.49.49,0,0,0,.7,0,.5.5,0,0,0,0-.71l-1.45-1.76c-.3-.36-.82,0-.85.35a6,6,0,0,1-.72,2.44c-.28.49-.81,1-1.39.59a1.28,1.28,0,0,1,0-1.76,1.83,1.83,0,0,1,1.69-.72.51.51,0,0,0,.61-.35.5.5,0,0,0-.35-.62Z" transform="translate(-174.16 -535.39)"/><path class="cls-2" d="M338.83,657.45a10.51,10.51,0,0,0,2.43,4.63.51.51,0,0,0,.86-.35,11.25,11.25,0,0,1,.08-2.66c.08-.41.33-1.34.88-.86s.19,1.4,0,1.89a3.63,3.63,0,0,1-1.3,1.6.5.5,0,1,0,.51.86,4.43,4.43,0,0,0,2-3.91,1.63,1.63,0,0,0-1.6-1.57c-.84.06-1.27.85-1.43,1.59a11.2,11.2,0,0,0-.15,3.06l.85-.36a9.54,9.54,0,0,1-2.18-4.19c-.14-.62-1.11-.36-1,.27Z" transform="translate(-174.16 -535.39)"/><path class="cls-2" d="M346.64,665.1v-2.43a7.37,7.37,0,0,1,.1-2.25A2.61,2.61,0,0,1,348,659c.46-.23,1.13-.17,1.23.42s1.08.36,1-.27a1.69,1.69,0,0,0-1.74-1.28,3,3,0,0,0-2.19,1.39,4.19,4.19,0,0,0-.6,2.71v3.15a.5.5,0,0,0,1,0Z" transform="translate(-174.16 -535.39)"/><path class="cls-2" d="M337.47,674a5.73,5.73,0,0,0,3.26-1.1l3.71-2,7.32-3.91-.74-.56-3.6,8.79c-.24.59.73.85,1,.26l3.6-8.79c.17-.43-.39-.74-.74-.56l-6.87,3.67L341,671.63c-1,.56-2.28,1.51-3.52,1.37-.64-.07-.63.93,0,1Z" transform="translate(-174.16 -535.39)"/><path class="cls-2" d="M349.6,671.27a7.62,7.62,0,0,1-2.35-1.33,4.78,4.78,0,0,0-2.59-1.05c-.64,0-.64,1,0,1a4.34,4.34,0,0,1,2.25,1,7.67,7.67,0,0,0,2.43,1.32.5.5,0,0,0,.26-1Z" transform="translate(-174.16 -535.39)"/></svg>