<svg id="Layer_1" data-name="Layer 1" xmlns="http://www.w3.org/2000/svg" viewBox="0 0 193.25 303.01"><defs><style>.cls-1{fill:#f78d2d;}.cls-2{fill:#49423c;}</style></defs><title>Untitled-8</title><rect class="cls-1" width="193.25" height="303.01"/><path class="cls-2" d="M283.21,327a2.59,2.59,0,0,0,.73-1.77v-4.59a2.57,2.57,0,0,0-.73-1.77,2.52,2.52,0,0,0-1.77-.73,2.49,2.49,0,0,0-1.77.73,2.59,2.59,0,0,0-.73,1.77v4.59a2.59,2.59,0,0,0,.73,1.77,2.57,2.57,0,0,0,1.77.73A2.53,2.53,0,0,0,283.21,327Z" transform="translate(-209.61 -244.52)"/><path class="cls-2" d="M333.68,306v-6.27a2.5,2.5,0,0,0-5,0V306a2.5,2.5,0,0,0,5,0Z" transform="translate(-209.61 -244.52)"/><path class="cls-2" d="M277.73,335.64a2.7,2.7,0,0,0-1.15,1.5,2.53,2.53,0,0,0,.25,1.92,2.5,2.5,0,0,0,1.5,1.15,2.43,2.43,0,0,0,1.92-.25,54.85,54.85,0,0,0,8.39-7.58,2.5,2.5,0,0,0-3.54-3.53,52,52,0,0,1-6.81,6.37Z" transform="translate(-209.61 -244.52)"/><path class="cls-2" d="M326.17,309.54a2.48,2.48,0,0,0-.89,3.42,2.46,2.46,0,0,0,1.49,1.15,29.89,29.89,0,0,1,6.23,1.82,2.5,2.5,0,0,0,1.93-.25,2.51,2.51,0,0,0,.9-3.42l-.39-.51a2.53,2.53,0,0,0-1.11-.64,29.89,29.89,0,0,0-6.23-1.82A2.64,2.64,0,0,0,326.17,309.54Z" transform="translate(-209.61 -244.52)"/><path class="cls-2" d="M322.46,285.84c-2.41-.27-4.14,1.63-5.38,3.42a34.42,34.42,0,0,0-3.11,5.6,40.19,40.19,0,0,0-3.28,12.64,36.68,36.68,0,0,0,0,6.2c.18,2,.29,4.5,1.34,6.31s3.07,2.56,5.12,2.78c1,.12,2.74-.09,3.27.8.86,1.44-.78,3.38-1.67,4.39a15.48,15.48,0,0,1-5.55,4.24,2.53,2.53,0,0,0-.9,3.43,2.56,2.56,0,0,0,3.42.89,18.77,18.77,0,0,0,9-8.48c1.8-3.82.63-8.77-3.88-9.84a16.82,16.82,0,0,0-2.74-.34,5.33,5.33,0,0,1-1.56-.24c-.78-.47-.8-3.31-.88-4.35a34,34,0,0,1,1.21-11.83,33,33,0,0,1,2.42-6.13c.51-1,1.07-1.93,1.67-2.85a10.5,10.5,0,0,1,.9-1.28,3.59,3.59,0,0,1,.39-.39l.23,0a2.52,2.52,0,0,0,2.5-2.5A2.55,2.55,0,0,0,322.46,285.84Z" transform="translate(-209.61 -244.52)"/><path class="cls-2" d="M318.39,347.43l-5.84,2a13.4,13.4,0,0,0-2.68,1.11,4.35,4.35,0,0,0-2.15,2.84,2.75,2.75,0,0,0,.25,1.93,2.54,2.54,0,0,0,1.5,1.14,2.48,2.48,0,0,0,1.92-.25,2.42,2.42,0,0,0,1.12-1.41l.3-.16h0l.4-.14,1.33-.47,5.17-1.79a2.5,2.5,0,0,0-1.32-4.82Zm-5.78,7.07c0-.11.07-.15,0,0Z" transform="translate(-209.61 -244.52)"/><path class="cls-2" d="M347.14,260.88v0h0Z" transform="translate(-209.61 -244.52)"/><path class="cls-2" d="M347.12,263.05a.68.68,0,0,0,0,.15v0A.41.41,0,0,1,347.12,263.05Z" transform="translate(-209.61 -244.52)"/><path class="cls-2" d="M346.49,265.36a.56.56,0,0,1,0-.15.32.32,0,0,0,0,.16h0Z" transform="translate(-209.61 -244.52)"/><path class="cls-2" d="M391.49,496.39a25.09,25.09,0,0,0-7.69-12.5A14,14,0,0,0,388,477.5c1.33-4.7.05-9.69-.93-14.32q-1.59-7.53-3.39-15-4.08-17-9.17-33.77a2.51,2.51,0,0,0-2.41-1.83l-4.69.38c-.86-5.14-1.95-10.32-4.53-14.9a20.36,20.36,0,0,0-11.61-9.8,2.64,2.64,0,0,0-.53-.11,13,13,0,0,0-7.86-11.19c-3.93-1.75-8.23-1.83-12.46-1.57a82.12,82.12,0,0,0,.48-11.31,2.47,2.47,0,0,0-.16-.8c2-1.65,4-3.3,5.91-5,5.58-4.8,11.13-9.67,16.46-14.75,4.93-4.69,9.69-9.85,12.77-16a42,42,0,0,0,4.41-18.46c2.8-.91,5.64-2,7.73-4.17,2.84-2.89,3.32-6.89,2.39-10.7a28.41,28.41,0,0,0-1.94-5.29,8,8,0,0,0-3.68-4c-3.59-1.68-7.22-.28-10.42,1.53a40.56,40.56,0,0,0-9.06-10.67,2.05,2.05,0,0,0,.11-.78c-.21-2.39.27-5.44,2.82-6.4s3.77,1.38,5.55,2.8c2.8,2.25,6.64,2,8.58-1.28a7.66,7.66,0,0,0,1-4.85c-.19-1.75-.9-3.42-1.05-5.17a3.1,3.1,0,0,1,.22-1.83c.07-.11.42-.43.25-.31a.39.39,0,0,1,.31-.11,2.5,2.5,0,0,1,.9.15,1,1,0,0,1,.5.32l.13.15c0,.05.21.37.11.11a2.56,2.56,0,0,0,3.07,1.74,2.51,2.51,0,0,0,1.75-3.07,6.66,6.66,0,0,0-8.53-4c-4.32,1.75-4,6.73-3,10.47.32,1.27.93,3.09-.09,4.07-.17.17-.26.18-.37.1.17.12-.55-.35-.41-.25a7.92,7.92,0,0,1-.9-.84,11.52,11.52,0,0,0-4.35-3.12,8.07,8.07,0,0,0-5.54.3,9.91,9.91,0,0,0-5.83,8.31c-.67-.4-1.35-.78-2-1.15a2.17,2.17,0,0,0,.36-.32,13.4,13.4,0,0,0,1.59-15.68,2.5,2.5,0,1,0-4.31,2.52c.14.23.27.47.39.71l.14.29a10.85,10.85,0,0,1,.46,1.5c.05.21.07.44.12.66,0-.13,0-.23,0,0h0a.61.61,0,0,0,0,.13.53.53,0,0,1,0-.12l0,.35a12.82,12.82,0,0,1,0,1.64s0,.1,0,.16c0-.09,0-.13,0,.07v0s0,.07,0,.09a.43.43,0,0,1,0-.05q-.06.36-.15.72a7.1,7.1,0,0,1-.22.79c0,.07-.14.32-.21.5,0-.08.08-.1,0,.15v0c-.05.11-.1.22-.16.33s-.26.47-.4.7-.26.4-.39.59h0c-.11.11-.2.23-.3.34a2.82,2.82,0,0,0-.7,2.07,44.19,44.19,0,0,0-33.4.33,38.3,38.3,0,0,0-7.14,4,2.58,2.58,0,0,0-.9,3.42,2.54,2.54,0,0,0,3.43.9,38.24,38.24,0,0,1,29.85-5.89A35.59,35.59,0,0,1,360.63,290a39.36,39.36,0,0,1,3,29.77c-3.7,12.1-14.2,20.53-23.31,28.63q-8.08,7.2-16.44,14.09c-5.26,4.34-10.54,8.71-16.12,12.63a61.92,61.92,0,0,1-17.28,9c-6.64,2-13.6,2.5-20.51,2.5-3.39,0-6.8-.05-10.19-.25a20.89,20.89,0,0,1-7-1.37,7.14,7.14,0,0,1-4.34-5.57c-.48-2.77,0-5.75.32-8.52a115.27,115.27,0,0,1,9.37-33.31,120.24,120.24,0,0,1,18.5-29.16,118.52,118.52,0,0,1,12.31-12.34,81.9,81.9,0,0,1,14.61-10.49,26.87,26.87,0,0,1,8.74-3,2.51,2.51,0,0,0,1.75-3.07,2.55,2.55,0,0,0-3.07-1.75c-6.9,1-12.93,4.95-18.41,9q-1.83,1.35-3.61,2.78c-4.65-13.51-19.37-22.07-33.42-19.5a2.52,2.52,0,0,0-1.11,4.18,45,45,0,0,1,6,6c-10,2.78-20.11,6.75-26,15.69-1.3,2,.84,4.05,2.82,3.68a52,52,0,0,1,12.88-.8,52.5,52.5,0,0,0-18,22.78,2.49,2.49,0,0,0,.9,2.63,2.61,2.61,0,0,0,2.78.19c8.55-3.86,18.12-8.07,27.68-6.72a124.14,124.14,0,0,0-15.84,34.38,16.78,16.78,0,0,0-7.32-1.85,9.46,9.46,0,0,0-8,4.29,13.21,13.21,0,0,0-1.45,5.07,24.09,24.09,0,0,0-.31,4.32c.17,3.5,1.87,6.46,5.17,7.79,2.53,1,5.37.83,8,.41,0,.37-.09.74-.13,1.11-.33,3.26-.47,6.7.77,9.8,2.5,6.21,9.08,7.91,15.15,8.31a122.72,122.72,0,0,0,21.26-.23,63,63,0,0,0,9.45-1.78,26.75,26.75,0,0,0-1.15,5.3,17.11,17.11,0,0,0,.11,5.71A66.74,66.74,0,0,1,269.8,414.9c-7.24,3.61-15.81,6-21.09,12.53a20.43,20.43,0,0,0-4,8.2,42.61,42.61,0,0,0-5.89-6.12c-2.68-2.25-6.2-4.32-9.63-2.23A7.47,7.47,0,0,0,226,435.4a8.53,8.53,0,0,0,3.12,4.56,24.41,24.41,0,0,0-4.4,5.59c-2,3.43-3.73,7.94-1.91,11.78,1.53,3.24,5.19,4.61,8.4,5.53a11.22,11.22,0,0,0,6.51.32,10.41,10.41,0,0,0,4.56-3.23,42.44,42.44,0,0,0,6.57-10.79c5.49,4.82,13.76,5.14,20.64,4.14a41.81,41.81,0,0,0,20.14-8.94,18,18,0,0,0,1.75,4.95c1.47,2.84,3.07,5.62,4.62,8.42L275,467.36c-3.09,1.42-5.8,3.19-6.37,6.81a14.53,14.53,0,0,0,1.93,8.93c.28.53.59,1,.9,1.56-4,1.7-6.83,5-9.82,8l-5.17,5.22a18.38,18.38,0,0,0-4,5c-1,2.11-1.23,4.85.66,6.55,1.67,1.5,4.59,1.55,6.7,1.38,4.72-.4,8.29-2.81,12.05-5.44,4.17-2.9,8.78-4.61,13.55-6.24a3,3,0,0,0,.57-.27,52.19,52.19,0,0,0,11.39,5.41,51.55,51.55,0,0,0,15.66,2.6,37.37,37.37,0,0,0,4.72,13.61c2.57,4.65,5.5,8.87,10.63,10.87,3.86,1.5,10.53,2.32,12.87-2.13,1.27-2.43.46-5.24-1.19-7.26-1.52-1.84-3.82-2.75-5.44-4.47-3.72-3.92-3.06-10.08-2.49-15.07a19.81,19.81,0,0,0,6.72-5.88,16.32,16.32,0,0,0,2.61-9.62c0-3.76-.06-7.51,0-11.27a39.69,39.69,0,0,0-1.56-11.36,17.34,17.34,0,0,1-1.06-6,12.77,12.77,0,0,1,1.73-4.92c1-1.95,2-3.89,2.9-5.88,6.06,4.81,8.07,13.15,9.92,20.32,2,7.71,4.51,17.29,12,21.35-3.17,3.25-8.26,5-9.47,9.73a5.41,5.41,0,0,0,3.76,6.72c2.42.55,4.22-.56,6-1.75,0,0,0,0,0,.06a16.71,16.71,0,0,0,.78,2.85,20.22,20.22,0,0,0,3.3,5.73c2.62,3.24,7.25,6.64,11.65,5.8,4.14-.79,7.36-5.18,8.92-8.82A20.74,20.74,0,0,0,391.49,496.39Zm-21.55-207a3.93,3.93,0,0,1,2.56,0c1,.44,1.42,1.58,1.86,2.63a21.64,21.64,0,0,1,1.27,3.87,5.77,5.77,0,0,1-1.7,6,12.31,12.31,0,0,1-3.93,2.05,44.27,44.27,0,0,0-2.13-9.73c-.38-1.11-.82-2.18-1.28-3.24A14.09,14.09,0,0,1,369.94,289.35ZM239.68,317.3a47.35,47.35,0,0,1,19-17.88c1.84-.94,1.5-4.16-.6-4.57a59.34,59.34,0,0,0-15.44-.91c6.16-5.43,14.9-7.81,22.65-9.81a2.52,2.52,0,0,0,1.5-3.67,52.06,52.06,0,0,0-4.75-5.79c9.8.57,19.22,7.42,22.24,16.82a2.51,2.51,0,0,0,.88,1.27q-3.4,3-6.59,6.17a124.18,124.18,0,0,0-12.1,14.29C257.27,311.19,248.23,313.79,239.68,317.3Zm-2.44,38.89Zm6.27,10.92-.68.12-.46.07-.12,0-.5.05c-.31,0-.63.06-.94.07-.51,0-1,0-1.53,0l-.54,0c.12,0-.45-.08-.58-.11a5.79,5.79,0,0,1-.63-.17l-.28-.1h0c-.19-.11-.37-.2-.55-.32l-.15-.09s-.11-.11-.18-.18l-.31-.35-.1-.17-.2-.37s-.12-.38-.14-.46-.06-.25-.09-.37l-.06-.36a16.63,16.63,0,0,1,.11-3.38c0-.31.07-.63.11-.94v0l.06-.39a13.53,13.53,0,0,1,.45-1.88l0-.12c.06-.14.13-.28.2-.41l.27-.42c.13-.15.27-.29.41-.44l.09-.08c.11-.09.23-.16.35-.24a5.91,5.91,0,0,1,2.31-.73,12.75,12.75,0,0,1,6.4,1.73c-.55,2.3-1.06,4.61-1.47,6.93-.19,1-.34,2.09-.5,3.14A3.4,3.4,0,0,0,243.51,367.11Zm82.36.16A78.13,78.13,0,0,1,321,393.39a1.88,1.88,0,0,0-.1.85c-.08.13-.17.26-.24.39-.62,1.1-.94,2.4-1.67,3.44-1.13,1.6-3.82.45-5.24-.11l-1.2-.5a38.45,38.45,0,0,0,4.27-22.52c0-.11,0-.22-.06-.33l2.12-1.68C321.22,371.07,323.55,369.17,325.87,367.27Zm-18.18,28.37a2.2,2.2,0,0,0,0-.36A2,2,0,0,1,307.69,395.64Zm-63.2,51a35.82,35.82,0,0,1-5.92,9.93c-1.14,1.29-2.32,2.18-4.12,1.95a17.62,17.62,0,0,1-4.74-1.42c-1.16-.52-2.48-1.28-2.7-2.64-.25-1.59.5-3.41,1.17-4.83a20.35,20.35,0,0,1,6.55-7.93,2.54,2.54,0,0,0-.6-4.57,4.76,4.76,0,0,1-3.36-3.05c-.23-1,.35-2.56,1.47-2.69,1.51-.17,3.56,2.09,4.64,3.09a39,39,0,0,1,4.86,5.48,2.69,2.69,0,0,0,2.67,1.18,12.59,12.59,0,0,0,1.26,4A3.2,3.2,0,0,0,244.49,446.63Zm19.79,57.83a11.85,11.85,0,0,1-4.86,1.4,11.15,11.15,0,0,1-2.58-.13,3.81,3.81,0,0,1,.1-.54,12,12,0,0,1,2.92-3.59l4.31-4.35c1.6-1.61,3.18-3.25,4.81-4.83a13.32,13.32,0,0,1,4.32-3.16,2.83,2.83,0,0,0,1-.63,47.26,47.26,0,0,0,6.84,6.73,60,60,0,0,0-7.84,3.31C270.13,500.34,267.44,502.77,264.28,504.46Zm71.64,20.34c.76.73,1.61,2,.4,2.5-1.43.56-3.31.19-4.76-.18-4.33-1.11-6.65-4.31-8.78-8-2.23-3.85-4.17-8-4.71-12.45a39.89,39.89,0,0,0,8.9-1.92,25.54,25.54,0,0,0,.88,10.72,15.51,15.51,0,0,0,3.29,5.59C332.55,522.54,334.45,523.4,335.92,524.8Zm26.19-46.54c-2-4-3-8.4-4.12-12.68-2.2-8.54-5.09-17.61-12.62-22.88l.12-.31a54.6,54.6,0,0,0,2.23-24,2.6,2.6,0,0,0-2.5-2.5c-1.22,0-2.68,1.16-2.5,2.5a51,51,0,0,1-1.13,19.5,49,49,0,0,1-3.29,9c-1.47,3.05-3.54,6-4.2,9.36s.29,6.85,1.25,10.23a36.16,36.16,0,0,1,1.11,10.58c-.06,3.43.1,6.85.06,10.28a10.83,10.83,0,0,1-2.63,7.5c-3.55,3.89-9,5.56-14,6.42a42.26,42.26,0,0,1-15.25-.3,45.62,45.62,0,0,1-26.48-15.69,21.18,21.18,0,0,1-4.31-7.46,6,6,0,0,1-.14-3.3c.42-1.34,1.72-1.89,3-2.47l2.49-1.15a17.55,17.55,0,0,0,4.36,7.61,31.42,31.42,0,0,0,8.06,6.35c6.72,3.78,14.34,5.33,21.83,6.8a2.58,2.58,0,0,0,3.08-1.75,2.53,2.53,0,0,0-1.75-3.07c-6.65-1.3-13.52-2.57-19.59-5.73a28.7,28.7,0,0,1-7-5c-1.86-1.83-4.21-4.44-4.21-7.19,0-.08,0-.14,0-.21l15.7-7.22a2.48,2.48,0,0,0,1.07-3,2.36,2.36,0,0,0,.06-2.49c-1.59-2.87-3.2-5.74-4.76-8.63a14.14,14.14,0,0,1-1.52-3.74,13.61,13.61,0,0,1,0-4.32c.76-6.24,2.45-12.42,4-18.51.77-3.12-4.05-4.46-4.82-1.33a170.26,170.26,0,0,0-3.92,18,37.26,37.26,0,0,1-18.18,10.32c-5.93,1.41-13.69,1.89-18.86-2s-3.62-11.19.24-15.57c5-5.63,12.79-7.73,19.3-10.95a70.59,70.59,0,0,0,19.75-14.64c4,3.41,9.83,5.61,11.37,11,.87,3.1,5.69,1.78,4.82-1.32-1.66-5.87-6.82-9.05-11.47-12.41-.82-.59-2.15-1.33-2.56-2.29-.48-1.11-.25-2.79-.17-4a20.92,20.92,0,0,1,2.35-8.2,1.45,1.45,0,0,0,.11-.26,56.54,56.54,0,0,0,5.37-2.49A87.38,87.38,0,0,0,312,378.17,33.9,33.9,0,0,1,308,395.35a2.45,2.45,0,0,0-.25-.19,2.49,2.49,0,0,0-1.79-2.59,2.52,2.52,0,0,0-3.08,1.74c-.77,4,2.88,5.61,5.92,6.93s6.35,3,9.83,2.48a6.44,6.44,0,0,0,4.07-2.31c1-1.28,1.48-2.84,2.27-4.25a11.89,11.89,0,0,1,6-5.25,2.57,2.57,0,0,0,1.75-3.07,2.53,2.53,0,0,0-3.08-1.75c-.56.22-1.1.46-1.64.72q1-3.66,1.64-7.4c6.2-.43,14.31-.34,16,7.07a8.31,8.31,0,0,1-3.05,8.16,15.63,15.63,0,0,1-4.83,2.09,18.12,18.12,0,0,0-4.91,2.52,18.74,18.74,0,0,0-6.94,10c-.88,3.1,3.94,4.42,4.82,1.33a13.43,13.43,0,0,1,6.17-8c1.88-1.09,4-1.49,6-2.35a12.94,12.94,0,0,0,4.64-3.45,13.88,13.88,0,0,0,2.57-4.64c9.52,3,11.45,14.7,12.8,23.15a2.5,2.5,0,0,0,2.41,1.84l4.95-.41q3.92,13.07,7.24,26.31,1.78,7.13,3.38,14.29c1,4.41,2.33,9,2.62,13.51a10.75,10.75,0,0,1-.86,5.71,12.79,12.79,0,0,1-3.72,4c-2.67,2.05-6,4.91-9.58,3.87C366,484.45,363.6,481.22,362.11,478.26Zm3.33,24.2c-.05,0,0,0,0,0ZM385.62,508c-1,1.95-2.54,4.33-4.62,5.24-1.92.84-4.5-1.18-5.85-2.4a14.08,14.08,0,0,1-3.92-5.75c-.81-2.32-.65-5.28-3-6.76-1.66-1.05-3.16,0-4.54.94-.71.5-1.87,1.62-2.85,1.46a.75.75,0,0,1-.11-.36,2.46,2.46,0,0,1,.61-1.33,15.59,15.59,0,0,1,3.1-2.75,26.86,26.86,0,0,0,6.18-5.65c3.08,0,6-1.36,8.64-3.21l.57-.41a3.71,3.71,0,0,0,.27.29c3.86,3.43,6.77,8.18,7,13.45A15.21,15.21,0,0,1,385.62,508Z" transform="translate(-209.61 -244.52)"/><path class="cls-2" d="M252.75,525.58c-1.71-1.93-4.08-4-6.82-3.54-2.56.39-4.2,2.65-5,4.93a8.69,8.69,0,0,0-.32,1.22,6.25,6.25,0,0,0-.24-.6,6.09,6.09,0,0,0-5.57-3.73,7.17,7.17,0,0,0-6,3.62,10.56,10.56,0,0,0-.57,7.94c.85,3.1,5.67,1.78,4.82-1.33-.37-1.36-.67-3.17.25-4.4a2.56,2.56,0,0,1,1-.71,1.21,1.21,0,0,1,1,0,2.14,2.14,0,0,1,.73,1c.12.27.39,1.13.56,1.62a8.66,8.66,0,0,0,2.53,4.25,2.59,2.59,0,0,0,3.54,0,8.82,8.82,0,0,0,2.47-4.82,19.29,19.29,0,0,1,.6-2.58,6.74,6.74,0,0,1,.83-1.35c0-.08.17-.11.19-.13.24,0,.34.14.6.33a12.59,12.59,0,0,1,1.81,1.69,12.39,12.39,0,0,1,2.51,4.35c1,3,5.84,1.73,4.82-1.33A18.55,18.55,0,0,0,252.75,525.58Z" transform="translate(-209.61 -244.52)"/><path class="cls-2" d="M279.51,532.49a2.52,2.52,0,0,0-3.42-.89c-3,2-6.09,4.3-9.69,5a4,4,0,0,1,.51-1.31,13.43,13.43,0,0,1,3.7-3.34,2.6,2.6,0,0,0,1.15-2.83,2.5,2.5,0,0,0-2.41-1.83,18.86,18.86,0,0,1-3.36.12,4.18,4.18,0,0,1-1.91-.63,1.73,1.73,0,0,1-.59-.72c-.09-.18-.11-.16-.12-.35,0,.12,0-.21,0-.21s.23-.32.14-.21a3.44,3.44,0,0,1,.88-.69c3.25-2,7.54-4.58,11.54-3.8a2.55,2.55,0,0,0,3.07-1.74,2.52,2.52,0,0,0-1.74-3.08,16.37,16.37,0,0,0-9.72,1.33,40.81,40.81,0,0,0-4,2,13.39,13.39,0,0,0-3.64,2.54,5.93,5.93,0,0,0,.43,8.25,7.19,7.19,0,0,0,2.89,1.75,9.53,9.53,0,0,0-1,1.51c-1.26,2.46-2,7,1.4,8.14a8.1,8.1,0,0,0,4.2-.12,20,20,0,0,0,4-1.37,42.55,42.55,0,0,0,6.81-4.12A2.56,2.56,0,0,0,279.51,532.49Z" transform="translate(-209.61 -244.52)"/></svg>