<svg id="Layer_1" data-name="Layer 1" xmlns="http://www.w3.org/2000/svg" viewBox="0 0 546.48 772.79"><defs><style>.cls-1{fill:#9176b5;}.cls-2{fill:#72d0f6;}</style></defs><title>team</title><path class="cls-1" d="M542.41,772.79,546.48,0,0,546.48C149.87,696.35,346,771.76,542.41,772.79Z"/><path class="cls-2" d="M232.77,491.68Q243,505,252.09,519.05a11.6,11.6,0,0,0,6.59,5.07,11.26,11.26,0,0,0,8.5-1.11,11,11,0,0,0,4-15.1,434.21,434.21,0,0,0-48.22-61.55q-7.33-7.78-15.06-15.2a11.11,11.11,0,0,0-12.05-2.28,10.57,10.57,0,0,0-4.42,3.4c-1.37,1.78-2.59,4.35-2.36,6.68l4.29,43.3c1,10.45,2.15,20.89,3.16,31.33-1.22-1.34-2.46-2.67-3.72-4a172.32,172.32,0,0,0-33.27-26.78,158.73,158.73,0,0,0-20.24-10.56,11.09,11.09,0,0,0-11.14,0c-3.15,1.85-5.76,5.74-5.46,9.53q3.57,45.48,7.16,90.95l2,25.67a11.82,11.82,0,0,0,3.24,7.8,11,11,0,0,0,15.59,0c1.89-2.06,3.46-4.91,3.24-7.8q-3.58-45.48-7.16-90.95l-.54-6.88a161.38,161.38,0,0,1,14.63,9.86,161.62,161.62,0,0,1,26.86,26.84,157.44,157.44,0,0,1,11.62,17.64c2.3,4.08,7.89,6.55,12.45,5.07a13.08,13.08,0,0,0,4.87-2.84c2.24-2,2.93-4.93,3.23-7.8,1.49-14.25-.65-28.68-2.06-42.86l-3.69-37.16q5.68,6.33,11.11,12.88C227.78,485.34,230.29,488.5,232.77,491.68Z"/><path class="cls-2" d="M349.19,526.76a181.16,181.16,0,0,0-2.67-25.54c-2.57-15.53-6.68-30.76-9.22-46.3-.24-1.51-.46-3-.67-4.52a126.69,126.69,0,0,1-.9-23c.12-1.37.24-2.75.33-4.12a11,11,0,0,0-18.83-7.8l-1.72,2.23a11,11,0,0,0-1.51,5.57c-.21,3.18-.53,6.34-.92,9.51a165.69,165.69,0,0,1-10.84,39.46c-1.64,3.76-3.4,7.46-5.32,11.08-.89,1.69-1.79,3.4-2.73,5.09L294,488c-1.17-2.34-2.27-4.72-3.31-7.12a144.91,144.91,0,0,1-9.3-33.9c-.38-3.09-.68-6.2-.86-9.31a11.71,11.71,0,0,0-3.24-7.8,11.23,11.23,0,0,0-7.8-3.23,11.11,11.11,0,0,0-7.79,3.23,11,11,0,0,0-3.24,7.8,157.2,157.2,0,0,0,6.3,36.08,168.94,168.94,0,0,0,6.77,18.05q1.65,3.83,3.53,7.54a51,51,0,0,0,3.87,6.88c2.73,3.83,6.24,7.31,11,8.38,5.81,1.3,11.08-.46,15.51-4.26a30.45,30.45,0,0,0,5.86-7.6q2.11-3.49,4.06-7.09c1.93-3.59,3.74-7.27,5.43-11,.69,3.18,1.37,6.35,2,9.5,1.21,5.86,2.31,11.75,3.16,17.67a143.85,143.85,0,0,1,.11,35.43A142.45,142.45,0,0,1,317,580.38a123,123,0,0,1-14.14,24.77,72.22,72.22,0,0,1-10.31,10.52,53,53,0,0,1-9.35,5.54,47.57,47.57,0,0,1-9,2.49,41.17,41.17,0,0,1-7.28,0c-1.17-.21-2.33-.46-3.48-.78a11.36,11.36,0,0,0-8.5,1.11,11,11,0,0,0,2.64,20.16c16.09,4.52,33.94-.14,47-10.16a80.51,80.51,0,0,0,9.72-8.54,105.6,105.6,0,0,0,8.22-10,120.78,120.78,0,0,0,11.09-18.68,150.13,150.13,0,0,0,13.93-45.09A155.17,155.17,0,0,0,349.19,526.76Z"/><path class="cls-2" d="M313.71,390.93a21.49,21.49,0,0,0,11.66,2.29,50.56,50.56,0,0,0,9.93-1.62,84.51,84.51,0,0,0,16.61-7c4.86-2.56,9.64-5.3,14.67-7.54a44.42,44.42,0,0,1,7.65-2.33c.46,0,.92,0,1.38,0a25.59,25.59,0,0,1,.62,2.62,37.32,37.32,0,0,1,0,7.09,39.81,39.81,0,0,1-2,7.28,41,41,0,0,1-3.63,6.21,38,38,0,0,1-4.62,4.61l-.09.06a11.82,11.82,0,0,0-5.07,6.6,11.24,11.24,0,0,0,1.11,8.49,11.12,11.12,0,0,0,6.59,5.07c2.76.63,6.1.58,8.5-1.11a48.32,48.32,0,0,0,16.13-18.47A50.2,50.2,0,0,0,398.44,379a40.68,40.68,0,0,0-2.91-13.85,19.79,19.79,0,0,0-13.73-11.8c-9.46-2.13-18.74,1.16-27.25,5.06-6.92,3.17-13.38,7.25-20.32,10.34-1.17.46-2.35.87-3.55,1.24.48-1.44.95-2.88,1.43-4.32l4.8-14.52a11,11,0,0,0-21.27-5.87q-3.18,9.61-6.35,19.21a82,82,0,0,0-2.93,9.21,16.53,16.53,0,0,0,1.4,11.41A15.1,15.1,0,0,0,313.71,390.93Z"/><path class="cls-2" d="M349.57,290.49q7.38,6.17,14.53,12.58-2.07,2.93-4,5.94a144.32,144.32,0,0,0-7.4,13,11.7,11.7,0,0,0-1.11,8.5,11,11,0,0,0,13.56,7.71,11.11,11.11,0,0,0,6.6-5.07,146.09,146.09,0,0,1,8.63-14.83q10,9.74,19.5,20,6.66,7.19,13.05,14.63c1.76,2,5.19,3.23,7.8,3.23a11.25,11.25,0,0,0,7.8-3.23,11.13,11.13,0,0,0,3.23-7.8,12.3,12.3,0,0,0-3.23-7.8q-16.31-18.94-34.3-36.32a146.51,146.51,0,0,1,15.62-14.25l.84-.63c2.39-1.78,4.25-3.61,5.07-6.59a11.26,11.26,0,0,0-1.11-8.5,11.12,11.12,0,0,0-6.59-5.07c-2.71-.62-6.17-.62-8.5,1.11A160.15,160.15,0,0,0,378,286c-4.24-3.76-8.51-7.47-12.86-11.1a11.83,11.83,0,0,0-7.8-3.23,11,11,0,0,0-11,11C346.46,285.46,347.35,288.64,349.57,290.49Z"/><path class="cls-2" d="M428.57,275q1.29,1.62,2.55,3.24a301.32,301.32,0,0,1,24,36.55,11,11,0,1,0,19.05-11.13,318.22,318.22,0,0,0-30-44.26c-1.66-2.06-5.28-3.23-7.8-3.23a11.25,11.25,0,0,0-7.8,3.23,11.13,11.13,0,0,0-3.23,7.8l.39,2.94A11,11,0,0,0,428.57,275Z"/><path class="cls-2" d="M380.85,240.39a11.38,11.38,0,0,0,7.8-3.23,11.17,11.17,0,0,0,3.23-7.8c-.26-6-4.84-11-11-11a11.4,11.4,0,0,0-7.8,3.23,11.23,11.23,0,0,0-3.23,7.8C370.09,235.33,374.67,240.39,380.85,240.39Z"/><path class="cls-2" d="M450.84,215.35a31.07,31.07,0,0,0,11.33,3.11c6.54.66,13.54-1.51,19-5.1,6.2-4.1,10.92-9.51,15.45-15.31a8.36,8.36,0,0,0,2.28-3.55,8.27,8.27,0,0,0,.95-4.25,11.24,11.24,0,0,0-3.23-7.8,11.1,11.1,0,0,0-7.8-3.23c-2.71.12-6.05,1-7.8,3.23a73.72,73.72,0,0,1-10.3,11.38,29.2,29.2,0,0,1-3.49,2.08,8,8,0,0,1-4.16.54c-.5-.11-1-.24-1.48-.39l-.76-.44-.07-.07-.07-.1c-.12-.41-.22-.82-.31-1.23a66,66,0,0,1,.52-13.24,100.89,100.89,0,0,1,2.54-12.18,11.41,11.41,0,0,0-1.11-8.5,11.24,11.24,0,0,0-6.59-5.07c-5.83-1.33-11.93,1.75-13.57,7.7a112.68,112.68,0,0,0-3.72,22.57c-.48,7.41-.59,15.83,3.89,22.16A23.36,23.36,0,0,0,450.84,215.35Z"/><path class="cls-2" d="M448.81,490.74l.51-.2,1.2-.44c.8-.28,1.62-.54,2.44-.76s1.52-.39,2.29-.55l1.25-.23.54-.08h0l.26,0a31.82,31.82,0,0,1,4.88-.19c.79,0,1.58.11,2.36.19h.15l.72.12c.43.07.85.15,1.27.24a2.21,2.21,0,1,0,1.18-4.25c-12.76-2.7-25.68,2.61-34.82,11.47A49.06,49.06,0,0,0,422,512.64a67.27,67.27,0,0,0-4.69,21,110.91,110.91,0,0,0,1.27,24.62,2.14,2.14,0,0,0,1.54,1.54,2.27,2.27,0,0,0,2.15-.57l.45-.37.27-.2.84-.62c.63-.45,1.28-.87,1.94-1.28,1.27-.77,2.58-1.47,3.91-2.12l.41-.19a2.09,2.09,0,0,0,2.43-.41,2.6,2.6,0,0,0,.5-.89l.42-.17c1.46-.59,2.94-1.14,4.41-1.69,5.82-2.12,11.79-4.11,17.09-7.37a40.52,40.52,0,0,0,12.62-12.48,63.13,63.13,0,0,0,7.18-15.88A136,136,0,0,0,479,496.3a2.26,2.26,0,0,0-1.54-2.71,2.22,2.22,0,0,0-2.71,1.54,146,146,0,0,1-3.59,17.08,79.33,79.33,0,0,1-2.76,8.13l-.21.51,0,.09,0,.07c-.13.28-.25.56-.37.84-.31.7-.64,1.39-1,2.07-.63,1.28-1.3,2.53-2,3.75s-1.47,2.34-2.29,3.45c-.14.2-.28.39-.43.58l-.2.26-.34.42c-.45.55-.92,1.09-1.4,1.62a36.83,36.83,0,0,1-3,2.9c-.48.42-1,.83-1.47,1.22l-.21.16-.44.32c-.31.23-.63.45-1,.66a49.88,49.88,0,0,1-8,4.25h0l-.06,0-.55.23-1.09.44c-.74.29-1.47.57-2.21.84-1.42.53-2.84,1.05-4.27,1.56-2.38.87-4.76,1.76-7.09,2.76L423,542.9a2.69,2.69,0,0,0-1.44-.61q-.06-2.92,0-5.85c.07-1.73.19-3.45.37-5.17,0-.43.09-.86.14-1.29,0-.18.05-.36.07-.53s0-.14,0-.21c.12-.91.26-1.81.42-2.71a63,63,0,0,1,2.59-9.93c.29-.8.59-1.6.91-2.39s.47-1.12.89-2a46.83,46.83,0,0,1,2.25-4.26,43.82,43.82,0,0,1,2.49-3.72l.22-.3.23-.3.71-.87c.48-.58,1-1.14,1.48-1.7,1-1.1,2.09-2.16,3.21-3.16.56-.5,1.13-1,1.72-1.46l.44-.35.07-.05.07-.06,1-.72a42.17,42.17,0,0,1,7.73-4.39Zm-22.48,60.7c-1.35.71-2.66,1.47-3.94,2.31-.07-.56-.14-1.11-.2-1.67-.16-1.48-.29-3-.4-4.44Q424.06,549.54,426.33,551.44Z"/><path class="cls-2" d="M442.06,514.7Q437,524.33,431.91,534a2.21,2.21,0,1,0,3.81,2.23q5.07-9.65,10.15-19.29a2.2,2.2,0,1,0-3.81-2.22Z"/><path class="cls-2" d="M422.6,586.55c-.23,0-.11,0,0,0Z"/><path class="cls-2" d="M509.9,598a100.59,100.59,0,0,1-27.68-17.1c-1.54-1.35-3-2.75-4.48-4.18,0-1.31.05-2.62.07-3.93q.12-13-.12-25.92-.12-7.29-.38-14.57a2.21,2.21,0,1,0-4.41,0q.44,12.88.52,25.79c0,5.21,0,10.43-.05,15.64a2.26,2.26,0,0,0-1.13,3.72l1.06,1.07c0,1.83,0,3.66-.08,5.49q-.17,7.28-.43,14.57a2.21,2.21,0,0,0,2.2,2.2,2.25,2.25,0,0,0,2.21-2.2c.2-5.29.33-10.59.44-15.89A104.64,104.64,0,0,0,499.59,598c2.22,1.16,4.49,2.23,6.79,3.23a245,245,0,0,0-15,41.61c-.16.61-.29,1.23-.45,1.84-1.15-6.44-2.55-12.85-4.2-19.19a2.24,2.24,0,0,0-4-.52,51.91,51.91,0,0,0-6.63,15.7,7.24,7.24,0,0,1-.91-2.66c.07.39,0-.3,0-.44,0-.44-.09-.87-.16-1.31a9.55,9.55,0,0,0-.47-1.82,9.17,9.17,0,0,0-2.21-3.61,4.52,4.52,0,0,0-4.11-1.24,5.72,5.72,0,0,0-3.46,3.18q-2,3.66-4.29,7.2-2.44,3.79-5.13,7.39l-6.82-6.94a2.22,2.22,0,0,0-3.12,0,2.26,2.26,0,0,0,0,3.12l7.21,7.34A132,132,0,0,1,439,665.44c-.71.65-1.43,1.29-2.15,1.92-.68-2.27-1.4-4.52-2.16-6.77-1.8-5.34-3.83-10.6-6-15.79a2.21,2.21,0,0,0-3-.79,2.29,2.29,0,0,0-.79,3c.06.14.13.28.19.43,0-.09-.13-.3.05.12l.36.87c.24.58.48,1.16.71,1.74.47,1.16.93,2.33,1.38,3.5.9,2.34,1.75,4.7,2.57,7.07q1.65,4.83,3.07,9.74a128.67,128.67,0,0,1-21.23,14.17,117.14,117.14,0,0,1-14.88,6.68,115.23,115.23,0,0,1-15.88,4.58,101.61,101.61,0,0,1-28.92,1.88A115.81,115.81,0,0,0,379,679.36a117.59,117.59,0,0,0,24.5-31.91,112.23,112.23,0,0,0,8.47-21.1,2.2,2.2,0,0,0-.66-2.21,12.88,12.88,0,0,0-1-8.24,2.23,2.23,0,0,0-3-.79q-3.24,2.13-6.26,4.56a38.21,38.21,0,0,0,.2-11.84,2.21,2.21,0,0,0-2.71-1.54,36.89,36.89,0,0,0-13.22,8.37l3.09-10.48q1.77-6,3.53-12l1.77-6c.12-.41.23-.81.36-1.21.06-.18.13-.35.19-.53h0a2.4,2.4,0,0,1,.11-.23c.08-.16.17-.31.27-.47l0,0,.08-.07.06-.05.05,0,0,0,.16-.06h.06c-.07,0-.11.05,0,0h.13l.44.11.16.06.05,0a8.71,8.71,0,0,1,1,.58c.17.11.32.22.48.34l.09.06.17.14a39.23,39.23,0,0,0,4,3.15,23,23,0,0,0,9.06,3.13c6.76.92,13.53-.24,20.16-1.54l24.57-4.79,2.52-.49c-.19,1-.39,1.92-.62,2.87a60.92,60.92,0,0,1-1.77,6c-.16.45-.33.89-.5,1.34l-.3.75-.15.38,0,.06c-.4,1-.84,1.9-1.3,2.82a44.75,44.75,0,0,1-3.51,5.88l-.53.74-.32.42c-.33.42-.67.85-1,1.26-.76.9-1.56,1.76-2.4,2.59a2.21,2.21,0,1,0,3.12,3.12c6.15-6.08,10.2-14,12.49-22.27,2.55-9.27,2.87-19,2.3-28.53-.35-5.77-1-11.51-1.69-17.25a2.26,2.26,0,0,0-2.2-2.21c-1.08,0-2.35,1-2.21,2.21,1.16,10,2.33,20,1.8,30.07q-.09,1.85-.27,3.69c-.05.55-.11,1.09-.17,1.63l0,.19a2.5,2.5,0,0,0-1.31-.08l-24.95,4.87c-1.86.36-3.72.73-5.59,1.07-.8.15-1.6.28-2.4.41l-1.16.18-.58.08h0l-.39.05a45.41,45.41,0,0,1-9.75.32l-.65-.07-.27,0q-.54-.07-1.08-.18c-.76-.14-1.51-.31-2.24-.52l-1.14-.36-.51-.19-.35-.13a20.31,20.31,0,0,1-1.92-1c-.34-.2-.68-.42-1-.64-.16-.1-.31-.21-.46-.32l-.21-.16h0c-.61-.52-1.21-1-1.83-1.55a10.14,10.14,0,0,0-5-2.62,5.2,5.2,0,0,0-5.18,2.72,26.59,26.59,0,0,0-1.89,5.58l-3.6,12.2q-3.62,12.21-7.21,24.41l-.88,3a2.22,2.22,0,0,0,1.54,2.71,2.27,2.27,0,0,0,2.71-1.54,1.86,1.86,0,0,0,.1-.25h0l.27-.6c.2-.43.4-.85.62-1.27q.6-1.19,1.29-2.31c.48-.77,1-1.53,1.53-2.27l.37-.49c.07-.08.13-.17.2-.26.28-.34.56-.68.85-1a34.49,34.49,0,0,1,3.9-3.84c.31-.27.63-.52.95-.77l.23-.18.61-.44c.74-.53,1.51-1,2.29-1.5s1.75-1,2.66-1.43h0c0,.52.05,1,.05,1.56,0,.72,0,1.43-.07,2.15,0,.38-.05.75-.09,1.13l-.06.56s0,.26,0,.37-.06.4-.06.39c0,.15,0,.3-.07.45-.06.37-.13.75-.2,1.12-.15.74-.32,1.47-.51,2.2a36.17,36.17,0,0,1-1.47,4.29,2.21,2.21,0,0,0,1,2.49,2.27,2.27,0,0,0,2.67-.35q2.63-2.58,5.49-4.91c1-.8,1.52-1.21,2.6-2,.24-.17.48-.32.71-.49a.28.28,0,0,0,0,.09,14.59,14.59,0,0,1,0,1.62c0,.12,0,.19,0,.2a2.33,2.33,0,0,1-.05.28,8.52,8.52,0,0,1-.2.84,2.34,2.34,0,0,0,.62,2.19,109.86,109.86,0,0,1-17,34.09,115.39,115.39,0,0,1-12.8,14.59,109.57,109.57,0,0,1-15,12.14q-4.54,3.07-9.38,5.69-2.38,1.29-4.84,2.46c-1.62.77-3.45,1.58-4.89,2.18a2.29,2.29,0,0,0-1.61,2.12,2.2,2.2,0,0,0,1.61,2.13,105.09,105.09,0,0,0,37-.66,120.6,120.6,0,0,0,34.56-12.63,132.77,132.77,0,0,0,19.2-12.76q1.89,7.17,3.28,14.47c.45,2.35.76,4.74,1.24,7.09a5.93,5.93,0,0,0,1.68,3.27,6.88,6.88,0,0,0,3.42,1.53c5.78,1,11.58,2,17.37,3a2.27,2.27,0,0,0,2.71-1.55,2.22,2.22,0,0,0-1.54-2.71l-15.26-2.61A31.58,31.58,0,0,1,444,697l0,0-.27-.15h0l0,0a1.52,1.52,0,0,0-.22-.38v0c-.06-.18-.11-.36-.16-.55-.24-1-.36-2.13-.54-3.2-.21-1.23-.43-2.47-.66-3.7q-1.6-8.49-3.89-16.84c2.43-2.08,4.8-4.24,7.08-6.49a135.4,135.4,0,0,0,10.42-11.51L468,666.54c1.85,1.89,3.71,3.79,5.57,5.67a20.53,20.53,0,0,0,5.43,4.35,11.22,11.22,0,0,0,6.19,1.11,20.86,20.86,0,0,0,5.73-1.58c1.11-.47,2.21-1,3.31-1.46l1.48-.65.2-.08.19-.08c.25-.1.49-.2.75-.29a18.63,18.63,0,0,1,3-.91l.59-.11.52-.06a12.66,12.66,0,0,1,1.63,0,2.22,2.22,0,0,0,2.21-2.2,2.26,2.26,0,0,0-2.21-2.21c-4-.28-7.77,1.51-11.34,3.12l-1.31.58-.32.14,0,0-.17.07-.41.16a21.59,21.59,0,0,1-2.61.87c-.4.11-.81.19-1.22.26l-.09,0H485l-.74.05a11.63,11.63,0,0,1-1.18,0l-.28,0c-.25,0-.5-.11-.74-.18s-.43-.13-.64-.21h0l-.37-.18a11.07,11.07,0,0,1-1.39-.86,2.2,2.2,0,0,1-.25-.17l-.13-.11-.63-.54c-.42-.37-.82-.76-1.22-1.15-1.8-1.78-3.56-3.62-5.34-5.43l-11.11-11.31-2.5-2.54A129.72,129.72,0,0,0,468,636a17.68,17.68,0,0,1,1.11-1.94l.05-.07.35.35a1.5,1.5,0,0,1,.14.19l.28.45.2.39c0,.06.06.1.07.13s0,.09.06.16q.17.47.3,1c0,.17.07.35.12.53s0,.16,0,.21a21.86,21.86,0,0,0,.29,2.28,10.35,10.35,0,0,0,1.67,3.92,5,5,0,0,0,3.92,2.36,4.54,4.54,0,0,0,2.27-.61c1.14-.68,1.16-2.16,1.44-3.32a46.65,46.65,0,0,1,3.52-9.94,238.72,238.72,0,0,1,4.53,24.32,2.24,2.24,0,0,0,1.91,2.17,2.19,2.19,0,0,0,2.42-1.58,243,243,0,0,1,13.4-44.14c1.6-3.9,3.33-7.76,5.14-11.57A2.25,2.25,0,0,0,509.9,598Zm-114-14.32Zm-.52-.16h0Zm48.54,113.4-.05,0s0,0,0,0h0l-.12-.1.12.1Zm39.22-23.61h0Zm-.06,0h0C482.65,673.26,482.92,673.27,483.05,673.29Zm-1.69-.45c-.33-.12-.08,0,0,0Zm-12.38-39,0,0h0Zm.31,0,.11,0Z"/><path class="cls-2" d="M443.83,696.89h0Z"/></svg>